%TF.GenerationSoftware,KiCad,Pcbnew,9.0.9-9.0.9~ubuntu24.04.1*%
%TF.CreationDate,2026-07-09T08:35:24+03:00*%
%TF.ProjectId,sounddecoder-esp32-s3-wroom-2-mini,736f756e-6464-4656-936f-6465722d6573,rev?*%
%TF.SameCoordinates,Original*%
%TF.FileFunction,Copper,L2,Inr*%
%TF.FilePolarity,Positive*%
%FSLAX46Y46*%
G04 Gerber Fmt 4.6, Leading zero omitted, Abs format (unit mm)*
G04 Created by KiCad (PCBNEW 9.0.9-9.0.9~ubuntu24.04.1) date 2026-07-09 08:35:24*
%MOMM*%
%LPD*%
G01*
G04 APERTURE LIST*
G04 Aperture macros list*
%AMRoundRect*
0 Rectangle with rounded corners*
0 $1 Rounding radius*
0 $2 $3 $4 $5 $6 $7 $8 $9 X,Y pos of 4 corners*
0 Add a 4 corners polygon primitive as box body*
4,1,4,$2,$3,$4,$5,$6,$7,$8,$9,$2,$3,0*
0 Add four circle primitives for the rounded corners*
1,1,$1+$1,$2,$3*
1,1,$1+$1,$4,$5*
1,1,$1+$1,$6,$7*
1,1,$1+$1,$8,$9*
0 Add four rect primitives between the rounded corners*
20,1,$1+$1,$2,$3,$4,$5,0*
20,1,$1+$1,$4,$5,$6,$7,0*
20,1,$1+$1,$6,$7,$8,$9,0*
20,1,$1+$1,$8,$9,$2,$3,0*%
G04 Aperture macros list end*
%TA.AperFunction,ComponentPad*%
%ADD10R,1.700000X1.700000*%
%TD*%
%TA.AperFunction,ComponentPad*%
%ADD11C,1.700000*%
%TD*%
%TA.AperFunction,HeatsinkPad*%
%ADD12C,0.600000*%
%TD*%
%TA.AperFunction,ComponentPad*%
%ADD13RoundRect,0.250000X0.750000X-0.750000X0.750000X0.750000X-0.750000X0.750000X-0.750000X-0.750000X0*%
%TD*%
%TA.AperFunction,ComponentPad*%
%ADD14C,2.000000*%
%TD*%
%TA.AperFunction,ComponentPad*%
%ADD15R,0.850000X0.850000*%
%TD*%
%TA.AperFunction,ComponentPad*%
%ADD16C,0.850000*%
%TD*%
%TA.AperFunction,ComponentPad*%
%ADD17C,0.700000*%
%TD*%
%TA.AperFunction,ViaPad*%
%ADD18C,0.600000*%
%TD*%
%TA.AperFunction,ViaPad*%
%ADD19C,0.800000*%
%TD*%
%TA.AperFunction,ViaPad*%
%ADD20C,1.000000*%
%TD*%
G04 APERTURE END LIST*
D10*
%TO.N,+5V*%
%TO.C,J101*%
X83750000Y-100040000D03*
D11*
%TO.N,/UART-TX*%
X83750000Y-97500000D03*
%TO.N,/UART-RX*%
X83750000Y-94960000D03*
%TO.N,/IO0*%
X83750000Y-92420000D03*
%TO.N,GND*%
X83750000Y-89880000D03*
%TD*%
%TO.N,Net-(J10-Pin_2)*%
%TO.C,J10*%
X110265000Y-91250000D03*
D10*
%TO.N,+5V*%
X107725000Y-91250000D03*
%TD*%
%TO.N,/Sound1*%
%TO.C,J4*%
X111750000Y-80250000D03*
D11*
%TO.N,/Sound2*%
X111750000Y-77710000D03*
%TD*%
D12*
%TO.N,GND*%
%TO.C,U7*%
X93140000Y-82030000D03*
X93140000Y-83530000D03*
X93890000Y-81280000D03*
X93890000Y-82780000D03*
X93890000Y-84280000D03*
X94640000Y-82030000D03*
X94640000Y-83530000D03*
X95390000Y-81280000D03*
X95390000Y-82780000D03*
X95390000Y-84280000D03*
X96140000Y-82030000D03*
X96140000Y-83530000D03*
%TD*%
D11*
%TO.N,Net-(J11-Pin_2)*%
%TO.C,J11*%
X110250000Y-94000000D03*
D10*
%TO.N,+5V*%
X107710000Y-94000000D03*
%TD*%
D13*
%TO.N,/MOTOR1*%
%TO.C,J3*%
X109500000Y-125500000D03*
D14*
%TO.N,/MOTOR2*%
X109500000Y-122960000D03*
%TD*%
D11*
%TO.N,/FwdLED*%
%TO.C,J8*%
X110265000Y-85750000D03*
D10*
%TO.N,+5V*%
X107725000Y-85750000D03*
%TD*%
D15*
%TO.N,GND*%
%TO.C,J2*%
X112500000Y-84250000D03*
D16*
%TO.N,/SND_GAIN*%
X112500000Y-83250000D03*
%TD*%
D13*
%TO.N,VCC*%
%TO.C,J1*%
X109500000Y-132250000D03*
D14*
%TO.N,GND*%
X109500000Y-129710000D03*
%TD*%
D11*
%TO.N,/BackLED*%
%TO.C,J9*%
X110265000Y-88500000D03*
D10*
%TO.N,+5V*%
X107725000Y-88500000D03*
%TD*%
D17*
%TO.N,GND*%
%TO.C,U4*%
X110295000Y-116550000D03*
X108995000Y-116550000D03*
X107695000Y-116550000D03*
X106395000Y-116550000D03*
X110295000Y-117850000D03*
X108995000Y-117850000D03*
X107695000Y-117850000D03*
X106395000Y-117850000D03*
%TD*%
D18*
%TO.N,/MOTOR_SENSE_1*%
X110000000Y-106750000D03*
%TO.N,/MOTOR_SENSE_2*%
X106251041Y-107001041D03*
%TO.N,/MOTOR_IN1*%
X107750000Y-113250000D03*
%TO.N,+3.3V*%
X104500000Y-109000000D03*
%TO.N,/MOTOR_IN2*%
X107000000Y-112250000D03*
%TO.N,/AUDIO_LRCLK*%
X91750000Y-90750000D03*
%TO.N,/AUDIO_OUT*%
X90801600Y-90000000D03*
%TO.N,/AUDIO_BCLK*%
X90250000Y-90948400D03*
%TO.N,/UART-RX*%
X98000000Y-88250000D03*
%TO.N,/UART-TX*%
X96551600Y-88750000D03*
%TO.N,/IO0*%
X88750000Y-88250000D03*
%TO.N,/AUDIO_BCLK*%
X106750000Y-77153200D03*
%TO.N,/AUDIO_LRCLK*%
X93765041Y-78265041D03*
%TO.N,/SND_GAIN*%
X106000000Y-78500000D03*
%TO.N,/AUDIO_OUT*%
X106168789Y-77627224D03*
%TO.N,+3.3V*%
X108000000Y-81750000D03*
D19*
X101500000Y-100500000D03*
X99250000Y-100500000D03*
%TO.N,GND*%
X110700000Y-111300000D03*
X105150000Y-106900000D03*
D18*
%TO.N,/MOTOR1*%
X112000000Y-111250000D03*
%TO.N,/MOTOR2*%
X106015041Y-113234959D03*
%TO.N,/MOTOR_IN1*%
X94750000Y-93250000D03*
%TO.N,/MOTOR_SENSE_1*%
X95250000Y-90250000D03*
%TO.N,/MOTOR_SENSE_2*%
X93750000Y-91500000D03*
%TO.N,/MOTOR_IN2*%
X93551600Y-93000000D03*
%TO.N,+3.3V*%
X103000000Y-105700000D03*
X83250000Y-85750000D03*
X83250000Y-80000000D03*
%TO.N,GND*%
X84125000Y-83875000D03*
%TO.N,Net-(J11-Pin_2)*%
X110500000Y-101500000D03*
%TO.N,Net-(J10-Pin_2)*%
X110500000Y-100500000D03*
D19*
%TO.N,+5V*%
X85750000Y-111000000D03*
X85750000Y-109000000D03*
X101500000Y-112000000D03*
X99000000Y-112000000D03*
X97250000Y-104000000D03*
D18*
X110750000Y-105750000D03*
%TO.N,GND*%
X87500000Y-98250000D03*
X98750000Y-98250000D03*
X112750000Y-119000000D03*
X112000000Y-119000000D03*
X112750000Y-117750000D03*
X112000000Y-117750000D03*
X102500000Y-117750000D03*
X103500000Y-117750000D03*
X104500000Y-117750000D03*
X102500000Y-116500000D03*
X103500000Y-116500000D03*
X104500000Y-116500000D03*
D20*
X85500000Y-130750000D03*
X83250000Y-128500000D03*
X85500000Y-128500000D03*
X87750000Y-128500000D03*
X90000000Y-128500000D03*
X92000000Y-128500000D03*
X92000000Y-133000000D03*
X90000000Y-133000000D03*
X87750000Y-133000000D03*
X83250000Y-133000000D03*
X92000000Y-130750000D03*
X90000000Y-130750000D03*
X83250000Y-130750000D03*
X85500000Y-133000000D03*
X87750000Y-130750000D03*
%TD*%
%TA.AperFunction,Conductor*%
%TO.N,GND*%
G36*
X105999345Y-76502839D02*
G01*
X106007550Y-76501559D01*
X106032377Y-76512538D01*
X106058418Y-76520185D01*
X106063854Y-76526458D01*
X106071450Y-76529818D01*
X106086401Y-76552479D01*
X106104173Y-76572989D01*
X106105354Y-76581206D01*
X106109928Y-76588138D01*
X106110253Y-76615280D01*
X106114117Y-76642147D01*
X106110684Y-76651105D01*
X106110767Y-76658003D01*
X106096492Y-76690282D01*
X106095507Y-76691855D01*
X106040606Y-76774021D01*
X106033792Y-76790471D01*
X106028300Y-76799247D01*
X105976050Y-76845632D01*
X105947381Y-76855082D01*
X105935294Y-76857486D01*
X105935287Y-76857488D01*
X105789616Y-76917826D01*
X105789603Y-76917833D01*
X105658500Y-77005434D01*
X105658496Y-77005437D01*
X105547002Y-77116931D01*
X105546999Y-77116935D01*
X105459398Y-77248038D01*
X105459391Y-77248051D01*
X105399053Y-77393722D01*
X105399050Y-77393734D01*
X105368289Y-77548377D01*
X105368289Y-77706070D01*
X105399050Y-77860718D01*
X105399054Y-77860728D01*
X105399130Y-77860912D01*
X105399141Y-77861015D01*
X105400821Y-77866554D01*
X105399770Y-77866872D01*
X105406593Y-77930382D01*
X105381536Y-77984606D01*
X105381595Y-77984646D01*
X105381346Y-77985018D01*
X105380425Y-77987012D01*
X105378211Y-77989709D01*
X105290609Y-78120814D01*
X105290602Y-78120827D01*
X105230264Y-78266498D01*
X105230261Y-78266510D01*
X105199500Y-78421153D01*
X105199500Y-78578846D01*
X105230261Y-78733489D01*
X105230264Y-78733501D01*
X105290602Y-78879172D01*
X105290609Y-78879185D01*
X105378210Y-79010288D01*
X105378213Y-79010292D01*
X105489707Y-79121786D01*
X105489711Y-79121789D01*
X105620814Y-79209390D01*
X105620827Y-79209397D01*
X105766498Y-79269735D01*
X105766503Y-79269737D01*
X105921153Y-79300499D01*
X105921156Y-79300500D01*
X105921158Y-79300500D01*
X106078844Y-79300500D01*
X106078845Y-79300499D01*
X106233497Y-79269737D01*
X106379179Y-79209394D01*
X106510289Y-79121789D01*
X106621789Y-79010289D01*
X106709394Y-78879179D01*
X106769737Y-78733497D01*
X106800500Y-78578842D01*
X106800500Y-78421158D01*
X106800500Y-78421155D01*
X106800499Y-78421153D01*
X106769739Y-78266511D01*
X106769737Y-78266505D01*
X106769737Y-78266503D01*
X106769660Y-78266318D01*
X106769649Y-78266216D01*
X106767970Y-78260680D01*
X106769020Y-78260361D01*
X106768907Y-78259309D01*
X106765117Y-78253364D01*
X106765221Y-78225029D01*
X106762192Y-78196851D01*
X106765355Y-78188855D01*
X106765375Y-78183495D01*
X106773603Y-78168005D01*
X106780155Y-78151444D01*
X106786609Y-78141481D01*
X106790578Y-78137513D01*
X106878183Y-78006403D01*
X106885375Y-77989037D01*
X106891533Y-77979534D01*
X106909776Y-77963843D01*
X106924873Y-77945107D01*
X106938085Y-77939495D01*
X106944505Y-77933974D01*
X106954321Y-77932599D01*
X106971412Y-77925340D01*
X106983497Y-77922937D01*
X107129179Y-77862594D01*
X107260289Y-77774989D01*
X107371789Y-77663489D01*
X107459394Y-77532379D01*
X107519737Y-77386697D01*
X107550500Y-77232042D01*
X107550500Y-77074358D01*
X107550500Y-77074355D01*
X107550499Y-77074353D01*
X107519737Y-76919703D01*
X107519735Y-76919698D01*
X107459397Y-76774027D01*
X107459390Y-76774014D01*
X107405519Y-76693391D01*
X107384641Y-76626714D01*
X107403125Y-76559334D01*
X107455104Y-76512643D01*
X107508621Y-76500500D01*
X110750242Y-76500500D01*
X110817281Y-76520185D01*
X110863036Y-76572989D01*
X110872980Y-76642147D01*
X110843955Y-76705703D01*
X110837923Y-76712181D01*
X110719894Y-76830209D01*
X110719890Y-76830213D01*
X110594951Y-77002179D01*
X110498444Y-77191585D01*
X110432753Y-77393760D01*
X110399500Y-77603713D01*
X110399500Y-77816286D01*
X110429611Y-78006403D01*
X110432754Y-78026243D01*
X110488188Y-78196851D01*
X110498444Y-78228414D01*
X110594951Y-78417820D01*
X110719890Y-78589786D01*
X110833430Y-78703326D01*
X110866915Y-78764649D01*
X110861931Y-78834341D01*
X110820059Y-78890274D01*
X110789083Y-78907189D01*
X110657669Y-78956203D01*
X110657664Y-78956206D01*
X110542455Y-79042452D01*
X110542452Y-79042455D01*
X110456206Y-79157664D01*
X110456202Y-79157671D01*
X110405908Y-79292517D01*
X110399501Y-79352116D01*
X110399500Y-79352135D01*
X110399500Y-81147870D01*
X110399501Y-81147876D01*
X110405908Y-81207483D01*
X110456202Y-81342328D01*
X110456206Y-81342335D01*
X110542452Y-81457544D01*
X110542455Y-81457547D01*
X110657664Y-81543793D01*
X110657671Y-81543797D01*
X110792517Y-81594091D01*
X110792516Y-81594091D01*
X110799444Y-81594835D01*
X110852127Y-81600500D01*
X112647872Y-81600499D01*
X112707483Y-81594091D01*
X112707485Y-81594090D01*
X112707487Y-81594090D01*
X112715031Y-81592308D01*
X112715342Y-81593624D01*
X112776858Y-81589225D01*
X112838181Y-81622709D01*
X112871666Y-81684032D01*
X112874500Y-81710391D01*
X112874500Y-82229766D01*
X112854815Y-82296805D01*
X112802011Y-82342560D01*
X112732853Y-82352504D01*
X112726309Y-82351383D01*
X112591158Y-82324500D01*
X112591154Y-82324500D01*
X112408846Y-82324500D01*
X112408844Y-82324500D01*
X112230047Y-82360065D01*
X112230037Y-82360068D01*
X112061612Y-82429831D01*
X112061608Y-82429833D01*
X111910032Y-82531113D01*
X111910024Y-82531119D01*
X111781119Y-82660024D01*
X111781113Y-82660032D01*
X111679833Y-82811608D01*
X111679831Y-82811612D01*
X111610068Y-82980037D01*
X111610065Y-82980047D01*
X111574500Y-83158843D01*
X111574500Y-83158846D01*
X111574500Y-83341154D01*
X111574500Y-83341156D01*
X111574499Y-83341156D01*
X111610065Y-83519952D01*
X111610068Y-83519962D01*
X111679831Y-83688387D01*
X111679833Y-83688391D01*
X111781113Y-83839967D01*
X111781119Y-83839975D01*
X111910024Y-83968880D01*
X111910032Y-83968886D01*
X112061608Y-84070166D01*
X112061612Y-84070168D01*
X112230037Y-84139931D01*
X112230042Y-84139933D01*
X112230046Y-84139933D01*
X112230047Y-84139934D01*
X112408843Y-84175500D01*
X112408846Y-84175500D01*
X112591156Y-84175500D01*
X112726308Y-84148616D01*
X112795900Y-84154843D01*
X112851077Y-84197706D01*
X112874322Y-84263595D01*
X112874500Y-84270233D01*
X112874500Y-110709145D01*
X112854815Y-110776184D01*
X112802011Y-110821939D01*
X112732853Y-110831883D01*
X112669297Y-110802858D01*
X112647399Y-110778037D01*
X112621791Y-110739713D01*
X112621786Y-110739707D01*
X112510292Y-110628213D01*
X112510288Y-110628210D01*
X112379185Y-110540609D01*
X112379172Y-110540602D01*
X112233501Y-110480264D01*
X112233489Y-110480261D01*
X112078845Y-110449500D01*
X112078842Y-110449500D01*
X111921158Y-110449500D01*
X111921155Y-110449500D01*
X111766510Y-110480261D01*
X111766498Y-110480264D01*
X111620827Y-110540602D01*
X111620814Y-110540609D01*
X111489711Y-110628210D01*
X111489707Y-110628213D01*
X111378213Y-110739707D01*
X111378210Y-110739711D01*
X111290609Y-110870814D01*
X111290602Y-110870827D01*
X111230264Y-111016498D01*
X111230261Y-111016510D01*
X111199500Y-111171153D01*
X111199500Y-111328846D01*
X111230261Y-111483489D01*
X111230264Y-111483501D01*
X111290602Y-111629172D01*
X111290609Y-111629185D01*
X111378210Y-111760288D01*
X111378213Y-111760292D01*
X111489707Y-111871786D01*
X111489711Y-111871789D01*
X111620814Y-111959390D01*
X111620827Y-111959397D01*
X111758683Y-112016498D01*
X111766503Y-112019737D01*
X111921153Y-112050499D01*
X111921156Y-112050500D01*
X111921158Y-112050500D01*
X112078844Y-112050500D01*
X112078845Y-112050499D01*
X112233497Y-112019737D01*
X112379179Y-111959394D01*
X112510289Y-111871789D01*
X112621789Y-111760289D01*
X112647398Y-111721963D01*
X112701010Y-111677158D01*
X112770335Y-111668451D01*
X112833363Y-111698605D01*
X112870082Y-111758048D01*
X112874500Y-111790854D01*
X112874500Y-135125500D01*
X112854815Y-135192539D01*
X112802011Y-135238294D01*
X112750500Y-135249500D01*
X82499500Y-135249500D01*
X82432461Y-135229815D01*
X82386706Y-135177011D01*
X82375500Y-135125500D01*
X82375500Y-131449983D01*
X107999500Y-131449983D01*
X107999500Y-133050001D01*
X107999501Y-133050018D01*
X108010000Y-133152796D01*
X108010001Y-133152799D01*
X108065185Y-133319331D01*
X108065186Y-133319334D01*
X108157288Y-133468656D01*
X108281344Y-133592712D01*
X108430666Y-133684814D01*
X108597203Y-133739999D01*
X108699991Y-133750500D01*
X110300008Y-133750499D01*
X110402797Y-133739999D01*
X110569334Y-133684814D01*
X110718656Y-133592712D01*
X110842712Y-133468656D01*
X110934814Y-133319334D01*
X110989999Y-133152797D01*
X111000500Y-133050009D01*
X111000499Y-131449992D01*
X110989999Y-131347203D01*
X110934814Y-131180666D01*
X110842712Y-131031344D01*
X110718656Y-130907288D01*
X110569334Y-130815186D01*
X110402797Y-130760001D01*
X110402795Y-130760000D01*
X110300010Y-130749500D01*
X108699998Y-130749500D01*
X108699981Y-130749501D01*
X108597203Y-130760000D01*
X108597200Y-130760001D01*
X108430668Y-130815185D01*
X108430663Y-130815187D01*
X108281342Y-130907289D01*
X108157289Y-131031342D01*
X108065187Y-131180663D01*
X108065186Y-131180666D01*
X108010001Y-131347203D01*
X108010001Y-131347204D01*
X108010000Y-131347204D01*
X107999500Y-131449983D01*
X82375500Y-131449983D01*
X82375500Y-122841902D01*
X107999500Y-122841902D01*
X107999500Y-123078097D01*
X108036446Y-123311368D01*
X108109433Y-123535996D01*
X108216657Y-123746433D01*
X108355483Y-123937510D01*
X108355489Y-123937516D01*
X108358647Y-123941214D01*
X108356864Y-123942736D01*
X108385726Y-123995591D01*
X108380742Y-124065283D01*
X108338870Y-124121216D01*
X108329658Y-124127487D01*
X108281344Y-124157287D01*
X108157289Y-124281342D01*
X108065187Y-124430663D01*
X108065186Y-124430666D01*
X108010001Y-124597203D01*
X108010001Y-124597204D01*
X108010000Y-124597204D01*
X107999500Y-124699983D01*
X107999500Y-126300001D01*
X107999501Y-126300018D01*
X108010000Y-126402796D01*
X108010001Y-126402799D01*
X108065185Y-126569331D01*
X108065186Y-126569334D01*
X108157288Y-126718656D01*
X108281344Y-126842712D01*
X108430666Y-126934814D01*
X108597203Y-126989999D01*
X108699991Y-127000500D01*
X110300008Y-127000499D01*
X110402797Y-126989999D01*
X110569334Y-126934814D01*
X110718656Y-126842712D01*
X110842712Y-126718656D01*
X110934814Y-126569334D01*
X110989999Y-126402797D01*
X111000500Y-126300009D01*
X111000499Y-124699992D01*
X110989999Y-124597203D01*
X110934814Y-124430666D01*
X110842712Y-124281344D01*
X110718656Y-124157288D01*
X110718655Y-124157287D01*
X110670342Y-124127487D01*
X110623618Y-124075539D01*
X110612397Y-124006576D01*
X110640241Y-123942494D01*
X110641381Y-123941249D01*
X110641348Y-123941221D01*
X110644511Y-123937516D01*
X110644511Y-123937515D01*
X110644517Y-123937510D01*
X110783343Y-123746433D01*
X110890568Y-123535992D01*
X110963553Y-123311368D01*
X111000500Y-123078097D01*
X111000500Y-122841902D01*
X110963553Y-122608631D01*
X110890566Y-122384003D01*
X110783342Y-122173566D01*
X110644517Y-121982490D01*
X110477510Y-121815483D01*
X110286433Y-121676657D01*
X110075996Y-121569433D01*
X109851368Y-121496446D01*
X109618097Y-121459500D01*
X109618092Y-121459500D01*
X109381908Y-121459500D01*
X109381903Y-121459500D01*
X109148631Y-121496446D01*
X108924003Y-121569433D01*
X108713566Y-121676657D01*
X108604550Y-121755862D01*
X108522490Y-121815483D01*
X108522488Y-121815485D01*
X108522487Y-121815485D01*
X108355485Y-121982487D01*
X108355485Y-121982488D01*
X108355483Y-121982490D01*
X108295862Y-122064550D01*
X108216657Y-122173566D01*
X108109433Y-122384003D01*
X108036446Y-122608631D01*
X107999500Y-122841902D01*
X82375500Y-122841902D01*
X82375500Y-113156112D01*
X105214541Y-113156112D01*
X105214541Y-113313805D01*
X105245302Y-113468448D01*
X105245305Y-113468460D01*
X105305643Y-113614131D01*
X105305650Y-113614144D01*
X105393251Y-113745247D01*
X105393254Y-113745251D01*
X105504748Y-113856745D01*
X105504752Y-113856748D01*
X105635855Y-113944349D01*
X105635868Y-113944356D01*
X105781539Y-114004694D01*
X105781544Y-114004696D01*
X105936194Y-114035458D01*
X105936197Y-114035459D01*
X105936199Y-114035459D01*
X106093885Y-114035459D01*
X106093886Y-114035458D01*
X106248538Y-114004696D01*
X106394220Y-113944353D01*
X106525330Y-113856748D01*
X106636830Y-113745248D01*
X106724435Y-113614138D01*
X106724436Y-113614135D01*
X106724438Y-113614132D01*
X106764844Y-113516581D01*
X106808684Y-113462177D01*
X106874978Y-113440112D01*
X106942678Y-113457391D01*
X106990288Y-113508528D01*
X106993966Y-113516580D01*
X107040604Y-113629176D01*
X107040609Y-113629185D01*
X107128210Y-113760288D01*
X107128213Y-113760292D01*
X107239707Y-113871786D01*
X107239711Y-113871789D01*
X107370814Y-113959390D01*
X107370827Y-113959397D01*
X107480193Y-114004697D01*
X107516503Y-114019737D01*
X107671153Y-114050499D01*
X107671156Y-114050500D01*
X107671158Y-114050500D01*
X107828844Y-114050500D01*
X107828845Y-114050499D01*
X107983497Y-114019737D01*
X108129179Y-113959394D01*
X108260289Y-113871789D01*
X108371789Y-113760289D01*
X108459394Y-113629179D01*
X108519737Y-113483497D01*
X108550500Y-113328842D01*
X108550500Y-113171158D01*
X108550500Y-113171155D01*
X108550499Y-113171153D01*
X108526499Y-113050500D01*
X108519737Y-113016503D01*
X108513505Y-113001457D01*
X108459397Y-112870827D01*
X108459390Y-112870814D01*
X108371789Y-112739711D01*
X108371786Y-112739707D01*
X108260292Y-112628213D01*
X108260288Y-112628210D01*
X108129185Y-112540609D01*
X108129172Y-112540602D01*
X107983501Y-112480264D01*
X107983491Y-112480261D01*
X107899616Y-112463577D01*
X107837705Y-112431192D01*
X107803131Y-112370476D01*
X107800749Y-112334934D01*
X107800500Y-112334934D01*
X107800500Y-112331223D01*
X107800405Y-112329806D01*
X107800500Y-112328841D01*
X107800500Y-112171155D01*
X107800499Y-112171153D01*
X107784097Y-112088695D01*
X107769737Y-112016503D01*
X107726165Y-111911309D01*
X107709397Y-111870827D01*
X107709390Y-111870814D01*
X107621789Y-111739711D01*
X107621786Y-111739707D01*
X107510292Y-111628213D01*
X107510288Y-111628210D01*
X107379185Y-111540609D01*
X107379172Y-111540602D01*
X107233501Y-111480264D01*
X107233489Y-111480261D01*
X107078845Y-111449500D01*
X107078842Y-111449500D01*
X106921158Y-111449500D01*
X106921155Y-111449500D01*
X106766510Y-111480261D01*
X106766498Y-111480264D01*
X106620827Y-111540602D01*
X106620814Y-111540609D01*
X106489711Y-111628210D01*
X106489707Y-111628213D01*
X106378213Y-111739707D01*
X106378210Y-111739711D01*
X106290609Y-111870814D01*
X106290602Y-111870827D01*
X106230264Y-112016498D01*
X106230261Y-112016510D01*
X106199500Y-112171153D01*
X106199500Y-112310459D01*
X106179815Y-112377498D01*
X106127011Y-112423253D01*
X106075500Y-112434459D01*
X105936196Y-112434459D01*
X105781551Y-112465220D01*
X105781539Y-112465223D01*
X105635868Y-112525561D01*
X105635855Y-112525568D01*
X105504752Y-112613169D01*
X105504748Y-112613172D01*
X105393254Y-112724666D01*
X105393251Y-112724670D01*
X105305650Y-112855773D01*
X105305643Y-112855786D01*
X105245305Y-113001457D01*
X105245302Y-113001469D01*
X105214541Y-113156112D01*
X82375500Y-113156112D01*
X82375500Y-111911304D01*
X98099500Y-111911304D01*
X98099500Y-112088695D01*
X98134103Y-112262658D01*
X98134106Y-112262667D01*
X98201983Y-112426540D01*
X98201990Y-112426553D01*
X98300535Y-112574034D01*
X98300538Y-112574038D01*
X98425961Y-112699461D01*
X98425965Y-112699464D01*
X98573446Y-112798009D01*
X98573459Y-112798016D01*
X98696363Y-112848923D01*
X98737334Y-112865894D01*
X98737336Y-112865894D01*
X98737341Y-112865896D01*
X98911304Y-112900499D01*
X98911307Y-112900500D01*
X98911309Y-112900500D01*
X99088693Y-112900500D01*
X99088694Y-112900499D01*
X99146682Y-112888964D01*
X99262658Y-112865896D01*
X99262661Y-112865894D01*
X99262666Y-112865894D01*
X99426547Y-112798013D01*
X99574035Y-112699464D01*
X99699464Y-112574035D01*
X99798013Y-112426547D01*
X99865894Y-112262666D01*
X99900500Y-112088691D01*
X99900500Y-111911309D01*
X99900500Y-111911306D01*
X99900499Y-111911304D01*
X100599500Y-111911304D01*
X100599500Y-112088695D01*
X100634103Y-112262658D01*
X100634106Y-112262667D01*
X100701983Y-112426540D01*
X100701990Y-112426553D01*
X100800535Y-112574034D01*
X100800538Y-112574038D01*
X100925961Y-112699461D01*
X100925965Y-112699464D01*
X101073446Y-112798009D01*
X101073459Y-112798016D01*
X101196363Y-112848923D01*
X101237334Y-112865894D01*
X101237336Y-112865894D01*
X101237341Y-112865896D01*
X101411304Y-112900499D01*
X101411307Y-112900500D01*
X101411309Y-112900500D01*
X101588693Y-112900500D01*
X101588694Y-112900499D01*
X101646682Y-112888964D01*
X101762658Y-112865896D01*
X101762661Y-112865894D01*
X101762666Y-112865894D01*
X101926547Y-112798013D01*
X102074035Y-112699464D01*
X102199464Y-112574035D01*
X102298013Y-112426547D01*
X102365894Y-112262666D01*
X102400500Y-112088691D01*
X102400500Y-111911309D01*
X102400500Y-111911306D01*
X102400499Y-111911304D01*
X102365896Y-111737341D01*
X102365893Y-111737332D01*
X102298016Y-111573459D01*
X102298009Y-111573446D01*
X102199464Y-111425965D01*
X102199461Y-111425961D01*
X102074038Y-111300538D01*
X102074034Y-111300535D01*
X101926553Y-111201990D01*
X101926540Y-111201983D01*
X101762667Y-111134106D01*
X101762658Y-111134103D01*
X101588694Y-111099500D01*
X101588691Y-111099500D01*
X101411309Y-111099500D01*
X101411306Y-111099500D01*
X101237341Y-111134103D01*
X101237332Y-111134106D01*
X101073459Y-111201983D01*
X101073446Y-111201990D01*
X100925965Y-111300535D01*
X100925961Y-111300538D01*
X100800538Y-111425961D01*
X100800535Y-111425965D01*
X100701990Y-111573446D01*
X100701983Y-111573459D01*
X100634106Y-111737332D01*
X100634103Y-111737341D01*
X100599500Y-111911304D01*
X99900499Y-111911304D01*
X99865896Y-111737341D01*
X99865893Y-111737332D01*
X99798016Y-111573459D01*
X99798009Y-111573446D01*
X99699464Y-111425965D01*
X99699461Y-111425961D01*
X99574038Y-111300538D01*
X99574034Y-111300535D01*
X99426553Y-111201990D01*
X99426540Y-111201983D01*
X99262667Y-111134106D01*
X99262658Y-111134103D01*
X99088694Y-111099500D01*
X99088691Y-111099500D01*
X98911309Y-111099500D01*
X98911306Y-111099500D01*
X98737341Y-111134103D01*
X98737332Y-111134106D01*
X98573459Y-111201983D01*
X98573446Y-111201990D01*
X98425965Y-111300535D01*
X98425961Y-111300538D01*
X98300538Y-111425961D01*
X98300535Y-111425965D01*
X98201990Y-111573446D01*
X98201983Y-111573459D01*
X98134106Y-111737332D01*
X98134103Y-111737341D01*
X98099500Y-111911304D01*
X82375500Y-111911304D01*
X82375500Y-108911304D01*
X84849500Y-108911304D01*
X84849500Y-109088695D01*
X84884103Y-109262658D01*
X84884106Y-109262667D01*
X84951983Y-109426540D01*
X84951990Y-109426553D01*
X85050535Y-109574034D01*
X85050538Y-109574038D01*
X85175961Y-109699461D01*
X85175965Y-109699464D01*
X85323446Y-109798009D01*
X85323459Y-109798016D01*
X85446363Y-109848923D01*
X85487334Y-109865894D01*
X85507594Y-109869924D01*
X85550118Y-109878383D01*
X85612028Y-109910768D01*
X85646603Y-109971484D01*
X85642863Y-110041253D01*
X85601996Y-110097925D01*
X85550118Y-110121617D01*
X85487340Y-110134104D01*
X85487332Y-110134106D01*
X85323459Y-110201983D01*
X85323446Y-110201990D01*
X85175965Y-110300535D01*
X85175961Y-110300538D01*
X85050538Y-110425961D01*
X85050535Y-110425965D01*
X84951990Y-110573446D01*
X84951983Y-110573459D01*
X84884106Y-110737332D01*
X84884103Y-110737341D01*
X84849500Y-110911304D01*
X84849500Y-111088695D01*
X84884103Y-111262658D01*
X84884106Y-111262667D01*
X84951983Y-111426540D01*
X84951990Y-111426553D01*
X85050535Y-111574034D01*
X85050538Y-111574038D01*
X85175961Y-111699461D01*
X85175965Y-111699464D01*
X85323446Y-111798009D01*
X85323459Y-111798016D01*
X85446363Y-111848923D01*
X85487334Y-111865894D01*
X85487336Y-111865894D01*
X85487341Y-111865896D01*
X85661304Y-111900499D01*
X85661307Y-111900500D01*
X85661309Y-111900500D01*
X85838693Y-111900500D01*
X85838694Y-111900499D01*
X85896682Y-111888964D01*
X86012658Y-111865896D01*
X86012661Y-111865894D01*
X86012666Y-111865894D01*
X86176547Y-111798013D01*
X86324035Y-111699464D01*
X86449464Y-111574035D01*
X86548013Y-111426547D01*
X86615894Y-111262666D01*
X86650500Y-111088691D01*
X86650500Y-110911309D01*
X86650500Y-110911306D01*
X86650499Y-110911304D01*
X86615896Y-110737341D01*
X86615893Y-110737332D01*
X86548016Y-110573459D01*
X86548009Y-110573446D01*
X86449464Y-110425965D01*
X86449461Y-110425961D01*
X86324038Y-110300538D01*
X86324034Y-110300535D01*
X86176553Y-110201990D01*
X86176540Y-110201983D01*
X86012667Y-110134106D01*
X86012658Y-110134103D01*
X85949882Y-110121617D01*
X85887971Y-110089232D01*
X85853397Y-110028517D01*
X85857136Y-109958747D01*
X85898003Y-109902075D01*
X85949882Y-109878383D01*
X86012658Y-109865896D01*
X86012661Y-109865894D01*
X86012666Y-109865894D01*
X86176547Y-109798013D01*
X86324035Y-109699464D01*
X86449464Y-109574035D01*
X86548013Y-109426547D01*
X86615894Y-109262666D01*
X86621696Y-109233501D01*
X86650499Y-109088695D01*
X86650500Y-109088693D01*
X86650500Y-108921153D01*
X103699500Y-108921153D01*
X103699500Y-109078846D01*
X103730261Y-109233489D01*
X103730264Y-109233501D01*
X103790602Y-109379172D01*
X103790609Y-109379185D01*
X103878210Y-109510288D01*
X103878213Y-109510292D01*
X103989707Y-109621786D01*
X103989711Y-109621789D01*
X104120814Y-109709390D01*
X104120827Y-109709397D01*
X104266498Y-109769735D01*
X104266503Y-109769737D01*
X104408635Y-109798009D01*
X104421153Y-109800499D01*
X104421156Y-109800500D01*
X104421158Y-109800500D01*
X104578844Y-109800500D01*
X104578845Y-109800499D01*
X104733497Y-109769737D01*
X104879179Y-109709394D01*
X105010289Y-109621789D01*
X105121789Y-109510289D01*
X105209394Y-109379179D01*
X105269737Y-109233497D01*
X105300500Y-109078842D01*
X105300500Y-108921158D01*
X105300500Y-108921155D01*
X105300499Y-108921153D01*
X105269738Y-108766510D01*
X105269737Y-108766503D01*
X105257654Y-108737332D01*
X105209397Y-108620827D01*
X105209390Y-108620814D01*
X105121789Y-108489711D01*
X105121786Y-108489707D01*
X105010292Y-108378213D01*
X105010288Y-108378210D01*
X104879185Y-108290609D01*
X104879172Y-108290602D01*
X104733501Y-108230264D01*
X104733489Y-108230261D01*
X104578845Y-108199500D01*
X104578842Y-108199500D01*
X104421158Y-108199500D01*
X104421155Y-108199500D01*
X104266510Y-108230261D01*
X104266498Y-108230264D01*
X104120827Y-108290602D01*
X104120814Y-108290609D01*
X103989711Y-108378210D01*
X103989707Y-108378213D01*
X103878213Y-108489707D01*
X103878210Y-108489711D01*
X103790609Y-108620814D01*
X103790602Y-108620827D01*
X103730264Y-108766498D01*
X103730261Y-108766510D01*
X103699500Y-108921153D01*
X86650500Y-108921153D01*
X86650500Y-108911306D01*
X86650499Y-108911304D01*
X86615896Y-108737341D01*
X86615893Y-108737332D01*
X86548016Y-108573459D01*
X86548009Y-108573446D01*
X86449464Y-108425965D01*
X86449461Y-108425961D01*
X86324038Y-108300538D01*
X86324034Y-108300535D01*
X86176553Y-108201990D01*
X86176540Y-108201983D01*
X86012667Y-108134106D01*
X86012658Y-108134103D01*
X85838694Y-108099500D01*
X85838691Y-108099500D01*
X85661309Y-108099500D01*
X85661306Y-108099500D01*
X85487341Y-108134103D01*
X85487332Y-108134106D01*
X85323459Y-108201983D01*
X85323446Y-108201990D01*
X85175965Y-108300535D01*
X85175961Y-108300538D01*
X85050538Y-108425961D01*
X85050535Y-108425965D01*
X84951990Y-108573446D01*
X84951983Y-108573459D01*
X84884106Y-108737332D01*
X84884103Y-108737341D01*
X84849500Y-108911304D01*
X82375500Y-108911304D01*
X82375500Y-106922194D01*
X105450541Y-106922194D01*
X105450541Y-107079887D01*
X105481302Y-107234530D01*
X105481305Y-107234542D01*
X105541643Y-107380213D01*
X105541650Y-107380226D01*
X105629251Y-107511329D01*
X105629254Y-107511333D01*
X105740748Y-107622827D01*
X105740752Y-107622830D01*
X105871855Y-107710431D01*
X105871868Y-107710438D01*
X106017539Y-107770776D01*
X106017544Y-107770778D01*
X106172194Y-107801540D01*
X106172197Y-107801541D01*
X106172199Y-107801541D01*
X106329885Y-107801541D01*
X106329886Y-107801540D01*
X106484538Y-107770778D01*
X106630220Y-107710435D01*
X106761330Y-107622830D01*
X106872830Y-107511330D01*
X106960435Y-107380220D01*
X106963929Y-107371786D01*
X107010110Y-107260292D01*
X107020778Y-107234538D01*
X107051541Y-107079883D01*
X107051541Y-106922199D01*
X107051541Y-106922196D01*
X107051540Y-106922194D01*
X107020779Y-106767551D01*
X107020778Y-106767544D01*
X106980852Y-106671153D01*
X109199500Y-106671153D01*
X109199500Y-106828846D01*
X109230261Y-106983489D01*
X109230264Y-106983501D01*
X109290602Y-107129172D01*
X109290609Y-107129185D01*
X109378210Y-107260288D01*
X109378213Y-107260292D01*
X109489707Y-107371786D01*
X109489711Y-107371789D01*
X109620814Y-107459390D01*
X109620827Y-107459397D01*
X109766498Y-107519735D01*
X109766503Y-107519737D01*
X109921153Y-107550499D01*
X109921156Y-107550500D01*
X109921158Y-107550500D01*
X110078844Y-107550500D01*
X110078845Y-107550499D01*
X110233497Y-107519737D01*
X110379179Y-107459394D01*
X110510289Y-107371789D01*
X110621789Y-107260289D01*
X110709394Y-107129179D01*
X110769737Y-106983497D01*
X110800500Y-106828842D01*
X110800500Y-106671158D01*
X110800500Y-106671155D01*
X110800405Y-106670191D01*
X110800500Y-106669690D01*
X110800500Y-106665066D01*
X110801377Y-106665066D01*
X110813425Y-106601546D01*
X110861490Y-106550836D01*
X110899617Y-106536422D01*
X110913560Y-106533648D01*
X110983497Y-106519737D01*
X111129179Y-106459394D01*
X111260289Y-106371789D01*
X111371789Y-106260289D01*
X111459394Y-106129179D01*
X111519737Y-105983497D01*
X111550500Y-105828842D01*
X111550500Y-105671158D01*
X111550500Y-105671155D01*
X111550499Y-105671153D01*
X111519738Y-105516510D01*
X111519737Y-105516503D01*
X111519735Y-105516498D01*
X111459397Y-105370827D01*
X111459390Y-105370814D01*
X111371789Y-105239711D01*
X111371786Y-105239707D01*
X111260292Y-105128213D01*
X111260288Y-105128210D01*
X111129185Y-105040609D01*
X111129172Y-105040602D01*
X110983501Y-104980264D01*
X110983489Y-104980261D01*
X110828845Y-104949500D01*
X110828842Y-104949500D01*
X110671158Y-104949500D01*
X110671155Y-104949500D01*
X110516510Y-104980261D01*
X110516498Y-104980264D01*
X110370827Y-105040602D01*
X110370814Y-105040609D01*
X110239711Y-105128210D01*
X110239707Y-105128213D01*
X110128213Y-105239707D01*
X110128210Y-105239711D01*
X110040609Y-105370814D01*
X110040602Y-105370827D01*
X109980264Y-105516498D01*
X109980261Y-105516510D01*
X109949500Y-105671153D01*
X109949500Y-105828846D01*
X109949596Y-105829823D01*
X109949500Y-105830328D01*
X109949500Y-105834934D01*
X109948626Y-105834934D01*
X109936567Y-105898468D01*
X109888495Y-105949171D01*
X109850383Y-105963577D01*
X109766508Y-105980261D01*
X109766498Y-105980264D01*
X109620827Y-106040602D01*
X109620814Y-106040609D01*
X109489711Y-106128210D01*
X109489707Y-106128213D01*
X109378213Y-106239707D01*
X109378210Y-106239711D01*
X109290609Y-106370814D01*
X109290602Y-106370827D01*
X109230264Y-106516498D01*
X109230261Y-106516510D01*
X109199500Y-106671153D01*
X106980852Y-106671153D01*
X106960438Y-106621868D01*
X106960431Y-106621855D01*
X106872830Y-106490752D01*
X106872827Y-106490748D01*
X106761333Y-106379254D01*
X106761329Y-106379251D01*
X106630226Y-106291650D01*
X106630213Y-106291643D01*
X106484542Y-106231305D01*
X106484530Y-106231302D01*
X106329886Y-106200541D01*
X106329883Y-106200541D01*
X106172199Y-106200541D01*
X106172196Y-106200541D01*
X106017551Y-106231302D01*
X106017539Y-106231305D01*
X105871868Y-106291643D01*
X105871855Y-106291650D01*
X105740752Y-106379251D01*
X105740748Y-106379254D01*
X105629254Y-106490748D01*
X105629251Y-106490752D01*
X105541650Y-106621855D01*
X105541643Y-106621868D01*
X105481305Y-106767539D01*
X105481302Y-106767551D01*
X105450541Y-106922194D01*
X82375500Y-106922194D01*
X82375500Y-105621153D01*
X102199500Y-105621153D01*
X102199500Y-105778846D01*
X102230261Y-105933489D01*
X102230264Y-105933501D01*
X102290602Y-106079172D01*
X102290609Y-106079185D01*
X102378210Y-106210288D01*
X102378213Y-106210292D01*
X102489707Y-106321786D01*
X102489711Y-106321789D01*
X102620814Y-106409390D01*
X102620827Y-106409397D01*
X102766498Y-106469735D01*
X102766503Y-106469737D01*
X102872132Y-106490748D01*
X102921153Y-106500499D01*
X102921156Y-106500500D01*
X102921158Y-106500500D01*
X103078844Y-106500500D01*
X103078845Y-106500499D01*
X103233497Y-106469737D01*
X103379179Y-106409394D01*
X103510289Y-106321789D01*
X103621789Y-106210289D01*
X103709394Y-106079179D01*
X103769737Y-105933497D01*
X103800500Y-105778842D01*
X103800500Y-105621158D01*
X103800500Y-105621155D01*
X103800499Y-105621153D01*
X103779684Y-105516510D01*
X103769737Y-105466503D01*
X103730102Y-105370814D01*
X103709397Y-105320827D01*
X103709390Y-105320814D01*
X103621789Y-105189711D01*
X103621786Y-105189707D01*
X103510292Y-105078213D01*
X103510288Y-105078210D01*
X103379185Y-104990609D01*
X103379172Y-104990602D01*
X103233501Y-104930264D01*
X103233489Y-104930261D01*
X103078845Y-104899500D01*
X103078842Y-104899500D01*
X102921158Y-104899500D01*
X102921155Y-104899500D01*
X102766510Y-104930261D01*
X102766498Y-104930264D01*
X102620827Y-104990602D01*
X102620814Y-104990609D01*
X102489711Y-105078210D01*
X102489707Y-105078213D01*
X102378213Y-105189707D01*
X102378210Y-105189711D01*
X102290609Y-105320814D01*
X102290602Y-105320827D01*
X102230264Y-105466498D01*
X102230261Y-105466510D01*
X102199500Y-105621153D01*
X82375500Y-105621153D01*
X82375500Y-103911304D01*
X96349500Y-103911304D01*
X96349500Y-104088695D01*
X96384103Y-104262658D01*
X96384106Y-104262667D01*
X96451983Y-104426540D01*
X96451990Y-104426553D01*
X96550535Y-104574034D01*
X96550538Y-104574038D01*
X96675961Y-104699461D01*
X96675965Y-104699464D01*
X96823446Y-104798009D01*
X96823459Y-104798016D01*
X96946363Y-104848923D01*
X96987334Y-104865894D01*
X96987336Y-104865894D01*
X96987341Y-104865896D01*
X97161304Y-104900499D01*
X97161307Y-104900500D01*
X97161309Y-104900500D01*
X97338693Y-104900500D01*
X97338694Y-104900499D01*
X97396682Y-104888964D01*
X97512658Y-104865896D01*
X97512661Y-104865894D01*
X97512666Y-104865894D01*
X97676547Y-104798013D01*
X97824035Y-104699464D01*
X97949464Y-104574035D01*
X98048013Y-104426547D01*
X98115894Y-104262666D01*
X98150500Y-104088691D01*
X98150500Y-103911309D01*
X98150500Y-103911306D01*
X98150499Y-103911304D01*
X98115896Y-103737341D01*
X98115893Y-103737332D01*
X98048016Y-103573459D01*
X98048009Y-103573446D01*
X97949464Y-103425965D01*
X97949461Y-103425961D01*
X97824038Y-103300538D01*
X97824034Y-103300535D01*
X97676553Y-103201990D01*
X97676540Y-103201983D01*
X97512667Y-103134106D01*
X97512658Y-103134103D01*
X97338694Y-103099500D01*
X97338691Y-103099500D01*
X97161309Y-103099500D01*
X97161306Y-103099500D01*
X96987341Y-103134103D01*
X96987332Y-103134106D01*
X96823459Y-103201983D01*
X96823446Y-103201990D01*
X96675965Y-103300535D01*
X96675961Y-103300538D01*
X96550538Y-103425961D01*
X96550535Y-103425965D01*
X96451990Y-103573446D01*
X96451983Y-103573459D01*
X96384106Y-103737332D01*
X96384103Y-103737341D01*
X96349500Y-103911304D01*
X82375500Y-103911304D01*
X82375500Y-101370286D01*
X82395185Y-101303247D01*
X82447989Y-101257492D01*
X82517147Y-101247548D01*
X82573810Y-101271019D01*
X82616861Y-101303247D01*
X82657668Y-101333795D01*
X82657671Y-101333797D01*
X82792517Y-101384091D01*
X82792516Y-101384091D01*
X82799444Y-101384835D01*
X82852127Y-101390500D01*
X84647872Y-101390499D01*
X84707483Y-101384091D01*
X84842331Y-101333796D01*
X84957546Y-101247546D01*
X85043796Y-101132331D01*
X85094091Y-100997483D01*
X85100500Y-100937873D01*
X85100499Y-100411304D01*
X98349500Y-100411304D01*
X98349500Y-100588695D01*
X98384103Y-100762658D01*
X98384106Y-100762667D01*
X98451983Y-100926540D01*
X98451990Y-100926553D01*
X98550535Y-101074034D01*
X98550538Y-101074038D01*
X98675961Y-101199461D01*
X98675965Y-101199464D01*
X98823446Y-101298009D01*
X98823459Y-101298016D01*
X98909844Y-101333797D01*
X98987334Y-101365894D01*
X98987336Y-101365894D01*
X98987341Y-101365896D01*
X99161304Y-101400499D01*
X99161307Y-101400500D01*
X99161309Y-101400500D01*
X99338693Y-101400500D01*
X99338694Y-101400499D01*
X99396682Y-101388964D01*
X99512658Y-101365896D01*
X99512661Y-101365894D01*
X99512666Y-101365894D01*
X99676547Y-101298013D01*
X99824035Y-101199464D01*
X99949464Y-101074035D01*
X100048013Y-100926547D01*
X100115894Y-100762666D01*
X100121696Y-100733501D01*
X100150499Y-100588695D01*
X100150500Y-100588693D01*
X100150500Y-100411306D01*
X100150499Y-100411304D01*
X100599500Y-100411304D01*
X100599500Y-100588695D01*
X100634103Y-100762658D01*
X100634106Y-100762667D01*
X100701983Y-100926540D01*
X100701990Y-100926553D01*
X100800535Y-101074034D01*
X100800538Y-101074038D01*
X100925961Y-101199461D01*
X100925965Y-101199464D01*
X101073446Y-101298009D01*
X101073459Y-101298016D01*
X101159844Y-101333797D01*
X101237334Y-101365894D01*
X101237336Y-101365894D01*
X101237341Y-101365896D01*
X101411304Y-101400499D01*
X101411307Y-101400500D01*
X101411309Y-101400500D01*
X101588693Y-101400500D01*
X101588694Y-101400499D01*
X101646682Y-101388964D01*
X101762658Y-101365896D01*
X101762661Y-101365894D01*
X101762666Y-101365894D01*
X101926547Y-101298013D01*
X102074035Y-101199464D01*
X102199464Y-101074035D01*
X102298013Y-100926547D01*
X102365894Y-100762666D01*
X102371696Y-100733501D01*
X102400499Y-100588695D01*
X102400500Y-100588693D01*
X102400500Y-100421153D01*
X109699500Y-100421153D01*
X109699500Y-100578846D01*
X109730261Y-100733489D01*
X109730264Y-100733501D01*
X109790602Y-100879172D01*
X109790609Y-100879185D01*
X109825304Y-100931109D01*
X109846182Y-100997786D01*
X109827698Y-101065167D01*
X109825304Y-101068891D01*
X109790609Y-101120814D01*
X109790602Y-101120827D01*
X109730264Y-101266498D01*
X109730261Y-101266510D01*
X109699500Y-101421153D01*
X109699500Y-101578846D01*
X109730261Y-101733489D01*
X109730264Y-101733501D01*
X109790602Y-101879172D01*
X109790609Y-101879185D01*
X109878210Y-102010288D01*
X109878213Y-102010292D01*
X109989707Y-102121786D01*
X109989711Y-102121789D01*
X110120814Y-102209390D01*
X110120827Y-102209397D01*
X110266498Y-102269735D01*
X110266503Y-102269737D01*
X110421153Y-102300499D01*
X110421156Y-102300500D01*
X110421158Y-102300500D01*
X110578844Y-102300500D01*
X110578845Y-102300499D01*
X110733497Y-102269737D01*
X110879179Y-102209394D01*
X111010289Y-102121789D01*
X111121789Y-102010289D01*
X111209394Y-101879179D01*
X111269737Y-101733497D01*
X111300500Y-101578842D01*
X111300500Y-101421158D01*
X111300500Y-101421155D01*
X111300499Y-101421153D01*
X111294402Y-101390500D01*
X111269737Y-101266503D01*
X111241968Y-101199461D01*
X111209396Y-101120825D01*
X111209394Y-101120822D01*
X111209394Y-101120821D01*
X111174694Y-101068889D01*
X111153816Y-101002215D01*
X111172300Y-100934835D01*
X111174676Y-100931136D01*
X111209394Y-100879179D01*
X111269737Y-100733497D01*
X111300500Y-100578842D01*
X111300500Y-100421158D01*
X111300500Y-100421155D01*
X111300499Y-100421153D01*
X111269738Y-100266510D01*
X111269737Y-100266503D01*
X111257654Y-100237332D01*
X111209397Y-100120827D01*
X111209390Y-100120814D01*
X111121789Y-99989711D01*
X111121786Y-99989707D01*
X111010292Y-99878213D01*
X111010288Y-99878210D01*
X110879185Y-99790609D01*
X110879172Y-99790602D01*
X110733501Y-99730264D01*
X110733489Y-99730261D01*
X110578845Y-99699500D01*
X110578842Y-99699500D01*
X110421158Y-99699500D01*
X110421155Y-99699500D01*
X110266510Y-99730261D01*
X110266498Y-99730264D01*
X110120827Y-99790602D01*
X110120814Y-99790609D01*
X109989711Y-99878210D01*
X109989707Y-99878213D01*
X109878213Y-99989707D01*
X109878210Y-99989711D01*
X109790609Y-100120814D01*
X109790602Y-100120827D01*
X109730264Y-100266498D01*
X109730261Y-100266510D01*
X109699500Y-100421153D01*
X102400500Y-100421153D01*
X102400500Y-100411306D01*
X102400499Y-100411304D01*
X102365896Y-100237341D01*
X102365893Y-100237332D01*
X102298016Y-100073459D01*
X102298009Y-100073446D01*
X102199464Y-99925965D01*
X102199461Y-99925961D01*
X102074038Y-99800538D01*
X102074034Y-99800535D01*
X101926553Y-99701990D01*
X101926540Y-99701983D01*
X101762667Y-99634106D01*
X101762658Y-99634103D01*
X101588694Y-99599500D01*
X101588691Y-99599500D01*
X101411309Y-99599500D01*
X101411306Y-99599500D01*
X101237341Y-99634103D01*
X101237332Y-99634106D01*
X101073459Y-99701983D01*
X101073446Y-99701990D01*
X100925965Y-99800535D01*
X100925961Y-99800538D01*
X100800538Y-99925961D01*
X100800535Y-99925965D01*
X100701990Y-100073446D01*
X100701983Y-100073459D01*
X100634106Y-100237332D01*
X100634103Y-100237341D01*
X100599500Y-100411304D01*
X100150499Y-100411304D01*
X100115896Y-100237341D01*
X100115893Y-100237332D01*
X100048016Y-100073459D01*
X100048009Y-100073446D01*
X99949464Y-99925965D01*
X99949461Y-99925961D01*
X99824038Y-99800538D01*
X99824034Y-99800535D01*
X99676553Y-99701990D01*
X99676540Y-99701983D01*
X99512667Y-99634106D01*
X99512658Y-99634103D01*
X99338694Y-99599500D01*
X99338691Y-99599500D01*
X99161309Y-99599500D01*
X99161306Y-99599500D01*
X98987341Y-99634103D01*
X98987332Y-99634106D01*
X98823459Y-99701983D01*
X98823446Y-99701990D01*
X98675965Y-99800535D01*
X98675961Y-99800538D01*
X98550538Y-99925961D01*
X98550535Y-99925965D01*
X98451990Y-100073446D01*
X98451983Y-100073459D01*
X98384106Y-100237332D01*
X98384103Y-100237341D01*
X98349500Y-100411304D01*
X85100499Y-100411304D01*
X85100499Y-99989711D01*
X85100499Y-99142129D01*
X85100498Y-99142123D01*
X85094091Y-99082516D01*
X85043797Y-98947671D01*
X85043793Y-98947664D01*
X84957547Y-98832455D01*
X84957544Y-98832452D01*
X84842335Y-98746206D01*
X84842328Y-98746202D01*
X84710917Y-98697189D01*
X84654983Y-98655318D01*
X84630566Y-98589853D01*
X84645418Y-98521580D01*
X84666563Y-98493332D01*
X84780104Y-98379792D01*
X84905051Y-98207816D01*
X85001557Y-98018412D01*
X85067246Y-97816243D01*
X85100500Y-97606287D01*
X85100500Y-97393713D01*
X85067246Y-97183757D01*
X85001557Y-96981588D01*
X84905051Y-96792184D01*
X84905049Y-96792181D01*
X84905048Y-96792179D01*
X84780109Y-96620213D01*
X84629786Y-96469890D01*
X84457820Y-96344951D01*
X84457115Y-96344591D01*
X84449054Y-96340485D01*
X84398259Y-96292512D01*
X84381463Y-96224692D01*
X84403999Y-96158556D01*
X84449054Y-96119515D01*
X84457816Y-96115051D01*
X84479789Y-96099086D01*
X84629786Y-95990109D01*
X84629788Y-95990106D01*
X84629792Y-95990104D01*
X84780104Y-95839792D01*
X84780106Y-95839788D01*
X84780109Y-95839786D01*
X84905048Y-95667820D01*
X84905047Y-95667820D01*
X84905051Y-95667816D01*
X85001557Y-95478412D01*
X85067246Y-95276243D01*
X85100500Y-95066287D01*
X85100500Y-94853713D01*
X85067246Y-94643757D01*
X85001557Y-94441588D01*
X84905051Y-94252184D01*
X84905049Y-94252181D01*
X84905048Y-94252179D01*
X84780109Y-94080213D01*
X84629786Y-93929890D01*
X84457820Y-93804951D01*
X84457115Y-93804591D01*
X84449054Y-93800485D01*
X84398259Y-93752512D01*
X84381463Y-93684692D01*
X84403999Y-93618556D01*
X84449054Y-93579515D01*
X84457816Y-93575051D01*
X84546954Y-93510289D01*
X84629786Y-93450109D01*
X84629788Y-93450106D01*
X84629792Y-93450104D01*
X84780104Y-93299792D01*
X84780106Y-93299788D01*
X84780109Y-93299786D01*
X84905048Y-93127820D01*
X84905047Y-93127820D01*
X84905051Y-93127816D01*
X85001557Y-92938412D01*
X85007165Y-92921153D01*
X92751100Y-92921153D01*
X92751100Y-93078846D01*
X92781861Y-93233489D01*
X92781864Y-93233501D01*
X92842202Y-93379172D01*
X92842209Y-93379185D01*
X92929810Y-93510288D01*
X92929813Y-93510292D01*
X93041307Y-93621786D01*
X93041311Y-93621789D01*
X93172414Y-93709390D01*
X93172427Y-93709397D01*
X93298089Y-93761447D01*
X93318103Y-93769737D01*
X93472678Y-93800484D01*
X93472753Y-93800499D01*
X93472756Y-93800500D01*
X93472758Y-93800500D01*
X93630444Y-93800500D01*
X93630445Y-93800499D01*
X93785097Y-93769737D01*
X93930779Y-93709394D01*
X93940657Y-93702793D01*
X94007331Y-93681914D01*
X94074712Y-93700396D01*
X94112650Y-93737002D01*
X94128208Y-93760286D01*
X94128213Y-93760292D01*
X94239707Y-93871786D01*
X94239711Y-93871789D01*
X94370814Y-93959390D01*
X94370827Y-93959397D01*
X94516498Y-94019735D01*
X94516503Y-94019737D01*
X94671153Y-94050499D01*
X94671156Y-94050500D01*
X94671158Y-94050500D01*
X94828844Y-94050500D01*
X94828845Y-94050499D01*
X94983497Y-94019737D01*
X95129179Y-93959394D01*
X95260289Y-93871789D01*
X95371789Y-93760289D01*
X95459394Y-93629179D01*
X95519737Y-93483497D01*
X95550500Y-93328842D01*
X95550500Y-93171158D01*
X95550500Y-93171155D01*
X95550499Y-93171153D01*
X95540921Y-93122997D01*
X95536771Y-93102135D01*
X106359500Y-93102135D01*
X106359500Y-94897870D01*
X106359501Y-94897876D01*
X106365908Y-94957483D01*
X106416202Y-95092328D01*
X106416206Y-95092335D01*
X106502452Y-95207544D01*
X106502455Y-95207547D01*
X106617664Y-95293793D01*
X106617671Y-95293797D01*
X106752517Y-95344091D01*
X106752516Y-95344091D01*
X106759444Y-95344835D01*
X106812127Y-95350500D01*
X108607872Y-95350499D01*
X108667483Y-95344091D01*
X108802331Y-95293796D01*
X108917546Y-95207546D01*
X109003796Y-95092331D01*
X109052810Y-94960916D01*
X109094681Y-94904984D01*
X109160145Y-94880566D01*
X109228418Y-94895417D01*
X109256673Y-94916569D01*
X109370213Y-95030109D01*
X109542179Y-95155048D01*
X109542181Y-95155049D01*
X109542184Y-95155051D01*
X109731588Y-95251557D01*
X109933757Y-95317246D01*
X110143713Y-95350500D01*
X110143714Y-95350500D01*
X110356286Y-95350500D01*
X110356287Y-95350500D01*
X110566243Y-95317246D01*
X110768412Y-95251557D01*
X110957816Y-95155051D01*
X111044138Y-95092335D01*
X111129786Y-95030109D01*
X111129788Y-95030106D01*
X111129792Y-95030104D01*
X111280104Y-94879792D01*
X111280106Y-94879788D01*
X111280109Y-94879786D01*
X111405048Y-94707820D01*
X111405047Y-94707820D01*
X111405051Y-94707816D01*
X111501557Y-94518412D01*
X111567246Y-94316243D01*
X111600500Y-94106287D01*
X111600500Y-93893713D01*
X111567246Y-93683757D01*
X111501557Y-93481588D01*
X111405051Y-93292184D01*
X111405049Y-93292181D01*
X111405048Y-93292179D01*
X111280109Y-93120213D01*
X111129786Y-92969890D01*
X110957820Y-92844951D01*
X110768411Y-92748442D01*
X110758941Y-92745365D01*
X110701267Y-92705926D01*
X110674072Y-92641566D01*
X110685989Y-92572720D01*
X110733235Y-92521246D01*
X110758940Y-92509508D01*
X110783412Y-92501557D01*
X110972816Y-92405051D01*
X111050723Y-92348449D01*
X111144786Y-92280109D01*
X111144788Y-92280106D01*
X111144792Y-92280104D01*
X111295104Y-92129792D01*
X111295106Y-92129788D01*
X111295109Y-92129786D01*
X111420048Y-91957820D01*
X111420047Y-91957820D01*
X111420051Y-91957816D01*
X111516557Y-91768412D01*
X111582246Y-91566243D01*
X111615500Y-91356287D01*
X111615500Y-91143713D01*
X111582246Y-90933757D01*
X111516557Y-90731588D01*
X111420051Y-90542184D01*
X111420049Y-90542181D01*
X111420048Y-90542179D01*
X111295109Y-90370213D01*
X111144786Y-90219890D01*
X110972820Y-90094951D01*
X110783413Y-89998443D01*
X110774428Y-89995524D01*
X110766446Y-89992930D01*
X110708771Y-89953495D01*
X110681572Y-89889136D01*
X110693486Y-89820290D01*
X110740730Y-89768813D01*
X110766444Y-89757070D01*
X110783412Y-89751557D01*
X110972816Y-89655051D01*
X111059138Y-89592335D01*
X111144786Y-89530109D01*
X111144788Y-89530106D01*
X111144792Y-89530104D01*
X111295104Y-89379792D01*
X111295106Y-89379788D01*
X111295109Y-89379786D01*
X111420048Y-89207820D01*
X111420047Y-89207820D01*
X111420051Y-89207816D01*
X111516557Y-89018412D01*
X111582246Y-88816243D01*
X111615500Y-88606287D01*
X111615500Y-88393713D01*
X111582246Y-88183757D01*
X111516557Y-87981588D01*
X111420051Y-87792184D01*
X111420049Y-87792181D01*
X111420048Y-87792179D01*
X111295109Y-87620213D01*
X111144786Y-87469890D01*
X110972820Y-87344951D01*
X110783413Y-87248443D01*
X110774428Y-87245524D01*
X110766446Y-87242930D01*
X110708771Y-87203495D01*
X110681572Y-87139136D01*
X110693486Y-87070290D01*
X110740730Y-87018813D01*
X110766444Y-87007070D01*
X110783412Y-87001557D01*
X110972816Y-86905051D01*
X111059138Y-86842335D01*
X111144786Y-86780109D01*
X111144788Y-86780106D01*
X111144792Y-86780104D01*
X111295104Y-86629792D01*
X111295106Y-86629788D01*
X111295109Y-86629786D01*
X111418902Y-86459397D01*
X111420051Y-86457816D01*
X111516557Y-86268412D01*
X111582246Y-86066243D01*
X111615500Y-85856287D01*
X111615500Y-85643713D01*
X111582246Y-85433757D01*
X111516557Y-85231588D01*
X111420051Y-85042184D01*
X111420049Y-85042181D01*
X111420048Y-85042179D01*
X111295109Y-84870213D01*
X111144786Y-84719890D01*
X110972820Y-84594951D01*
X110783414Y-84498444D01*
X110783413Y-84498443D01*
X110783412Y-84498443D01*
X110581243Y-84432754D01*
X110581241Y-84432753D01*
X110581240Y-84432753D01*
X110419957Y-84407208D01*
X110371287Y-84399500D01*
X110158713Y-84399500D01*
X110110042Y-84407208D01*
X109948760Y-84432753D01*
X109746585Y-84498444D01*
X109557179Y-84594951D01*
X109385215Y-84719889D01*
X109271673Y-84833431D01*
X109210350Y-84866915D01*
X109140658Y-84861931D01*
X109084725Y-84820059D01*
X109067810Y-84789082D01*
X109018797Y-84657671D01*
X109018793Y-84657664D01*
X108932547Y-84542455D01*
X108932544Y-84542452D01*
X108817335Y-84456206D01*
X108817328Y-84456202D01*
X108682482Y-84405908D01*
X108682483Y-84405908D01*
X108622883Y-84399501D01*
X108622881Y-84399500D01*
X108622873Y-84399500D01*
X108622864Y-84399500D01*
X106827129Y-84399500D01*
X106827123Y-84399501D01*
X106767516Y-84405908D01*
X106632671Y-84456202D01*
X106632664Y-84456206D01*
X106517455Y-84542452D01*
X106517452Y-84542455D01*
X106431206Y-84657664D01*
X106431202Y-84657671D01*
X106380908Y-84792517D01*
X106374501Y-84852116D01*
X106374500Y-84852135D01*
X106374500Y-86647870D01*
X106374501Y-86647876D01*
X106380908Y-86707483D01*
X106431202Y-86842328D01*
X106431206Y-86842335D01*
X106517452Y-86957544D01*
X106517455Y-86957547D01*
X106608540Y-87025734D01*
X106650411Y-87081668D01*
X106655395Y-87151359D01*
X106621909Y-87212682D01*
X106608540Y-87224266D01*
X106517455Y-87292452D01*
X106517452Y-87292455D01*
X106431206Y-87407664D01*
X106431202Y-87407671D01*
X106380908Y-87542517D01*
X106374501Y-87602116D01*
X106374500Y-87602135D01*
X106374500Y-89397870D01*
X106374501Y-89397876D01*
X106380908Y-89457483D01*
X106431202Y-89592328D01*
X106431206Y-89592335D01*
X106517452Y-89707544D01*
X106517455Y-89707547D01*
X106608540Y-89775734D01*
X106650411Y-89831668D01*
X106655395Y-89901359D01*
X106621909Y-89962682D01*
X106608540Y-89974266D01*
X106517455Y-90042452D01*
X106517452Y-90042455D01*
X106431206Y-90157664D01*
X106431202Y-90157671D01*
X106380908Y-90292517D01*
X106374501Y-90352116D01*
X106374500Y-90352135D01*
X106374500Y-92147870D01*
X106374501Y-92147876D01*
X106380908Y-92207483D01*
X106431202Y-92342328D01*
X106431206Y-92342335D01*
X106458065Y-92378213D01*
X106517454Y-92457546D01*
X106601040Y-92520119D01*
X106642911Y-92576052D01*
X106647895Y-92645744D01*
X106614410Y-92707067D01*
X106601041Y-92718651D01*
X106502452Y-92792455D01*
X106416206Y-92907664D01*
X106416202Y-92907671D01*
X106365908Y-93042517D01*
X106359501Y-93102116D01*
X106359500Y-93102135D01*
X95536771Y-93102135D01*
X95519738Y-93016508D01*
X95519737Y-93016507D01*
X95519737Y-93016503D01*
X95500432Y-92969896D01*
X95459397Y-92870827D01*
X95459390Y-92870814D01*
X95371789Y-92739711D01*
X95371786Y-92739707D01*
X95260292Y-92628213D01*
X95260288Y-92628210D01*
X95129185Y-92540609D01*
X95129172Y-92540602D01*
X94983501Y-92480264D01*
X94983489Y-92480261D01*
X94828845Y-92449500D01*
X94828842Y-92449500D01*
X94671158Y-92449500D01*
X94671155Y-92449500D01*
X94516510Y-92480261D01*
X94516498Y-92480264D01*
X94370828Y-92540602D01*
X94370814Y-92540610D01*
X94360938Y-92547209D01*
X94294260Y-92568085D01*
X94226880Y-92549599D01*
X94200296Y-92527515D01*
X94194079Y-92520676D01*
X94173389Y-92489711D01*
X94091367Y-92407689D01*
X94089378Y-92405501D01*
X94075348Y-92376619D01*
X94059966Y-92348449D01*
X94060183Y-92345402D01*
X94058849Y-92342654D01*
X94062659Y-92310783D01*
X94064950Y-92278757D01*
X94066781Y-92276310D01*
X94067144Y-92273278D01*
X94087585Y-92248520D01*
X94106822Y-92222824D01*
X94110558Y-92220696D01*
X94111629Y-92219400D01*
X94114381Y-92218520D01*
X94124173Y-92212945D01*
X94123809Y-92212264D01*
X94129172Y-92209396D01*
X94129179Y-92209394D01*
X94260289Y-92121789D01*
X94371789Y-92010289D01*
X94459394Y-91879179D01*
X94519737Y-91733497D01*
X94550500Y-91578842D01*
X94550500Y-91421158D01*
X94550500Y-91421155D01*
X94550499Y-91421153D01*
X94519737Y-91266503D01*
X94484694Y-91181901D01*
X94459397Y-91120827D01*
X94459390Y-91120814D01*
X94371789Y-90989711D01*
X94371786Y-90989707D01*
X94260292Y-90878213D01*
X94260288Y-90878210D01*
X94129185Y-90790609D01*
X94129172Y-90790602D01*
X93983501Y-90730264D01*
X93983489Y-90730261D01*
X93828845Y-90699500D01*
X93828842Y-90699500D01*
X93671158Y-90699500D01*
X93671155Y-90699500D01*
X93516510Y-90730261D01*
X93516498Y-90730264D01*
X93370827Y-90790602D01*
X93370814Y-90790609D01*
X93239711Y-90878210D01*
X93239707Y-90878213D01*
X93128213Y-90989707D01*
X93128210Y-90989711D01*
X93040609Y-91120814D01*
X93040602Y-91120827D01*
X92980264Y-91266498D01*
X92980261Y-91266510D01*
X92949500Y-91421153D01*
X92949500Y-91578846D01*
X92980261Y-91733489D01*
X92980264Y-91733501D01*
X93040602Y-91879172D01*
X93040609Y-91879185D01*
X93128210Y-92010288D01*
X93128213Y-92010292D01*
X93208148Y-92090227D01*
X93241633Y-92151550D01*
X93236649Y-92221242D01*
X93194777Y-92277175D01*
X93177431Y-92287063D01*
X93177791Y-92287736D01*
X93172414Y-92290609D01*
X93041311Y-92378210D01*
X93041307Y-92378213D01*
X92929813Y-92489707D01*
X92929810Y-92489711D01*
X92842209Y-92620814D01*
X92842202Y-92620827D01*
X92781864Y-92766498D01*
X92781861Y-92766510D01*
X92751100Y-92921153D01*
X85007165Y-92921153D01*
X85067246Y-92736243D01*
X85100500Y-92526287D01*
X85100500Y-92313713D01*
X85067246Y-92103757D01*
X85001557Y-91901588D01*
X84905051Y-91712184D01*
X84905049Y-91712181D01*
X84905048Y-91712179D01*
X84780109Y-91540213D01*
X84629786Y-91389890D01*
X84457820Y-91264951D01*
X84268414Y-91168444D01*
X84268413Y-91168443D01*
X84268412Y-91168443D01*
X84066243Y-91102754D01*
X84066241Y-91102753D01*
X84066240Y-91102753D01*
X83904957Y-91077208D01*
X83856287Y-91069500D01*
X83643713Y-91069500D01*
X83595042Y-91077208D01*
X83433760Y-91102753D01*
X83231585Y-91168444D01*
X83042179Y-91264951D01*
X82870213Y-91389890D01*
X82719894Y-91540209D01*
X82719890Y-91540214D01*
X82599818Y-91705481D01*
X82544489Y-91748147D01*
X82474875Y-91754126D01*
X82413080Y-91721521D01*
X82378723Y-91660682D01*
X82375500Y-91632596D01*
X82375500Y-90869553D01*
X89449500Y-90869553D01*
X89449500Y-91027246D01*
X89480261Y-91181889D01*
X89480264Y-91181901D01*
X89540602Y-91327572D01*
X89540609Y-91327585D01*
X89628210Y-91458688D01*
X89628213Y-91458692D01*
X89739707Y-91570186D01*
X89739711Y-91570189D01*
X89870814Y-91657790D01*
X89870827Y-91657797D01*
X89985948Y-91705481D01*
X90016503Y-91718137D01*
X90171153Y-91748899D01*
X90171156Y-91748900D01*
X90171158Y-91748900D01*
X90328844Y-91748900D01*
X90328845Y-91748899D01*
X90483497Y-91718137D01*
X90629179Y-91657794D01*
X90760289Y-91570189D01*
X90871789Y-91458689D01*
X90959394Y-91327579D01*
X90959396Y-91327572D01*
X90962264Y-91322209D01*
X90964518Y-91323413D01*
X91001353Y-91277688D01*
X91067643Y-91255612D01*
X91135346Y-91272879D01*
X91159772Y-91291851D01*
X91239707Y-91371786D01*
X91239711Y-91371789D01*
X91370814Y-91459390D01*
X91370827Y-91459397D01*
X91516498Y-91519735D01*
X91516503Y-91519737D01*
X91671153Y-91550499D01*
X91671156Y-91550500D01*
X91671158Y-91550500D01*
X91828844Y-91550500D01*
X91828845Y-91550499D01*
X91983497Y-91519737D01*
X92129179Y-91459394D01*
X92260289Y-91371789D01*
X92371789Y-91260289D01*
X92459394Y-91129179D01*
X92462854Y-91120827D01*
X92491984Y-91050499D01*
X92519737Y-90983497D01*
X92550500Y-90828842D01*
X92550500Y-90671158D01*
X92550500Y-90671155D01*
X92550499Y-90671153D01*
X92538294Y-90609795D01*
X92519737Y-90516503D01*
X92506062Y-90483489D01*
X92459397Y-90370827D01*
X92459390Y-90370814D01*
X92371790Y-90239712D01*
X92371784Y-90239705D01*
X92303232Y-90171153D01*
X94449500Y-90171153D01*
X94449500Y-90328846D01*
X94480261Y-90483489D01*
X94480264Y-90483501D01*
X94540602Y-90629172D01*
X94540609Y-90629185D01*
X94628210Y-90760288D01*
X94628213Y-90760292D01*
X94739707Y-90871786D01*
X94739711Y-90871789D01*
X94870814Y-90959390D01*
X94870827Y-90959397D01*
X94944013Y-90989711D01*
X95016503Y-91019737D01*
X95171153Y-91050499D01*
X95171156Y-91050500D01*
X95171158Y-91050500D01*
X95328844Y-91050500D01*
X95328845Y-91050499D01*
X95483497Y-91019737D01*
X95629179Y-90959394D01*
X95760289Y-90871789D01*
X95871789Y-90760289D01*
X95959394Y-90629179D01*
X96019737Y-90483497D01*
X96050500Y-90328842D01*
X96050500Y-90171158D01*
X96050500Y-90171155D01*
X96050499Y-90171153D01*
X96035341Y-90094949D01*
X96019737Y-90016503D01*
X96005109Y-89981187D01*
X95959397Y-89870827D01*
X95959390Y-89870814D01*
X95871789Y-89739711D01*
X95871786Y-89739707D01*
X95760292Y-89628213D01*
X95760288Y-89628210D01*
X95629185Y-89540609D01*
X95629172Y-89540602D01*
X95483501Y-89480264D01*
X95483489Y-89480261D01*
X95328845Y-89449500D01*
X95328842Y-89449500D01*
X95171158Y-89449500D01*
X95171155Y-89449500D01*
X95016510Y-89480261D01*
X95016498Y-89480264D01*
X94870827Y-89540602D01*
X94870814Y-89540609D01*
X94739711Y-89628210D01*
X94739707Y-89628213D01*
X94628213Y-89739707D01*
X94628210Y-89739711D01*
X94540609Y-89870814D01*
X94540602Y-89870827D01*
X94480264Y-90016498D01*
X94480261Y-90016510D01*
X94449500Y-90171153D01*
X92303232Y-90171153D01*
X92260292Y-90128213D01*
X92260288Y-90128210D01*
X92129185Y-90040609D01*
X92129172Y-90040602D01*
X91983501Y-89980264D01*
X91983489Y-89980261D01*
X91828845Y-89949500D01*
X91828842Y-89949500D01*
X91709502Y-89949500D01*
X91642463Y-89929815D01*
X91596708Y-89877011D01*
X91587885Y-89849692D01*
X91571338Y-89766508D01*
X91571337Y-89766507D01*
X91571337Y-89766503D01*
X91565145Y-89751555D01*
X91510997Y-89620827D01*
X91510990Y-89620814D01*
X91423389Y-89489711D01*
X91423386Y-89489707D01*
X91311892Y-89378213D01*
X91311888Y-89378210D01*
X91180785Y-89290609D01*
X91180772Y-89290602D01*
X91035101Y-89230264D01*
X91035089Y-89230261D01*
X90880445Y-89199500D01*
X90880442Y-89199500D01*
X90722758Y-89199500D01*
X90722755Y-89199500D01*
X90568110Y-89230261D01*
X90568098Y-89230264D01*
X90422427Y-89290602D01*
X90422414Y-89290609D01*
X90291311Y-89378210D01*
X90291307Y-89378213D01*
X90179813Y-89489707D01*
X90179810Y-89489711D01*
X90092209Y-89620814D01*
X90092202Y-89620827D01*
X90031864Y-89766498D01*
X90031861Y-89766510D01*
X90001100Y-89921153D01*
X90001100Y-90078844D01*
X90001697Y-90084907D01*
X90000057Y-90085068D01*
X89994527Y-90146761D01*
X89951655Y-90201931D01*
X89926598Y-90215902D01*
X89870824Y-90239004D01*
X89870814Y-90239009D01*
X89739711Y-90326610D01*
X89739707Y-90326613D01*
X89628213Y-90438107D01*
X89628210Y-90438111D01*
X89540609Y-90569214D01*
X89540602Y-90569227D01*
X89480264Y-90714898D01*
X89480261Y-90714910D01*
X89449500Y-90869553D01*
X82375500Y-90869553D01*
X82375500Y-88171153D01*
X87949500Y-88171153D01*
X87949500Y-88328846D01*
X87980261Y-88483489D01*
X87980264Y-88483501D01*
X88040602Y-88629172D01*
X88040609Y-88629185D01*
X88128210Y-88760288D01*
X88128213Y-88760292D01*
X88239707Y-88871786D01*
X88239711Y-88871789D01*
X88370814Y-88959390D01*
X88370827Y-88959397D01*
X88513304Y-89018412D01*
X88516503Y-89019737D01*
X88671153Y-89050499D01*
X88671156Y-89050500D01*
X88671158Y-89050500D01*
X88828844Y-89050500D01*
X88828845Y-89050499D01*
X88983497Y-89019737D01*
X89129179Y-88959394D01*
X89260289Y-88871789D01*
X89371789Y-88760289D01*
X89431348Y-88671153D01*
X95751100Y-88671153D01*
X95751100Y-88828846D01*
X95781861Y-88983489D01*
X95781864Y-88983501D01*
X95842202Y-89129172D01*
X95842209Y-89129185D01*
X95929810Y-89260288D01*
X95929813Y-89260292D01*
X96041307Y-89371786D01*
X96041311Y-89371789D01*
X96172414Y-89459390D01*
X96172427Y-89459397D01*
X96245613Y-89489711D01*
X96318103Y-89519737D01*
X96472753Y-89550499D01*
X96472756Y-89550500D01*
X96472758Y-89550500D01*
X96630444Y-89550500D01*
X96630445Y-89550499D01*
X96785097Y-89519737D01*
X96930779Y-89459394D01*
X97061889Y-89371789D01*
X97173389Y-89260289D01*
X97260994Y-89129179D01*
X97321337Y-88983497D01*
X97324498Y-88967601D01*
X97356883Y-88905692D01*
X97417598Y-88871117D01*
X97487368Y-88874856D01*
X97515005Y-88888690D01*
X97620821Y-88959394D01*
X97620823Y-88959395D01*
X97620827Y-88959397D01*
X97763304Y-89018412D01*
X97766503Y-89019737D01*
X97921153Y-89050499D01*
X97921156Y-89050500D01*
X97921158Y-89050500D01*
X98078844Y-89050500D01*
X98078845Y-89050499D01*
X98233497Y-89019737D01*
X98379179Y-88959394D01*
X98510289Y-88871789D01*
X98621789Y-88760289D01*
X98709394Y-88629179D01*
X98769737Y-88483497D01*
X98800500Y-88328842D01*
X98800500Y-88171158D01*
X98800500Y-88171155D01*
X98800499Y-88171153D01*
X98791957Y-88128210D01*
X98769737Y-88016503D01*
X98755274Y-87981585D01*
X98709397Y-87870827D01*
X98709390Y-87870814D01*
X98621789Y-87739711D01*
X98621786Y-87739707D01*
X98510292Y-87628213D01*
X98510288Y-87628210D01*
X98379185Y-87540609D01*
X98379172Y-87540602D01*
X98233501Y-87480264D01*
X98233489Y-87480261D01*
X98078845Y-87449500D01*
X98078842Y-87449500D01*
X97921158Y-87449500D01*
X97921155Y-87449500D01*
X97766510Y-87480261D01*
X97766498Y-87480264D01*
X97620827Y-87540602D01*
X97620814Y-87540609D01*
X97489711Y-87628210D01*
X97489707Y-87628213D01*
X97378213Y-87739707D01*
X97378210Y-87739711D01*
X97290609Y-87870814D01*
X97290602Y-87870827D01*
X97230264Y-88016498D01*
X97230260Y-88016512D01*
X97227099Y-88032402D01*
X97194712Y-88094312D01*
X97133994Y-88128884D01*
X97064225Y-88125141D01*
X97036592Y-88111308D01*
X96930785Y-88040609D01*
X96930772Y-88040602D01*
X96785101Y-87980264D01*
X96785089Y-87980261D01*
X96630445Y-87949500D01*
X96630442Y-87949500D01*
X96472758Y-87949500D01*
X96472755Y-87949500D01*
X96318110Y-87980261D01*
X96318098Y-87980264D01*
X96172427Y-88040602D01*
X96172414Y-88040609D01*
X96041311Y-88128210D01*
X96041307Y-88128213D01*
X95929813Y-88239707D01*
X95929810Y-88239711D01*
X95842209Y-88370814D01*
X95842202Y-88370827D01*
X95781864Y-88516498D01*
X95781861Y-88516510D01*
X95751100Y-88671153D01*
X89431348Y-88671153D01*
X89459394Y-88629179D01*
X89519737Y-88483497D01*
X89550500Y-88328842D01*
X89550500Y-88171158D01*
X89550500Y-88171155D01*
X89550499Y-88171153D01*
X89541957Y-88128210D01*
X89519737Y-88016503D01*
X89505274Y-87981585D01*
X89459397Y-87870827D01*
X89459390Y-87870814D01*
X89371789Y-87739711D01*
X89371786Y-87739707D01*
X89260292Y-87628213D01*
X89260288Y-87628210D01*
X89129185Y-87540609D01*
X89129172Y-87540602D01*
X88983501Y-87480264D01*
X88983489Y-87480261D01*
X88828845Y-87449500D01*
X88828842Y-87449500D01*
X88671158Y-87449500D01*
X88671155Y-87449500D01*
X88516510Y-87480261D01*
X88516498Y-87480264D01*
X88370827Y-87540602D01*
X88370814Y-87540609D01*
X88239711Y-87628210D01*
X88239707Y-87628213D01*
X88128213Y-87739707D01*
X88128210Y-87739711D01*
X88040609Y-87870814D01*
X88040602Y-87870827D01*
X87980264Y-88016498D01*
X87980261Y-88016510D01*
X87949500Y-88171153D01*
X82375500Y-88171153D01*
X82375500Y-86290854D01*
X82395185Y-86223815D01*
X82447989Y-86178060D01*
X82517147Y-86168116D01*
X82580703Y-86197141D01*
X82602602Y-86221963D01*
X82628210Y-86260288D01*
X82628213Y-86260292D01*
X82739707Y-86371786D01*
X82739711Y-86371789D01*
X82870814Y-86459390D01*
X82870827Y-86459397D01*
X83016498Y-86519735D01*
X83016503Y-86519737D01*
X83171153Y-86550499D01*
X83171156Y-86550500D01*
X83171158Y-86550500D01*
X83328844Y-86550500D01*
X83328845Y-86550499D01*
X83483497Y-86519737D01*
X83629179Y-86459394D01*
X83760289Y-86371789D01*
X83871789Y-86260289D01*
X83959394Y-86129179D01*
X84019737Y-85983497D01*
X84050500Y-85828842D01*
X84050500Y-85671158D01*
X84050500Y-85671155D01*
X84050499Y-85671153D01*
X84019738Y-85516510D01*
X84019737Y-85516503D01*
X83985463Y-85433757D01*
X83959397Y-85370827D01*
X83959390Y-85370814D01*
X83871789Y-85239711D01*
X83871786Y-85239707D01*
X83760292Y-85128213D01*
X83760288Y-85128210D01*
X83629185Y-85040609D01*
X83629172Y-85040602D01*
X83483501Y-84980264D01*
X83483489Y-84980261D01*
X83328845Y-84949500D01*
X83328842Y-84949500D01*
X83171158Y-84949500D01*
X83171155Y-84949500D01*
X83016510Y-84980261D01*
X83016498Y-84980264D01*
X82870827Y-85040602D01*
X82870814Y-85040609D01*
X82739711Y-85128210D01*
X82739707Y-85128213D01*
X82628213Y-85239707D01*
X82628208Y-85239713D01*
X82602601Y-85278037D01*
X82548989Y-85322841D01*
X82479664Y-85331548D01*
X82416636Y-85301393D01*
X82379918Y-85241949D01*
X82375500Y-85209145D01*
X82375500Y-81671153D01*
X107199500Y-81671153D01*
X107199500Y-81828846D01*
X107230261Y-81983489D01*
X107230264Y-81983501D01*
X107290602Y-82129172D01*
X107290609Y-82129185D01*
X107378210Y-82260288D01*
X107378213Y-82260292D01*
X107489707Y-82371786D01*
X107489711Y-82371789D01*
X107620814Y-82459390D01*
X107620827Y-82459397D01*
X107766498Y-82519735D01*
X107766503Y-82519737D01*
X107921153Y-82550499D01*
X107921156Y-82550500D01*
X107921158Y-82550500D01*
X108078844Y-82550500D01*
X108078845Y-82550499D01*
X108233497Y-82519737D01*
X108379179Y-82459394D01*
X108510289Y-82371789D01*
X108621789Y-82260289D01*
X108709394Y-82129179D01*
X108769737Y-81983497D01*
X108800500Y-81828842D01*
X108800500Y-81671158D01*
X108800500Y-81671155D01*
X108800499Y-81671153D01*
X108785077Y-81593624D01*
X108769737Y-81516503D01*
X108745317Y-81457547D01*
X108709397Y-81370827D01*
X108709390Y-81370814D01*
X108621789Y-81239711D01*
X108621786Y-81239707D01*
X108510292Y-81128213D01*
X108510288Y-81128210D01*
X108379185Y-81040609D01*
X108379172Y-81040602D01*
X108233501Y-80980264D01*
X108233489Y-80980261D01*
X108078845Y-80949500D01*
X108078842Y-80949500D01*
X107921158Y-80949500D01*
X107921155Y-80949500D01*
X107766510Y-80980261D01*
X107766498Y-80980264D01*
X107620827Y-81040602D01*
X107620814Y-81040609D01*
X107489711Y-81128210D01*
X107489707Y-81128213D01*
X107378213Y-81239707D01*
X107378210Y-81239711D01*
X107290609Y-81370814D01*
X107290602Y-81370827D01*
X107230264Y-81516498D01*
X107230261Y-81516510D01*
X107199500Y-81671153D01*
X82375500Y-81671153D01*
X82375500Y-80540854D01*
X82395185Y-80473815D01*
X82447989Y-80428060D01*
X82517147Y-80418116D01*
X82580703Y-80447141D01*
X82602602Y-80471963D01*
X82628210Y-80510288D01*
X82628213Y-80510292D01*
X82739707Y-80621786D01*
X82739711Y-80621789D01*
X82870814Y-80709390D01*
X82870827Y-80709397D01*
X83016498Y-80769735D01*
X83016503Y-80769737D01*
X83171153Y-80800499D01*
X83171156Y-80800500D01*
X83171158Y-80800500D01*
X83328844Y-80800500D01*
X83328845Y-80800499D01*
X83483497Y-80769737D01*
X83629179Y-80709394D01*
X83760289Y-80621789D01*
X83871789Y-80510289D01*
X83959394Y-80379179D01*
X84019737Y-80233497D01*
X84050500Y-80078842D01*
X84050500Y-79921158D01*
X84050500Y-79921155D01*
X84050499Y-79921153D01*
X84019738Y-79766510D01*
X84019737Y-79766503D01*
X84019735Y-79766498D01*
X83959397Y-79620827D01*
X83959390Y-79620814D01*
X83871789Y-79489711D01*
X83871786Y-79489707D01*
X83760292Y-79378213D01*
X83760288Y-79378210D01*
X83629185Y-79290609D01*
X83629172Y-79290602D01*
X83483501Y-79230264D01*
X83483489Y-79230261D01*
X83328845Y-79199500D01*
X83328842Y-79199500D01*
X83171158Y-79199500D01*
X83171155Y-79199500D01*
X83016510Y-79230261D01*
X83016498Y-79230264D01*
X82870827Y-79290602D01*
X82870814Y-79290609D01*
X82739711Y-79378210D01*
X82739707Y-79378213D01*
X82628213Y-79489707D01*
X82628208Y-79489713D01*
X82602601Y-79528037D01*
X82548989Y-79572841D01*
X82479664Y-79581548D01*
X82416636Y-79551393D01*
X82379918Y-79491949D01*
X82375500Y-79459145D01*
X82375500Y-78186194D01*
X92964541Y-78186194D01*
X92964541Y-78343887D01*
X92995302Y-78498530D01*
X92995305Y-78498542D01*
X93055643Y-78644213D01*
X93055650Y-78644226D01*
X93143251Y-78775329D01*
X93143254Y-78775333D01*
X93254748Y-78886827D01*
X93254752Y-78886830D01*
X93385855Y-78974431D01*
X93385868Y-78974438D01*
X93472429Y-79010292D01*
X93531544Y-79034778D01*
X93686194Y-79065540D01*
X93686197Y-79065541D01*
X93686199Y-79065541D01*
X93843885Y-79065541D01*
X93843886Y-79065540D01*
X93998538Y-79034778D01*
X94144220Y-78974435D01*
X94275330Y-78886830D01*
X94386830Y-78775330D01*
X94474435Y-78644220D01*
X94534778Y-78498538D01*
X94565541Y-78343883D01*
X94565541Y-78186199D01*
X94565541Y-78186196D01*
X94565540Y-78186194D01*
X94555857Y-78137513D01*
X94534778Y-78031544D01*
X94524364Y-78006403D01*
X94474438Y-77885868D01*
X94474431Y-77885855D01*
X94386830Y-77754752D01*
X94386827Y-77754748D01*
X94275333Y-77643254D01*
X94275329Y-77643251D01*
X94144226Y-77555650D01*
X94144213Y-77555643D01*
X93998542Y-77495305D01*
X93998530Y-77495302D01*
X93843886Y-77464541D01*
X93843883Y-77464541D01*
X93686199Y-77464541D01*
X93686196Y-77464541D01*
X93531551Y-77495302D01*
X93531539Y-77495305D01*
X93385868Y-77555643D01*
X93385855Y-77555650D01*
X93254752Y-77643251D01*
X93254748Y-77643254D01*
X93143254Y-77754748D01*
X93143251Y-77754752D01*
X93055650Y-77885855D01*
X93055643Y-77885868D01*
X92995305Y-78031539D01*
X92995302Y-78031551D01*
X92964541Y-78186194D01*
X82375500Y-78186194D01*
X82375500Y-76624500D01*
X82395185Y-76557461D01*
X82447989Y-76511706D01*
X82499500Y-76500500D01*
X105991379Y-76500500D01*
X105999345Y-76502839D01*
G37*
%TD.AperFunction*%
%TD*%
M02*
