%TF.GenerationSoftware,KiCad,Pcbnew,9.0.9-9.0.9~ubuntu24.04.1*%
%TF.CreationDate,2026-07-09T08:35:24+03:00*%
%TF.ProjectId,sounddecoder-esp32-s3-wroom-2-mini,736f756e-6464-4656-936f-6465722d6573,rev?*%
%TF.SameCoordinates,Original*%
%TF.FileFunction,Legend,Top*%
%TF.FilePolarity,Positive*%
%FSLAX46Y46*%
G04 Gerber Fmt 4.6, Leading zero omitted, Abs format (unit mm)*
G04 Created by KiCad (PCBNEW 9.0.9-9.0.9~ubuntu24.04.1) date 2026-07-09 08:35:24*
%MOMM*%
%LPD*%
G01*
G04 APERTURE LIST*
%ADD10C,0.100000*%
%ADD11C,0.125000*%
%ADD12C,0.150000*%
%ADD13C,0.120000*%
G04 APERTURE END LIST*
D10*
X107196115Y-98991466D02*
X106434211Y-98991466D01*
X106815163Y-99372419D02*
X106815163Y-98610514D01*
X108196115Y-95741466D02*
X107434211Y-95741466D01*
X107815163Y-96122419D02*
X107815163Y-95360514D01*
X112446115Y-134741466D02*
X111684211Y-134741466D01*
X112065163Y-135122419D02*
X112065163Y-134360514D01*
D11*
X108166666Y-109474809D02*
X108000000Y-109236714D01*
X107880952Y-109474809D02*
X107880952Y-108974809D01*
X107880952Y-108974809D02*
X108071428Y-108974809D01*
X108071428Y-108974809D02*
X108119047Y-108998619D01*
X108119047Y-108998619D02*
X108142857Y-109022428D01*
X108142857Y-109022428D02*
X108166666Y-109070047D01*
X108166666Y-109070047D02*
X108166666Y-109141476D01*
X108166666Y-109141476D02*
X108142857Y-109189095D01*
X108142857Y-109189095D02*
X108119047Y-109212904D01*
X108119047Y-109212904D02*
X108071428Y-109236714D01*
X108071428Y-109236714D02*
X107880952Y-109236714D01*
X108333333Y-108974809D02*
X108666666Y-108974809D01*
X108666666Y-108974809D02*
X108452381Y-109474809D01*
X110166666Y-109474809D02*
X110000000Y-109236714D01*
X109880952Y-109474809D02*
X109880952Y-108974809D01*
X109880952Y-108974809D02*
X110071428Y-108974809D01*
X110071428Y-108974809D02*
X110119047Y-108998619D01*
X110119047Y-108998619D02*
X110142857Y-109022428D01*
X110142857Y-109022428D02*
X110166666Y-109070047D01*
X110166666Y-109070047D02*
X110166666Y-109141476D01*
X110166666Y-109141476D02*
X110142857Y-109189095D01*
X110142857Y-109189095D02*
X110119047Y-109212904D01*
X110119047Y-109212904D02*
X110071428Y-109236714D01*
X110071428Y-109236714D02*
X109880952Y-109236714D01*
X110595238Y-108974809D02*
X110500000Y-108974809D01*
X110500000Y-108974809D02*
X110452381Y-108998619D01*
X110452381Y-108998619D02*
X110428571Y-109022428D01*
X110428571Y-109022428D02*
X110380952Y-109093857D01*
X110380952Y-109093857D02*
X110357143Y-109189095D01*
X110357143Y-109189095D02*
X110357143Y-109379571D01*
X110357143Y-109379571D02*
X110380952Y-109427190D01*
X110380952Y-109427190D02*
X110404762Y-109451000D01*
X110404762Y-109451000D02*
X110452381Y-109474809D01*
X110452381Y-109474809D02*
X110547619Y-109474809D01*
X110547619Y-109474809D02*
X110595238Y-109451000D01*
X110595238Y-109451000D02*
X110619047Y-109427190D01*
X110619047Y-109427190D02*
X110642857Y-109379571D01*
X110642857Y-109379571D02*
X110642857Y-109260523D01*
X110642857Y-109260523D02*
X110619047Y-109212904D01*
X110619047Y-109212904D02*
X110595238Y-109189095D01*
X110595238Y-109189095D02*
X110547619Y-109165285D01*
X110547619Y-109165285D02*
X110452381Y-109165285D01*
X110452381Y-109165285D02*
X110404762Y-109189095D01*
X110404762Y-109189095D02*
X110380952Y-109212904D01*
X110380952Y-109212904D02*
X110357143Y-109260523D01*
X112166666Y-109474809D02*
X112000000Y-109236714D01*
X111880952Y-109474809D02*
X111880952Y-108974809D01*
X111880952Y-108974809D02*
X112071428Y-108974809D01*
X112071428Y-108974809D02*
X112119047Y-108998619D01*
X112119047Y-108998619D02*
X112142857Y-109022428D01*
X112142857Y-109022428D02*
X112166666Y-109070047D01*
X112166666Y-109070047D02*
X112166666Y-109141476D01*
X112166666Y-109141476D02*
X112142857Y-109189095D01*
X112142857Y-109189095D02*
X112119047Y-109212904D01*
X112119047Y-109212904D02*
X112071428Y-109236714D01*
X112071428Y-109236714D02*
X111880952Y-109236714D01*
X112595238Y-109141476D02*
X112595238Y-109474809D01*
X112476190Y-108951000D02*
X112357143Y-109308142D01*
X112357143Y-109308142D02*
X112666666Y-109308142D01*
X106166666Y-109474809D02*
X106000000Y-109236714D01*
X105880952Y-109474809D02*
X105880952Y-108974809D01*
X105880952Y-108974809D02*
X106071428Y-108974809D01*
X106071428Y-108974809D02*
X106119047Y-108998619D01*
X106119047Y-108998619D02*
X106142857Y-109022428D01*
X106142857Y-109022428D02*
X106166666Y-109070047D01*
X106166666Y-109070047D02*
X106166666Y-109141476D01*
X106166666Y-109141476D02*
X106142857Y-109189095D01*
X106142857Y-109189095D02*
X106119047Y-109212904D01*
X106119047Y-109212904D02*
X106071428Y-109236714D01*
X106071428Y-109236714D02*
X105880952Y-109236714D01*
X106619047Y-108974809D02*
X106380952Y-108974809D01*
X106380952Y-108974809D02*
X106357143Y-109212904D01*
X106357143Y-109212904D02*
X106380952Y-109189095D01*
X106380952Y-109189095D02*
X106428571Y-109165285D01*
X106428571Y-109165285D02*
X106547619Y-109165285D01*
X106547619Y-109165285D02*
X106595238Y-109189095D01*
X106595238Y-109189095D02*
X106619047Y-109212904D01*
X106619047Y-109212904D02*
X106642857Y-109260523D01*
X106642857Y-109260523D02*
X106642857Y-109379571D01*
X106642857Y-109379571D02*
X106619047Y-109427190D01*
X106619047Y-109427190D02*
X106595238Y-109451000D01*
X106595238Y-109451000D02*
X106547619Y-109474809D01*
X106547619Y-109474809D02*
X106428571Y-109474809D01*
X106428571Y-109474809D02*
X106380952Y-109451000D01*
X106380952Y-109451000D02*
X106357143Y-109427190D01*
D12*
X82464285Y-101874819D02*
X82464285Y-102589104D01*
X82464285Y-102589104D02*
X82416666Y-102731961D01*
X82416666Y-102731961D02*
X82321428Y-102827200D01*
X82321428Y-102827200D02*
X82178571Y-102874819D01*
X82178571Y-102874819D02*
X82083333Y-102874819D01*
X83464285Y-102874819D02*
X82892857Y-102874819D01*
X83178571Y-102874819D02*
X83178571Y-101874819D01*
X83178571Y-101874819D02*
X83083333Y-102017676D01*
X83083333Y-102017676D02*
X82988095Y-102112914D01*
X82988095Y-102112914D02*
X82892857Y-102160533D01*
X84083333Y-101874819D02*
X84178571Y-101874819D01*
X84178571Y-101874819D02*
X84273809Y-101922438D01*
X84273809Y-101922438D02*
X84321428Y-101970057D01*
X84321428Y-101970057D02*
X84369047Y-102065295D01*
X84369047Y-102065295D02*
X84416666Y-102255771D01*
X84416666Y-102255771D02*
X84416666Y-102493866D01*
X84416666Y-102493866D02*
X84369047Y-102684342D01*
X84369047Y-102684342D02*
X84321428Y-102779580D01*
X84321428Y-102779580D02*
X84273809Y-102827200D01*
X84273809Y-102827200D02*
X84178571Y-102874819D01*
X84178571Y-102874819D02*
X84083333Y-102874819D01*
X84083333Y-102874819D02*
X83988095Y-102827200D01*
X83988095Y-102827200D02*
X83940476Y-102779580D01*
X83940476Y-102779580D02*
X83892857Y-102684342D01*
X83892857Y-102684342D02*
X83845238Y-102493866D01*
X83845238Y-102493866D02*
X83845238Y-102255771D01*
X83845238Y-102255771D02*
X83892857Y-102065295D01*
X83892857Y-102065295D02*
X83940476Y-101970057D01*
X83940476Y-101970057D02*
X83988095Y-101922438D01*
X83988095Y-101922438D02*
X84083333Y-101874819D01*
X85369047Y-102874819D02*
X84797619Y-102874819D01*
X85083333Y-102874819D02*
X85083333Y-101874819D01*
X85083333Y-101874819D02*
X84988095Y-102017676D01*
X84988095Y-102017676D02*
X84892857Y-102112914D01*
X84892857Y-102112914D02*
X84797619Y-102160533D01*
X99738095Y-98204819D02*
X99738095Y-99014342D01*
X99738095Y-99014342D02*
X99785714Y-99109580D01*
X99785714Y-99109580D02*
X99833333Y-99157200D01*
X99833333Y-99157200D02*
X99928571Y-99204819D01*
X99928571Y-99204819D02*
X100119047Y-99204819D01*
X100119047Y-99204819D02*
X100214285Y-99157200D01*
X100214285Y-99157200D02*
X100261904Y-99109580D01*
X100261904Y-99109580D02*
X100309523Y-99014342D01*
X100309523Y-99014342D02*
X100309523Y-98204819D01*
X101214285Y-98204819D02*
X101023809Y-98204819D01*
X101023809Y-98204819D02*
X100928571Y-98252438D01*
X100928571Y-98252438D02*
X100880952Y-98300057D01*
X100880952Y-98300057D02*
X100785714Y-98442914D01*
X100785714Y-98442914D02*
X100738095Y-98633390D01*
X100738095Y-98633390D02*
X100738095Y-99014342D01*
X100738095Y-99014342D02*
X100785714Y-99109580D01*
X100785714Y-99109580D02*
X100833333Y-99157200D01*
X100833333Y-99157200D02*
X100928571Y-99204819D01*
X100928571Y-99204819D02*
X101119047Y-99204819D01*
X101119047Y-99204819D02*
X101214285Y-99157200D01*
X101214285Y-99157200D02*
X101261904Y-99109580D01*
X101261904Y-99109580D02*
X101309523Y-99014342D01*
X101309523Y-99014342D02*
X101309523Y-98776247D01*
X101309523Y-98776247D02*
X101261904Y-98681009D01*
X101261904Y-98681009D02*
X101214285Y-98633390D01*
X101214285Y-98633390D02*
X101119047Y-98585771D01*
X101119047Y-98585771D02*
X100928571Y-98585771D01*
X100928571Y-98585771D02*
X100833333Y-98633390D01*
X100833333Y-98633390D02*
X100785714Y-98681009D01*
X100785714Y-98681009D02*
X100738095Y-98776247D01*
D11*
X82928571Y-78389690D02*
X82904762Y-78413500D01*
X82904762Y-78413500D02*
X82833333Y-78437309D01*
X82833333Y-78437309D02*
X82785714Y-78437309D01*
X82785714Y-78437309D02*
X82714286Y-78413500D01*
X82714286Y-78413500D02*
X82666667Y-78365880D01*
X82666667Y-78365880D02*
X82642857Y-78318261D01*
X82642857Y-78318261D02*
X82619048Y-78223023D01*
X82619048Y-78223023D02*
X82619048Y-78151595D01*
X82619048Y-78151595D02*
X82642857Y-78056357D01*
X82642857Y-78056357D02*
X82666667Y-78008738D01*
X82666667Y-78008738D02*
X82714286Y-77961119D01*
X82714286Y-77961119D02*
X82785714Y-77937309D01*
X82785714Y-77937309D02*
X82833333Y-77937309D01*
X82833333Y-77937309D02*
X82904762Y-77961119D01*
X82904762Y-77961119D02*
X82928571Y-77984928D01*
X83404762Y-78437309D02*
X83119048Y-78437309D01*
X83261905Y-78437309D02*
X83261905Y-77937309D01*
X83261905Y-77937309D02*
X83214286Y-78008738D01*
X83214286Y-78008738D02*
X83166667Y-78056357D01*
X83166667Y-78056357D02*
X83119048Y-78080166D01*
X83714285Y-77937309D02*
X83761904Y-77937309D01*
X83761904Y-77937309D02*
X83809523Y-77961119D01*
X83809523Y-77961119D02*
X83833333Y-77984928D01*
X83833333Y-77984928D02*
X83857142Y-78032547D01*
X83857142Y-78032547D02*
X83880952Y-78127785D01*
X83880952Y-78127785D02*
X83880952Y-78246833D01*
X83880952Y-78246833D02*
X83857142Y-78342071D01*
X83857142Y-78342071D02*
X83833333Y-78389690D01*
X83833333Y-78389690D02*
X83809523Y-78413500D01*
X83809523Y-78413500D02*
X83761904Y-78437309D01*
X83761904Y-78437309D02*
X83714285Y-78437309D01*
X83714285Y-78437309D02*
X83666666Y-78413500D01*
X83666666Y-78413500D02*
X83642857Y-78389690D01*
X83642857Y-78389690D02*
X83619047Y-78342071D01*
X83619047Y-78342071D02*
X83595238Y-78246833D01*
X83595238Y-78246833D02*
X83595238Y-78127785D01*
X83595238Y-78127785D02*
X83619047Y-78032547D01*
X83619047Y-78032547D02*
X83642857Y-77984928D01*
X83642857Y-77984928D02*
X83666666Y-77961119D01*
X83666666Y-77961119D02*
X83714285Y-77937309D01*
X85166666Y-80224809D02*
X85000000Y-79986714D01*
X84880952Y-80224809D02*
X84880952Y-79724809D01*
X84880952Y-79724809D02*
X85071428Y-79724809D01*
X85071428Y-79724809D02*
X85119047Y-79748619D01*
X85119047Y-79748619D02*
X85142857Y-79772428D01*
X85142857Y-79772428D02*
X85166666Y-79820047D01*
X85166666Y-79820047D02*
X85166666Y-79891476D01*
X85166666Y-79891476D02*
X85142857Y-79939095D01*
X85142857Y-79939095D02*
X85119047Y-79962904D01*
X85119047Y-79962904D02*
X85071428Y-79986714D01*
X85071428Y-79986714D02*
X84880952Y-79986714D01*
X85357143Y-79772428D02*
X85380952Y-79748619D01*
X85380952Y-79748619D02*
X85428571Y-79724809D01*
X85428571Y-79724809D02*
X85547619Y-79724809D01*
X85547619Y-79724809D02*
X85595238Y-79748619D01*
X85595238Y-79748619D02*
X85619047Y-79772428D01*
X85619047Y-79772428D02*
X85642857Y-79820047D01*
X85642857Y-79820047D02*
X85642857Y-79867666D01*
X85642857Y-79867666D02*
X85619047Y-79939095D01*
X85619047Y-79939095D02*
X85333333Y-80224809D01*
X85333333Y-80224809D02*
X85642857Y-80224809D01*
D12*
X89083333Y-111204819D02*
X88607143Y-111204819D01*
X88607143Y-111204819D02*
X88607143Y-110204819D01*
X89940476Y-111204819D02*
X89369048Y-111204819D01*
X89654762Y-111204819D02*
X89654762Y-110204819D01*
X89654762Y-110204819D02*
X89559524Y-110347676D01*
X89559524Y-110347676D02*
X89464286Y-110442914D01*
X89464286Y-110442914D02*
X89369048Y-110490533D01*
X110657200Y-82011904D02*
X110704819Y-81869047D01*
X110704819Y-81869047D02*
X110704819Y-81630952D01*
X110704819Y-81630952D02*
X110657200Y-81535714D01*
X110657200Y-81535714D02*
X110609580Y-81488095D01*
X110609580Y-81488095D02*
X110514342Y-81440476D01*
X110514342Y-81440476D02*
X110419104Y-81440476D01*
X110419104Y-81440476D02*
X110323866Y-81488095D01*
X110323866Y-81488095D02*
X110276247Y-81535714D01*
X110276247Y-81535714D02*
X110228628Y-81630952D01*
X110228628Y-81630952D02*
X110181009Y-81821428D01*
X110181009Y-81821428D02*
X110133390Y-81916666D01*
X110133390Y-81916666D02*
X110085771Y-81964285D01*
X110085771Y-81964285D02*
X109990533Y-82011904D01*
X109990533Y-82011904D02*
X109895295Y-82011904D01*
X109895295Y-82011904D02*
X109800057Y-81964285D01*
X109800057Y-81964285D02*
X109752438Y-81916666D01*
X109752438Y-81916666D02*
X109704819Y-81821428D01*
X109704819Y-81821428D02*
X109704819Y-81583333D01*
X109704819Y-81583333D02*
X109752438Y-81440476D01*
X110038152Y-81011904D02*
X111038152Y-81011904D01*
X110085771Y-81011904D02*
X110038152Y-80916666D01*
X110038152Y-80916666D02*
X110038152Y-80726190D01*
X110038152Y-80726190D02*
X110085771Y-80630952D01*
X110085771Y-80630952D02*
X110133390Y-80583333D01*
X110133390Y-80583333D02*
X110228628Y-80535714D01*
X110228628Y-80535714D02*
X110514342Y-80535714D01*
X110514342Y-80535714D02*
X110609580Y-80583333D01*
X110609580Y-80583333D02*
X110657200Y-80630952D01*
X110657200Y-80630952D02*
X110704819Y-80726190D01*
X110704819Y-80726190D02*
X110704819Y-80916666D01*
X110704819Y-80916666D02*
X110657200Y-81011904D01*
X110657200Y-79726190D02*
X110704819Y-79821428D01*
X110704819Y-79821428D02*
X110704819Y-80011904D01*
X110704819Y-80011904D02*
X110657200Y-80107142D01*
X110657200Y-80107142D02*
X110561961Y-80154761D01*
X110561961Y-80154761D02*
X110181009Y-80154761D01*
X110181009Y-80154761D02*
X110085771Y-80107142D01*
X110085771Y-80107142D02*
X110038152Y-80011904D01*
X110038152Y-80011904D02*
X110038152Y-79821428D01*
X110038152Y-79821428D02*
X110085771Y-79726190D01*
X110085771Y-79726190D02*
X110181009Y-79678571D01*
X110181009Y-79678571D02*
X110276247Y-79678571D01*
X110276247Y-79678571D02*
X110371485Y-80154761D01*
X110704819Y-78821428D02*
X110181009Y-78821428D01*
X110181009Y-78821428D02*
X110085771Y-78869047D01*
X110085771Y-78869047D02*
X110038152Y-78964285D01*
X110038152Y-78964285D02*
X110038152Y-79154761D01*
X110038152Y-79154761D02*
X110085771Y-79249999D01*
X110657200Y-78821428D02*
X110704819Y-78916666D01*
X110704819Y-78916666D02*
X110704819Y-79154761D01*
X110704819Y-79154761D02*
X110657200Y-79249999D01*
X110657200Y-79249999D02*
X110561961Y-79297618D01*
X110561961Y-79297618D02*
X110466723Y-79297618D01*
X110466723Y-79297618D02*
X110371485Y-79249999D01*
X110371485Y-79249999D02*
X110323866Y-79154761D01*
X110323866Y-79154761D02*
X110323866Y-78916666D01*
X110323866Y-78916666D02*
X110276247Y-78821428D01*
X110704819Y-78345237D02*
X109704819Y-78345237D01*
X110323866Y-78249999D02*
X110704819Y-77964285D01*
X110038152Y-77964285D02*
X110419104Y-78345237D01*
X110657200Y-77154761D02*
X110704819Y-77249999D01*
X110704819Y-77249999D02*
X110704819Y-77440475D01*
X110704819Y-77440475D02*
X110657200Y-77535713D01*
X110657200Y-77535713D02*
X110561961Y-77583332D01*
X110561961Y-77583332D02*
X110181009Y-77583332D01*
X110181009Y-77583332D02*
X110085771Y-77535713D01*
X110085771Y-77535713D02*
X110038152Y-77440475D01*
X110038152Y-77440475D02*
X110038152Y-77249999D01*
X110038152Y-77249999D02*
X110085771Y-77154761D01*
X110085771Y-77154761D02*
X110181009Y-77107142D01*
X110181009Y-77107142D02*
X110276247Y-77107142D01*
X110276247Y-77107142D02*
X110371485Y-77583332D01*
X110704819Y-76678570D02*
X110038152Y-76678570D01*
X110228628Y-76678570D02*
X110133390Y-76630951D01*
X110133390Y-76630951D02*
X110085771Y-76583332D01*
X110085771Y-76583332D02*
X110038152Y-76488094D01*
X110038152Y-76488094D02*
X110038152Y-76392856D01*
X88704819Y-93413220D02*
X89514342Y-93413220D01*
X89514342Y-93413220D02*
X89609580Y-93365601D01*
X89609580Y-93365601D02*
X89657200Y-93317982D01*
X89657200Y-93317982D02*
X89704819Y-93222744D01*
X89704819Y-93222744D02*
X89704819Y-93032268D01*
X89704819Y-93032268D02*
X89657200Y-92937030D01*
X89657200Y-92937030D02*
X89609580Y-92889411D01*
X89609580Y-92889411D02*
X89514342Y-92841792D01*
X89514342Y-92841792D02*
X88704819Y-92841792D01*
X88704819Y-92460839D02*
X88704819Y-91794173D01*
X88704819Y-91794173D02*
X89704819Y-92222744D01*
X105987319Y-125793333D02*
X104987319Y-125793333D01*
X104987319Y-125793333D02*
X105701604Y-125460000D01*
X105701604Y-125460000D02*
X104987319Y-125126667D01*
X104987319Y-125126667D02*
X105987319Y-125126667D01*
X105987319Y-124507619D02*
X105939700Y-124602857D01*
X105939700Y-124602857D02*
X105892080Y-124650476D01*
X105892080Y-124650476D02*
X105796842Y-124698095D01*
X105796842Y-124698095D02*
X105511128Y-124698095D01*
X105511128Y-124698095D02*
X105415890Y-124650476D01*
X105415890Y-124650476D02*
X105368271Y-124602857D01*
X105368271Y-124602857D02*
X105320652Y-124507619D01*
X105320652Y-124507619D02*
X105320652Y-124364762D01*
X105320652Y-124364762D02*
X105368271Y-124269524D01*
X105368271Y-124269524D02*
X105415890Y-124221905D01*
X105415890Y-124221905D02*
X105511128Y-124174286D01*
X105511128Y-124174286D02*
X105796842Y-124174286D01*
X105796842Y-124174286D02*
X105892080Y-124221905D01*
X105892080Y-124221905D02*
X105939700Y-124269524D01*
X105939700Y-124269524D02*
X105987319Y-124364762D01*
X105987319Y-124364762D02*
X105987319Y-124507619D01*
X105320652Y-123888571D02*
X105320652Y-123507619D01*
X104987319Y-123745714D02*
X105844461Y-123745714D01*
X105844461Y-123745714D02*
X105939700Y-123698095D01*
X105939700Y-123698095D02*
X105987319Y-123602857D01*
X105987319Y-123602857D02*
X105987319Y-123507619D01*
X105987319Y-123031428D02*
X105939700Y-123126666D01*
X105939700Y-123126666D02*
X105892080Y-123174285D01*
X105892080Y-123174285D02*
X105796842Y-123221904D01*
X105796842Y-123221904D02*
X105511128Y-123221904D01*
X105511128Y-123221904D02*
X105415890Y-123174285D01*
X105415890Y-123174285D02*
X105368271Y-123126666D01*
X105368271Y-123126666D02*
X105320652Y-123031428D01*
X105320652Y-123031428D02*
X105320652Y-122888571D01*
X105320652Y-122888571D02*
X105368271Y-122793333D01*
X105368271Y-122793333D02*
X105415890Y-122745714D01*
X105415890Y-122745714D02*
X105511128Y-122698095D01*
X105511128Y-122698095D02*
X105796842Y-122698095D01*
X105796842Y-122698095D02*
X105892080Y-122745714D01*
X105892080Y-122745714D02*
X105939700Y-122793333D01*
X105939700Y-122793333D02*
X105987319Y-122888571D01*
X105987319Y-122888571D02*
X105987319Y-123031428D01*
X105987319Y-122269523D02*
X105320652Y-122269523D01*
X105511128Y-122269523D02*
X105415890Y-122221904D01*
X105415890Y-122221904D02*
X105368271Y-122174285D01*
X105368271Y-122174285D02*
X105320652Y-122079047D01*
X105320652Y-122079047D02*
X105320652Y-121983809D01*
D11*
X112166666Y-113724809D02*
X112000000Y-113486714D01*
X111880952Y-113724809D02*
X111880952Y-113224809D01*
X111880952Y-113224809D02*
X112071428Y-113224809D01*
X112071428Y-113224809D02*
X112119047Y-113248619D01*
X112119047Y-113248619D02*
X112142857Y-113272428D01*
X112142857Y-113272428D02*
X112166666Y-113320047D01*
X112166666Y-113320047D02*
X112166666Y-113391476D01*
X112166666Y-113391476D02*
X112142857Y-113439095D01*
X112142857Y-113439095D02*
X112119047Y-113462904D01*
X112119047Y-113462904D02*
X112071428Y-113486714D01*
X112071428Y-113486714D02*
X111880952Y-113486714D01*
X112642857Y-113724809D02*
X112357143Y-113724809D01*
X112500000Y-113724809D02*
X112500000Y-113224809D01*
X112500000Y-113224809D02*
X112452381Y-113296238D01*
X112452381Y-113296238D02*
X112404762Y-113343857D01*
X112404762Y-113343857D02*
X112357143Y-113367666D01*
D12*
X101609580Y-107916666D02*
X101657200Y-107964285D01*
X101657200Y-107964285D02*
X101704819Y-108107142D01*
X101704819Y-108107142D02*
X101704819Y-108202380D01*
X101704819Y-108202380D02*
X101657200Y-108345237D01*
X101657200Y-108345237D02*
X101561961Y-108440475D01*
X101561961Y-108440475D02*
X101466723Y-108488094D01*
X101466723Y-108488094D02*
X101276247Y-108535713D01*
X101276247Y-108535713D02*
X101133390Y-108535713D01*
X101133390Y-108535713D02*
X100942914Y-108488094D01*
X100942914Y-108488094D02*
X100847676Y-108440475D01*
X100847676Y-108440475D02*
X100752438Y-108345237D01*
X100752438Y-108345237D02*
X100704819Y-108202380D01*
X100704819Y-108202380D02*
X100704819Y-108107142D01*
X100704819Y-108107142D02*
X100752438Y-107964285D01*
X100752438Y-107964285D02*
X100800057Y-107916666D01*
X100704819Y-107059523D02*
X100704819Y-107249999D01*
X100704819Y-107249999D02*
X100752438Y-107345237D01*
X100752438Y-107345237D02*
X100800057Y-107392856D01*
X100800057Y-107392856D02*
X100942914Y-107488094D01*
X100942914Y-107488094D02*
X101133390Y-107535713D01*
X101133390Y-107535713D02*
X101514342Y-107535713D01*
X101514342Y-107535713D02*
X101609580Y-107488094D01*
X101609580Y-107488094D02*
X101657200Y-107440475D01*
X101657200Y-107440475D02*
X101704819Y-107345237D01*
X101704819Y-107345237D02*
X101704819Y-107154761D01*
X101704819Y-107154761D02*
X101657200Y-107059523D01*
X101657200Y-107059523D02*
X101609580Y-107011904D01*
X101609580Y-107011904D02*
X101514342Y-106964285D01*
X101514342Y-106964285D02*
X101276247Y-106964285D01*
X101276247Y-106964285D02*
X101181009Y-107011904D01*
X101181009Y-107011904D02*
X101133390Y-107059523D01*
X101133390Y-107059523D02*
X101085771Y-107154761D01*
X101085771Y-107154761D02*
X101085771Y-107345237D01*
X101085771Y-107345237D02*
X101133390Y-107440475D01*
X101133390Y-107440475D02*
X101181009Y-107488094D01*
X101181009Y-107488094D02*
X101276247Y-107535713D01*
X89761905Y-98954819D02*
X89761905Y-97954819D01*
X89761905Y-97954819D02*
X90000000Y-97954819D01*
X90000000Y-97954819D02*
X90142857Y-98002438D01*
X90142857Y-98002438D02*
X90238095Y-98097676D01*
X90238095Y-98097676D02*
X90285714Y-98192914D01*
X90285714Y-98192914D02*
X90333333Y-98383390D01*
X90333333Y-98383390D02*
X90333333Y-98526247D01*
X90333333Y-98526247D02*
X90285714Y-98716723D01*
X90285714Y-98716723D02*
X90238095Y-98811961D01*
X90238095Y-98811961D02*
X90142857Y-98907200D01*
X90142857Y-98907200D02*
X90000000Y-98954819D01*
X90000000Y-98954819D02*
X89761905Y-98954819D01*
X91285714Y-98954819D02*
X90714286Y-98954819D01*
X91000000Y-98954819D02*
X91000000Y-97954819D01*
X91000000Y-97954819D02*
X90904762Y-98097676D01*
X90904762Y-98097676D02*
X90809524Y-98192914D01*
X90809524Y-98192914D02*
X90714286Y-98240533D01*
D11*
X106916666Y-82927190D02*
X106892857Y-82951000D01*
X106892857Y-82951000D02*
X106821428Y-82974809D01*
X106821428Y-82974809D02*
X106773809Y-82974809D01*
X106773809Y-82974809D02*
X106702381Y-82951000D01*
X106702381Y-82951000D02*
X106654762Y-82903380D01*
X106654762Y-82903380D02*
X106630952Y-82855761D01*
X106630952Y-82855761D02*
X106607143Y-82760523D01*
X106607143Y-82760523D02*
X106607143Y-82689095D01*
X106607143Y-82689095D02*
X106630952Y-82593857D01*
X106630952Y-82593857D02*
X106654762Y-82546238D01*
X106654762Y-82546238D02*
X106702381Y-82498619D01*
X106702381Y-82498619D02*
X106773809Y-82474809D01*
X106773809Y-82474809D02*
X106821428Y-82474809D01*
X106821428Y-82474809D02*
X106892857Y-82498619D01*
X106892857Y-82498619D02*
X106916666Y-82522428D01*
X107083333Y-82474809D02*
X107416666Y-82474809D01*
X107416666Y-82474809D02*
X107202381Y-82974809D01*
X108916666Y-82964690D02*
X108892857Y-82988500D01*
X108892857Y-82988500D02*
X108821428Y-83012309D01*
X108821428Y-83012309D02*
X108773809Y-83012309D01*
X108773809Y-83012309D02*
X108702381Y-82988500D01*
X108702381Y-82988500D02*
X108654762Y-82940880D01*
X108654762Y-82940880D02*
X108630952Y-82893261D01*
X108630952Y-82893261D02*
X108607143Y-82798023D01*
X108607143Y-82798023D02*
X108607143Y-82726595D01*
X108607143Y-82726595D02*
X108630952Y-82631357D01*
X108630952Y-82631357D02*
X108654762Y-82583738D01*
X108654762Y-82583738D02*
X108702381Y-82536119D01*
X108702381Y-82536119D02*
X108773809Y-82512309D01*
X108773809Y-82512309D02*
X108821428Y-82512309D01*
X108821428Y-82512309D02*
X108892857Y-82536119D01*
X108892857Y-82536119D02*
X108916666Y-82559928D01*
X109202381Y-82726595D02*
X109154762Y-82702785D01*
X109154762Y-82702785D02*
X109130952Y-82678976D01*
X109130952Y-82678976D02*
X109107143Y-82631357D01*
X109107143Y-82631357D02*
X109107143Y-82607547D01*
X109107143Y-82607547D02*
X109130952Y-82559928D01*
X109130952Y-82559928D02*
X109154762Y-82536119D01*
X109154762Y-82536119D02*
X109202381Y-82512309D01*
X109202381Y-82512309D02*
X109297619Y-82512309D01*
X109297619Y-82512309D02*
X109345238Y-82536119D01*
X109345238Y-82536119D02*
X109369047Y-82559928D01*
X109369047Y-82559928D02*
X109392857Y-82607547D01*
X109392857Y-82607547D02*
X109392857Y-82631357D01*
X109392857Y-82631357D02*
X109369047Y-82678976D01*
X109369047Y-82678976D02*
X109345238Y-82702785D01*
X109345238Y-82702785D02*
X109297619Y-82726595D01*
X109297619Y-82726595D02*
X109202381Y-82726595D01*
X109202381Y-82726595D02*
X109154762Y-82750404D01*
X109154762Y-82750404D02*
X109130952Y-82774214D01*
X109130952Y-82774214D02*
X109107143Y-82821833D01*
X109107143Y-82821833D02*
X109107143Y-82917071D01*
X109107143Y-82917071D02*
X109130952Y-82964690D01*
X109130952Y-82964690D02*
X109154762Y-82988500D01*
X109154762Y-82988500D02*
X109202381Y-83012309D01*
X109202381Y-83012309D02*
X109297619Y-83012309D01*
X109297619Y-83012309D02*
X109345238Y-82988500D01*
X109345238Y-82988500D02*
X109369047Y-82964690D01*
X109369047Y-82964690D02*
X109392857Y-82917071D01*
X109392857Y-82917071D02*
X109392857Y-82821833D01*
X109392857Y-82821833D02*
X109369047Y-82774214D01*
X109369047Y-82774214D02*
X109345238Y-82750404D01*
X109345238Y-82750404D02*
X109297619Y-82726595D01*
D12*
X98609580Y-114666666D02*
X98657200Y-114714285D01*
X98657200Y-114714285D02*
X98704819Y-114857142D01*
X98704819Y-114857142D02*
X98704819Y-114952380D01*
X98704819Y-114952380D02*
X98657200Y-115095237D01*
X98657200Y-115095237D02*
X98561961Y-115190475D01*
X98561961Y-115190475D02*
X98466723Y-115238094D01*
X98466723Y-115238094D02*
X98276247Y-115285713D01*
X98276247Y-115285713D02*
X98133390Y-115285713D01*
X98133390Y-115285713D02*
X97942914Y-115238094D01*
X97942914Y-115238094D02*
X97847676Y-115190475D01*
X97847676Y-115190475D02*
X97752438Y-115095237D01*
X97752438Y-115095237D02*
X97704819Y-114952380D01*
X97704819Y-114952380D02*
X97704819Y-114857142D01*
X97704819Y-114857142D02*
X97752438Y-114714285D01*
X97752438Y-114714285D02*
X97800057Y-114666666D01*
X97704819Y-113761904D02*
X97704819Y-114238094D01*
X97704819Y-114238094D02*
X98181009Y-114285713D01*
X98181009Y-114285713D02*
X98133390Y-114238094D01*
X98133390Y-114238094D02*
X98085771Y-114142856D01*
X98085771Y-114142856D02*
X98085771Y-113904761D01*
X98085771Y-113904761D02*
X98133390Y-113809523D01*
X98133390Y-113809523D02*
X98181009Y-113761904D01*
X98181009Y-113761904D02*
X98276247Y-113714285D01*
X98276247Y-113714285D02*
X98514342Y-113714285D01*
X98514342Y-113714285D02*
X98609580Y-113761904D01*
X98609580Y-113761904D02*
X98657200Y-113809523D01*
X98657200Y-113809523D02*
X98704819Y-113904761D01*
X98704819Y-113904761D02*
X98704819Y-114142856D01*
X98704819Y-114142856D02*
X98657200Y-114238094D01*
X98657200Y-114238094D02*
X98609580Y-114285713D01*
X82317319Y-123511904D02*
X83126842Y-123511904D01*
X83126842Y-123511904D02*
X83222080Y-123464285D01*
X83222080Y-123464285D02*
X83269700Y-123416666D01*
X83269700Y-123416666D02*
X83317319Y-123321428D01*
X83317319Y-123321428D02*
X83317319Y-123130952D01*
X83317319Y-123130952D02*
X83269700Y-123035714D01*
X83269700Y-123035714D02*
X83222080Y-122988095D01*
X83222080Y-122988095D02*
X83126842Y-122940476D01*
X83126842Y-122940476D02*
X82317319Y-122940476D01*
X83317319Y-121940476D02*
X83317319Y-122511904D01*
X83317319Y-122226190D02*
X82317319Y-122226190D01*
X82317319Y-122226190D02*
X82460176Y-122321428D01*
X82460176Y-122321428D02*
X82555414Y-122416666D01*
X82555414Y-122416666D02*
X82603033Y-122511904D01*
D11*
X84474809Y-86833333D02*
X84236714Y-86999999D01*
X84474809Y-87119047D02*
X83974809Y-87119047D01*
X83974809Y-87119047D02*
X83974809Y-86928571D01*
X83974809Y-86928571D02*
X83998619Y-86880952D01*
X83998619Y-86880952D02*
X84022428Y-86857142D01*
X84022428Y-86857142D02*
X84070047Y-86833333D01*
X84070047Y-86833333D02*
X84141476Y-86833333D01*
X84141476Y-86833333D02*
X84189095Y-86857142D01*
X84189095Y-86857142D02*
X84212904Y-86880952D01*
X84212904Y-86880952D02*
X84236714Y-86928571D01*
X84236714Y-86928571D02*
X84236714Y-87119047D01*
X83974809Y-86666666D02*
X83974809Y-86357142D01*
X83974809Y-86357142D02*
X84165285Y-86523809D01*
X84165285Y-86523809D02*
X84165285Y-86452380D01*
X84165285Y-86452380D02*
X84189095Y-86404761D01*
X84189095Y-86404761D02*
X84212904Y-86380952D01*
X84212904Y-86380952D02*
X84260523Y-86357142D01*
X84260523Y-86357142D02*
X84379571Y-86357142D01*
X84379571Y-86357142D02*
X84427190Y-86380952D01*
X84427190Y-86380952D02*
X84451000Y-86404761D01*
X84451000Y-86404761D02*
X84474809Y-86452380D01*
X84474809Y-86452380D02*
X84474809Y-86595237D01*
X84474809Y-86595237D02*
X84451000Y-86642856D01*
X84451000Y-86642856D02*
X84427190Y-86666666D01*
D12*
X110416666Y-82454819D02*
X110416666Y-83169104D01*
X110416666Y-83169104D02*
X110369047Y-83311961D01*
X110369047Y-83311961D02*
X110273809Y-83407200D01*
X110273809Y-83407200D02*
X110130952Y-83454819D01*
X110130952Y-83454819D02*
X110035714Y-83454819D01*
X110845238Y-82550057D02*
X110892857Y-82502438D01*
X110892857Y-82502438D02*
X110988095Y-82454819D01*
X110988095Y-82454819D02*
X111226190Y-82454819D01*
X111226190Y-82454819D02*
X111321428Y-82502438D01*
X111321428Y-82502438D02*
X111369047Y-82550057D01*
X111369047Y-82550057D02*
X111416666Y-82645295D01*
X111416666Y-82645295D02*
X111416666Y-82740533D01*
X111416666Y-82740533D02*
X111369047Y-82883390D01*
X111369047Y-82883390D02*
X110797619Y-83454819D01*
X110797619Y-83454819D02*
X111416666Y-83454819D01*
D11*
X94416666Y-120927190D02*
X94392857Y-120951000D01*
X94392857Y-120951000D02*
X94321428Y-120974809D01*
X94321428Y-120974809D02*
X94273809Y-120974809D01*
X94273809Y-120974809D02*
X94202381Y-120951000D01*
X94202381Y-120951000D02*
X94154762Y-120903380D01*
X94154762Y-120903380D02*
X94130952Y-120855761D01*
X94130952Y-120855761D02*
X94107143Y-120760523D01*
X94107143Y-120760523D02*
X94107143Y-120689095D01*
X94107143Y-120689095D02*
X94130952Y-120593857D01*
X94130952Y-120593857D02*
X94154762Y-120546238D01*
X94154762Y-120546238D02*
X94202381Y-120498619D01*
X94202381Y-120498619D02*
X94273809Y-120474809D01*
X94273809Y-120474809D02*
X94321428Y-120474809D01*
X94321428Y-120474809D02*
X94392857Y-120498619D01*
X94392857Y-120498619D02*
X94416666Y-120522428D01*
X94583333Y-120474809D02*
X94892857Y-120474809D01*
X94892857Y-120474809D02*
X94726190Y-120665285D01*
X94726190Y-120665285D02*
X94797619Y-120665285D01*
X94797619Y-120665285D02*
X94845238Y-120689095D01*
X94845238Y-120689095D02*
X94869047Y-120712904D01*
X94869047Y-120712904D02*
X94892857Y-120760523D01*
X94892857Y-120760523D02*
X94892857Y-120879571D01*
X94892857Y-120879571D02*
X94869047Y-120927190D01*
X94869047Y-120927190D02*
X94845238Y-120951000D01*
X94845238Y-120951000D02*
X94797619Y-120974809D01*
X94797619Y-120974809D02*
X94654762Y-120974809D01*
X94654762Y-120974809D02*
X94607143Y-120951000D01*
X94607143Y-120951000D02*
X94583333Y-120927190D01*
D12*
X107108095Y-81014819D02*
X107108095Y-81824342D01*
X107108095Y-81824342D02*
X107155714Y-81919580D01*
X107155714Y-81919580D02*
X107203333Y-81967200D01*
X107203333Y-81967200D02*
X107298571Y-82014819D01*
X107298571Y-82014819D02*
X107489047Y-82014819D01*
X107489047Y-82014819D02*
X107584285Y-81967200D01*
X107584285Y-81967200D02*
X107631904Y-81919580D01*
X107631904Y-81919580D02*
X107679523Y-81824342D01*
X107679523Y-81824342D02*
X107679523Y-81014819D01*
X108060476Y-81014819D02*
X108679523Y-81014819D01*
X108679523Y-81014819D02*
X108346190Y-81395771D01*
X108346190Y-81395771D02*
X108489047Y-81395771D01*
X108489047Y-81395771D02*
X108584285Y-81443390D01*
X108584285Y-81443390D02*
X108631904Y-81491009D01*
X108631904Y-81491009D02*
X108679523Y-81586247D01*
X108679523Y-81586247D02*
X108679523Y-81824342D01*
X108679523Y-81824342D02*
X108631904Y-81919580D01*
X108631904Y-81919580D02*
X108584285Y-81967200D01*
X108584285Y-81967200D02*
X108489047Y-82014819D01*
X108489047Y-82014819D02*
X108203333Y-82014819D01*
X108203333Y-82014819D02*
X108108095Y-81967200D01*
X108108095Y-81967200D02*
X108060476Y-81919580D01*
D11*
X84928571Y-83964690D02*
X84904762Y-83988500D01*
X84904762Y-83988500D02*
X84833333Y-84012309D01*
X84833333Y-84012309D02*
X84785714Y-84012309D01*
X84785714Y-84012309D02*
X84714286Y-83988500D01*
X84714286Y-83988500D02*
X84666667Y-83940880D01*
X84666667Y-83940880D02*
X84642857Y-83893261D01*
X84642857Y-83893261D02*
X84619048Y-83798023D01*
X84619048Y-83798023D02*
X84619048Y-83726595D01*
X84619048Y-83726595D02*
X84642857Y-83631357D01*
X84642857Y-83631357D02*
X84666667Y-83583738D01*
X84666667Y-83583738D02*
X84714286Y-83536119D01*
X84714286Y-83536119D02*
X84785714Y-83512309D01*
X84785714Y-83512309D02*
X84833333Y-83512309D01*
X84833333Y-83512309D02*
X84904762Y-83536119D01*
X84904762Y-83536119D02*
X84928571Y-83559928D01*
X85404762Y-84012309D02*
X85119048Y-84012309D01*
X85261905Y-84012309D02*
X85261905Y-83512309D01*
X85261905Y-83512309D02*
X85214286Y-83583738D01*
X85214286Y-83583738D02*
X85166667Y-83631357D01*
X85166667Y-83631357D02*
X85119048Y-83655166D01*
X85595238Y-83559928D02*
X85619047Y-83536119D01*
X85619047Y-83536119D02*
X85666666Y-83512309D01*
X85666666Y-83512309D02*
X85785714Y-83512309D01*
X85785714Y-83512309D02*
X85833333Y-83536119D01*
X85833333Y-83536119D02*
X85857142Y-83559928D01*
X85857142Y-83559928D02*
X85880952Y-83607547D01*
X85880952Y-83607547D02*
X85880952Y-83655166D01*
X85880952Y-83655166D02*
X85857142Y-83726595D01*
X85857142Y-83726595D02*
X85571428Y-84012309D01*
X85571428Y-84012309D02*
X85880952Y-84012309D01*
D12*
X105454819Y-135400476D02*
X104454819Y-135400476D01*
X104788152Y-134924286D02*
X105454819Y-134924286D01*
X104883390Y-134924286D02*
X104835771Y-134876667D01*
X104835771Y-134876667D02*
X104788152Y-134781429D01*
X104788152Y-134781429D02*
X104788152Y-134638572D01*
X104788152Y-134638572D02*
X104835771Y-134543334D01*
X104835771Y-134543334D02*
X104931009Y-134495715D01*
X104931009Y-134495715D02*
X105454819Y-134495715D01*
X104788152Y-134019524D02*
X105788152Y-134019524D01*
X104835771Y-134019524D02*
X104788152Y-133924286D01*
X104788152Y-133924286D02*
X104788152Y-133733810D01*
X104788152Y-133733810D02*
X104835771Y-133638572D01*
X104835771Y-133638572D02*
X104883390Y-133590953D01*
X104883390Y-133590953D02*
X104978628Y-133543334D01*
X104978628Y-133543334D02*
X105264342Y-133543334D01*
X105264342Y-133543334D02*
X105359580Y-133590953D01*
X105359580Y-133590953D02*
X105407200Y-133638572D01*
X105407200Y-133638572D02*
X105454819Y-133733810D01*
X105454819Y-133733810D02*
X105454819Y-133924286D01*
X105454819Y-133924286D02*
X105407200Y-134019524D01*
X104788152Y-132686191D02*
X105454819Y-132686191D01*
X104788152Y-133114762D02*
X105311961Y-133114762D01*
X105311961Y-133114762D02*
X105407200Y-133067143D01*
X105407200Y-133067143D02*
X105454819Y-132971905D01*
X105454819Y-132971905D02*
X105454819Y-132829048D01*
X105454819Y-132829048D02*
X105407200Y-132733810D01*
X105407200Y-132733810D02*
X105359580Y-132686191D01*
X104788152Y-132352857D02*
X104788152Y-131971905D01*
X104454819Y-132210000D02*
X105311961Y-132210000D01*
X105311961Y-132210000D02*
X105407200Y-132162381D01*
X105407200Y-132162381D02*
X105454819Y-132067143D01*
X105454819Y-132067143D02*
X105454819Y-131971905D01*
X104788152Y-130876666D02*
X105788152Y-130876666D01*
X104835771Y-130876666D02*
X104788152Y-130781428D01*
X104788152Y-130781428D02*
X104788152Y-130590952D01*
X104788152Y-130590952D02*
X104835771Y-130495714D01*
X104835771Y-130495714D02*
X104883390Y-130448095D01*
X104883390Y-130448095D02*
X104978628Y-130400476D01*
X104978628Y-130400476D02*
X105264342Y-130400476D01*
X105264342Y-130400476D02*
X105359580Y-130448095D01*
X105359580Y-130448095D02*
X105407200Y-130495714D01*
X105407200Y-130495714D02*
X105454819Y-130590952D01*
X105454819Y-130590952D02*
X105454819Y-130781428D01*
X105454819Y-130781428D02*
X105407200Y-130876666D01*
X105454819Y-129829047D02*
X105407200Y-129924285D01*
X105407200Y-129924285D02*
X105359580Y-129971904D01*
X105359580Y-129971904D02*
X105264342Y-130019523D01*
X105264342Y-130019523D02*
X104978628Y-130019523D01*
X104978628Y-130019523D02*
X104883390Y-129971904D01*
X104883390Y-129971904D02*
X104835771Y-129924285D01*
X104835771Y-129924285D02*
X104788152Y-129829047D01*
X104788152Y-129829047D02*
X104788152Y-129686190D01*
X104788152Y-129686190D02*
X104835771Y-129590952D01*
X104835771Y-129590952D02*
X104883390Y-129543333D01*
X104883390Y-129543333D02*
X104978628Y-129495714D01*
X104978628Y-129495714D02*
X105264342Y-129495714D01*
X105264342Y-129495714D02*
X105359580Y-129543333D01*
X105359580Y-129543333D02*
X105407200Y-129590952D01*
X105407200Y-129590952D02*
X105454819Y-129686190D01*
X105454819Y-129686190D02*
X105454819Y-129829047D01*
X104788152Y-129162380D02*
X105454819Y-128971904D01*
X105454819Y-128971904D02*
X104978628Y-128781428D01*
X104978628Y-128781428D02*
X105454819Y-128590952D01*
X105454819Y-128590952D02*
X104788152Y-128400476D01*
X105407200Y-127638571D02*
X105454819Y-127733809D01*
X105454819Y-127733809D02*
X105454819Y-127924285D01*
X105454819Y-127924285D02*
X105407200Y-128019523D01*
X105407200Y-128019523D02*
X105311961Y-128067142D01*
X105311961Y-128067142D02*
X104931009Y-128067142D01*
X104931009Y-128067142D02*
X104835771Y-128019523D01*
X104835771Y-128019523D02*
X104788152Y-127924285D01*
X104788152Y-127924285D02*
X104788152Y-127733809D01*
X104788152Y-127733809D02*
X104835771Y-127638571D01*
X104835771Y-127638571D02*
X104931009Y-127590952D01*
X104931009Y-127590952D02*
X105026247Y-127590952D01*
X105026247Y-127590952D02*
X105121485Y-128067142D01*
X105454819Y-127162380D02*
X104788152Y-127162380D01*
X104978628Y-127162380D02*
X104883390Y-127114761D01*
X104883390Y-127114761D02*
X104835771Y-127067142D01*
X104835771Y-127067142D02*
X104788152Y-126971904D01*
X104788152Y-126971904D02*
X104788152Y-126876666D01*
X108663095Y-100934819D02*
X108663095Y-101744342D01*
X108663095Y-101744342D02*
X108710714Y-101839580D01*
X108710714Y-101839580D02*
X108758333Y-101887200D01*
X108758333Y-101887200D02*
X108853571Y-101934819D01*
X108853571Y-101934819D02*
X109044047Y-101934819D01*
X109044047Y-101934819D02*
X109139285Y-101887200D01*
X109139285Y-101887200D02*
X109186904Y-101839580D01*
X109186904Y-101839580D02*
X109234523Y-101744342D01*
X109234523Y-101744342D02*
X109234523Y-100934819D01*
X109853571Y-101363390D02*
X109758333Y-101315771D01*
X109758333Y-101315771D02*
X109710714Y-101268152D01*
X109710714Y-101268152D02*
X109663095Y-101172914D01*
X109663095Y-101172914D02*
X109663095Y-101125295D01*
X109663095Y-101125295D02*
X109710714Y-101030057D01*
X109710714Y-101030057D02*
X109758333Y-100982438D01*
X109758333Y-100982438D02*
X109853571Y-100934819D01*
X109853571Y-100934819D02*
X110044047Y-100934819D01*
X110044047Y-100934819D02*
X110139285Y-100982438D01*
X110139285Y-100982438D02*
X110186904Y-101030057D01*
X110186904Y-101030057D02*
X110234523Y-101125295D01*
X110234523Y-101125295D02*
X110234523Y-101172914D01*
X110234523Y-101172914D02*
X110186904Y-101268152D01*
X110186904Y-101268152D02*
X110139285Y-101315771D01*
X110139285Y-101315771D02*
X110044047Y-101363390D01*
X110044047Y-101363390D02*
X109853571Y-101363390D01*
X109853571Y-101363390D02*
X109758333Y-101411009D01*
X109758333Y-101411009D02*
X109710714Y-101458628D01*
X109710714Y-101458628D02*
X109663095Y-101553866D01*
X109663095Y-101553866D02*
X109663095Y-101744342D01*
X109663095Y-101744342D02*
X109710714Y-101839580D01*
X109710714Y-101839580D02*
X109758333Y-101887200D01*
X109758333Y-101887200D02*
X109853571Y-101934819D01*
X109853571Y-101934819D02*
X110044047Y-101934819D01*
X110044047Y-101934819D02*
X110139285Y-101887200D01*
X110139285Y-101887200D02*
X110186904Y-101839580D01*
X110186904Y-101839580D02*
X110234523Y-101744342D01*
X110234523Y-101744342D02*
X110234523Y-101553866D01*
X110234523Y-101553866D02*
X110186904Y-101458628D01*
X110186904Y-101458628D02*
X110139285Y-101411009D01*
X110139285Y-101411009D02*
X110044047Y-101363390D01*
X101822080Y-129166666D02*
X101869700Y-129214285D01*
X101869700Y-129214285D02*
X101917319Y-129357142D01*
X101917319Y-129357142D02*
X101917319Y-129452380D01*
X101917319Y-129452380D02*
X101869700Y-129595237D01*
X101869700Y-129595237D02*
X101774461Y-129690475D01*
X101774461Y-129690475D02*
X101679223Y-129738094D01*
X101679223Y-129738094D02*
X101488747Y-129785713D01*
X101488747Y-129785713D02*
X101345890Y-129785713D01*
X101345890Y-129785713D02*
X101155414Y-129738094D01*
X101155414Y-129738094D02*
X101060176Y-129690475D01*
X101060176Y-129690475D02*
X100964938Y-129595237D01*
X100964938Y-129595237D02*
X100917319Y-129452380D01*
X100917319Y-129452380D02*
X100917319Y-129357142D01*
X100917319Y-129357142D02*
X100964938Y-129214285D01*
X100964938Y-129214285D02*
X101012557Y-129166666D01*
X101250652Y-128309523D02*
X101917319Y-128309523D01*
X100869700Y-128547618D02*
X101583985Y-128785713D01*
X101583985Y-128785713D02*
X101583985Y-128166666D01*
X111299819Y-117961904D02*
X112109342Y-117961904D01*
X112109342Y-117961904D02*
X112204580Y-117914285D01*
X112204580Y-117914285D02*
X112252200Y-117866666D01*
X112252200Y-117866666D02*
X112299819Y-117771428D01*
X112299819Y-117771428D02*
X112299819Y-117580952D01*
X112299819Y-117580952D02*
X112252200Y-117485714D01*
X112252200Y-117485714D02*
X112204580Y-117438095D01*
X112204580Y-117438095D02*
X112109342Y-117390476D01*
X112109342Y-117390476D02*
X111299819Y-117390476D01*
X111633152Y-116485714D02*
X112299819Y-116485714D01*
X111252200Y-116723809D02*
X111966485Y-116961904D01*
X111966485Y-116961904D02*
X111966485Y-116342857D01*
D11*
X82928571Y-82139690D02*
X82904762Y-82163500D01*
X82904762Y-82163500D02*
X82833333Y-82187309D01*
X82833333Y-82187309D02*
X82785714Y-82187309D01*
X82785714Y-82187309D02*
X82714286Y-82163500D01*
X82714286Y-82163500D02*
X82666667Y-82115880D01*
X82666667Y-82115880D02*
X82642857Y-82068261D01*
X82642857Y-82068261D02*
X82619048Y-81973023D01*
X82619048Y-81973023D02*
X82619048Y-81901595D01*
X82619048Y-81901595D02*
X82642857Y-81806357D01*
X82642857Y-81806357D02*
X82666667Y-81758738D01*
X82666667Y-81758738D02*
X82714286Y-81711119D01*
X82714286Y-81711119D02*
X82785714Y-81687309D01*
X82785714Y-81687309D02*
X82833333Y-81687309D01*
X82833333Y-81687309D02*
X82904762Y-81711119D01*
X82904762Y-81711119D02*
X82928571Y-81734928D01*
X83404762Y-82187309D02*
X83119048Y-82187309D01*
X83261905Y-82187309D02*
X83261905Y-81687309D01*
X83261905Y-81687309D02*
X83214286Y-81758738D01*
X83214286Y-81758738D02*
X83166667Y-81806357D01*
X83166667Y-81806357D02*
X83119048Y-81830166D01*
X83880952Y-82187309D02*
X83595238Y-82187309D01*
X83738095Y-82187309D02*
X83738095Y-81687309D01*
X83738095Y-81687309D02*
X83690476Y-81758738D01*
X83690476Y-81758738D02*
X83642857Y-81806357D01*
X83642857Y-81806357D02*
X83595238Y-81830166D01*
X104177190Y-122083333D02*
X104201000Y-122107142D01*
X104201000Y-122107142D02*
X104224809Y-122178571D01*
X104224809Y-122178571D02*
X104224809Y-122226190D01*
X104224809Y-122226190D02*
X104201000Y-122297618D01*
X104201000Y-122297618D02*
X104153380Y-122345237D01*
X104153380Y-122345237D02*
X104105761Y-122369047D01*
X104105761Y-122369047D02*
X104010523Y-122392856D01*
X104010523Y-122392856D02*
X103939095Y-122392856D01*
X103939095Y-122392856D02*
X103843857Y-122369047D01*
X103843857Y-122369047D02*
X103796238Y-122345237D01*
X103796238Y-122345237D02*
X103748619Y-122297618D01*
X103748619Y-122297618D02*
X103724809Y-122226190D01*
X103724809Y-122226190D02*
X103724809Y-122178571D01*
X103724809Y-122178571D02*
X103748619Y-122107142D01*
X103748619Y-122107142D02*
X103772428Y-122083333D01*
X104224809Y-121607142D02*
X104224809Y-121892856D01*
X104224809Y-121749999D02*
X103724809Y-121749999D01*
X103724809Y-121749999D02*
X103796238Y-121797618D01*
X103796238Y-121797618D02*
X103843857Y-121845237D01*
X103843857Y-121845237D02*
X103867666Y-121892856D01*
D13*
%TO.C,R7*%
X108985000Y-109022936D02*
X108985000Y-109477064D01*
X107515000Y-109022936D02*
X107515000Y-109477064D01*
%TO.C,R6*%
X110985000Y-109022936D02*
X110985000Y-109477064D01*
X109515000Y-109022936D02*
X109515000Y-109477064D01*
%TO.C,R4*%
X111515000Y-109477064D02*
X111515000Y-109022936D01*
X112985000Y-109477064D02*
X112985000Y-109022936D01*
%TO.C,R5*%
X105515000Y-109477064D02*
X105515000Y-109022936D01*
X106985000Y-109477064D02*
X106985000Y-109022936D01*
%TO.C,J101*%
X85130000Y-101420000D02*
X83750000Y-101420000D01*
X85130000Y-100040000D02*
X85130000Y-101420000D01*
X85130000Y-98770000D02*
X85130000Y-88500000D01*
X85130000Y-98770000D02*
X82370000Y-98770000D01*
X85130000Y-88500000D02*
X82370000Y-88500000D01*
X82370000Y-98770000D02*
X82370000Y-88500000D01*
%TO.C,U6*%
X97370000Y-97190000D02*
X97130000Y-96860000D01*
X97610000Y-96860000D01*
X97370000Y-97190000D01*
G36*
X97370000Y-97190000D02*
G01*
X97130000Y-96860000D01*
X97610000Y-96860000D01*
X97370000Y-97190000D01*
G37*
X98650000Y-103910000D02*
X102410000Y-103910000D01*
X102410000Y-103910000D02*
X102410000Y-102650000D01*
X98650000Y-97090000D02*
X102410000Y-97090000D01*
X102410000Y-97090000D02*
X102410000Y-98350000D01*
%TO.C,C10*%
X83985000Y-78473752D02*
X83985000Y-77951248D01*
X82515000Y-78473752D02*
X82515000Y-77951248D01*
%TO.C,R2*%
X85985000Y-79772936D02*
X85985000Y-80227064D01*
X84515000Y-79772936D02*
X84515000Y-80227064D01*
%TO.C,L1*%
X82800000Y-107950000D02*
X82800000Y-105050000D01*
X82800000Y-116450000D02*
X82800000Y-113550000D01*
X83500000Y-104350000D02*
X95000000Y-104350000D01*
X95000000Y-117150000D02*
X83500000Y-117150000D01*
X95700000Y-107950000D02*
X95700000Y-105050000D01*
X95700000Y-116500000D02*
X95700000Y-113550000D01*
X82800000Y-105050000D02*
G75*
G02*
X83500000Y-104350000I700000J0D01*
G01*
X83500000Y-117150000D02*
G75*
G02*
X82800000Y-116450000I0J700000D01*
G01*
X95000000Y-104350000D02*
G75*
G02*
X95700000Y-105050000I1J-699999D01*
G01*
X95700000Y-116450000D02*
G75*
G02*
X95000000Y-117150000I-699999J-1D01*
G01*
%TO.C,J10*%
X111645000Y-92630000D02*
X111645000Y-89870000D01*
X108995000Y-92630000D02*
X111645000Y-92630000D01*
X108995000Y-92630000D02*
X108995000Y-89870000D01*
X108995000Y-89870000D02*
X111645000Y-89870000D01*
X107725000Y-92630000D02*
X106345000Y-92630000D01*
X106345000Y-92630000D02*
X106345000Y-91250000D01*
%TO.C,J4*%
X113130000Y-81630000D02*
X111750000Y-81630000D01*
X113130000Y-80250000D02*
X113130000Y-81630000D01*
X113130000Y-78980000D02*
X113130000Y-76330000D01*
X113130000Y-78980000D02*
X110370000Y-78980000D01*
X113130000Y-76330000D02*
X110370000Y-76330000D01*
X110370000Y-78980000D02*
X110370000Y-76330000D01*
%TO.C,U7*%
X86800000Y-95640000D02*
X86800000Y-94690000D01*
X88200000Y-95640000D02*
X86800000Y-95640000D01*
X103800000Y-95640000D02*
X105200000Y-95640000D01*
X105200000Y-95640000D02*
X105200000Y-94690000D01*
X86800000Y-76690000D02*
X86300000Y-76690000D01*
X86800000Y-76190000D01*
X86800000Y-76690000D01*
G36*
X86800000Y-76690000D02*
G01*
X86300000Y-76690000D01*
X86800000Y-76190000D01*
X86800000Y-76690000D01*
G37*
%TO.C,J11*%
X111630000Y-95380000D02*
X111630000Y-92620000D01*
X108980000Y-95380000D02*
X111630000Y-95380000D01*
X108980000Y-95380000D02*
X108980000Y-92620000D01*
X108980000Y-92620000D02*
X111630000Y-92620000D01*
X107710000Y-95380000D02*
X106330000Y-95380000D01*
X106330000Y-95380000D02*
X106330000Y-94000000D01*
%TO.C,J3*%
X106280000Y-121320000D02*
X113020000Y-121320000D01*
X106280000Y-127140000D02*
X106280000Y-121320000D01*
X108000000Y-127140000D02*
X108000000Y-121320000D01*
X111100000Y-127140000D02*
X111100000Y-121320000D01*
X112100000Y-127140000D02*
X112100000Y-121320000D01*
X113020000Y-121320000D02*
X113020000Y-125200000D01*
X113020000Y-125800000D02*
X113020000Y-127140000D01*
X113020000Y-127140000D02*
X106280000Y-127140000D01*
X113630000Y-125940000D02*
X113020000Y-125500000D01*
X113630000Y-125060000D01*
X113630000Y-125940000D01*
G36*
X113630000Y-125940000D02*
G01*
X113020000Y-125500000D01*
X113630000Y-125060000D01*
X113630000Y-125940000D01*
G37*
%TO.C,J8*%
X111645000Y-87130000D02*
X111645000Y-84370000D01*
X108995000Y-87130000D02*
X111645000Y-87130000D01*
X108995000Y-87130000D02*
X108995000Y-84370000D01*
X108995000Y-84370000D02*
X111645000Y-84370000D01*
X107725000Y-87130000D02*
X106345000Y-87130000D01*
X106345000Y-87130000D02*
X106345000Y-85750000D01*
%TO.C,R1*%
X112985000Y-113727064D02*
X112985000Y-113272936D01*
X111515000Y-113727064D02*
X111515000Y-113272936D01*
%TO.C,C6*%
X104310000Y-104500000D02*
X104310000Y-105000000D01*
X104560000Y-104750000D02*
X104060000Y-104750000D01*
X103945563Y-105240000D02*
X103810000Y-105240000D01*
X103945563Y-105240000D02*
X105010000Y-106304437D01*
X101554437Y-105240000D02*
X101690000Y-105240000D01*
X101554437Y-105240000D02*
X100490000Y-106304437D01*
X105010000Y-106304437D02*
X105010000Y-109760000D01*
X100490000Y-106304437D02*
X100490000Y-109760000D01*
X105010000Y-109760000D02*
X103810000Y-109760000D01*
X100490000Y-109760000D02*
X101690000Y-109760000D01*
%TO.C,D1*%
X95410000Y-97000000D02*
X86900000Y-97000000D01*
X95410000Y-97000000D02*
X95410000Y-103500000D01*
X95410000Y-103500000D02*
X86900000Y-103500000D01*
%TO.C,C7*%
X106265000Y-82488748D02*
X106265000Y-83011252D01*
X107735000Y-82488748D02*
X107735000Y-83011252D01*
%TO.C,C8*%
X108265000Y-82526248D02*
X108265000Y-83048752D01*
X109735000Y-82526248D02*
X109735000Y-83048752D01*
%TO.C,C5*%
X103660000Y-117947500D02*
X101310000Y-117947500D01*
X103660000Y-112191937D02*
X103660000Y-117947500D01*
X102595563Y-111127500D02*
X103660000Y-112191937D01*
X102595563Y-111127500D02*
X101310000Y-111127500D01*
X97904437Y-111127500D02*
X99190000Y-111127500D01*
X97904437Y-111127500D02*
X96840000Y-112191937D01*
X96840000Y-117947500D02*
X99190000Y-117947500D01*
X96840000Y-112191937D02*
X96840000Y-117947500D01*
%TO.C,U1*%
X82575000Y-124350000D02*
X83525000Y-124350000D01*
X82575000Y-125715000D02*
X82575000Y-124350000D01*
X92975000Y-124350000D02*
X92025000Y-124350000D01*
X92975000Y-125715000D02*
X92975000Y-124350000D01*
X92455000Y-121865000D02*
X91985000Y-121525000D01*
X92455000Y-121185000D01*
X92455000Y-121865000D01*
G36*
X92455000Y-121865000D02*
G01*
X91985000Y-121525000D01*
X92455000Y-121185000D01*
X92455000Y-121865000D01*
G37*
%TO.C,R3*%
X84477064Y-86015000D02*
X84022936Y-86015000D01*
X84477064Y-87485000D02*
X84022936Y-87485000D01*
%TO.C,J2*%
X111755000Y-83515000D02*
X111755000Y-82640000D01*
X111814435Y-83515000D02*
X111755000Y-83515000D01*
X112089970Y-82640000D02*
X111755000Y-82640000D01*
X113245000Y-82640000D02*
X112910030Y-82640000D01*
X113245000Y-83515000D02*
X113185565Y-83515000D01*
X113245000Y-83515000D02*
X113245000Y-82640000D01*
X113245000Y-84250000D02*
X113245000Y-84985000D01*
X113245000Y-84985000D02*
X112500000Y-84985000D01*
%TO.C,C3*%
X95235000Y-121011252D02*
X95235000Y-120488748D01*
X93765000Y-121011252D02*
X93765000Y-120488748D01*
%TO.C,U3*%
X106450000Y-77615000D02*
X106450000Y-77380000D01*
X106450000Y-80360000D02*
X106450000Y-79885000D01*
X106925000Y-77140000D02*
X106750000Y-77140000D01*
X106925000Y-80360000D02*
X106450000Y-80360000D01*
X109195000Y-77140000D02*
X109670000Y-77140000D01*
X109195000Y-80360000D02*
X109670000Y-80360000D01*
X109670000Y-77140000D02*
X109670000Y-77615000D01*
X109670000Y-80360000D02*
X109670000Y-79885000D01*
X106450000Y-77140000D02*
X106210000Y-76810000D01*
X106690000Y-76810000D01*
X106450000Y-77140000D01*
G36*
X106450000Y-77140000D02*
G01*
X106210000Y-76810000D01*
X106690000Y-76810000D01*
X106450000Y-77140000D01*
G37*
%TO.C,C12*%
X84515000Y-84048752D02*
X84515000Y-83526248D01*
X85985000Y-84048752D02*
X85985000Y-83526248D01*
%TO.C,J1*%
X106280000Y-133890000D02*
X106280000Y-128070000D01*
X108000000Y-133890000D02*
X108000000Y-128070000D01*
X111100000Y-133890000D02*
X111100000Y-128070000D01*
X112100000Y-133890000D02*
X112100000Y-128070000D01*
X113020000Y-133890000D02*
X106280000Y-133890000D01*
X113020000Y-132550000D02*
X113020000Y-133890000D01*
X106280000Y-128070000D02*
X113020000Y-128070000D01*
X113020000Y-128070000D02*
X113020000Y-131950000D01*
X113630000Y-132690000D02*
X113020000Y-132250000D01*
X113630000Y-131810000D01*
X113630000Y-132690000D01*
G36*
X113630000Y-132690000D02*
G01*
X113020000Y-132250000D01*
X113630000Y-131810000D01*
X113630000Y-132690000D01*
G37*
%TO.C,U8*%
X109425000Y-96345000D02*
X107475000Y-96345000D01*
X109425000Y-96345000D02*
X111375000Y-96345000D01*
X109425000Y-106465000D02*
X107475000Y-106465000D01*
X109425000Y-106465000D02*
X111375000Y-106465000D01*
X106725000Y-96400000D02*
X106485000Y-96070000D01*
X106965000Y-96070000D01*
X106725000Y-96400000D01*
G36*
X106725000Y-96400000D02*
G01*
X106485000Y-96070000D01*
X106965000Y-96070000D01*
X106725000Y-96400000D01*
G37*
%TO.C,J9*%
X111645000Y-89880000D02*
X111645000Y-87120000D01*
X108995000Y-89880000D02*
X111645000Y-89880000D01*
X108995000Y-89880000D02*
X108995000Y-87120000D01*
X108995000Y-87120000D02*
X111645000Y-87120000D01*
X107725000Y-89880000D02*
X106345000Y-89880000D01*
X106345000Y-89880000D02*
X106345000Y-88500000D01*
%TO.C,C4*%
X93640000Y-134360000D02*
X97490000Y-134360000D01*
X104360000Y-134360000D02*
X100510000Y-134360000D01*
X93640000Y-124704437D02*
X93640000Y-134360000D01*
X104360000Y-124704437D02*
X104360000Y-134360000D01*
X94704437Y-123640000D02*
X93640000Y-124704437D01*
X94704437Y-123640000D02*
X97490000Y-123640000D01*
X103295563Y-123640000D02*
X104360000Y-124704437D01*
X103295563Y-123640000D02*
X100510000Y-123640000D01*
X102385000Y-122775000D02*
X101135000Y-122775000D01*
X101760000Y-122150000D02*
X101760000Y-123400000D01*
D12*
%TO.C,U4*%
X110920000Y-115125000D02*
X110920000Y-119275000D01*
X105770000Y-115125000D02*
X105770000Y-119275000D01*
D13*
X111150000Y-114765000D02*
X110820000Y-114525000D01*
X111150000Y-114285000D01*
X111150000Y-114765000D01*
G36*
X111150000Y-114765000D02*
G01*
X110820000Y-114525000D01*
X111150000Y-114285000D01*
X111150000Y-114765000D01*
G37*
%TO.C,C11*%
X82515000Y-81701248D02*
X82515000Y-82223752D01*
X83985000Y-81701248D02*
X83985000Y-82223752D01*
%TO.C,C1*%
X104261252Y-122735000D02*
X103738748Y-122735000D01*
X104261252Y-121265000D02*
X103738748Y-121265000D01*
%TD*%
M02*
