%TF.GenerationSoftware,KiCad,Pcbnew,9.0.9-9.0.9~ubuntu24.04.1*%
%TF.CreationDate,2026-07-09T08:35:24+03:00*%
%TF.ProjectId,sounddecoder-esp32-s3-wroom-2-mini,736f756e-6464-4656-936f-6465722d6573,rev?*%
%TF.SameCoordinates,Original*%
%TF.FileFunction,Legend,Bot*%
%TF.FilePolarity,Positive*%
%FSLAX46Y46*%
G04 Gerber Fmt 4.6, Leading zero omitted, Abs format (unit mm)*
G04 Created by KiCad (PCBNEW 9.0.9-9.0.9~ubuntu24.04.1) date 2026-07-09 08:35:24*
%MOMM*%
%LPD*%
G01*
G04 APERTURE LIST*
%ADD10C,0.100000*%
G04 APERTURE END LIST*
D10*
X87696115Y-100241466D02*
X86934211Y-100241466D01*
X87315163Y-100622419D02*
X87315163Y-99860514D01*
X85981830Y-99622419D02*
X86458020Y-99622419D01*
X86458020Y-99622419D02*
X86505639Y-100098609D01*
X86505639Y-100098609D02*
X86458020Y-100050990D01*
X86458020Y-100050990D02*
X86362782Y-100003371D01*
X86362782Y-100003371D02*
X86124687Y-100003371D01*
X86124687Y-100003371D02*
X86029449Y-100050990D01*
X86029449Y-100050990D02*
X85981830Y-100098609D01*
X85981830Y-100098609D02*
X85934211Y-100193847D01*
X85934211Y-100193847D02*
X85934211Y-100431942D01*
X85934211Y-100431942D02*
X85981830Y-100527180D01*
X85981830Y-100527180D02*
X86029449Y-100574800D01*
X86029449Y-100574800D02*
X86124687Y-100622419D01*
X86124687Y-100622419D02*
X86362782Y-100622419D01*
X86362782Y-100622419D02*
X86458020Y-100574800D01*
X86458020Y-100574800D02*
X86505639Y-100527180D01*
X85648496Y-99622419D02*
X85315163Y-100622419D01*
X85315163Y-100622419D02*
X84981830Y-99622419D01*
X86338972Y-96872419D02*
X85767544Y-96872419D01*
X86053258Y-97872419D02*
X86053258Y-96872419D01*
X85529448Y-96872419D02*
X84862782Y-97872419D01*
X84862782Y-96872419D02*
X85529448Y-97872419D01*
X85874687Y-95372419D02*
X86208020Y-94896228D01*
X86446115Y-95372419D02*
X86446115Y-94372419D01*
X86446115Y-94372419D02*
X86065163Y-94372419D01*
X86065163Y-94372419D02*
X85969925Y-94420038D01*
X85969925Y-94420038D02*
X85922306Y-94467657D01*
X85922306Y-94467657D02*
X85874687Y-94562895D01*
X85874687Y-94562895D02*
X85874687Y-94705752D01*
X85874687Y-94705752D02*
X85922306Y-94800990D01*
X85922306Y-94800990D02*
X85969925Y-94848609D01*
X85969925Y-94848609D02*
X86065163Y-94896228D01*
X86065163Y-94896228D02*
X86446115Y-94896228D01*
X85541353Y-94372419D02*
X84874687Y-95372419D01*
X84874687Y-94372419D02*
X85541353Y-95372419D01*
X88112782Y-92598609D02*
X87969925Y-92646228D01*
X87969925Y-92646228D02*
X87922306Y-92693847D01*
X87922306Y-92693847D02*
X87874687Y-92789085D01*
X87874687Y-92789085D02*
X87874687Y-92931942D01*
X87874687Y-92931942D02*
X87922306Y-93027180D01*
X87922306Y-93027180D02*
X87969925Y-93074800D01*
X87969925Y-93074800D02*
X88065163Y-93122419D01*
X88065163Y-93122419D02*
X88446115Y-93122419D01*
X88446115Y-93122419D02*
X88446115Y-92122419D01*
X88446115Y-92122419D02*
X88112782Y-92122419D01*
X88112782Y-92122419D02*
X88017544Y-92170038D01*
X88017544Y-92170038D02*
X87969925Y-92217657D01*
X87969925Y-92217657D02*
X87922306Y-92312895D01*
X87922306Y-92312895D02*
X87922306Y-92408133D01*
X87922306Y-92408133D02*
X87969925Y-92503371D01*
X87969925Y-92503371D02*
X88017544Y-92550990D01*
X88017544Y-92550990D02*
X88112782Y-92598609D01*
X88112782Y-92598609D02*
X88446115Y-92598609D01*
X87255639Y-92122419D02*
X87065163Y-92122419D01*
X87065163Y-92122419D02*
X86969925Y-92170038D01*
X86969925Y-92170038D02*
X86874687Y-92265276D01*
X86874687Y-92265276D02*
X86827068Y-92455752D01*
X86827068Y-92455752D02*
X86827068Y-92789085D01*
X86827068Y-92789085D02*
X86874687Y-92979561D01*
X86874687Y-92979561D02*
X86969925Y-93074800D01*
X86969925Y-93074800D02*
X87065163Y-93122419D01*
X87065163Y-93122419D02*
X87255639Y-93122419D01*
X87255639Y-93122419D02*
X87350877Y-93074800D01*
X87350877Y-93074800D02*
X87446115Y-92979561D01*
X87446115Y-92979561D02*
X87493734Y-92789085D01*
X87493734Y-92789085D02*
X87493734Y-92455752D01*
X87493734Y-92455752D02*
X87446115Y-92265276D01*
X87446115Y-92265276D02*
X87350877Y-92170038D01*
X87350877Y-92170038D02*
X87255639Y-92122419D01*
X86208020Y-92122419D02*
X86017544Y-92122419D01*
X86017544Y-92122419D02*
X85922306Y-92170038D01*
X85922306Y-92170038D02*
X85827068Y-92265276D01*
X85827068Y-92265276D02*
X85779449Y-92455752D01*
X85779449Y-92455752D02*
X85779449Y-92789085D01*
X85779449Y-92789085D02*
X85827068Y-92979561D01*
X85827068Y-92979561D02*
X85922306Y-93074800D01*
X85922306Y-93074800D02*
X86017544Y-93122419D01*
X86017544Y-93122419D02*
X86208020Y-93122419D01*
X86208020Y-93122419D02*
X86303258Y-93074800D01*
X86303258Y-93074800D02*
X86398496Y-92979561D01*
X86398496Y-92979561D02*
X86446115Y-92789085D01*
X86446115Y-92789085D02*
X86446115Y-92455752D01*
X86446115Y-92455752D02*
X86398496Y-92265276D01*
X86398496Y-92265276D02*
X86303258Y-92170038D01*
X86303258Y-92170038D02*
X86208020Y-92122419D01*
X85493734Y-92122419D02*
X84922306Y-92122419D01*
X85208020Y-93122419D02*
X85208020Y-92122419D01*
X86922306Y-89420038D02*
X87017544Y-89372419D01*
X87017544Y-89372419D02*
X87160401Y-89372419D01*
X87160401Y-89372419D02*
X87303258Y-89420038D01*
X87303258Y-89420038D02*
X87398496Y-89515276D01*
X87398496Y-89515276D02*
X87446115Y-89610514D01*
X87446115Y-89610514D02*
X87493734Y-89800990D01*
X87493734Y-89800990D02*
X87493734Y-89943847D01*
X87493734Y-89943847D02*
X87446115Y-90134323D01*
X87446115Y-90134323D02*
X87398496Y-90229561D01*
X87398496Y-90229561D02*
X87303258Y-90324800D01*
X87303258Y-90324800D02*
X87160401Y-90372419D01*
X87160401Y-90372419D02*
X87065163Y-90372419D01*
X87065163Y-90372419D02*
X86922306Y-90324800D01*
X86922306Y-90324800D02*
X86874687Y-90277180D01*
X86874687Y-90277180D02*
X86874687Y-89943847D01*
X86874687Y-89943847D02*
X87065163Y-89943847D01*
X86446115Y-90372419D02*
X86446115Y-89372419D01*
X86446115Y-89372419D02*
X85874687Y-90372419D01*
X85874687Y-90372419D02*
X85874687Y-89372419D01*
X85398496Y-90372419D02*
X85398496Y-89372419D01*
X85398496Y-89372419D02*
X85160401Y-89372419D01*
X85160401Y-89372419D02*
X85017544Y-89420038D01*
X85017544Y-89420038D02*
X84922306Y-89515276D01*
X84922306Y-89515276D02*
X84874687Y-89610514D01*
X84874687Y-89610514D02*
X84827068Y-89800990D01*
X84827068Y-89800990D02*
X84827068Y-89943847D01*
X84827068Y-89943847D02*
X84874687Y-90134323D01*
X84874687Y-90134323D02*
X84922306Y-90229561D01*
X84922306Y-90229561D02*
X85017544Y-90324800D01*
X85017544Y-90324800D02*
X85160401Y-90372419D01*
X85160401Y-90372419D02*
X85398496Y-90372419D01*
X111946115Y-132241466D02*
X111184211Y-132241466D01*
X111565163Y-132622419D02*
X111565163Y-131860514D01*
X111946115Y-129491466D02*
X111184211Y-129491466D01*
X107946115Y-83991466D02*
X107184211Y-83991466D01*
X107565163Y-84372419D02*
X107565163Y-83610514D01*
X108196115Y-95991466D02*
X107434211Y-95991466D01*
X107815163Y-96372419D02*
X107815163Y-95610514D01*
X110696115Y-83741466D02*
X109934211Y-83741466D01*
X110696115Y-83991466D02*
X109934211Y-83991466D01*
X110696115Y-95991466D02*
X109934211Y-95991466D01*
X112362782Y-84348609D02*
X112696115Y-84348609D01*
X112696115Y-84872419D02*
X112696115Y-83872419D01*
X112696115Y-83872419D02*
X112219925Y-83872419D01*
X111934210Y-84205752D02*
X111743734Y-84872419D01*
X111743734Y-84872419D02*
X111553258Y-84396228D01*
X111553258Y-84396228D02*
X111362782Y-84872419D01*
X111362782Y-84872419D02*
X111172306Y-84205752D01*
X110362782Y-84872419D02*
X110362782Y-83872419D01*
X110362782Y-84824800D02*
X110458020Y-84872419D01*
X110458020Y-84872419D02*
X110648496Y-84872419D01*
X110648496Y-84872419D02*
X110743734Y-84824800D01*
X110743734Y-84824800D02*
X110791353Y-84777180D01*
X110791353Y-84777180D02*
X110838972Y-84681942D01*
X110838972Y-84681942D02*
X110838972Y-84396228D01*
X110838972Y-84396228D02*
X110791353Y-84300990D01*
X110791353Y-84300990D02*
X110743734Y-84253371D01*
X110743734Y-84253371D02*
X110648496Y-84205752D01*
X110648496Y-84205752D02*
X110458020Y-84205752D01*
X110458020Y-84205752D02*
X110362782Y-84253371D01*
X109410401Y-84872419D02*
X109886591Y-84872419D01*
X109886591Y-84872419D02*
X109886591Y-83872419D01*
X109077067Y-84348609D02*
X108743734Y-84348609D01*
X108600877Y-84872419D02*
X109077067Y-84872419D01*
X109077067Y-84872419D02*
X109077067Y-83872419D01*
X109077067Y-83872419D02*
X108600877Y-83872419D01*
X108172305Y-84872419D02*
X108172305Y-83872419D01*
X108172305Y-83872419D02*
X107934210Y-83872419D01*
X107934210Y-83872419D02*
X107791353Y-83920038D01*
X107791353Y-83920038D02*
X107696115Y-84015276D01*
X107696115Y-84015276D02*
X107648496Y-84110514D01*
X107648496Y-84110514D02*
X107600877Y-84300990D01*
X107600877Y-84300990D02*
X107600877Y-84443847D01*
X107600877Y-84443847D02*
X107648496Y-84634323D01*
X107648496Y-84634323D02*
X107696115Y-84729561D01*
X107696115Y-84729561D02*
X107791353Y-84824800D01*
X107791353Y-84824800D02*
X107934210Y-84872419D01*
X107934210Y-84872419D02*
X108172305Y-84872419D01*
X112743734Y-90086704D02*
X112267544Y-90086704D01*
X112838972Y-90372419D02*
X112505639Y-89372419D01*
X112505639Y-89372419D02*
X112172306Y-90372419D01*
X111838972Y-89372419D02*
X111838972Y-90181942D01*
X111838972Y-90181942D02*
X111791353Y-90277180D01*
X111791353Y-90277180D02*
X111743734Y-90324800D01*
X111743734Y-90324800D02*
X111648496Y-90372419D01*
X111648496Y-90372419D02*
X111458020Y-90372419D01*
X111458020Y-90372419D02*
X111362782Y-90324800D01*
X111362782Y-90324800D02*
X111315163Y-90277180D01*
X111315163Y-90277180D02*
X111267544Y-90181942D01*
X111267544Y-90181942D02*
X111267544Y-89372419D01*
X110886591Y-89372419D02*
X110219925Y-90372419D01*
X110219925Y-89372419D02*
X110886591Y-90372419D01*
X109315163Y-90372419D02*
X109886591Y-90372419D01*
X109600877Y-90372419D02*
X109600877Y-89372419D01*
X109600877Y-89372419D02*
X109696115Y-89515276D01*
X109696115Y-89515276D02*
X109791353Y-89610514D01*
X109791353Y-89610514D02*
X109886591Y-89658133D01*
X112743734Y-92836704D02*
X112267544Y-92836704D01*
X112838972Y-93122419D02*
X112505639Y-92122419D01*
X112505639Y-92122419D02*
X112172306Y-93122419D01*
X111838972Y-92122419D02*
X111838972Y-92931942D01*
X111838972Y-92931942D02*
X111791353Y-93027180D01*
X111791353Y-93027180D02*
X111743734Y-93074800D01*
X111743734Y-93074800D02*
X111648496Y-93122419D01*
X111648496Y-93122419D02*
X111458020Y-93122419D01*
X111458020Y-93122419D02*
X111362782Y-93074800D01*
X111362782Y-93074800D02*
X111315163Y-93027180D01*
X111315163Y-93027180D02*
X111267544Y-92931942D01*
X111267544Y-92931942D02*
X111267544Y-92122419D01*
X110886591Y-92122419D02*
X110219925Y-93122419D01*
X110219925Y-92122419D02*
X110886591Y-93122419D01*
X109886591Y-92217657D02*
X109838972Y-92170038D01*
X109838972Y-92170038D02*
X109743734Y-92122419D01*
X109743734Y-92122419D02*
X109505639Y-92122419D01*
X109505639Y-92122419D02*
X109410401Y-92170038D01*
X109410401Y-92170038D02*
X109362782Y-92217657D01*
X109362782Y-92217657D02*
X109315163Y-92312895D01*
X109315163Y-92312895D02*
X109315163Y-92408133D01*
X109315163Y-92408133D02*
X109362782Y-92550990D01*
X109362782Y-92550990D02*
X109934210Y-93122419D01*
X109934210Y-93122419D02*
X109315163Y-93122419D01*
X112507782Y-87033609D02*
X112364925Y-87081228D01*
X112364925Y-87081228D02*
X112317306Y-87128847D01*
X112317306Y-87128847D02*
X112269687Y-87224085D01*
X112269687Y-87224085D02*
X112269687Y-87366942D01*
X112269687Y-87366942D02*
X112317306Y-87462180D01*
X112317306Y-87462180D02*
X112364925Y-87509800D01*
X112364925Y-87509800D02*
X112460163Y-87557419D01*
X112460163Y-87557419D02*
X112841115Y-87557419D01*
X112841115Y-87557419D02*
X112841115Y-86557419D01*
X112841115Y-86557419D02*
X112507782Y-86557419D01*
X112507782Y-86557419D02*
X112412544Y-86605038D01*
X112412544Y-86605038D02*
X112364925Y-86652657D01*
X112364925Y-86652657D02*
X112317306Y-86747895D01*
X112317306Y-86747895D02*
X112317306Y-86843133D01*
X112317306Y-86843133D02*
X112364925Y-86938371D01*
X112364925Y-86938371D02*
X112412544Y-86985990D01*
X112412544Y-86985990D02*
X112507782Y-87033609D01*
X112507782Y-87033609D02*
X112841115Y-87033609D01*
X111412544Y-87557419D02*
X111412544Y-87033609D01*
X111412544Y-87033609D02*
X111460163Y-86938371D01*
X111460163Y-86938371D02*
X111555401Y-86890752D01*
X111555401Y-86890752D02*
X111745877Y-86890752D01*
X111745877Y-86890752D02*
X111841115Y-86938371D01*
X111412544Y-87509800D02*
X111507782Y-87557419D01*
X111507782Y-87557419D02*
X111745877Y-87557419D01*
X111745877Y-87557419D02*
X111841115Y-87509800D01*
X111841115Y-87509800D02*
X111888734Y-87414561D01*
X111888734Y-87414561D02*
X111888734Y-87319323D01*
X111888734Y-87319323D02*
X111841115Y-87224085D01*
X111841115Y-87224085D02*
X111745877Y-87176466D01*
X111745877Y-87176466D02*
X111507782Y-87176466D01*
X111507782Y-87176466D02*
X111412544Y-87128847D01*
X110507782Y-87509800D02*
X110603020Y-87557419D01*
X110603020Y-87557419D02*
X110793496Y-87557419D01*
X110793496Y-87557419D02*
X110888734Y-87509800D01*
X110888734Y-87509800D02*
X110936353Y-87462180D01*
X110936353Y-87462180D02*
X110983972Y-87366942D01*
X110983972Y-87366942D02*
X110983972Y-87081228D01*
X110983972Y-87081228D02*
X110936353Y-86985990D01*
X110936353Y-86985990D02*
X110888734Y-86938371D01*
X110888734Y-86938371D02*
X110793496Y-86890752D01*
X110793496Y-86890752D02*
X110603020Y-86890752D01*
X110603020Y-86890752D02*
X110507782Y-86938371D01*
X110079210Y-87557419D02*
X110079210Y-86557419D01*
X109983972Y-87176466D02*
X109698258Y-87557419D01*
X109698258Y-86890752D02*
X110079210Y-87271704D01*
X108793496Y-87557419D02*
X109269686Y-87557419D01*
X109269686Y-87557419D02*
X109269686Y-86557419D01*
X108460162Y-87033609D02*
X108126829Y-87033609D01*
X107983972Y-87557419D02*
X108460162Y-87557419D01*
X108460162Y-87557419D02*
X108460162Y-86557419D01*
X108460162Y-86557419D02*
X107983972Y-86557419D01*
X107555400Y-87557419D02*
X107555400Y-86557419D01*
X107555400Y-86557419D02*
X107317305Y-86557419D01*
X107317305Y-86557419D02*
X107174448Y-86605038D01*
X107174448Y-86605038D02*
X107079210Y-86700276D01*
X107079210Y-86700276D02*
X107031591Y-86795514D01*
X107031591Y-86795514D02*
X106983972Y-86985990D01*
X106983972Y-86985990D02*
X106983972Y-87128847D01*
X106983972Y-87128847D02*
X107031591Y-87319323D01*
X107031591Y-87319323D02*
X107079210Y-87414561D01*
X107079210Y-87414561D02*
X107174448Y-87509800D01*
X107174448Y-87509800D02*
X107317305Y-87557419D01*
X107317305Y-87557419D02*
X107555400Y-87557419D01*
M02*
