M48
; DRILL file {KiCad 9.0.9-9.0.9~ubuntu24.04.1} date 2026-07-09T08:35:21+0300
; FORMAT={-:-/ absolute / inch / decimal}
; #@! TF.CreationDate,2026-07-09T08:35:21+03:00
; #@! TF.GenerationSoftware,Kicad,Pcbnew,9.0.9-9.0.9~ubuntu24.04.1
; #@! TF.FileFunction,Plated,1,4,PTH
FMAT,2
INCH
; #@! TA.AperFunction,Plated,PTH,ComponentDrill
T1C0.0079
; #@! TA.AperFunction,Plated,PTH,ViaDrill
T2C0.0118
; #@! TA.AperFunction,Plated,PTH,ComponentDrill
T3C0.0157
; #@! TA.AperFunction,Plated,PTH,ViaDrill
T4C0.0197
; #@! TA.AperFunction,Plated,PTH,ComponentDrill
T5C0.0197
; #@! TA.AperFunction,Plated,PTH,ViaDrill
T6C0.0236
; #@! TA.AperFunction,Plated,PTH,ComponentDrill
T7C0.0394
; #@! TA.AperFunction,Plated,PTH,ComponentDrill
T8C0.0472
%
G90
G05
T1
X3.6669Y-3.2295
X3.6669Y-3.2886
X3.6965Y-3.2
X3.6965Y-3.2591
X3.6965Y-3.3181
X3.726Y-3.2295
X3.726Y-3.2886
X3.7555Y-3.2
X3.7555Y-3.2591
X3.7555Y-3.3181
X3.785Y-3.2295
X3.785Y-3.2886
T2
X3.2776Y-3.1496
X3.2776Y-3.376
X3.312Y-3.3022
X3.4449Y-3.8681
X3.4941Y-3.4744
X3.5531Y-3.5806
X3.5749Y-3.5433
X3.6122Y-3.5728
X3.6831Y-3.6614
X3.6909Y-3.6024
X3.6915Y-3.0813
X3.7303Y-3.6713
X3.75Y-3.5531
X3.8012Y-3.4941
X3.8583Y-3.4744
X3.8878Y-3.8681
X4.0354Y-4.5866
X4.0354Y-4.6358
X4.0551Y-4.1614
X4.0748Y-4.5866
X4.0748Y-4.6358
X4.1142Y-4.2913
X4.1142Y-4.5866
X4.1142Y-4.6358
X4.1732Y-3.0906
X4.1738Y-4.4581
X4.1799Y-3.0562
X4.1831Y-4.2126
X4.2028Y-3.0375
X4.2126Y-4.4193
X4.2421Y-4.4587
X4.252Y-3.2185
X4.3307Y-4.2028
X4.3504Y-3.9567
X4.3504Y-3.9961
X4.3602Y-4.1634
X4.4094Y-4.3799
X4.4094Y-4.6358
X4.4094Y-4.685
X4.439Y-4.6358
X4.439Y-4.685
T3
X4.1888Y-4.5886
X4.1888Y-4.6398
X4.24Y-4.5886
X4.24Y-4.6398
X4.2911Y-4.5886
X4.2911Y-4.6398
X4.3423Y-4.5886
X4.3423Y-4.6398
T4
X3.376Y-4.2913
X3.376Y-4.3701
X3.8287Y-4.0945
X3.8976Y-4.4094
X3.9075Y-3.9567
X3.9961Y-3.9567
X3.9961Y-4.4094
X4.1398Y-4.2087
X4.3583Y-4.3819
T5
X4.4291Y-3.2776
X4.4291Y-3.3169
T6
X3.2776Y-5.0591
X3.2776Y-5.1476
X3.2776Y-5.2362
X3.3661Y-5.0591
X3.3661Y-5.1476
X3.3661Y-5.2362
X3.4547Y-5.0591
X3.4547Y-5.1476
X3.4547Y-5.2362
X3.5433Y-5.0591
X3.5433Y-5.1476
X3.5433Y-5.2362
X3.622Y-5.0591
X3.622Y-5.1476
X3.622Y-5.2362
T7
X3.2972Y-3.5386
X3.2972Y-3.6386
X3.2972Y-3.7386
X3.2972Y-3.8386
X3.2972Y-3.9386
X4.2406Y-3.7008
X4.2411Y-3.376
X4.2411Y-3.4843
X4.2411Y-3.5925
X4.3406Y-3.7008
X4.3411Y-3.376
X4.3411Y-3.4843
X4.3411Y-3.5925
X4.3996Y-3.0594
X4.3996Y-3.1594
T8
X4.311Y-4.8409
X4.311Y-4.9409
X4.311Y-5.1067
X4.311Y-5.2067
M30
