%TF.GenerationSoftware,KiCad,Pcbnew,9.0.9-9.0.9~ubuntu24.04.1*%
%TF.CreationDate,2026-07-09T08:35:24+03:00*%
%TF.ProjectId,sounddecoder-esp32-s3-wroom-2-mini,736f756e-6464-4656-936f-6465722d6573,rev?*%
%TF.SameCoordinates,Original*%
%TF.FileFunction,Soldermask,Top*%
%TF.FilePolarity,Negative*%
%FSLAX46Y46*%
G04 Gerber Fmt 4.6, Leading zero omitted, Abs format (unit mm)*
G04 Created by KiCad (PCBNEW 9.0.9-9.0.9~ubuntu24.04.1) date 2026-07-09 08:35:24*
%MOMM*%
%LPD*%
G01*
G04 APERTURE LIST*
G04 Aperture macros list*
%AMRoundRect*
0 Rectangle with rounded corners*
0 $1 Rounding radius*
0 $2 $3 $4 $5 $6 $7 $8 $9 X,Y pos of 4 corners*
0 Add a 4 corners polygon primitive as box body*
4,1,4,$2,$3,$4,$5,$6,$7,$8,$9,$2,$3,0*
0 Add four circle primitives for the rounded corners*
1,1,$1+$1,$2,$3*
1,1,$1+$1,$4,$5*
1,1,$1+$1,$6,$7*
1,1,$1+$1,$8,$9*
0 Add four rect primitives between the rounded corners*
20,1,$1+$1,$2,$3,$4,$5,0*
20,1,$1+$1,$4,$5,$6,$7,0*
20,1,$1+$1,$6,$7,$8,$9,0*
20,1,$1+$1,$8,$9,$2,$3,0*%
G04 Aperture macros list end*
%ADD10RoundRect,0.250000X-0.450000X0.350000X-0.450000X-0.350000X0.450000X-0.350000X0.450000X0.350000X0*%
%ADD11RoundRect,0.250000X0.450000X-0.350000X0.450000X0.350000X-0.450000X0.350000X-0.450000X-0.350000X0*%
%ADD12R,1.700000X1.700000*%
%ADD13C,1.700000*%
%ADD14RoundRect,0.375000X-0.625000X-0.375000X0.625000X-0.375000X0.625000X0.375000X-0.625000X0.375000X0*%
%ADD15RoundRect,0.500000X-0.500000X-1.400000X0.500000X-1.400000X0.500000X1.400000X-0.500000X1.400000X0*%
%ADD16RoundRect,0.250000X0.475000X-0.337500X0.475000X0.337500X-0.475000X0.337500X-0.475000X-0.337500X0*%
%ADD17R,3.100000X5.000000*%
%ADD18R,1.500000X0.900000*%
%ADD19R,0.900000X1.500000*%
%ADD20R,1.000000X1.000000*%
%ADD21C,0.600000*%
%ADD22RoundRect,0.250000X0.750000X-0.750000X0.750000X0.750000X-0.750000X0.750000X-0.750000X-0.750000X0*%
%ADD23C,2.000000*%
%ADD24RoundRect,0.250000X-0.550000X1.050000X-0.550000X-1.050000X0.550000X-1.050000X0.550000X1.050000X0*%
%ADD25RoundRect,0.250000X-1.000000X1.400000X-1.000000X-1.400000X1.000000X-1.400000X1.000000X1.400000X0*%
%ADD26RoundRect,0.250000X-0.475000X0.337500X-0.475000X-0.337500X0.475000X-0.337500X0.475000X0.337500X0*%
%ADD27RoundRect,0.250000X-0.550000X1.412500X-0.550000X-1.412500X0.550000X-1.412500X0.550000X1.412500X0*%
%ADD28RoundRect,0.250000X-0.300000X2.050000X-0.300000X-2.050000X0.300000X-2.050000X0.300000X2.050000X0*%
%ADD29RoundRect,0.250002X-5.149998X4.449998X-5.149998X-4.449998X5.149998X-4.449998X5.149998X4.449998X0*%
%ADD30RoundRect,0.250000X0.350000X0.450000X-0.350000X0.450000X-0.350000X-0.450000X0.350000X-0.450000X0*%
%ADD31R,0.850000X0.850000*%
%ADD32C,0.850000*%
%ADD33RoundRect,0.062500X-0.350000X-0.062500X0.350000X-0.062500X0.350000X0.062500X-0.350000X0.062500X0*%
%ADD34RoundRect,0.062500X-0.062500X-0.350000X0.062500X-0.350000X0.062500X0.350000X-0.062500X0.350000X0*%
%ADD35R,1.230000X1.230000*%
%ADD36RoundRect,0.150000X-0.725000X-0.150000X0.725000X-0.150000X0.725000X0.150000X-0.725000X0.150000X0*%
%ADD37RoundRect,0.250000X-1.000000X1.950000X-1.000000X-1.950000X1.000000X-1.950000X1.000000X1.950000X0*%
%ADD38R,3.100000X2.600000*%
%ADD39R,0.600000X1.550000*%
%ADD40RoundRect,0.250000X0.337500X0.475000X-0.337500X0.475000X-0.337500X-0.475000X0.337500X-0.475000X0*%
G04 APERTURE END LIST*
D10*
%TO.C,R7*%
X108250000Y-110250000D03*
X108250000Y-108250000D03*
%TD*%
%TO.C,R6*%
X110250000Y-110250000D03*
X110250000Y-108250000D03*
%TD*%
D11*
%TO.C,R4*%
X112250000Y-108250000D03*
X112250000Y-110250000D03*
%TD*%
%TO.C,R5*%
X106250000Y-108250000D03*
X106250000Y-110250000D03*
%TD*%
D12*
%TO.C,J101*%
X83750000Y-100040000D03*
D13*
X83750000Y-97500000D03*
X83750000Y-94960000D03*
X83750000Y-92420000D03*
X83750000Y-89880000D03*
%TD*%
D14*
%TO.C,U6*%
X97350000Y-102800000D03*
D15*
X103650000Y-100500000D03*
D14*
X97350000Y-100500000D03*
X97350000Y-98200000D03*
%TD*%
D16*
%TO.C,C10*%
X83250000Y-77175000D03*
X83250000Y-79250000D03*
%TD*%
D10*
%TO.C,R2*%
X85250000Y-81000000D03*
X85250000Y-79000000D03*
%TD*%
D17*
%TO.C,L1*%
X94800000Y-110750000D03*
X83700000Y-110750000D03*
%TD*%
D13*
%TO.C,J10*%
X110265000Y-91250000D03*
D12*
X107725000Y-91250000D03*
%TD*%
%TO.C,J4*%
X111750000Y-80250000D03*
D13*
X111750000Y-77710000D03*
%TD*%
D18*
%TO.C,U7*%
X87250000Y-77430000D03*
X87250000Y-78700000D03*
X87250000Y-79970000D03*
X87250000Y-81240000D03*
X87250000Y-82510000D03*
X87250000Y-83780000D03*
X87250000Y-85050000D03*
X87250000Y-86320000D03*
X87250000Y-87590000D03*
X87250000Y-88860000D03*
X87250000Y-90130000D03*
X87250000Y-91400000D03*
X87250000Y-92670000D03*
X87250000Y-93940000D03*
D19*
X89015000Y-95190000D03*
X90285000Y-95190000D03*
X91555000Y-95190000D03*
X92825000Y-95190000D03*
X94095000Y-95190000D03*
X95365000Y-95190000D03*
X96635000Y-95190000D03*
X97905000Y-95190000D03*
X99175000Y-95190000D03*
X100445000Y-95190000D03*
X101715000Y-95190000D03*
X102985000Y-95190000D03*
D18*
X104750000Y-93940000D03*
X104750000Y-92670000D03*
X104750000Y-91400000D03*
X104750000Y-90130000D03*
X104750000Y-88860000D03*
X104750000Y-87590000D03*
X104750000Y-86320000D03*
X104750000Y-85050000D03*
X104750000Y-83780000D03*
X104750000Y-82510000D03*
X104750000Y-81240000D03*
X104750000Y-79970000D03*
X104750000Y-78700000D03*
X104750000Y-77430000D03*
D20*
X93140000Y-81280000D03*
D21*
X93140000Y-82030000D03*
D20*
X93140000Y-82780000D03*
D21*
X93140000Y-83530000D03*
D20*
X93140000Y-84280000D03*
D21*
X93890000Y-81280000D03*
X93890000Y-82780000D03*
X93890000Y-84280000D03*
D20*
X94640000Y-81280000D03*
D21*
X94640000Y-82030000D03*
D20*
X94640000Y-82780000D03*
D21*
X94640000Y-83530000D03*
D20*
X94640000Y-84280000D03*
D21*
X95390000Y-81280000D03*
X95390000Y-82780000D03*
X95390000Y-84280000D03*
D20*
X96140000Y-81280000D03*
D21*
X96140000Y-82030000D03*
D20*
X96140000Y-82780000D03*
D21*
X96140000Y-83530000D03*
D20*
X96140000Y-84280000D03*
%TD*%
D13*
%TO.C,J11*%
X110250000Y-94000000D03*
D12*
X107710000Y-94000000D03*
%TD*%
D22*
%TO.C,J3*%
X109500000Y-125500000D03*
D23*
X109500000Y-122960000D03*
%TD*%
D13*
%TO.C,J8*%
X110265000Y-85750000D03*
D12*
X107725000Y-85750000D03*
%TD*%
D11*
%TO.C,R1*%
X112250000Y-114500000D03*
X112250000Y-112500000D03*
%TD*%
D24*
%TO.C,C6*%
X102750000Y-105700000D03*
X102750000Y-109300000D03*
%TD*%
D25*
%TO.C,D1*%
X93900000Y-100250000D03*
X87100000Y-100250000D03*
%TD*%
D26*
%TO.C,C7*%
X107000000Y-81712500D03*
X107000000Y-83787500D03*
%TD*%
%TO.C,C8*%
X109000000Y-81750000D03*
X109000000Y-83825000D03*
%TD*%
D27*
%TO.C,C5*%
X100250000Y-112000000D03*
X100250000Y-117075000D03*
%TD*%
D28*
%TO.C,U1*%
X91175000Y-121525000D03*
X89475000Y-121525000D03*
X87775000Y-121525000D03*
D29*
X87775000Y-130675000D03*
D28*
X86075000Y-121525000D03*
X84375000Y-121525000D03*
%TD*%
D30*
%TO.C,R3*%
X85250000Y-86750000D03*
X83250000Y-86750000D03*
%TD*%
D31*
%TO.C,J2*%
X112500000Y-84250000D03*
D32*
X112500000Y-83250000D03*
%TD*%
D16*
%TO.C,C3*%
X94500000Y-121787500D03*
X94500000Y-119712500D03*
%TD*%
D33*
%TO.C,U3*%
X106622500Y-78000000D03*
X106622500Y-78500000D03*
X106622500Y-79000000D03*
X106622500Y-79500000D03*
D34*
X107310000Y-80187500D03*
X107810000Y-80187500D03*
X108310000Y-80187500D03*
X108810000Y-80187500D03*
D33*
X109497500Y-79500000D03*
X109497500Y-79000000D03*
X109497500Y-78500000D03*
X109497500Y-78000000D03*
D34*
X108810000Y-77312500D03*
X108310000Y-77312500D03*
X107810000Y-77312500D03*
X107310000Y-77312500D03*
D35*
X108060000Y-78750000D03*
%TD*%
D16*
%TO.C,C12*%
X85250000Y-84825000D03*
X85250000Y-82750000D03*
%TD*%
D22*
%TO.C,J1*%
X109500000Y-132250000D03*
D23*
X109500000Y-129710000D03*
%TD*%
D36*
%TO.C,U8*%
X106850000Y-96960000D03*
X106850000Y-98230000D03*
X106850000Y-99500000D03*
X106850000Y-100770000D03*
X106850000Y-102040000D03*
X106850000Y-103310000D03*
X106850000Y-104580000D03*
X106850000Y-105850000D03*
X112000000Y-105850000D03*
X112000000Y-104580000D03*
X112000000Y-103310000D03*
X112000000Y-102040000D03*
X112000000Y-100770000D03*
X112000000Y-99500000D03*
X112000000Y-98230000D03*
X112000000Y-96960000D03*
%TD*%
D13*
%TO.C,J9*%
X110265000Y-88500000D03*
D12*
X107725000Y-88500000D03*
%TD*%
D37*
%TO.C,C4*%
X99000000Y-124800000D03*
X99000000Y-133200000D03*
%TD*%
D38*
%TO.C,U4*%
X108345000Y-117200000D03*
D39*
X110250000Y-114500000D03*
X108980000Y-114500000D03*
X107710000Y-114500000D03*
X106440000Y-114500000D03*
X106440000Y-119900000D03*
X107710000Y-119900000D03*
X108980000Y-119900000D03*
X110250000Y-119900000D03*
%TD*%
D26*
%TO.C,C11*%
X83250000Y-80925000D03*
X83250000Y-83000000D03*
%TD*%
D40*
%TO.C,C1*%
X105037500Y-122000000D03*
X102962500Y-122000000D03*
%TD*%
M02*
