%TF.GenerationSoftware,KiCad,Pcbnew,9.0.9-9.0.9~ubuntu24.04.1*%
%TF.CreationDate,2026-07-09T08:37:03+03:00*%
%TF.ProjectId,sounddecoder-esp32-s3-wroom-2-ext,736f756e-6464-4656-936f-6465722d6573,rev?*%
%TF.SameCoordinates,Original*%
%TF.FileFunction,Copper,L1,Top*%
%TF.FilePolarity,Positive*%
%FSLAX46Y46*%
G04 Gerber Fmt 4.6, Leading zero omitted, Abs format (unit mm)*
G04 Created by KiCad (PCBNEW 9.0.9-9.0.9~ubuntu24.04.1) date 2026-07-09 08:37:03*
%MOMM*%
%LPD*%
G01*
G04 APERTURE LIST*
G04 Aperture macros list*
%AMRoundRect*
0 Rectangle with rounded corners*
0 $1 Rounding radius*
0 $2 $3 $4 $5 $6 $7 $8 $9 X,Y pos of 4 corners*
0 Add a 4 corners polygon primitive as box body*
4,1,4,$2,$3,$4,$5,$6,$7,$8,$9,$2,$3,0*
0 Add four circle primitives for the rounded corners*
1,1,$1+$1,$2,$3*
1,1,$1+$1,$4,$5*
1,1,$1+$1,$6,$7*
1,1,$1+$1,$8,$9*
0 Add four rect primitives between the rounded corners*
20,1,$1+$1,$2,$3,$4,$5,0*
20,1,$1+$1,$4,$5,$6,$7,0*
20,1,$1+$1,$6,$7,$8,$9,0*
20,1,$1+$1,$8,$9,$2,$3,0*%
G04 Aperture macros list end*
%TA.AperFunction,SMDPad,CuDef*%
%ADD10R,3.100000X5.000000*%
%TD*%
%TA.AperFunction,ComponentPad*%
%ADD11RoundRect,0.250000X0.750000X-0.750000X0.750000X0.750000X-0.750000X0.750000X-0.750000X-0.750000X0*%
%TD*%
%TA.AperFunction,ComponentPad*%
%ADD12C,2.000000*%
%TD*%
%TA.AperFunction,ComponentPad*%
%ADD13RoundRect,0.250000X-0.750000X0.750000X-0.750000X-0.750000X0.750000X-0.750000X0.750000X0.750000X0*%
%TD*%
%TA.AperFunction,SMDPad,CuDef*%
%ADD14R,1.500000X0.900000*%
%TD*%
%TA.AperFunction,SMDPad,CuDef*%
%ADD15R,0.900000X1.500000*%
%TD*%
%TA.AperFunction,HeatsinkPad*%
%ADD16R,1.000000X1.000000*%
%TD*%
%TA.AperFunction,HeatsinkPad*%
%ADD17C,0.600000*%
%TD*%
%TA.AperFunction,SMDPad,CuDef*%
%ADD18R,0.740000X2.400000*%
%TD*%
%TA.AperFunction,SMDPad,CuDef*%
%ADD19RoundRect,0.375000X-0.625000X-0.375000X0.625000X-0.375000X0.625000X0.375000X-0.625000X0.375000X0*%
%TD*%
%TA.AperFunction,SMDPad,CuDef*%
%ADD20RoundRect,0.500000X-0.500000X-1.400000X0.500000X-1.400000X0.500000X1.400000X-0.500000X1.400000X0*%
%TD*%
%TA.AperFunction,SMDPad,CuDef*%
%ADD21RoundRect,0.250000X0.475000X-0.337500X0.475000X0.337500X-0.475000X0.337500X-0.475000X-0.337500X0*%
%TD*%
%TA.AperFunction,SMDPad,CuDef*%
%ADD22RoundRect,0.250000X0.550000X-1.500000X0.550000X1.500000X-0.550000X1.500000X-0.550000X-1.500000X0*%
%TD*%
%TA.AperFunction,SMDPad,CuDef*%
%ADD23RoundRect,0.250000X-0.450000X0.350000X-0.450000X-0.350000X0.450000X-0.350000X0.450000X0.350000X0*%
%TD*%
%TA.AperFunction,SMDPad,CuDef*%
%ADD24RoundRect,0.250000X-1.050000X-0.550000X1.050000X-0.550000X1.050000X0.550000X-1.050000X0.550000X0*%
%TD*%
%TA.AperFunction,SMDPad,CuDef*%
%ADD25RoundRect,0.250000X1.000000X-1.400000X1.000000X1.400000X-1.000000X1.400000X-1.000000X-1.400000X0*%
%TD*%
%TA.AperFunction,ComponentPad*%
%ADD26R,0.850000X0.850000*%
%TD*%
%TA.AperFunction,ComponentPad*%
%ADD27C,0.850000*%
%TD*%
%TA.AperFunction,SMDPad,CuDef*%
%ADD28RoundRect,0.250000X0.350000X0.450000X-0.350000X0.450000X-0.350000X-0.450000X0.350000X-0.450000X0*%
%TD*%
%TA.AperFunction,SMDPad,CuDef*%
%ADD29RoundRect,0.250000X0.550000X-1.412500X0.550000X1.412500X-0.550000X1.412500X-0.550000X-1.412500X0*%
%TD*%
%TA.AperFunction,SMDPad,CuDef*%
%ADD30RoundRect,0.250000X2.050000X0.300000X-2.050000X0.300000X-2.050000X-0.300000X2.050000X-0.300000X0*%
%TD*%
%TA.AperFunction,SMDPad,CuDef*%
%ADD31RoundRect,0.250002X4.449998X5.149998X-4.449998X5.149998X-4.449998X-5.149998X4.449998X-5.149998X0*%
%TD*%
%TA.AperFunction,SMDPad,CuDef*%
%ADD32RoundRect,0.250000X-0.337500X-0.475000X0.337500X-0.475000X0.337500X0.475000X-0.337500X0.475000X0*%
%TD*%
%TA.AperFunction,SMDPad,CuDef*%
%ADD33RoundRect,0.062500X0.062500X-0.350000X0.062500X0.350000X-0.062500X0.350000X-0.062500X-0.350000X0*%
%TD*%
%TA.AperFunction,SMDPad,CuDef*%
%ADD34RoundRect,0.062500X0.350000X-0.062500X0.350000X0.062500X-0.350000X0.062500X-0.350000X-0.062500X0*%
%TD*%
%TA.AperFunction,HeatsinkPad*%
%ADD35R,1.230000X1.230000*%
%TD*%
%TA.AperFunction,ComponentPad*%
%ADD36RoundRect,0.250000X-0.750000X-0.750000X0.750000X-0.750000X0.750000X0.750000X-0.750000X0.750000X0*%
%TD*%
%TA.AperFunction,SMDPad,CuDef*%
%ADD37RoundRect,0.150000X-0.150000X0.725000X-0.150000X-0.725000X0.150000X-0.725000X0.150000X0.725000X0*%
%TD*%
%TA.AperFunction,SMDPad,CuDef*%
%ADD38RoundRect,0.250000X1.950000X1.000000X-1.950000X1.000000X-1.950000X-1.000000X1.950000X-1.000000X0*%
%TD*%
%TA.AperFunction,SMDPad,CuDef*%
%ADD39R,1.550000X0.600000*%
%TD*%
%TA.AperFunction,ComponentPad*%
%ADD40C,0.700000*%
%TD*%
%TA.AperFunction,SMDPad,CuDef*%
%ADD41R,2.950000X4.900000*%
%TD*%
%TA.AperFunction,SMDPad,CuDef*%
%ADD42RoundRect,0.250000X-0.475000X0.337500X-0.475000X-0.337500X0.475000X-0.337500X0.475000X0.337500X0*%
%TD*%
%TA.AperFunction,ViaPad*%
%ADD43C,1.000000*%
%TD*%
%TA.AperFunction,ViaPad*%
%ADD44C,0.600000*%
%TD*%
%TA.AperFunction,ViaPad*%
%ADD45C,0.700000*%
%TD*%
%TA.AperFunction,ViaPad*%
%ADD46C,0.800000*%
%TD*%
%TA.AperFunction,Conductor*%
%ADD47C,0.800000*%
%TD*%
%TA.AperFunction,Conductor*%
%ADD48C,0.600000*%
%TD*%
%TA.AperFunction,Conductor*%
%ADD49C,0.203200*%
%TD*%
%TA.AperFunction,Conductor*%
%ADD50C,1.000000*%
%TD*%
G04 APERTURE END LIST*
D10*
%TO.P,L1,1,1*%
%TO.N,/Out5V*%
X93950000Y-112000000D03*
%TO.P,L1,2,2*%
%TO.N,+5V*%
X105050000Y-112000000D03*
%TD*%
D11*
%TO.P,J10,1,Pin_1*%
%TO.N,+5V*%
X110770000Y-99000000D03*
D12*
%TO.P,J10,2,Pin_2*%
%TO.N,Net-(J10-Pin_2)*%
X110770000Y-96460000D03*
%TD*%
D13*
%TO.P,J4,1,Pin_1*%
%TO.N,/Sound1*%
X78500000Y-82500000D03*
D12*
%TO.P,J4,2,Pin_2*%
%TO.N,/Sound2*%
X78500000Y-85040000D03*
%TD*%
D14*
%TO.P,U7,1,GND*%
%TO.N,GND*%
X87250000Y-77430000D03*
%TO.P,U7,2,3V3*%
%TO.N,+3.3V*%
X87250000Y-78700000D03*
%TO.P,U7,3,EN*%
%TO.N,Net-(U7-EN)*%
X87250000Y-79970000D03*
%TO.P,U7,4,IO4*%
%TO.N,/MOTOR_IN2*%
X87250000Y-81240000D03*
%TO.P,U7,5,IO5*%
%TO.N,/MOTOR_SENSE_2*%
X87250000Y-82510000D03*
%TO.P,U7,6,IO6*%
%TO.N,/INOUT2*%
X87250000Y-83780000D03*
%TO.P,U7,7,IO7*%
%TO.N,/INOUT1*%
X87250000Y-85050000D03*
%TO.P,U7,8,IO15*%
%TO.N,/INOUT9*%
X87250000Y-86320000D03*
%TO.P,U7,9,IO16*%
%TO.N,/INOUT8*%
X87250000Y-87590000D03*
%TO.P,U7,10,IO17*%
%TO.N,/INOUT7*%
X87250000Y-88860000D03*
%TO.P,U7,11,IO18*%
%TO.N,/INOUT6*%
X87250000Y-90130000D03*
%TO.P,U7,12,IO8*%
%TO.N,/INOUT5*%
X87250000Y-91400000D03*
%TO.P,U7,13,USB_D-/IO19*%
%TO.N,/INOUT4*%
X87250000Y-92670000D03*
%TO.P,U7,14,USB_D+/IO20*%
%TO.N,unconnected-(U7-USB_D+{slash}IO20-Pad14)*%
X87250000Y-93940000D03*
D15*
%TO.P,U7,15,IO3*%
%TO.N,/AUDIO_OUT*%
X89015000Y-95190000D03*
%TO.P,U7,16,IO46*%
%TO.N,/AUDIO_BCLK*%
X90285000Y-95190000D03*
%TO.P,U7,17,IO9*%
%TO.N,/AUDIO_LRCLK*%
X91555000Y-95190000D03*
%TO.P,U7,18,IO10*%
%TO.N,/INOUT3*%
X92825000Y-95190000D03*
%TO.P,U7,19,IO11*%
%TO.N,/OUT7*%
X94095000Y-95190000D03*
%TO.P,U7,20,IO12*%
%TO.N,/OUT6*%
X95365000Y-95190000D03*
%TO.P,U7,21,IO13*%
%TO.N,/OUT5*%
X96635000Y-95190000D03*
%TO.P,U7,22,IO14*%
%TO.N,/OUT4*%
X97905000Y-95190000D03*
%TO.P,U7,23,IO21*%
%TO.N,/OUT3*%
X99175000Y-95190000D03*
%TO.P,U7,24,IO47*%
%TO.N,/OUT2*%
X100445000Y-95190000D03*
%TO.P,U7,25,IO48*%
%TO.N,/OUT1*%
X101715000Y-95190000D03*
%TO.P,U7,26,IO45*%
%TO.N,unconnected-(U7-IO45-Pad26)*%
X102985000Y-95190000D03*
D14*
%TO.P,U7,27,IO0*%
%TO.N,/IO0*%
X104750000Y-93940000D03*
%TO.P,U7,28,NC*%
%TO.N,unconnected-(U7-NC-Pad28)*%
X104750000Y-92670000D03*
%TO.P,U7,29,NC*%
%TO.N,unconnected-(U7-NC-Pad29)*%
X104750000Y-91400000D03*
%TO.P,U7,30,NC*%
%TO.N,unconnected-(U7-NC-Pad30)*%
X104750000Y-90130000D03*
%TO.P,U7,31,IO38*%
%TO.N,unconnected-(U7-IO38-Pad31)*%
X104750000Y-88860000D03*
%TO.P,U7,32,MTCK/IO39*%
%TO.N,unconnected-(U7-MTCK{slash}IO39-Pad32)*%
X104750000Y-87590000D03*
%TO.P,U7,33,MTDO/IO40*%
%TO.N,unconnected-(U7-MTDO{slash}IO40-Pad33)*%
X104750000Y-86320000D03*
%TO.P,U7,34,MTDI/IO41*%
%TO.N,unconnected-(U7-MTDI{slash}IO41-Pad34)*%
X104750000Y-85050000D03*
%TO.P,U7,35,MTMS/IO42*%
%TO.N,unconnected-(U7-MTMS{slash}IO42-Pad35)*%
X104750000Y-83780000D03*
%TO.P,U7,36,RXD0/IO44*%
%TO.N,/UART-RX*%
X104750000Y-82510000D03*
%TO.P,U7,37,TXD0/IO43*%
%TO.N,/UART-TX*%
X104750000Y-81240000D03*
%TO.P,U7,38,IO2*%
%TO.N,/MOTOR_IN1*%
X104750000Y-79970000D03*
%TO.P,U7,39,IO1*%
%TO.N,/MOTOR_SENSE_1*%
X104750000Y-78700000D03*
%TO.P,U7,40,GND*%
%TO.N,GND*%
X104750000Y-77430000D03*
D16*
%TO.P,U7,41,GND*%
X93140000Y-81280000D03*
D17*
X93140000Y-82030000D03*
D16*
X93140000Y-82780000D03*
D17*
X93140000Y-83530000D03*
D16*
X93140000Y-84280000D03*
D17*
X93890000Y-81280000D03*
X93890000Y-82780000D03*
X93890000Y-84280000D03*
D16*
X94640000Y-81280000D03*
D17*
X94640000Y-82030000D03*
D16*
X94640000Y-82780000D03*
D17*
X94640000Y-83530000D03*
D16*
X94640000Y-84280000D03*
D17*
X95390000Y-81280000D03*
X95390000Y-82780000D03*
X95390000Y-84280000D03*
D16*
X96140000Y-81280000D03*
D17*
X96140000Y-82030000D03*
D16*
X96140000Y-82780000D03*
D17*
X96140000Y-83530000D03*
D16*
X96140000Y-84280000D03*
%TD*%
D11*
%TO.P,J11,1,Pin_1*%
%TO.N,+5V*%
X110770000Y-105000000D03*
D12*
%TO.P,J11,2,Pin_2*%
%TO.N,Net-(J11-Pin_2)*%
X110770000Y-102460000D03*
%TD*%
D18*
%TO.P,J2,1,Pin_1*%
%TO.N,/IO0*%
X88195000Y-98325000D03*
%TO.P,J2,2,Pin_2*%
%TO.N,/INOUT3*%
X88195000Y-102225000D03*
%TO.P,J2,3,Pin_3*%
%TO.N,/UART-TX*%
X86925000Y-98325000D03*
%TO.P,J2,4,Pin_4*%
%TO.N,/INOUT4*%
X86925000Y-102225000D03*
%TO.P,J2,5,Pin_5*%
%TO.N,/UART-RX*%
X85655000Y-98325000D03*
%TO.P,J2,6,Pin_6*%
%TO.N,/INOUT5*%
X85655000Y-102225000D03*
%TO.P,J2,7,Pin_7*%
%TO.N,/INOUT1*%
X84385000Y-98325000D03*
%TO.P,J2,8,Pin_8*%
%TO.N,/INOUT6*%
X84385000Y-102225000D03*
%TO.P,J2,9,Pin_9*%
%TO.N,/INOUT2*%
X83115000Y-98325000D03*
%TO.P,J2,10,Pin_10*%
%TO.N,/INOUT7*%
X83115000Y-102225000D03*
%TO.P,J2,11,Pin_11*%
%TO.N,+5V*%
X81845000Y-98325000D03*
%TO.P,J2,12,Pin_12*%
%TO.N,/INOUT8*%
X81845000Y-102225000D03*
%TO.P,J2,13,Pin_13*%
%TO.N,+3.3V*%
X80575000Y-98325000D03*
%TO.P,J2,14,Pin_14*%
%TO.N,/INOUT9*%
X80575000Y-102225000D03*
%TO.P,J2,15,Pin_15*%
%TO.N,GND*%
X79305000Y-98325000D03*
%TO.P,J2,16,Pin_16*%
%TO.N,VCC*%
X79305000Y-102225000D03*
%TD*%
D19*
%TO.P,U6,1,GND*%
%TO.N,GND*%
X83850000Y-106700000D03*
%TO.P,U6,2,VO*%
%TO.N,+3.3V*%
X83850000Y-109000000D03*
D20*
X90150000Y-109000000D03*
D19*
%TO.P,U6,3,VI*%
%TO.N,+5V*%
X83850000Y-111300000D03*
%TD*%
D11*
%TO.P,J3,1,Pin_1*%
%TO.N,/MOTOR2*%
X110750000Y-123040000D03*
D12*
%TO.P,J3,2,Pin_2*%
%TO.N,/MOTOR1*%
X110750000Y-120500000D03*
%TD*%
D11*
%TO.P,J8,1,Pin_1*%
%TO.N,+5V*%
X110750000Y-87000000D03*
D12*
%TO.P,J8,2,Pin_2*%
%TO.N,/FwdLED*%
X110750000Y-84460000D03*
%TD*%
D21*
%TO.P,C10,1*%
%TO.N,+3.3V*%
X83250000Y-79250000D03*
%TO.P,C10,2*%
%TO.N,GND*%
X83250000Y-77175000D03*
%TD*%
D22*
%TO.P,C2,1*%
%TO.N,VCC*%
X99850000Y-133287500D03*
%TO.P,C2,2*%
%TO.N,GND*%
X99850000Y-127687500D03*
%TD*%
D23*
%TO.P,R1,1*%
%TO.N,Net-(U4-IPROPI)*%
X104600000Y-128235000D03*
%TO.P,R1,2*%
%TO.N,GND*%
X104600000Y-130235000D03*
%TD*%
D24*
%TO.P,C6,1*%
%TO.N,+3.3V*%
X91450000Y-102750000D03*
%TO.P,C6,2*%
%TO.N,GND*%
X95050000Y-102750000D03*
%TD*%
D23*
%TO.P,R2,1*%
%TO.N,+3.3V*%
X85250000Y-79000000D03*
%TO.P,R2,2*%
%TO.N,Net-(U7-EN)*%
X85250000Y-81000000D03*
%TD*%
D25*
%TO.P,D1,1,K*%
%TO.N,/Out5V*%
X93200000Y-122250000D03*
%TO.P,D1,2,A*%
%TO.N,GND*%
X100000000Y-122250000D03*
%TD*%
D21*
%TO.P,C7,1*%
%TO.N,+3.3V*%
X78500000Y-94787500D03*
%TO.P,C7,2*%
%TO.N,GND*%
X78500000Y-92712500D03*
%TD*%
D26*
%TO.P,J6,1,Pin_1*%
%TO.N,GND*%
X76250000Y-93000000D03*
D27*
%TO.P,J6,2,Pin_2*%
%TO.N,/SND_GAIN*%
X76250000Y-94000000D03*
%TO.P,J6,3,Pin_3*%
%TO.N,+3.3V*%
X76250000Y-95000000D03*
%TD*%
D28*
%TO.P,R6,1*%
%TO.N,/MOTOR_SENSE_1*%
X104500000Y-119500000D03*
%TO.P,R6,2*%
%TO.N,GND*%
X102500000Y-119500000D03*
%TD*%
D21*
%TO.P,C8,1*%
%TO.N,+3.3V*%
X80500000Y-94825000D03*
%TO.P,C8,2*%
%TO.N,GND*%
X80500000Y-92750000D03*
%TD*%
D11*
%TO.P,J13,1,Pin_1*%
%TO.N,+5V*%
X110770000Y-117000000D03*
D12*
%TO.P,J13,2,Pin_2*%
%TO.N,Net-(J13-Pin_2)*%
X110770000Y-114460000D03*
%TD*%
D29*
%TO.P,C5,1*%
%TO.N,+5V*%
X78500000Y-111075000D03*
%TO.P,C5,2*%
%TO.N,GND*%
X78500000Y-106000000D03*
%TD*%
D30*
%TO.P,U1,1,VIN*%
%TO.N,VCC*%
X89000000Y-122062500D03*
%TO.P,U1,2,OUT*%
%TO.N,/Out5V*%
X89000000Y-120362500D03*
%TO.P,U1,3,GND*%
%TO.N,GND*%
X89000000Y-118662500D03*
D31*
X79850000Y-118662500D03*
D30*
%TO.P,U1,4,FB*%
%TO.N,+5V*%
X89000000Y-116962500D03*
%TO.P,U1,5,~{ON}/OFF*%
%TO.N,GND*%
X89000000Y-115262500D03*
%TD*%
D23*
%TO.P,R3,1*%
%TO.N,/IO0*%
X90500000Y-98000000D03*
%TO.P,R3,2*%
%TO.N,+3.3V*%
X90500000Y-100000000D03*
%TD*%
D32*
%TO.P,C3,1*%
%TO.N,VCC*%
X89425000Y-126750000D03*
%TO.P,C3,2*%
%TO.N,GND*%
X91500000Y-126750000D03*
%TD*%
D33*
%TO.P,U3,1,DIN*%
%TO.N,/AUDIO_OUT*%
X77440000Y-90747500D03*
%TO.P,U3,2,GAIN_SLOT*%
%TO.N,/SND_GAIN*%
X77940000Y-90747500D03*
%TO.P,U3,3,GND*%
%TO.N,GND*%
X78440000Y-90747500D03*
%TO.P,U3,4,~{SD_MODE}*%
%TO.N,+3.3V*%
X78940000Y-90747500D03*
D34*
%TO.P,U3,5,NC*%
%TO.N,unconnected-(U3-NC-Pad5)*%
X79627500Y-90060000D03*
%TO.P,U3,6,NC*%
%TO.N,unconnected-(U3-NC-Pad6)*%
X79627500Y-89560000D03*
%TO.P,U3,7,VDD*%
%TO.N,+3.3V*%
X79627500Y-89060000D03*
%TO.P,U3,8,VDD*%
X79627500Y-88560000D03*
D33*
%TO.P,U3,9,OUTP*%
%TO.N,/Sound1*%
X78940000Y-87872500D03*
%TO.P,U3,10,OUTN*%
%TO.N,/Sound2*%
X78440000Y-87872500D03*
%TO.P,U3,11,GND*%
%TO.N,GND*%
X77940000Y-87872500D03*
%TO.P,U3,12,NC*%
%TO.N,unconnected-(U3-NC-Pad12)*%
X77440000Y-87872500D03*
D34*
%TO.P,U3,13,NC*%
%TO.N,unconnected-(U3-NC-Pad13)*%
X76752500Y-88560000D03*
%TO.P,U3,14,LRCLK*%
%TO.N,/AUDIO_LRCLK*%
X76752500Y-89060000D03*
%TO.P,U3,15,GND*%
%TO.N,GND*%
X76752500Y-89560000D03*
%TO.P,U3,16,BCLK*%
%TO.N,/AUDIO_BCLK*%
X76752500Y-90060000D03*
D35*
%TO.P,U3,17,PAD*%
%TO.N,GND*%
X78190000Y-89310000D03*
%TD*%
D32*
%TO.P,C12,1*%
%TO.N,GND*%
X82962500Y-85000000D03*
%TO.P,C12,2*%
%TO.N,Net-(U7-EN)*%
X85037500Y-85000000D03*
%TD*%
D28*
%TO.P,R4,1*%
%TO.N,/MOTOR1*%
X106250000Y-121500000D03*
%TO.P,R4,2*%
%TO.N,/MOTOR_SENSE_1*%
X104250000Y-121500000D03*
%TD*%
%TO.P,R5,1*%
%TO.N,/MOTOR2*%
X106250000Y-123500000D03*
%TO.P,R5,2*%
%TO.N,/MOTOR_SENSE_2*%
X104250000Y-123500000D03*
%TD*%
D36*
%TO.P,J1,1,Pin_1*%
%TO.N,VCC*%
X91660000Y-131505000D03*
D12*
%TO.P,J1,2,Pin_2*%
%TO.N,GND*%
X94200000Y-131505000D03*
%TD*%
D37*
%TO.P,U8,1,I1*%
%TO.N,/OUT1*%
X106270000Y-98750000D03*
%TO.P,U8,2,I2*%
%TO.N,/OUT2*%
X105000000Y-98750000D03*
%TO.P,U8,3,I3*%
%TO.N,/OUT3*%
X103730000Y-98750000D03*
%TO.P,U8,4,I4*%
%TO.N,/OUT4*%
X102460000Y-98750000D03*
%TO.P,U8,5,I5*%
%TO.N,/OUT5*%
X101190000Y-98750000D03*
%TO.P,U8,6,I6*%
%TO.N,/OUT6*%
X99920000Y-98750000D03*
%TO.P,U8,7,I7*%
%TO.N,/OUT7*%
X98650000Y-98750000D03*
%TO.P,U8,8,GND*%
%TO.N,GND*%
X97380000Y-98750000D03*
%TO.P,U8,9,COM*%
%TO.N,+5V*%
X97380000Y-103900000D03*
%TO.P,U8,10,O7*%
%TO.N,Net-(J13-Pin_2)*%
X98650000Y-103900000D03*
%TO.P,U8,11,O6*%
%TO.N,Net-(J12-Pin_2)*%
X99920000Y-103900000D03*
%TO.P,U8,12,O5*%
%TO.N,Net-(J11-Pin_2)*%
X101190000Y-103900000D03*
%TO.P,U8,13,O4*%
%TO.N,Net-(J10-Pin_2)*%
X102460000Y-103900000D03*
%TO.P,U8,14,O3*%
%TO.N,/BackLED*%
X103730000Y-103900000D03*
%TO.P,U8,15,O2*%
%TO.N,/FwdLED*%
X105000000Y-103900000D03*
%TO.P,U8,16,O1*%
%TO.N,/Smoke*%
X106270000Y-103900000D03*
%TD*%
D11*
%TO.P,J9,1,Pin_1*%
%TO.N,+5V*%
X110770000Y-93000000D03*
D12*
%TO.P,J9,2,Pin_2*%
%TO.N,/BackLED*%
X110770000Y-90460000D03*
%TD*%
D38*
%TO.P,C4,1*%
%TO.N,VCC*%
X87150000Y-130037500D03*
%TO.P,C4,2*%
%TO.N,GND*%
X78750000Y-130037500D03*
%TD*%
D39*
%TO.P,U4,1,IPROPI*%
%TO.N,Net-(U4-IPROPI)*%
X106750000Y-128230000D03*
%TO.P,U4,2,IN2*%
%TO.N,/MOTOR_IN2*%
X106750000Y-129500000D03*
%TO.P,U4,3,IN1*%
%TO.N,/MOTOR_IN1*%
X106750000Y-130770000D03*
%TO.P,U4,4,VREF*%
%TO.N,+3.3V*%
X106750000Y-132040000D03*
%TO.P,U4,5,VM*%
%TO.N,VCC*%
X112150000Y-132040000D03*
%TO.P,U4,6,OUT1*%
%TO.N,/MOTOR1*%
X112150000Y-130770000D03*
%TO.P,U4,7,GND*%
%TO.N,GND*%
X112150000Y-129500000D03*
%TO.P,U4,8,OUT2*%
%TO.N,/MOTOR2*%
X112150000Y-128230000D03*
D40*
%TO.P,U4,9,GND*%
%TO.N,GND*%
X108800000Y-128185000D03*
X108800000Y-129485000D03*
X108800000Y-130785000D03*
X108800000Y-132085000D03*
D41*
X109450000Y-130135000D03*
D40*
X110100000Y-128185000D03*
X110100000Y-129485000D03*
X110100000Y-130785000D03*
X110100000Y-132085000D03*
%TD*%
D28*
%TO.P,R7,1*%
%TO.N,/MOTOR_SENSE_2*%
X104500000Y-125500000D03*
%TO.P,R7,2*%
%TO.N,GND*%
X102500000Y-125500000D03*
%TD*%
D42*
%TO.P,C11,1*%
%TO.N,+3.3V*%
X83250000Y-80925000D03*
%TO.P,C11,2*%
%TO.N,GND*%
X83250000Y-83000000D03*
%TD*%
D21*
%TO.P,C1,1*%
%TO.N,VCC*%
X104600000Y-134060000D03*
%TO.P,C1,2*%
%TO.N,GND*%
X104600000Y-131985000D03*
%TD*%
D11*
%TO.P,J7,1,Pin_1*%
%TO.N,+5V*%
X110750000Y-81000000D03*
D12*
%TO.P,J7,2,Pin_2*%
%TO.N,/Smoke*%
X110750000Y-78460000D03*
%TD*%
D11*
%TO.P,J12,1,Pin_1*%
%TO.N,+5V*%
X110750000Y-111000000D03*
D12*
%TO.P,J12,2,Pin_2*%
%TO.N,Net-(J12-Pin_2)*%
X110750000Y-108460000D03*
%TD*%
D43*
%TO.N,GND*%
X87525000Y-114000000D03*
D44*
X108500000Y-126750000D03*
D45*
X81250000Y-117850000D03*
D44*
X110250000Y-126750000D03*
D45*
X81250000Y-123012500D03*
D43*
X90775000Y-114000000D03*
D45*
X76250000Y-116100000D03*
X78750000Y-121500000D03*
X83750000Y-121500000D03*
X83750000Y-123012500D03*
X81250000Y-121500000D03*
D44*
X109000000Y-133500000D03*
D45*
X78750000Y-123012500D03*
X83750000Y-116100000D03*
X78750000Y-114250000D03*
D44*
X108000000Y-133500000D03*
D45*
X76250000Y-117850000D03*
X78750000Y-119750000D03*
X78750000Y-117850000D03*
X81250000Y-114250000D03*
D43*
X77000000Y-104250000D03*
D45*
X83750000Y-119750000D03*
D44*
X110000000Y-133500000D03*
X110250000Y-125500000D03*
D45*
X81250000Y-119750000D03*
X76250000Y-114250000D03*
D44*
X111000000Y-133500000D03*
D45*
X76250000Y-121500000D03*
D43*
X83500000Y-104750000D03*
X82000000Y-106250000D03*
D45*
X83750000Y-117850000D03*
X76250000Y-119750000D03*
X78750000Y-116100000D03*
X76250000Y-123012500D03*
X83750000Y-114250000D03*
D44*
X108500000Y-125500000D03*
D45*
X81250000Y-116100000D03*
D43*
%TO.N,VCC*%
X91025000Y-123250000D03*
D44*
X85250000Y-121250000D03*
X79750000Y-104250000D03*
D46*
X86000000Y-132250000D03*
X86000000Y-127000000D03*
D44*
%TO.N,+5V*%
X106250000Y-115000000D03*
X103000000Y-110750000D03*
X104000000Y-115000000D03*
D43*
X76750000Y-111000000D03*
X80500000Y-111250000D03*
D44*
X103000000Y-113500000D03*
X79500000Y-100250000D03*
%TO.N,+3.3V*%
X85250000Y-108750000D03*
X80500000Y-96500000D03*
X90000000Y-101250000D03*
X88500000Y-108750000D03*
D46*
X88500000Y-78750000D03*
D44*
X100500000Y-108750000D03*
%TO.N,Net-(J10-Pin_2)*%
X103000000Y-105500000D03*
%TO.N,Net-(J11-Pin_2)*%
X101375000Y-105375000D03*
%TO.N,Net-(J12-Pin_2)*%
X100000000Y-105250000D03*
%TO.N,Net-(J13-Pin_2)*%
X98750000Y-105250000D03*
%TO.N,/INOUT8*%
X82750000Y-100500000D03*
X84500000Y-90000000D03*
%TO.N,/Smoke*%
X105500000Y-100500000D03*
%TO.N,/FwdLED*%
X105250000Y-101750000D03*
%TO.N,/BackLED*%
X104000000Y-102500000D03*
%TO.N,/UART-TX*%
X87750000Y-96198400D03*
X90719918Y-92219918D03*
%TO.N,/UART-RX*%
X91609959Y-92109959D03*
X86873367Y-96596552D03*
%TO.N,/INOUT7*%
X85000000Y-90750000D03*
X83500000Y-100500000D03*
%TO.N,/INOUT9*%
X84000000Y-89250000D03*
X80750000Y-104000000D03*
%TO.N,/AUDIO_OUT*%
X82801600Y-91255309D03*
X76750000Y-91500000D03*
%TO.N,/AUDIO_BCLK*%
X76703709Y-90703709D03*
X82801600Y-93920120D03*
%TO.N,/AUDIO_LRCLK*%
X75675000Y-89000000D03*
X89750000Y-92250000D03*
%TO.N,/MOTOR_IN1*%
X106000000Y-80000000D03*
X106750000Y-130250000D03*
%TO.N,/MOTOR_IN2*%
X105750000Y-129000000D03*
X91250000Y-84000000D03*
%TO.N,/INOUT4*%
X86750000Y-100500000D03*
X86000000Y-93500000D03*
%TO.N,/INOUT6*%
X85500000Y-91500000D03*
X84896800Y-99969668D03*
%TO.N,/INOUT5*%
X85500000Y-100500000D03*
X85750000Y-92250000D03*
%TO.N,/OUT3*%
X103000000Y-97500000D03*
X99250000Y-94000000D03*
%TO.N,/MOTOR_SENSE_1*%
X103500000Y-78750000D03*
X104500000Y-117750000D03*
%TO.N,/IO0*%
X92500000Y-92500000D03*
X90500000Y-97000000D03*
%TO.N,/MOTOR_SENSE_2*%
X105250000Y-122500000D03*
X93750000Y-85500000D03*
%TD*%
D47*
%TO.N,GND*%
X110115000Y-129500000D02*
X110100000Y-129485000D01*
D48*
X82075000Y-81612500D02*
X83250000Y-82787500D01*
D49*
X82962500Y-83075000D02*
X83250000Y-82787500D01*
X82962500Y-84500000D02*
X82962500Y-83075000D01*
X78190000Y-89310000D02*
X77940000Y-89060000D01*
D50*
X83250000Y-115262500D02*
X79850000Y-118662500D01*
X89000000Y-118662500D02*
X79850000Y-118662500D01*
D49*
X77940000Y-89060000D02*
X77940000Y-87872500D01*
X78440000Y-90747500D02*
X78440000Y-92652500D01*
X76752500Y-89560000D02*
X77940000Y-89560000D01*
D50*
X78275000Y-117087500D02*
X79850000Y-118662500D01*
D49*
X76752500Y-89560000D02*
X76394064Y-89560000D01*
X78440000Y-92652500D02*
X78500000Y-92712500D01*
X80462500Y-92712500D02*
X80500000Y-92750000D01*
X78500000Y-92712500D02*
X80462500Y-92712500D01*
X78440000Y-90747500D02*
X78440000Y-89560000D01*
X76088400Y-89865664D02*
X76088400Y-92838400D01*
X78440000Y-89560000D02*
X78190000Y-89310000D01*
X76088400Y-92838400D02*
X76250000Y-93000000D01*
D48*
X83250000Y-76925000D02*
X82075000Y-78100000D01*
D49*
X76394064Y-89560000D02*
X76088400Y-89865664D01*
D47*
X112150000Y-129500000D02*
X110115000Y-129500000D01*
D49*
X77940000Y-89560000D02*
X78190000Y-89310000D01*
D48*
X82075000Y-78100000D02*
X82075000Y-81612500D01*
D47*
%TO.N,VCC*%
X105390000Y-134850000D02*
X104600000Y-134060000D01*
X112150000Y-133600000D02*
X110900000Y-134850000D01*
X89000000Y-122062500D02*
X86062500Y-122062500D01*
X86062500Y-122062500D02*
X85250000Y-121250000D01*
X110900000Y-134850000D02*
X105390000Y-134850000D01*
X112150000Y-132040000D02*
X112150000Y-133600000D01*
X79305000Y-102225000D02*
X79305000Y-103704202D01*
X79305000Y-103704202D02*
X79800399Y-104199601D01*
D50*
%TO.N,+5V*%
X85250000Y-112700000D02*
X83850000Y-111300000D01*
D47*
X81845000Y-98325000D02*
X81845000Y-99725000D01*
D50*
X89000000Y-116962500D02*
X86700000Y-116962500D01*
D47*
X81320000Y-100250000D02*
X79500000Y-100250000D01*
D50*
X86700000Y-116962500D02*
X85250000Y-115512500D01*
X85250000Y-115512500D02*
X85250000Y-112700000D01*
D47*
X81845000Y-99725000D02*
X81320000Y-100250000D01*
D49*
%TO.N,+3.3V*%
X105723400Y-129842102D02*
X104967898Y-129086600D01*
D48*
X78287500Y-95000000D02*
X78500000Y-94787500D01*
D49*
X100500000Y-118500000D02*
X100500000Y-108750000D01*
X80026298Y-90747500D02*
X78940000Y-90747500D01*
D48*
X78500000Y-94787500D02*
X80462500Y-94787500D01*
D47*
X87300000Y-78750000D02*
X87250000Y-78700000D01*
D49*
X81476600Y-92197802D02*
X80026298Y-90747500D01*
X79627500Y-89060000D02*
X79627500Y-88560000D01*
X80291600Y-89311601D02*
X80039999Y-89060000D01*
X80575000Y-94900000D02*
X80500000Y-94825000D01*
X105723400Y-131321600D02*
X105723400Y-129842102D01*
X81476600Y-93848400D02*
X81476600Y-92197802D01*
X103836600Y-129086600D02*
X103351600Y-128601600D01*
X80291600Y-90482198D02*
X80291600Y-89311601D01*
D48*
X80500000Y-96500000D02*
X80500000Y-94825000D01*
D49*
X80500000Y-94825000D02*
X81476600Y-93848400D01*
X104967898Y-129086600D02*
X103836600Y-129086600D01*
X80039999Y-89060000D02*
X79627500Y-89060000D01*
X80026298Y-90747500D02*
X80291600Y-90482198D01*
D48*
X80500000Y-98250000D02*
X80575000Y-98325000D01*
D49*
X106750000Y-132040000D02*
X106441800Y-132040000D01*
D47*
X88500000Y-78750000D02*
X87300000Y-78750000D01*
D49*
X106441800Y-132040000D02*
X105723400Y-131321600D01*
X103016298Y-118500000D02*
X100500000Y-118500000D01*
D48*
X80500000Y-96500000D02*
X80500000Y-98250000D01*
D49*
X103351600Y-118835302D02*
X103016298Y-118500000D01*
X103351600Y-128601600D02*
X103351600Y-118835302D01*
D48*
X76250000Y-95000000D02*
X78287500Y-95000000D01*
X80462500Y-94787500D02*
X80500000Y-94825000D01*
%TO.N,Net-(J10-Pin_2)*%
X102460000Y-104960000D02*
X102460000Y-103900000D01*
X103000000Y-105500000D02*
X102460000Y-104960000D01*
%TO.N,Net-(J11-Pin_2)*%
X101375000Y-105375000D02*
X101190000Y-105190000D01*
X101190000Y-105190000D02*
X101190000Y-103900000D01*
%TO.N,Net-(J12-Pin_2)*%
X100000000Y-103980000D02*
X99920000Y-103900000D01*
X100000000Y-105250000D02*
X100000000Y-103980000D01*
%TO.N,Net-(J13-Pin_2)*%
X98750000Y-104000000D02*
X98650000Y-103900000D01*
X98750000Y-105250000D02*
X98750000Y-104000000D01*
D49*
%TO.N,/Sound2*%
X78440000Y-85350000D02*
X78750000Y-85040000D01*
X78440000Y-87872500D02*
X78440000Y-85350000D01*
%TO.N,/Sound1*%
X78940000Y-87872500D02*
X80001600Y-86810900D01*
X80001600Y-86810900D02*
X80001600Y-83751600D01*
X80001600Y-83751600D02*
X78750000Y-82500000D01*
D50*
%TO.N,/Out5V*%
X93200000Y-112750000D02*
X93950000Y-112000000D01*
X93200000Y-122250000D02*
X93200000Y-112750000D01*
X91312500Y-120362500D02*
X93200000Y-122250000D01*
X89000000Y-120362500D02*
X91312500Y-120362500D01*
D49*
%TO.N,/INOUT8*%
X82750000Y-100500000D02*
X81845000Y-101405000D01*
X86910000Y-87590000D02*
X84500000Y-90000000D01*
X81845000Y-101405000D02*
X81845000Y-102225000D01*
X87250000Y-87590000D02*
X86910000Y-87590000D01*
%TO.N,Net-(U7-EN)*%
X85287500Y-84250000D02*
X85287500Y-81287500D01*
X86030000Y-79970000D02*
X87250000Y-79970000D01*
X85000000Y-81000000D02*
X86030000Y-79970000D01*
X85287500Y-81287500D02*
X85000000Y-81000000D01*
D48*
%TO.N,/Smoke*%
X106270000Y-101270000D02*
X105500000Y-100500000D01*
X106270000Y-103900000D02*
X106270000Y-101270000D01*
%TO.N,/FwdLED*%
X105250000Y-103650000D02*
X105000000Y-103900000D01*
X105250000Y-101750000D02*
X105250000Y-103650000D01*
%TO.N,/BackLED*%
X104000000Y-103630000D02*
X103730000Y-103900000D01*
X104000000Y-102500000D02*
X104000000Y-103630000D01*
D49*
%TO.N,/UART-TX*%
X87750000Y-96500000D02*
X86925000Y-97325000D01*
X86925000Y-97325000D02*
X86925000Y-98325000D01*
X101699837Y-81240000D02*
X104750000Y-81240000D01*
X90719918Y-92219918D02*
X101699837Y-81240000D01*
X87750000Y-96198400D02*
X87750000Y-96500000D01*
%TO.N,/UART-RX*%
X100990000Y-82510000D02*
X104750000Y-82510000D01*
X86873367Y-96596552D02*
X86790158Y-96679761D01*
X85655000Y-96845000D02*
X85655000Y-98325000D01*
X86790158Y-96679761D02*
X85820239Y-96679761D01*
X91609959Y-92109959D02*
X91609959Y-91890041D01*
X91609959Y-91890041D02*
X100990000Y-82510000D01*
X85820239Y-96679761D02*
X85655000Y-96845000D01*
D47*
%TO.N,/MOTOR2*%
X112150000Y-124440000D02*
X110750000Y-123040000D01*
X112150000Y-128230000D02*
X112150000Y-124440000D01*
D49*
X106250000Y-123500000D02*
X110290000Y-123500000D01*
X110290000Y-123500000D02*
X110750000Y-123040000D01*
D47*
%TO.N,/MOTOR1*%
X112150000Y-130770000D02*
X113725000Y-130770000D01*
X113725000Y-123376702D02*
X110848298Y-120500000D01*
D49*
X109750000Y-121500000D02*
X110750000Y-120500000D01*
D47*
X110848298Y-120500000D02*
X110750000Y-120500000D01*
D49*
X106250000Y-121500000D02*
X109750000Y-121500000D01*
D47*
X113725000Y-130770000D02*
X113725000Y-123376702D01*
D49*
%TO.N,/SND_GAIN*%
X77250000Y-94000000D02*
X76250000Y-94000000D01*
X77940000Y-91310000D02*
X77250000Y-92000000D01*
X77250000Y-92000000D02*
X77250000Y-94000000D01*
X77940000Y-90747500D02*
X77940000Y-91310000D01*
%TO.N,/INOUT7*%
X86890000Y-88860000D02*
X85000000Y-90750000D01*
X83500000Y-100500000D02*
X83500000Y-101840000D01*
X87250000Y-88860000D02*
X86890000Y-88860000D01*
X83500000Y-101840000D02*
X83115000Y-102225000D01*
%TO.N,/INOUT9*%
X80750000Y-104000000D02*
X80750000Y-103250000D01*
X86930000Y-86320000D02*
X84000000Y-89250000D01*
X80750000Y-103250000D02*
X80575000Y-103075000D01*
X87250000Y-86320000D02*
X86930000Y-86320000D01*
X80575000Y-103075000D02*
X80575000Y-102225000D01*
%TO.N,/AUDIO_OUT*%
X76750000Y-91500000D02*
X76750000Y-91437500D01*
X83911559Y-94250000D02*
X86248400Y-94250000D01*
X86248400Y-94641600D02*
X86711600Y-94641600D01*
X86711600Y-94641600D02*
X86910000Y-94840000D01*
X82801600Y-93140041D02*
X83911559Y-94250000D01*
X87319754Y-94840000D02*
X87669754Y-95190000D01*
X82801600Y-91255309D02*
X82801600Y-93140041D01*
X87669754Y-95190000D02*
X89015000Y-95190000D01*
X76750000Y-91437500D02*
X77440000Y-90747500D01*
X86248400Y-94250000D02*
X86248400Y-94641600D01*
X86910000Y-94840000D02*
X87319754Y-94840000D01*
%TO.N,/AUDIO_BCLK*%
X89716600Y-96058400D02*
X90285000Y-95490000D01*
X88313400Y-96191600D02*
X89716600Y-96191600D01*
X82801600Y-93920120D02*
X82801600Y-94450284D01*
X89716600Y-96191600D02*
X89716600Y-96058400D01*
X88043200Y-95543200D02*
X88313400Y-95813400D01*
X76703709Y-90108791D02*
X76752500Y-90060000D01*
X83801301Y-95449985D02*
X87430239Y-95449985D01*
X88313400Y-95813400D02*
X88313400Y-96191600D01*
X90285000Y-95490000D02*
X90285000Y-95190000D01*
X82801600Y-94450284D02*
X83801301Y-95449985D01*
X87523454Y-95543200D02*
X88043200Y-95543200D01*
X76703709Y-90703709D02*
X76703709Y-90108791D01*
X87430239Y-95449985D02*
X87523454Y-95543200D01*
%TO.N,/AUDIO_LRCLK*%
X91555000Y-94890000D02*
X91555000Y-95190000D01*
X89915000Y-92415000D02*
X89915000Y-93250000D01*
X75675000Y-89000000D02*
X76692500Y-89000000D01*
X89750000Y-92250000D02*
X89915000Y-92415000D01*
X89915000Y-93250000D02*
X91555000Y-94890000D01*
X76692500Y-89000000D02*
X76752500Y-89060000D01*
%TO.N,/MOTOR_IN1*%
X106000000Y-80000000D02*
X105080000Y-80000000D01*
X105080000Y-80000000D02*
X105050000Y-79970000D01*
X106750000Y-130250000D02*
X106750000Y-130770000D01*
X105050000Y-79970000D02*
X104750000Y-79970000D01*
%TO.N,/MOTOR_IN2*%
X106250000Y-129500000D02*
X105750000Y-129000000D01*
X88240000Y-81240000D02*
X87250000Y-81240000D01*
X91000000Y-84000000D02*
X88240000Y-81240000D01*
X91250000Y-84000000D02*
X91000000Y-84000000D01*
X106750000Y-129500000D02*
X106250000Y-129500000D01*
%TO.N,/OUT7*%
X94000000Y-95585000D02*
X94000000Y-97250000D01*
X94095000Y-95490000D02*
X94000000Y-95585000D01*
X94095000Y-95190000D02*
X94095000Y-95490000D01*
X97873400Y-97623400D02*
X98650000Y-98400000D01*
X94373400Y-97623400D02*
X97873400Y-97623400D01*
X94000000Y-97250000D02*
X94373400Y-97623400D01*
X98650000Y-98400000D02*
X98650000Y-98750000D01*
%TO.N,/INOUT4*%
X87250000Y-92670000D02*
X86830000Y-92670000D01*
X86830000Y-92670000D02*
X86000000Y-93500000D01*
X86750000Y-102050000D02*
X86925000Y-102225000D01*
X86750000Y-100500000D02*
X86750000Y-102050000D01*
%TO.N,/INOUT6*%
X86870000Y-90130000D02*
X85500000Y-91500000D01*
X84385000Y-100481468D02*
X84385000Y-102225000D01*
X87250000Y-90130000D02*
X86870000Y-90130000D01*
X84896800Y-99969668D02*
X84385000Y-100481468D01*
%TO.N,/OUT5*%
X99646800Y-96896800D02*
X101190000Y-98440000D01*
X96635000Y-96896800D02*
X99646800Y-96896800D01*
X101190000Y-98440000D02*
X101190000Y-98750000D01*
X96635000Y-95190000D02*
X96635000Y-96896800D01*
%TO.N,/INOUT5*%
X85500000Y-102070000D02*
X85655000Y-102225000D01*
X87250000Y-91400000D02*
X86600000Y-91400000D01*
X85500000Y-100500000D02*
X85500000Y-102070000D01*
X86600000Y-91400000D02*
X85750000Y-92250000D01*
%TO.N,/OUT3*%
X103730000Y-98230000D02*
X103000000Y-97500000D01*
X103730000Y-98750000D02*
X103730000Y-98230000D01*
X99250000Y-95115000D02*
X99175000Y-95190000D01*
X99250000Y-94000000D02*
X99250000Y-95115000D01*
%TO.N,/OUT6*%
X99920000Y-98420000D02*
X99920000Y-98750000D01*
X95500000Y-97250000D02*
X98750000Y-97250000D01*
X95365000Y-95190000D02*
X95365000Y-97115000D01*
X95365000Y-97115000D02*
X95500000Y-97250000D01*
X98750000Y-97250000D02*
X99920000Y-98420000D01*
%TO.N,/INOUT3*%
X92825000Y-97191298D02*
X92825000Y-95190000D01*
X91016298Y-99000000D02*
X92825000Y-97191298D01*
X88195000Y-100788702D02*
X89983702Y-99000000D01*
X88195000Y-102225000D02*
X88195000Y-100788702D01*
X89983702Y-99000000D02*
X91016298Y-99000000D01*
%TO.N,/INOUT1*%
X82250000Y-95500000D02*
X83623400Y-96873400D01*
X84385000Y-97635000D02*
X84385000Y-98325000D01*
X83736600Y-96873400D02*
X83736600Y-96986600D01*
X87250000Y-85050000D02*
X87700000Y-85050000D01*
X83771519Y-88698400D02*
X83448400Y-89021519D01*
X86381100Y-85618400D02*
X86248400Y-85751100D01*
X86248400Y-85751100D02*
X86248400Y-86501600D01*
X87250000Y-85500000D02*
X87131600Y-85618400D01*
X82250000Y-90500000D02*
X82250000Y-95500000D01*
X87131600Y-85618400D02*
X86381100Y-85618400D01*
X86248400Y-86501600D02*
X84051600Y-88698400D01*
X83623400Y-96873400D02*
X83736600Y-96873400D01*
X83736600Y-96986600D02*
X84385000Y-97635000D01*
X83448400Y-89021519D02*
X83448400Y-89301600D01*
X84051600Y-88698400D02*
X83771519Y-88698400D01*
X83448400Y-89301600D02*
X82250000Y-90500000D01*
X87250000Y-85050000D02*
X87250000Y-85500000D01*
%TO.N,/OUT4*%
X102460000Y-98460000D02*
X102460000Y-98750000D01*
X98043600Y-96543600D02*
X100543600Y-96543600D01*
X97905000Y-95190000D02*
X97905000Y-96405000D01*
X97905000Y-96405000D02*
X98043600Y-96543600D01*
X100543600Y-96543600D02*
X102460000Y-98460000D01*
%TO.N,/INOUT2*%
X86234800Y-85265200D02*
X85895200Y-85604800D01*
X86901600Y-84348400D02*
X86248400Y-84348400D01*
X87250000Y-83780000D02*
X87250000Y-84000000D01*
X81829800Y-90420200D02*
X81829800Y-95579800D01*
X83625219Y-88345200D02*
X83095200Y-88875219D01*
X83095200Y-89154800D02*
X81829800Y-90420200D01*
X86248400Y-84348400D02*
X86248400Y-85265200D01*
X83904800Y-88345200D02*
X83625219Y-88345200D01*
X83115000Y-96865000D02*
X83115000Y-98325000D01*
X86248400Y-85265200D02*
X86234800Y-85265200D01*
X85895200Y-85604800D02*
X85895200Y-86354800D01*
X81829800Y-95579800D02*
X83115000Y-96865000D01*
X85895200Y-86354800D02*
X83904800Y-88345200D01*
X87250000Y-84000000D02*
X86901600Y-84348400D01*
X83095200Y-88875219D02*
X83095200Y-89154800D01*
%TO.N,Net-(U4-IPROPI)*%
X106745000Y-128235000D02*
X106750000Y-128230000D01*
X104600000Y-128235000D02*
X106745000Y-128235000D01*
%TO.N,/OUT2*%
X100445000Y-95190000D02*
X100445000Y-95490000D01*
X100445000Y-95490000D02*
X101808200Y-96853200D01*
X105000000Y-98353200D02*
X105000000Y-98750000D01*
X101808200Y-96853200D02*
X103500000Y-96853200D01*
X103500000Y-96853200D02*
X105000000Y-98353200D01*
%TO.N,/OUT1*%
X106270000Y-97875001D02*
X106270000Y-98750000D01*
X104894999Y-96500000D02*
X106270000Y-97875001D01*
X101715000Y-95490000D02*
X102725000Y-96500000D01*
X102725000Y-96500000D02*
X104894999Y-96500000D01*
X101715000Y-95190000D02*
X101715000Y-95490000D01*
%TO.N,/MOTOR_SENSE_1*%
X104250000Y-121500000D02*
X104500000Y-121250000D01*
X104500000Y-119500000D02*
X104500000Y-117750000D01*
X103500000Y-78750000D02*
X104700000Y-78750000D01*
X104700000Y-78750000D02*
X104750000Y-78700000D01*
X104500000Y-121250000D02*
X104500000Y-119500000D01*
%TO.N,/IO0*%
X88195000Y-98325000D02*
X90175000Y-98325000D01*
X90500000Y-97000000D02*
X90500000Y-98000000D01*
X103748400Y-93371600D02*
X104181600Y-93371600D01*
X104181600Y-93371600D02*
X104750000Y-93940000D01*
X103310000Y-92500000D02*
X103748400Y-92938400D01*
X90175000Y-98325000D02*
X90500000Y-98000000D01*
X92500000Y-92500000D02*
X103310000Y-92500000D01*
X103748400Y-92938400D02*
X103748400Y-93371600D01*
%TO.N,/MOTOR_SENSE_2*%
X104250000Y-123500000D02*
X105250000Y-122500000D01*
X104500000Y-125500000D02*
X104500000Y-125250000D01*
X87250000Y-82510000D02*
X87760000Y-82510000D01*
X104500000Y-125250000D02*
X104250000Y-125000000D01*
X104250000Y-125000000D02*
X104250000Y-123500000D01*
X87760000Y-82510000D02*
X90750000Y-85500000D01*
X90750000Y-85500000D02*
X93750000Y-85500000D01*
%TD*%
%TA.AperFunction,Conductor*%
%TO.N,GND*%
G36*
X84443039Y-113225185D02*
G01*
X84488794Y-113277989D01*
X84500000Y-113329500D01*
X84500000Y-135125500D01*
X84480315Y-135192539D01*
X84427511Y-135238294D01*
X84376000Y-135249500D01*
X75499500Y-135249500D01*
X75432461Y-135229815D01*
X75386706Y-135177011D01*
X75375500Y-135125500D01*
X75375500Y-113329500D01*
X75395185Y-113262461D01*
X75447989Y-113216706D01*
X75499500Y-113205500D01*
X84376000Y-113205500D01*
X84443039Y-113225185D01*
G37*
%TD.AperFunction*%
%TD*%
%TA.AperFunction,Conductor*%
%TO.N,GND*%
G36*
X91693039Y-111269685D02*
G01*
X91738794Y-111322489D01*
X91750000Y-111374000D01*
X91750000Y-115876000D01*
X91730315Y-115943039D01*
X91677511Y-115988794D01*
X91626000Y-116000000D01*
X86779519Y-116000000D01*
X86712480Y-115980315D01*
X86691838Y-115963681D01*
X86286319Y-115558162D01*
X86252834Y-115496839D01*
X86250000Y-115470481D01*
X86250000Y-111374000D01*
X86269685Y-111306961D01*
X86322489Y-111261206D01*
X86374000Y-111250000D01*
X91626000Y-111250000D01*
X91693039Y-111269685D01*
G37*
%TD.AperFunction*%
%TD*%
%TA.AperFunction,Conductor*%
%TO.N,VCC*%
G36*
X90442418Y-121519685D02*
G01*
X90488173Y-121572489D01*
X90499377Y-121624620D01*
X90462499Y-128999999D01*
X90462500Y-129000000D01*
X92873968Y-129000000D01*
X92941007Y-129019685D01*
X92986762Y-129072489D01*
X92997952Y-129126015D01*
X92935000Y-133000000D01*
X96500000Y-133000000D01*
X96500000Y-130623705D01*
X96519685Y-130556666D01*
X96572489Y-130510911D01*
X96623702Y-130499705D01*
X101625708Y-130487795D01*
X101692791Y-130507320D01*
X101738671Y-130560015D01*
X101750000Y-130611795D01*
X101750000Y-132500000D01*
X103633496Y-132500000D01*
X103700535Y-132519685D01*
X103733264Y-132550364D01*
X103802850Y-132644650D01*
X103912118Y-132725293D01*
X103954845Y-132740244D01*
X104040299Y-132770146D01*
X104070730Y-132773000D01*
X104070734Y-132773000D01*
X105129270Y-132773000D01*
X105159699Y-132770146D01*
X105159701Y-132770146D01*
X105223790Y-132747719D01*
X105287882Y-132725293D01*
X105302367Y-132714602D01*
X105367995Y-132690632D01*
X105436165Y-132705947D01*
X105485234Y-132755687D01*
X105500000Y-132814373D01*
X105500000Y-135125500D01*
X105480315Y-135192539D01*
X105427511Y-135238294D01*
X105376000Y-135249500D01*
X85374000Y-135249500D01*
X85306961Y-135229815D01*
X85261206Y-135177011D01*
X85250000Y-135125500D01*
X85250000Y-121624000D01*
X85269685Y-121556961D01*
X85322489Y-121511206D01*
X85374000Y-121500000D01*
X90375379Y-121500000D01*
X90442418Y-121519685D01*
G37*
%TD.AperFunction*%
%TD*%
%TA.AperFunction,Conductor*%
%TO.N,GND*%
G36*
X93955203Y-97632883D02*
G01*
X93961681Y-97638915D01*
X94131660Y-97808894D01*
X94187906Y-97865140D01*
X94256794Y-97904913D01*
X94333628Y-97925500D01*
X94413172Y-97925500D01*
X97696904Y-97925500D01*
X97763943Y-97945185D01*
X97784585Y-97961819D01*
X97963681Y-98140915D01*
X97997166Y-98202238D01*
X98000000Y-98228596D01*
X98000000Y-99876000D01*
X97980315Y-99943039D01*
X97927511Y-99988794D01*
X97876000Y-100000000D01*
X96750000Y-100000000D01*
X96750000Y-108000000D01*
X100376000Y-108000000D01*
X100384685Y-108002550D01*
X100393647Y-108001262D01*
X100417687Y-108012240D01*
X100443039Y-108019685D01*
X100448966Y-108026525D01*
X100457203Y-108030287D01*
X100471492Y-108052521D01*
X100488794Y-108072489D01*
X100491081Y-108083003D01*
X100494977Y-108089065D01*
X100500000Y-108124000D01*
X100500000Y-108136696D01*
X100480315Y-108203735D01*
X100427511Y-108249490D01*
X100408097Y-108256469D01*
X100366853Y-108267520D01*
X100306812Y-108283608D01*
X100192686Y-108349500D01*
X100192683Y-108349502D01*
X100099502Y-108442683D01*
X100099500Y-108442686D01*
X100033608Y-108556812D01*
X99999500Y-108684108D01*
X99999500Y-108815891D01*
X100033608Y-108943187D01*
X100055726Y-108981495D01*
X100099500Y-109057314D01*
X100099502Y-109057316D01*
X100161581Y-109119395D01*
X100195066Y-109180718D01*
X100197900Y-109207076D01*
X100197900Y-118460228D01*
X100197900Y-118539772D01*
X100218487Y-118616606D01*
X100258260Y-118685494D01*
X100314506Y-118741740D01*
X100383394Y-118781513D01*
X100460228Y-118802100D01*
X102839802Y-118802100D01*
X102869242Y-118810744D01*
X102899229Y-118817268D01*
X102904244Y-118821022D01*
X102906841Y-118821785D01*
X102927483Y-118838419D01*
X103013181Y-118924117D01*
X103046666Y-118985440D01*
X103049500Y-119011798D01*
X103049500Y-128641375D01*
X103070085Y-128718205D01*
X103109861Y-128787096D01*
X103463681Y-129140915D01*
X103497166Y-129202238D01*
X103500000Y-129228596D01*
X103500000Y-129500000D01*
X104902702Y-129500000D01*
X104969741Y-129519685D01*
X104990383Y-129536319D01*
X105384981Y-129930917D01*
X105418466Y-129992240D01*
X105421300Y-130018598D01*
X105421300Y-131361375D01*
X105441885Y-131438205D01*
X105483386Y-131510083D01*
X105500000Y-131572085D01*
X105500000Y-132362688D01*
X105499736Y-132363586D01*
X105499987Y-132364490D01*
X105489910Y-132397050D01*
X105480315Y-132429727D01*
X105479607Y-132430340D01*
X105479330Y-132431236D01*
X105453236Y-132453190D01*
X105427511Y-132475482D01*
X105426347Y-132475814D01*
X105425867Y-132476219D01*
X105396796Y-132484259D01*
X105391862Y-132485669D01*
X105388254Y-132486134D01*
X105388227Y-132486130D01*
X105297493Y-132497604D01*
X105296491Y-132497969D01*
X105288651Y-132498981D01*
X105285496Y-132498480D01*
X105272789Y-132500000D01*
X104014099Y-132500000D01*
X103947060Y-132480315D01*
X103914329Y-132449634D01*
X103898614Y-132428341D01*
X103898609Y-132428334D01*
X103873803Y-132400434D01*
X103841074Y-132369755D01*
X103841070Y-132369751D01*
X103838251Y-132367157D01*
X103813401Y-132353257D01*
X103758433Y-132322510D01*
X103758430Y-132322509D01*
X103758431Y-132322509D01*
X103691399Y-132302826D01*
X103691395Y-132302825D01*
X103691394Y-132302825D01*
X103633496Y-132294500D01*
X103633492Y-132294500D01*
X102079500Y-132294500D01*
X102012461Y-132274815D01*
X101966706Y-132222011D01*
X101955500Y-132170500D01*
X101955500Y-130611804D01*
X101955500Y-130611795D01*
X101950751Y-130567872D01*
X101939422Y-130516092D01*
X101936858Y-130505682D01*
X101936857Y-130505681D01*
X101936857Y-130505679D01*
X101893660Y-130425076D01*
X101893656Y-130425071D01*
X101888330Y-130418954D01*
X101847778Y-130372378D01*
X101830144Y-130354465D01*
X101830143Y-130354464D01*
X101830141Y-130354462D01*
X101750224Y-130310010D01*
X101750222Y-130310009D01*
X101750220Y-130310008D01*
X101707337Y-130297526D01*
X101683141Y-130290484D01*
X101683133Y-130290482D01*
X101639432Y-130284305D01*
X101625219Y-130282296D01*
X101625218Y-130282296D01*
X101625217Y-130282296D01*
X99957883Y-130286266D01*
X96623213Y-130294206D01*
X96604221Y-130296282D01*
X96579779Y-130298954D01*
X96579771Y-130298955D01*
X96528573Y-130310158D01*
X96518628Y-130312594D01*
X96518627Y-130312594D01*
X96437916Y-130355604D01*
X96437913Y-130355606D01*
X96385104Y-130401365D01*
X96367160Y-130418947D01*
X96367154Y-130418954D01*
X96322511Y-130498764D01*
X96322509Y-130498769D01*
X96302826Y-130565801D01*
X96302825Y-130565806D01*
X96302825Y-130565807D01*
X96296212Y-130611804D01*
X96294500Y-130623708D01*
X96294500Y-132670500D01*
X96274815Y-132737539D01*
X96222011Y-132783294D01*
X96170500Y-132794500D01*
X93269899Y-132794500D01*
X93202860Y-132774815D01*
X93157105Y-132722011D01*
X93145915Y-132668485D01*
X93163731Y-131572085D01*
X93203425Y-129129354D01*
X93199103Y-129083963D01*
X93187913Y-129030437D01*
X93185078Y-129018627D01*
X93142068Y-128937915D01*
X93096313Y-128885111D01*
X93096307Y-128885104D01*
X93078725Y-128867160D01*
X93078724Y-128867159D01*
X93078722Y-128867157D01*
X93078720Y-128867156D01*
X93078718Y-128867154D01*
X92998908Y-128822511D01*
X92998903Y-128822509D01*
X92931871Y-128802826D01*
X92931867Y-128802825D01*
X92931866Y-128802825D01*
X92873968Y-128794500D01*
X92873964Y-128794500D01*
X90793650Y-128794500D01*
X90726611Y-128774815D01*
X90680856Y-128722011D01*
X90669652Y-128669880D01*
X90688635Y-124873380D01*
X90708654Y-124806440D01*
X90761686Y-124760949D01*
X90812633Y-124750000D01*
X96000000Y-124750000D01*
X96000000Y-109000000D01*
X93874000Y-109000000D01*
X93806961Y-108980315D01*
X93761206Y-108927511D01*
X93750000Y-108876000D01*
X93750000Y-97726596D01*
X93769685Y-97659557D01*
X93822489Y-97613802D01*
X93891647Y-97603858D01*
X93955203Y-97632883D01*
G37*
%TD.AperFunction*%
%TD*%
%TA.AperFunction,Conductor*%
%TO.N,+3.3V*%
G36*
X87943039Y-78525185D02*
G01*
X87988794Y-78577989D01*
X88000000Y-78629500D01*
X88000000Y-78895500D01*
X87980315Y-78962539D01*
X87927511Y-79008294D01*
X87876000Y-79019500D01*
X86452129Y-79019500D01*
X86452123Y-79019501D01*
X86392516Y-79025908D01*
X86257671Y-79076202D01*
X86257664Y-79076206D01*
X86142455Y-79162452D01*
X86142452Y-79162455D01*
X86056206Y-79277664D01*
X86056201Y-79277673D01*
X86052316Y-79288090D01*
X86010442Y-79344021D01*
X85958424Y-79365207D01*
X85958582Y-79365797D01*
X85953888Y-79367054D01*
X85952331Y-79367689D01*
X85950737Y-79367898D01*
X85797596Y-79408933D01*
X85797591Y-79408936D01*
X85688142Y-79472126D01*
X85688142Y-79472127D01*
X85660299Y-79488201D01*
X85285319Y-79863181D01*
X85223996Y-79896666D01*
X85197638Y-79899500D01*
X84749998Y-79899500D01*
X84749980Y-79899501D01*
X84647203Y-79910000D01*
X84647200Y-79910001D01*
X84480668Y-79965185D01*
X84480663Y-79965187D01*
X84331342Y-80057289D01*
X84207289Y-80181342D01*
X84115187Y-80330663D01*
X84115186Y-80330666D01*
X84060001Y-80497203D01*
X84060001Y-80497204D01*
X84060000Y-80497204D01*
X84049500Y-80599983D01*
X84049500Y-80727369D01*
X84040631Y-80773421D01*
X83781179Y-81422052D01*
X83738005Y-81476986D01*
X83671984Y-81499858D01*
X83666048Y-81500000D01*
X83145940Y-81500000D01*
X83116499Y-81491355D01*
X83086513Y-81484832D01*
X83081497Y-81481077D01*
X83078901Y-81480315D01*
X83058259Y-81463681D01*
X82911819Y-81317241D01*
X82878334Y-81255918D01*
X82875500Y-81229560D01*
X82875500Y-78629500D01*
X82895185Y-78562461D01*
X82947989Y-78516706D01*
X82999500Y-78505500D01*
X87876000Y-78505500D01*
X87943039Y-78525185D01*
G37*
%TD.AperFunction*%
%TD*%
%TA.AperFunction,Conductor*%
%TO.N,+5V*%
G36*
X114317539Y-76520185D02*
G01*
X114363294Y-76572989D01*
X114374500Y-76624500D01*
X114374500Y-118376000D01*
X114354815Y-118443039D01*
X114302011Y-118488794D01*
X114250500Y-118500000D01*
X104926100Y-118500000D01*
X104917414Y-118497449D01*
X104908453Y-118498738D01*
X104884412Y-118487759D01*
X104859061Y-118480315D01*
X104853133Y-118473474D01*
X104844897Y-118469713D01*
X104830607Y-118447478D01*
X104813306Y-118427511D01*
X104811018Y-118416996D01*
X104807123Y-118410935D01*
X104802100Y-118376000D01*
X104802100Y-118207076D01*
X104821785Y-118140037D01*
X104838419Y-118119395D01*
X104900500Y-118057314D01*
X104966392Y-117943186D01*
X105000500Y-117815892D01*
X105000500Y-117684108D01*
X104966392Y-117556814D01*
X104900500Y-117442686D01*
X104807314Y-117349500D01*
X104750250Y-117316554D01*
X104693187Y-117283608D01*
X104629539Y-117266554D01*
X104565892Y-117249500D01*
X104434108Y-117249500D01*
X104306812Y-117283608D01*
X104192686Y-117349500D01*
X104192683Y-117349502D01*
X104099502Y-117442683D01*
X104099500Y-117442686D01*
X104033608Y-117556812D01*
X103999500Y-117684108D01*
X103999500Y-117815891D01*
X104033608Y-117943187D01*
X104066554Y-118000250D01*
X104099500Y-118057314D01*
X104099502Y-118057316D01*
X104161581Y-118119395D01*
X104176284Y-118146322D01*
X104192877Y-118172141D01*
X104193768Y-118178341D01*
X104195066Y-118180718D01*
X104197900Y-118207076D01*
X104197900Y-118376000D01*
X104178215Y-118443039D01*
X104125411Y-118488794D01*
X104073900Y-118500000D01*
X103494894Y-118500000D01*
X103427855Y-118480315D01*
X103407213Y-118463681D01*
X103201794Y-118258261D01*
X103132903Y-118218485D01*
X103056073Y-118197900D01*
X103056070Y-118197900D01*
X100926100Y-118197900D01*
X100859061Y-118178215D01*
X100813306Y-118125411D01*
X100802100Y-118073900D01*
X100802100Y-114365513D01*
X109569500Y-114365513D01*
X109569500Y-114554486D01*
X109599059Y-114741118D01*
X109657454Y-114920836D01*
X109743240Y-115089199D01*
X109854310Y-115242073D01*
X109987927Y-115375690D01*
X110140801Y-115486760D01*
X110220347Y-115527290D01*
X110309163Y-115572545D01*
X110309165Y-115572545D01*
X110309168Y-115572547D01*
X110405497Y-115603846D01*
X110488881Y-115630940D01*
X110675514Y-115660500D01*
X110675519Y-115660500D01*
X110864486Y-115660500D01*
X111051118Y-115630940D01*
X111230832Y-115572547D01*
X111399199Y-115486760D01*
X111552073Y-115375690D01*
X111685690Y-115242073D01*
X111796760Y-115089199D01*
X111882547Y-114920832D01*
X111940940Y-114741118D01*
X111970500Y-114554486D01*
X111970500Y-114365513D01*
X111940940Y-114178881D01*
X111882545Y-113999163D01*
X111796759Y-113830800D01*
X111685690Y-113677927D01*
X111552073Y-113544310D01*
X111399199Y-113433240D01*
X111230836Y-113347454D01*
X111051118Y-113289059D01*
X110864486Y-113259500D01*
X110864481Y-113259500D01*
X110675519Y-113259500D01*
X110675514Y-113259500D01*
X110488881Y-113289059D01*
X110309163Y-113347454D01*
X110140800Y-113433240D01*
X110053579Y-113496610D01*
X109987927Y-113544310D01*
X109987925Y-113544312D01*
X109987924Y-113544312D01*
X109854312Y-113677924D01*
X109854312Y-113677925D01*
X109854310Y-113677927D01*
X109806610Y-113743579D01*
X109743240Y-113830800D01*
X109657454Y-113999163D01*
X109599059Y-114178881D01*
X109569500Y-114365513D01*
X100802100Y-114365513D01*
X100802100Y-109207076D01*
X100821785Y-109140037D01*
X100838419Y-109119395D01*
X100868615Y-109089199D01*
X100900500Y-109057314D01*
X100966392Y-108943186D01*
X101000500Y-108815892D01*
X101000500Y-108684108D01*
X100966392Y-108556814D01*
X100900500Y-108442686D01*
X100823327Y-108365513D01*
X109549500Y-108365513D01*
X109549500Y-108554486D01*
X109579059Y-108741118D01*
X109637454Y-108920836D01*
X109648843Y-108943187D01*
X109723240Y-109089199D01*
X109834310Y-109242073D01*
X109967927Y-109375690D01*
X110120801Y-109486760D01*
X110200347Y-109527290D01*
X110289163Y-109572545D01*
X110289165Y-109572545D01*
X110289168Y-109572547D01*
X110385497Y-109603846D01*
X110468881Y-109630940D01*
X110655514Y-109660500D01*
X110655519Y-109660500D01*
X110844486Y-109660500D01*
X111031118Y-109630940D01*
X111210832Y-109572547D01*
X111379199Y-109486760D01*
X111532073Y-109375690D01*
X111665690Y-109242073D01*
X111776760Y-109089199D01*
X111862547Y-108920832D01*
X111920940Y-108741118D01*
X111929969Y-108684110D01*
X111950500Y-108554486D01*
X111950500Y-108365513D01*
X111920940Y-108178881D01*
X111862545Y-107999163D01*
X111776759Y-107830800D01*
X111665690Y-107677927D01*
X111532073Y-107544310D01*
X111379199Y-107433240D01*
X111210836Y-107347454D01*
X111031118Y-107289059D01*
X110844486Y-107259500D01*
X110844481Y-107259500D01*
X110655519Y-107259500D01*
X110655514Y-107259500D01*
X110468881Y-107289059D01*
X110289163Y-107347454D01*
X110120800Y-107433240D01*
X110033579Y-107496610D01*
X109967927Y-107544310D01*
X109967925Y-107544312D01*
X109967924Y-107544312D01*
X109834312Y-107677924D01*
X109834312Y-107677925D01*
X109834310Y-107677927D01*
X109796248Y-107730315D01*
X109723240Y-107830800D01*
X109637454Y-107999163D01*
X109579059Y-108178881D01*
X109549500Y-108365513D01*
X100823327Y-108365513D01*
X100807314Y-108349500D01*
X100798785Y-108344576D01*
X100787817Y-108333973D01*
X100777785Y-108316318D01*
X100763775Y-108301621D01*
X100759562Y-108284250D01*
X100753298Y-108273226D01*
X100753957Y-108261135D01*
X100750000Y-108244818D01*
X100750000Y-107750000D01*
X97124000Y-107750000D01*
X97056961Y-107730315D01*
X97011206Y-107677511D01*
X97000000Y-107626000D01*
X97000000Y-102874000D01*
X97019685Y-102806961D01*
X97072489Y-102761206D01*
X97124000Y-102750000D01*
X97876000Y-102750000D01*
X97943039Y-102769685D01*
X97988794Y-102822489D01*
X98000000Y-102874000D01*
X98000000Y-105750000D01*
X98682242Y-105750000D01*
X98684108Y-105750500D01*
X98815892Y-105750500D01*
X98817758Y-105750000D01*
X99922184Y-105750000D01*
X99929813Y-105750500D01*
X99934108Y-105750500D01*
X100070187Y-105750500D01*
X100077816Y-105750000D01*
X100992362Y-105750000D01*
X101059401Y-105769685D01*
X101067599Y-105775449D01*
X101067684Y-105775498D01*
X101067686Y-105775500D01*
X101162712Y-105830363D01*
X101181810Y-105841390D01*
X101181814Y-105841392D01*
X101309108Y-105875500D01*
X101309110Y-105875500D01*
X101440891Y-105875500D01*
X101440892Y-105875500D01*
X101440893Y-105875500D01*
X101568186Y-105841392D01*
X101663576Y-105786319D01*
X101689353Y-105771437D01*
X101690016Y-105772586D01*
X101747315Y-105750431D01*
X101757639Y-105750000D01*
X102490825Y-105750000D01*
X102520265Y-105758644D01*
X102550252Y-105765168D01*
X102555267Y-105768922D01*
X102557864Y-105769685D01*
X102578506Y-105786319D01*
X102595159Y-105802972D01*
X102595169Y-105802983D01*
X102599499Y-105807313D01*
X102599500Y-105807314D01*
X102692686Y-105900500D01*
X102806814Y-105966392D01*
X102934107Y-106000500D01*
X102934108Y-106000500D01*
X102934109Y-106000500D01*
X103065890Y-106000500D01*
X103065892Y-106000500D01*
X103193186Y-105966392D01*
X103307314Y-105900500D01*
X103400500Y-105807314D01*
X103400503Y-105807307D01*
X103405450Y-105800863D01*
X103407679Y-105802574D01*
X103448364Y-105763783D01*
X103505182Y-105750000D01*
X107000000Y-105750000D01*
X107000000Y-102365513D01*
X109569500Y-102365513D01*
X109569500Y-102554486D01*
X109599059Y-102741118D01*
X109657454Y-102920836D01*
X109743240Y-103089199D01*
X109854310Y-103242073D01*
X109987927Y-103375690D01*
X110140801Y-103486760D01*
X110220347Y-103527290D01*
X110309163Y-103572545D01*
X110309165Y-103572545D01*
X110309168Y-103572547D01*
X110405497Y-103603846D01*
X110488881Y-103630940D01*
X110675514Y-103660500D01*
X110675519Y-103660500D01*
X110864486Y-103660500D01*
X111051118Y-103630940D01*
X111230832Y-103572547D01*
X111399199Y-103486760D01*
X111552073Y-103375690D01*
X111685690Y-103242073D01*
X111796760Y-103089199D01*
X111882547Y-102920832D01*
X111940940Y-102741118D01*
X111970500Y-102554486D01*
X111970500Y-102365513D01*
X111940940Y-102178881D01*
X111893737Y-102033608D01*
X111882547Y-101999168D01*
X111882545Y-101999165D01*
X111882545Y-101999163D01*
X111796759Y-101830800D01*
X111685690Y-101677927D01*
X111552073Y-101544310D01*
X111399199Y-101433240D01*
X111230836Y-101347454D01*
X111051118Y-101289059D01*
X110864486Y-101259500D01*
X110864481Y-101259500D01*
X110675519Y-101259500D01*
X110675514Y-101259500D01*
X110488881Y-101289059D01*
X110309163Y-101347454D01*
X110140800Y-101433240D01*
X110053579Y-101496610D01*
X109987927Y-101544310D01*
X109987925Y-101544312D01*
X109987924Y-101544312D01*
X109854312Y-101677924D01*
X109854312Y-101677925D01*
X109854310Y-101677927D01*
X109806610Y-101743579D01*
X109743240Y-101830800D01*
X109657454Y-101999163D01*
X109599059Y-102178881D01*
X109569500Y-102365513D01*
X107000000Y-102365513D01*
X107000000Y-96365513D01*
X109569500Y-96365513D01*
X109569500Y-96554486D01*
X109599059Y-96741118D01*
X109657454Y-96920836D01*
X109730658Y-97064506D01*
X109743240Y-97089199D01*
X109854310Y-97242073D01*
X109987927Y-97375690D01*
X110140801Y-97486760D01*
X110220347Y-97527290D01*
X110309163Y-97572545D01*
X110309165Y-97572545D01*
X110309168Y-97572547D01*
X110343272Y-97583628D01*
X110488881Y-97630940D01*
X110675514Y-97660500D01*
X110675519Y-97660500D01*
X110864486Y-97660500D01*
X111051118Y-97630940D01*
X111230832Y-97572547D01*
X111399199Y-97486760D01*
X111552073Y-97375690D01*
X111685690Y-97242073D01*
X111796760Y-97089199D01*
X111882547Y-96920832D01*
X111940940Y-96741118D01*
X111970500Y-96554486D01*
X111970500Y-96365513D01*
X111940940Y-96178881D01*
X111882545Y-95999163D01*
X111796759Y-95830800D01*
X111685690Y-95677927D01*
X111552073Y-95544310D01*
X111399199Y-95433240D01*
X111230836Y-95347454D01*
X111051118Y-95289059D01*
X110864486Y-95259500D01*
X110864481Y-95259500D01*
X110675519Y-95259500D01*
X110675514Y-95259500D01*
X110488881Y-95289059D01*
X110309163Y-95347454D01*
X110140800Y-95433240D01*
X110053579Y-95496610D01*
X109987927Y-95544310D01*
X109987925Y-95544312D01*
X109987924Y-95544312D01*
X109854312Y-95677924D01*
X109854312Y-95677925D01*
X109854310Y-95677927D01*
X109806610Y-95743579D01*
X109743240Y-95830800D01*
X109657454Y-95999163D01*
X109599059Y-96178881D01*
X109569500Y-96365513D01*
X107000000Y-96365513D01*
X107000000Y-90365513D01*
X109569500Y-90365513D01*
X109569500Y-90554486D01*
X109599059Y-90741118D01*
X109657454Y-90920836D01*
X109743240Y-91089199D01*
X109854310Y-91242073D01*
X109987927Y-91375690D01*
X110140801Y-91486760D01*
X110220347Y-91527290D01*
X110309163Y-91572545D01*
X110309165Y-91572545D01*
X110309168Y-91572547D01*
X110405497Y-91603846D01*
X110488881Y-91630940D01*
X110675514Y-91660500D01*
X110675519Y-91660500D01*
X110864486Y-91660500D01*
X111051118Y-91630940D01*
X111230832Y-91572547D01*
X111399199Y-91486760D01*
X111552073Y-91375690D01*
X111685690Y-91242073D01*
X111796760Y-91089199D01*
X111882547Y-90920832D01*
X111940940Y-90741118D01*
X111963331Y-90599748D01*
X111970500Y-90554486D01*
X111970500Y-90365513D01*
X111940940Y-90178881D01*
X111882545Y-89999163D01*
X111796759Y-89830800D01*
X111685690Y-89677927D01*
X111552073Y-89544310D01*
X111399199Y-89433240D01*
X111230836Y-89347454D01*
X111051118Y-89289059D01*
X110864486Y-89259500D01*
X110864481Y-89259500D01*
X110675519Y-89259500D01*
X110675514Y-89259500D01*
X110488881Y-89289059D01*
X110309163Y-89347454D01*
X110140800Y-89433240D01*
X110055796Y-89495000D01*
X109987927Y-89544310D01*
X109987925Y-89544312D01*
X109987924Y-89544312D01*
X109854312Y-89677924D01*
X109854312Y-89677925D01*
X109854310Y-89677927D01*
X109806610Y-89743579D01*
X109743240Y-89830800D01*
X109657454Y-89999163D01*
X109599059Y-90178881D01*
X109569500Y-90365513D01*
X107000000Y-90365513D01*
X107000000Y-84365513D01*
X109549500Y-84365513D01*
X109549500Y-84554486D01*
X109579059Y-84741118D01*
X109637454Y-84920836D01*
X109667855Y-84980500D01*
X109723240Y-85089199D01*
X109834310Y-85242073D01*
X109967927Y-85375690D01*
X110120801Y-85486760D01*
X110185544Y-85519748D01*
X110289163Y-85572545D01*
X110289165Y-85572545D01*
X110289168Y-85572547D01*
X110385497Y-85603846D01*
X110468881Y-85630940D01*
X110655514Y-85660500D01*
X110655519Y-85660500D01*
X110844486Y-85660500D01*
X111031118Y-85630940D01*
X111210832Y-85572547D01*
X111379199Y-85486760D01*
X111532073Y-85375690D01*
X111665690Y-85242073D01*
X111776760Y-85089199D01*
X111862547Y-84920832D01*
X111920940Y-84741118D01*
X111950500Y-84554486D01*
X111950500Y-84365513D01*
X111920940Y-84178881D01*
X111862545Y-83999163D01*
X111776759Y-83830800D01*
X111665690Y-83677927D01*
X111532073Y-83544310D01*
X111379199Y-83433240D01*
X111362148Y-83424552D01*
X111210836Y-83347454D01*
X111031118Y-83289059D01*
X110844486Y-83259500D01*
X110844481Y-83259500D01*
X110655519Y-83259500D01*
X110655514Y-83259500D01*
X110468881Y-83289059D01*
X110289163Y-83347454D01*
X110120800Y-83433240D01*
X110033579Y-83496610D01*
X109967927Y-83544310D01*
X109967925Y-83544312D01*
X109967924Y-83544312D01*
X109834312Y-83677924D01*
X109834312Y-83677925D01*
X109834310Y-83677927D01*
X109816988Y-83701769D01*
X109723240Y-83830800D01*
X109637454Y-83999163D01*
X109579059Y-84178881D01*
X109549500Y-84365513D01*
X107000000Y-84365513D01*
X107000000Y-78365513D01*
X109549500Y-78365513D01*
X109549500Y-78554486D01*
X109579059Y-78741118D01*
X109637454Y-78920836D01*
X109706994Y-79057314D01*
X109723240Y-79089199D01*
X109834310Y-79242073D01*
X109967927Y-79375690D01*
X110120801Y-79486760D01*
X110145805Y-79499500D01*
X110289163Y-79572545D01*
X110289165Y-79572545D01*
X110289168Y-79572547D01*
X110358234Y-79594988D01*
X110468881Y-79630940D01*
X110655514Y-79660500D01*
X110655519Y-79660500D01*
X110844486Y-79660500D01*
X111031118Y-79630940D01*
X111210832Y-79572547D01*
X111379199Y-79486760D01*
X111532073Y-79375690D01*
X111665690Y-79242073D01*
X111776760Y-79089199D01*
X111862547Y-78920832D01*
X111920940Y-78741118D01*
X111950500Y-78554486D01*
X111950500Y-78365513D01*
X111920940Y-78178881D01*
X111862545Y-77999163D01*
X111776759Y-77830800D01*
X111665690Y-77677927D01*
X111532073Y-77544310D01*
X111379199Y-77433240D01*
X111210836Y-77347454D01*
X111031118Y-77289059D01*
X110844486Y-77259500D01*
X110844481Y-77259500D01*
X110655519Y-77259500D01*
X110655514Y-77259500D01*
X110468881Y-77289059D01*
X110289163Y-77347454D01*
X110120800Y-77433240D01*
X110033579Y-77496610D01*
X109967927Y-77544310D01*
X109967925Y-77544312D01*
X109967924Y-77544312D01*
X109834312Y-77677924D01*
X109834312Y-77677925D01*
X109834310Y-77677927D01*
X109786610Y-77743579D01*
X109723240Y-77830800D01*
X109637454Y-77999163D01*
X109579059Y-78178881D01*
X109549500Y-78365513D01*
X107000000Y-78365513D01*
X107000000Y-76624500D01*
X107019685Y-76557461D01*
X107072489Y-76511706D01*
X107124000Y-76500500D01*
X114250500Y-76500500D01*
X114317539Y-76520185D01*
G37*
%TD.AperFunction*%
%TD*%
%TA.AperFunction,Conductor*%
%TO.N,GND*%
G36*
X105693039Y-76520185D02*
G01*
X105738794Y-76572989D01*
X105750000Y-76624500D01*
X105750000Y-77876000D01*
X105730315Y-77943039D01*
X105677511Y-77988794D01*
X105626000Y-78000000D01*
X96750000Y-78000000D01*
X96750000Y-85126000D01*
X96730315Y-85193039D01*
X96677511Y-85238794D01*
X96626000Y-85250000D01*
X94255182Y-85250000D01*
X94188143Y-85230315D01*
X94157161Y-85197823D01*
X94155450Y-85199137D01*
X94150498Y-85192684D01*
X94057316Y-85099502D01*
X94057314Y-85099500D01*
X94000250Y-85066554D01*
X93943187Y-85033608D01*
X93879539Y-85016554D01*
X93815892Y-84999500D01*
X93684108Y-84999500D01*
X93556812Y-85033608D01*
X93442686Y-85099500D01*
X93442683Y-85099502D01*
X93380605Y-85161581D01*
X93319282Y-85195066D01*
X93292924Y-85197900D01*
X92124000Y-85197900D01*
X92056961Y-85178215D01*
X92011206Y-85125411D01*
X92000000Y-85073900D01*
X92000000Y-78000000D01*
X82374000Y-78000000D01*
X82306961Y-77980315D01*
X82261206Y-77927511D01*
X82250000Y-77876000D01*
X82250000Y-76624500D01*
X82269685Y-76557461D01*
X82322489Y-76511706D01*
X82374000Y-76500500D01*
X105626000Y-76500500D01*
X105693039Y-76520185D01*
G37*
%TD.AperFunction*%
%TD*%
%TA.AperFunction,Conductor*%
%TO.N,+3.3V*%
G36*
X93193039Y-99269685D02*
G01*
X93238794Y-99322489D01*
X93250000Y-99374000D01*
X93250000Y-103918234D01*
X93230315Y-103985273D01*
X93177511Y-104031028D01*
X93174846Y-104032208D01*
X91500000Y-104749999D01*
X91500000Y-109626000D01*
X91480315Y-109693039D01*
X91427511Y-109738794D01*
X91376000Y-109750000D01*
X86251613Y-109750000D01*
X86184574Y-109730315D01*
X86149723Y-109692496D01*
X86148040Y-109693653D01*
X86144102Y-109687919D01*
X86144100Y-109687915D01*
X86098345Y-109635111D01*
X86098339Y-109635104D01*
X86080757Y-109617160D01*
X86080756Y-109617159D01*
X86080754Y-109617157D01*
X86080752Y-109617156D01*
X86080750Y-109617154D01*
X86000940Y-109572511D01*
X86000935Y-109572509D01*
X85933903Y-109552826D01*
X85933899Y-109552825D01*
X85933898Y-109552825D01*
X85876000Y-109544500D01*
X84972264Y-109544500D01*
X84972263Y-109544500D01*
X84950285Y-109545678D01*
X84923937Y-109548511D01*
X84847423Y-109572468D01*
X84769949Y-109614771D01*
X84769947Y-109614776D01*
X84764263Y-109619411D01*
X84760370Y-109622399D01*
X84760360Y-109622408D01*
X84758424Y-109623894D01*
X84758421Y-109623894D01*
X84758415Y-109623900D01*
X84674547Y-109688255D01*
X84646511Y-109704442D01*
X84586668Y-109729229D01*
X84555406Y-109737606D01*
X84526903Y-109741359D01*
X84507305Y-109743939D01*
X84491123Y-109745000D01*
X83208877Y-109745000D01*
X83192693Y-109743939D01*
X83177228Y-109741903D01*
X83144593Y-109737606D01*
X83113330Y-109729229D01*
X83081558Y-109716069D01*
X83053485Y-109704441D01*
X83025453Y-109688256D01*
X82941545Y-109623870D01*
X82941537Y-109623864D01*
X82938359Y-109621425D01*
X82936054Y-109619612D01*
X82923717Y-109609671D01*
X82923706Y-109609664D01*
X82852677Y-109572512D01*
X82852676Y-109572511D01*
X82852673Y-109572510D01*
X82852670Y-109572509D01*
X82852663Y-109572506D01*
X82794562Y-109555445D01*
X82735785Y-109517669D01*
X82706762Y-109454113D01*
X82705500Y-109436469D01*
X82705500Y-108124000D01*
X82725185Y-108056961D01*
X82777989Y-108011206D01*
X82829500Y-108000000D01*
X85250000Y-108000000D01*
X85250000Y-105374000D01*
X85269685Y-105306961D01*
X85322489Y-105261206D01*
X85374000Y-105250000D01*
X89500000Y-105250000D01*
X89500000Y-99962297D01*
X89519685Y-99895258D01*
X89536316Y-99874619D01*
X90072517Y-99338419D01*
X90133840Y-99304934D01*
X90160198Y-99302100D01*
X91056067Y-99302100D01*
X91056070Y-99302100D01*
X91094487Y-99291806D01*
X91132902Y-99281514D01*
X91132902Y-99281513D01*
X91132905Y-99281513D01*
X91158712Y-99266613D01*
X91220713Y-99250000D01*
X93126000Y-99250000D01*
X93193039Y-99269685D01*
G37*
%TD.AperFunction*%
%TD*%
%TA.AperFunction,Conductor*%
%TO.N,GND*%
G36*
X79693039Y-96769685D02*
G01*
X79738794Y-96822489D01*
X79750000Y-96874000D01*
X79750000Y-99525500D01*
X79730315Y-99592539D01*
X79677511Y-99638294D01*
X79626000Y-99649500D01*
X79420943Y-99649500D01*
X79268216Y-99690423D01*
X79268213Y-99690424D01*
X79227609Y-99713867D01*
X79193799Y-99733387D01*
X79131800Y-99750000D01*
X78000000Y-99750000D01*
X78000000Y-104250000D01*
X78950201Y-104250000D01*
X79017240Y-104269685D01*
X79037882Y-104286319D01*
X79431683Y-104680120D01*
X79568614Y-104759178D01*
X79721342Y-104800102D01*
X79721345Y-104800102D01*
X79879453Y-104800102D01*
X79879456Y-104800102D01*
X80032184Y-104759178D01*
X80169115Y-104680120D01*
X80280918Y-104568317D01*
X80332027Y-104479793D01*
X80382594Y-104431578D01*
X80451201Y-104418356D01*
X80501413Y-104434406D01*
X80556814Y-104466392D01*
X80684108Y-104500500D01*
X80684110Y-104500500D01*
X80815890Y-104500500D01*
X80815892Y-104500500D01*
X80943186Y-104466392D01*
X81057314Y-104400500D01*
X81150500Y-104307314D01*
X81150503Y-104307307D01*
X81155450Y-104300863D01*
X81157679Y-104302574D01*
X81198364Y-104263783D01*
X81255182Y-104250000D01*
X84876000Y-104250000D01*
X84943039Y-104269685D01*
X84988794Y-104322489D01*
X85000000Y-104374000D01*
X85000000Y-107626000D01*
X84980315Y-107693039D01*
X84927511Y-107738794D01*
X84876000Y-107750000D01*
X82751613Y-107750000D01*
X82684574Y-107730315D01*
X82649723Y-107692496D01*
X82648040Y-107693653D01*
X82644102Y-107687919D01*
X82644100Y-107687915D01*
X82598345Y-107635111D01*
X82598339Y-107635104D01*
X82580757Y-107617160D01*
X82580756Y-107617159D01*
X82580754Y-107617157D01*
X82580752Y-107617156D01*
X82580750Y-107617154D01*
X82500940Y-107572511D01*
X82500935Y-107572509D01*
X82433903Y-107552826D01*
X82433899Y-107552825D01*
X82433898Y-107552825D01*
X82376000Y-107544500D01*
X79392154Y-107544500D01*
X79392152Y-107544500D01*
X79385498Y-107544606D01*
X79377509Y-107544865D01*
X79377503Y-107544866D01*
X79313645Y-107557231D01*
X79248025Y-107581197D01*
X79248024Y-107581198D01*
X79196490Y-107608885D01*
X79180807Y-107620459D01*
X79179805Y-107620988D01*
X79179446Y-107621449D01*
X79148250Y-107637664D01*
X79148133Y-107637726D01*
X79131780Y-107643449D01*
X79131779Y-107643449D01*
X79111513Y-107650541D01*
X79070557Y-107657500D01*
X77929439Y-107657500D01*
X77888485Y-107650541D01*
X77851866Y-107637727D01*
X77819188Y-107620456D01*
X77803486Y-107608867D01*
X77798081Y-107605011D01*
X77791497Y-107600474D01*
X77791484Y-107600467D01*
X77732781Y-107572509D01*
X77665751Y-107552826D01*
X77665102Y-107552732D01*
X77607846Y-107544500D01*
X75499500Y-107544500D01*
X75432461Y-107524815D01*
X75386706Y-107472011D01*
X75375500Y-107420500D01*
X75375500Y-96874000D01*
X75395185Y-96806961D01*
X75447989Y-96761206D01*
X75499500Y-96750000D01*
X79626000Y-96750000D01*
X79693039Y-96769685D01*
G37*
%TD.AperFunction*%
%TD*%
%TA.AperFunction,Conductor*%
%TO.N,+5V*%
G36*
X77674885Y-107769685D02*
G01*
X77681469Y-107774222D01*
X77737118Y-107815293D01*
X77779845Y-107830244D01*
X77865299Y-107860146D01*
X77895730Y-107863000D01*
X77895734Y-107863000D01*
X79104270Y-107863000D01*
X79134699Y-107860146D01*
X79134701Y-107860146D01*
X79198790Y-107837719D01*
X79262882Y-107815293D01*
X79318521Y-107774229D01*
X79384149Y-107750259D01*
X79392154Y-107750000D01*
X82376000Y-107750000D01*
X82443039Y-107769685D01*
X82488794Y-107822489D01*
X82500000Y-107874000D01*
X82500000Y-109750000D01*
X82727736Y-109750000D01*
X82794775Y-109769685D01*
X82810145Y-109782070D01*
X82814545Y-109785446D01*
X82814549Y-109785451D01*
X82934767Y-109877698D01*
X83074764Y-109935687D01*
X83187280Y-109950500D01*
X83187287Y-109950500D01*
X84512713Y-109950500D01*
X84512720Y-109950500D01*
X84625236Y-109935687D01*
X84765233Y-109877698D01*
X84885451Y-109785451D01*
X84885452Y-109785448D01*
X84891898Y-109780503D01*
X84892883Y-109781786D01*
X84945906Y-109752834D01*
X84972264Y-109750000D01*
X85876000Y-109750000D01*
X85943039Y-109769685D01*
X85988794Y-109822489D01*
X86000000Y-109874000D01*
X86000000Y-112876000D01*
X85980315Y-112943039D01*
X85927511Y-112988794D01*
X85876000Y-113000000D01*
X75499500Y-113000000D01*
X75432461Y-112980315D01*
X75386706Y-112927511D01*
X75375500Y-112876000D01*
X75375500Y-107874000D01*
X75395185Y-107806961D01*
X75447989Y-107761206D01*
X75499500Y-107750000D01*
X77607846Y-107750000D01*
X77674885Y-107769685D01*
G37*
%TD.AperFunction*%
%TD*%
%TA.AperFunction,Conductor*%
%TO.N,GND*%
G36*
X110943039Y-125019685D02*
G01*
X110988794Y-125072489D01*
X111000000Y-125124000D01*
X111000000Y-133849403D01*
X110991355Y-133878843D01*
X110984832Y-133908830D01*
X110981077Y-133913845D01*
X110980315Y-133916442D01*
X110963681Y-133937084D01*
X110937084Y-133963681D01*
X110875761Y-133997166D01*
X110849403Y-134000000D01*
X107874000Y-134000000D01*
X107806961Y-133980315D01*
X107761206Y-133927511D01*
X107750000Y-133876000D01*
X107750000Y-125124000D01*
X107769685Y-125056961D01*
X107822489Y-125011206D01*
X107874000Y-125000000D01*
X110876000Y-125000000D01*
X110943039Y-125019685D01*
G37*
%TD.AperFunction*%
%TD*%
M02*
