%TF.GenerationSoftware,KiCad,Pcbnew,9.0.9-9.0.9~ubuntu24.04.1*%
%TF.CreationDate,2026-07-09T08:37:03+03:00*%
%TF.ProjectId,sounddecoder-esp32-s3-wroom-2-ext,736f756e-6464-4656-936f-6465722d6573,rev?*%
%TF.SameCoordinates,Original*%
%TF.FileFunction,Legend,Bot*%
%TF.FilePolarity,Positive*%
%FSLAX46Y46*%
G04 Gerber Fmt 4.6, Leading zero omitted, Abs format (unit mm)*
G04 Created by KiCad (PCBNEW 9.0.9-9.0.9~ubuntu24.04.1) date 2026-07-09 08:37:03*
%MOMM*%
%LPD*%
G01*
G04 APERTURE LIST*
%ADD10C,0.100000*%
G04 APERTURE END LIST*
D10*
X91946115Y-133991466D02*
X91184211Y-133991466D01*
X91565163Y-134372419D02*
X91565163Y-133610514D01*
X94696115Y-133991466D02*
X93934211Y-133991466D01*
X108743734Y-115586704D02*
X108267544Y-115586704D01*
X108838972Y-115872419D02*
X108505639Y-114872419D01*
X108505639Y-114872419D02*
X108172306Y-115872419D01*
X107838972Y-114872419D02*
X107838972Y-115681942D01*
X107838972Y-115681942D02*
X107791353Y-115777180D01*
X107791353Y-115777180D02*
X107743734Y-115824800D01*
X107743734Y-115824800D02*
X107648496Y-115872419D01*
X107648496Y-115872419D02*
X107458020Y-115872419D01*
X107458020Y-115872419D02*
X107362782Y-115824800D01*
X107362782Y-115824800D02*
X107315163Y-115777180D01*
X107315163Y-115777180D02*
X107267544Y-115681942D01*
X107267544Y-115681942D02*
X107267544Y-114872419D01*
X106886591Y-114872419D02*
X106219925Y-115872419D01*
X106219925Y-114872419D02*
X106886591Y-115872419D01*
X105410401Y-115205752D02*
X105410401Y-115872419D01*
X105648496Y-114824800D02*
X105886591Y-115539085D01*
X105886591Y-115539085D02*
X105267544Y-115539085D01*
X108993734Y-103836704D02*
X108517544Y-103836704D01*
X109088972Y-104122419D02*
X108755639Y-103122419D01*
X108755639Y-103122419D02*
X108422306Y-104122419D01*
X108088972Y-103122419D02*
X108088972Y-103931942D01*
X108088972Y-103931942D02*
X108041353Y-104027180D01*
X108041353Y-104027180D02*
X107993734Y-104074800D01*
X107993734Y-104074800D02*
X107898496Y-104122419D01*
X107898496Y-104122419D02*
X107708020Y-104122419D01*
X107708020Y-104122419D02*
X107612782Y-104074800D01*
X107612782Y-104074800D02*
X107565163Y-104027180D01*
X107565163Y-104027180D02*
X107517544Y-103931942D01*
X107517544Y-103931942D02*
X107517544Y-103122419D01*
X107136591Y-103122419D02*
X106469925Y-104122419D01*
X106469925Y-103122419D02*
X107136591Y-104122419D01*
X106136591Y-103217657D02*
X106088972Y-103170038D01*
X106088972Y-103170038D02*
X105993734Y-103122419D01*
X105993734Y-103122419D02*
X105755639Y-103122419D01*
X105755639Y-103122419D02*
X105660401Y-103170038D01*
X105660401Y-103170038D02*
X105612782Y-103217657D01*
X105612782Y-103217657D02*
X105565163Y-103312895D01*
X105565163Y-103312895D02*
X105565163Y-103408133D01*
X105565163Y-103408133D02*
X105612782Y-103550990D01*
X105612782Y-103550990D02*
X106184210Y-104122419D01*
X106184210Y-104122419D02*
X105565163Y-104122419D01*
X109013734Y-97836704D02*
X108537544Y-97836704D01*
X109108972Y-98122419D02*
X108775639Y-97122419D01*
X108775639Y-97122419D02*
X108442306Y-98122419D01*
X108108972Y-97122419D02*
X108108972Y-97931942D01*
X108108972Y-97931942D02*
X108061353Y-98027180D01*
X108061353Y-98027180D02*
X108013734Y-98074800D01*
X108013734Y-98074800D02*
X107918496Y-98122419D01*
X107918496Y-98122419D02*
X107728020Y-98122419D01*
X107728020Y-98122419D02*
X107632782Y-98074800D01*
X107632782Y-98074800D02*
X107585163Y-98027180D01*
X107585163Y-98027180D02*
X107537544Y-97931942D01*
X107537544Y-97931942D02*
X107537544Y-97122419D01*
X107156591Y-97122419D02*
X106489925Y-98122419D01*
X106489925Y-97122419D02*
X107156591Y-98122419D01*
X105585163Y-98122419D02*
X106156591Y-98122419D01*
X105870877Y-98122419D02*
X105870877Y-97122419D01*
X105870877Y-97122419D02*
X105966115Y-97265276D01*
X105966115Y-97265276D02*
X106061353Y-97360514D01*
X106061353Y-97360514D02*
X106156591Y-97408133D01*
X109013734Y-109836704D02*
X108537544Y-109836704D01*
X109108972Y-110122419D02*
X108775639Y-109122419D01*
X108775639Y-109122419D02*
X108442306Y-110122419D01*
X108108972Y-109122419D02*
X108108972Y-109931942D01*
X108108972Y-109931942D02*
X108061353Y-110027180D01*
X108061353Y-110027180D02*
X108013734Y-110074800D01*
X108013734Y-110074800D02*
X107918496Y-110122419D01*
X107918496Y-110122419D02*
X107728020Y-110122419D01*
X107728020Y-110122419D02*
X107632782Y-110074800D01*
X107632782Y-110074800D02*
X107585163Y-110027180D01*
X107585163Y-110027180D02*
X107537544Y-109931942D01*
X107537544Y-109931942D02*
X107537544Y-109122419D01*
X107156591Y-109122419D02*
X106489925Y-110122419D01*
X106489925Y-109122419D02*
X107156591Y-110122419D01*
X106204210Y-109122419D02*
X105585163Y-109122419D01*
X105585163Y-109122419D02*
X105918496Y-109503371D01*
X105918496Y-109503371D02*
X105775639Y-109503371D01*
X105775639Y-109503371D02*
X105680401Y-109550990D01*
X105680401Y-109550990D02*
X105632782Y-109598609D01*
X105632782Y-109598609D02*
X105585163Y-109693847D01*
X105585163Y-109693847D02*
X105585163Y-109931942D01*
X105585163Y-109931942D02*
X105632782Y-110027180D01*
X105632782Y-110027180D02*
X105680401Y-110074800D01*
X105680401Y-110074800D02*
X105775639Y-110122419D01*
X105775639Y-110122419D02*
X106061353Y-110122419D01*
X106061353Y-110122419D02*
X106156591Y-110074800D01*
X106156591Y-110074800D02*
X106204210Y-110027180D01*
X109263734Y-79824800D02*
X109120877Y-79872419D01*
X109120877Y-79872419D02*
X108882782Y-79872419D01*
X108882782Y-79872419D02*
X108787544Y-79824800D01*
X108787544Y-79824800D02*
X108739925Y-79777180D01*
X108739925Y-79777180D02*
X108692306Y-79681942D01*
X108692306Y-79681942D02*
X108692306Y-79586704D01*
X108692306Y-79586704D02*
X108739925Y-79491466D01*
X108739925Y-79491466D02*
X108787544Y-79443847D01*
X108787544Y-79443847D02*
X108882782Y-79396228D01*
X108882782Y-79396228D02*
X109073258Y-79348609D01*
X109073258Y-79348609D02*
X109168496Y-79300990D01*
X109168496Y-79300990D02*
X109216115Y-79253371D01*
X109216115Y-79253371D02*
X109263734Y-79158133D01*
X109263734Y-79158133D02*
X109263734Y-79062895D01*
X109263734Y-79062895D02*
X109216115Y-78967657D01*
X109216115Y-78967657D02*
X109168496Y-78920038D01*
X109168496Y-78920038D02*
X109073258Y-78872419D01*
X109073258Y-78872419D02*
X108835163Y-78872419D01*
X108835163Y-78872419D02*
X108692306Y-78920038D01*
X108263734Y-79872419D02*
X108263734Y-79205752D01*
X108263734Y-79300990D02*
X108216115Y-79253371D01*
X108216115Y-79253371D02*
X108120877Y-79205752D01*
X108120877Y-79205752D02*
X107978020Y-79205752D01*
X107978020Y-79205752D02*
X107882782Y-79253371D01*
X107882782Y-79253371D02*
X107835163Y-79348609D01*
X107835163Y-79348609D02*
X107835163Y-79872419D01*
X107835163Y-79348609D02*
X107787544Y-79253371D01*
X107787544Y-79253371D02*
X107692306Y-79205752D01*
X107692306Y-79205752D02*
X107549449Y-79205752D01*
X107549449Y-79205752D02*
X107454210Y-79253371D01*
X107454210Y-79253371D02*
X107406591Y-79348609D01*
X107406591Y-79348609D02*
X107406591Y-79872419D01*
X106787544Y-79872419D02*
X106882782Y-79824800D01*
X106882782Y-79824800D02*
X106930401Y-79777180D01*
X106930401Y-79777180D02*
X106978020Y-79681942D01*
X106978020Y-79681942D02*
X106978020Y-79396228D01*
X106978020Y-79396228D02*
X106930401Y-79300990D01*
X106930401Y-79300990D02*
X106882782Y-79253371D01*
X106882782Y-79253371D02*
X106787544Y-79205752D01*
X106787544Y-79205752D02*
X106644687Y-79205752D01*
X106644687Y-79205752D02*
X106549449Y-79253371D01*
X106549449Y-79253371D02*
X106501830Y-79300990D01*
X106501830Y-79300990D02*
X106454211Y-79396228D01*
X106454211Y-79396228D02*
X106454211Y-79681942D01*
X106454211Y-79681942D02*
X106501830Y-79777180D01*
X106501830Y-79777180D02*
X106549449Y-79824800D01*
X106549449Y-79824800D02*
X106644687Y-79872419D01*
X106644687Y-79872419D02*
X106787544Y-79872419D01*
X106025639Y-79872419D02*
X106025639Y-78872419D01*
X105930401Y-79491466D02*
X105644687Y-79872419D01*
X105644687Y-79205752D02*
X106025639Y-79586704D01*
X104835163Y-79824800D02*
X104930401Y-79872419D01*
X104930401Y-79872419D02*
X105120877Y-79872419D01*
X105120877Y-79872419D02*
X105216115Y-79824800D01*
X105216115Y-79824800D02*
X105263734Y-79729561D01*
X105263734Y-79729561D02*
X105263734Y-79348609D01*
X105263734Y-79348609D02*
X105216115Y-79253371D01*
X105216115Y-79253371D02*
X105120877Y-79205752D01*
X105120877Y-79205752D02*
X104930401Y-79205752D01*
X104930401Y-79205752D02*
X104835163Y-79253371D01*
X104835163Y-79253371D02*
X104787544Y-79348609D01*
X104787544Y-79348609D02*
X104787544Y-79443847D01*
X104787544Y-79443847D02*
X105263734Y-79539085D01*
X108882782Y-86098609D02*
X109216115Y-86098609D01*
X109216115Y-86622419D02*
X109216115Y-85622419D01*
X109216115Y-85622419D02*
X108739925Y-85622419D01*
X108454210Y-85955752D02*
X108263734Y-86622419D01*
X108263734Y-86622419D02*
X108073258Y-86146228D01*
X108073258Y-86146228D02*
X107882782Y-86622419D01*
X107882782Y-86622419D02*
X107692306Y-85955752D01*
X106882782Y-86622419D02*
X106882782Y-85622419D01*
X106882782Y-86574800D02*
X106978020Y-86622419D01*
X106978020Y-86622419D02*
X107168496Y-86622419D01*
X107168496Y-86622419D02*
X107263734Y-86574800D01*
X107263734Y-86574800D02*
X107311353Y-86527180D01*
X107311353Y-86527180D02*
X107358972Y-86431942D01*
X107358972Y-86431942D02*
X107358972Y-86146228D01*
X107358972Y-86146228D02*
X107311353Y-86050990D01*
X107311353Y-86050990D02*
X107263734Y-86003371D01*
X107263734Y-86003371D02*
X107168496Y-85955752D01*
X107168496Y-85955752D02*
X106978020Y-85955752D01*
X106978020Y-85955752D02*
X106882782Y-86003371D01*
X105930401Y-86622419D02*
X106406591Y-86622419D01*
X106406591Y-86622419D02*
X106406591Y-85622419D01*
X105597067Y-86098609D02*
X105263734Y-86098609D01*
X105120877Y-86622419D02*
X105597067Y-86622419D01*
X105597067Y-86622419D02*
X105597067Y-85622419D01*
X105597067Y-85622419D02*
X105120877Y-85622419D01*
X104692305Y-86622419D02*
X104692305Y-85622419D01*
X104692305Y-85622419D02*
X104454210Y-85622419D01*
X104454210Y-85622419D02*
X104311353Y-85670038D01*
X104311353Y-85670038D02*
X104216115Y-85765276D01*
X104216115Y-85765276D02*
X104168496Y-85860514D01*
X104168496Y-85860514D02*
X104120877Y-86050990D01*
X104120877Y-86050990D02*
X104120877Y-86193847D01*
X104120877Y-86193847D02*
X104168496Y-86384323D01*
X104168496Y-86384323D02*
X104216115Y-86479561D01*
X104216115Y-86479561D02*
X104311353Y-86574800D01*
X104311353Y-86574800D02*
X104454210Y-86622419D01*
X104454210Y-86622419D02*
X104692305Y-86622419D01*
X108882782Y-91598609D02*
X108739925Y-91646228D01*
X108739925Y-91646228D02*
X108692306Y-91693847D01*
X108692306Y-91693847D02*
X108644687Y-91789085D01*
X108644687Y-91789085D02*
X108644687Y-91931942D01*
X108644687Y-91931942D02*
X108692306Y-92027180D01*
X108692306Y-92027180D02*
X108739925Y-92074800D01*
X108739925Y-92074800D02*
X108835163Y-92122419D01*
X108835163Y-92122419D02*
X109216115Y-92122419D01*
X109216115Y-92122419D02*
X109216115Y-91122419D01*
X109216115Y-91122419D02*
X108882782Y-91122419D01*
X108882782Y-91122419D02*
X108787544Y-91170038D01*
X108787544Y-91170038D02*
X108739925Y-91217657D01*
X108739925Y-91217657D02*
X108692306Y-91312895D01*
X108692306Y-91312895D02*
X108692306Y-91408133D01*
X108692306Y-91408133D02*
X108739925Y-91503371D01*
X108739925Y-91503371D02*
X108787544Y-91550990D01*
X108787544Y-91550990D02*
X108882782Y-91598609D01*
X108882782Y-91598609D02*
X109216115Y-91598609D01*
X107787544Y-92122419D02*
X107787544Y-91598609D01*
X107787544Y-91598609D02*
X107835163Y-91503371D01*
X107835163Y-91503371D02*
X107930401Y-91455752D01*
X107930401Y-91455752D02*
X108120877Y-91455752D01*
X108120877Y-91455752D02*
X108216115Y-91503371D01*
X107787544Y-92074800D02*
X107882782Y-92122419D01*
X107882782Y-92122419D02*
X108120877Y-92122419D01*
X108120877Y-92122419D02*
X108216115Y-92074800D01*
X108216115Y-92074800D02*
X108263734Y-91979561D01*
X108263734Y-91979561D02*
X108263734Y-91884323D01*
X108263734Y-91884323D02*
X108216115Y-91789085D01*
X108216115Y-91789085D02*
X108120877Y-91741466D01*
X108120877Y-91741466D02*
X107882782Y-91741466D01*
X107882782Y-91741466D02*
X107787544Y-91693847D01*
X106882782Y-92074800D02*
X106978020Y-92122419D01*
X106978020Y-92122419D02*
X107168496Y-92122419D01*
X107168496Y-92122419D02*
X107263734Y-92074800D01*
X107263734Y-92074800D02*
X107311353Y-92027180D01*
X107311353Y-92027180D02*
X107358972Y-91931942D01*
X107358972Y-91931942D02*
X107358972Y-91646228D01*
X107358972Y-91646228D02*
X107311353Y-91550990D01*
X107311353Y-91550990D02*
X107263734Y-91503371D01*
X107263734Y-91503371D02*
X107168496Y-91455752D01*
X107168496Y-91455752D02*
X106978020Y-91455752D01*
X106978020Y-91455752D02*
X106882782Y-91503371D01*
X106454210Y-92122419D02*
X106454210Y-91122419D01*
X106358972Y-91741466D02*
X106073258Y-92122419D01*
X106073258Y-91455752D02*
X106454210Y-91836704D01*
X105168496Y-92122419D02*
X105644686Y-92122419D01*
X105644686Y-92122419D02*
X105644686Y-91122419D01*
X104835162Y-91598609D02*
X104501829Y-91598609D01*
X104358972Y-92122419D02*
X104835162Y-92122419D01*
X104835162Y-92122419D02*
X104835162Y-91122419D01*
X104835162Y-91122419D02*
X104358972Y-91122419D01*
X103930400Y-92122419D02*
X103930400Y-91122419D01*
X103930400Y-91122419D02*
X103692305Y-91122419D01*
X103692305Y-91122419D02*
X103549448Y-91170038D01*
X103549448Y-91170038D02*
X103454210Y-91265276D01*
X103454210Y-91265276D02*
X103406591Y-91360514D01*
X103406591Y-91360514D02*
X103358972Y-91550990D01*
X103358972Y-91550990D02*
X103358972Y-91693847D01*
X103358972Y-91693847D02*
X103406591Y-91884323D01*
X103406591Y-91884323D02*
X103454210Y-91979561D01*
X103454210Y-91979561D02*
X103549448Y-92074800D01*
X103549448Y-92074800D02*
X103692305Y-92122419D01*
X103692305Y-92122419D02*
X103930400Y-92122419D01*
X113696115Y-78221466D02*
X112934211Y-78221466D01*
X113696115Y-80721466D02*
X112934211Y-80721466D01*
X113315163Y-81102419D02*
X113315163Y-80340514D01*
X113696115Y-84491466D02*
X112934211Y-84491466D01*
X113696115Y-86991466D02*
X112934211Y-86991466D01*
X113315163Y-87372419D02*
X113315163Y-86610514D01*
X113696115Y-90491466D02*
X112934211Y-90491466D01*
X113696115Y-92991466D02*
X112934211Y-92991466D01*
X113315163Y-93372419D02*
X113315163Y-92610514D01*
X113696115Y-98221466D02*
X112934211Y-98221466D01*
X113696115Y-100721466D02*
X112934211Y-100721466D01*
X113315163Y-101102419D02*
X113315163Y-100340514D01*
X113696115Y-102491466D02*
X112934211Y-102491466D01*
X113696115Y-104991466D02*
X112934211Y-104991466D01*
X113315163Y-105372419D02*
X113315163Y-104610514D01*
X113696115Y-108491466D02*
X112934211Y-108491466D01*
X113696115Y-110991466D02*
X112934211Y-110991466D01*
X113315163Y-111372419D02*
X113315163Y-110610514D01*
X113696115Y-114491466D02*
X112934211Y-114491466D01*
X113696115Y-116991466D02*
X112934211Y-116991466D01*
X113315163Y-117372419D02*
X113315163Y-116610514D01*
M02*
