%TF.GenerationSoftware,KiCad,Pcbnew,9.0.9-9.0.9~ubuntu24.04.1*%
%TF.CreationDate,2026-07-09T08:37:03+03:00*%
%TF.ProjectId,sounddecoder-esp32-s3-wroom-2-ext,736f756e-6464-4656-936f-6465722d6573,rev?*%
%TF.SameCoordinates,Original*%
%TF.FileFunction,Soldermask,Top*%
%TF.FilePolarity,Negative*%
%FSLAX46Y46*%
G04 Gerber Fmt 4.6, Leading zero omitted, Abs format (unit mm)*
G04 Created by KiCad (PCBNEW 9.0.9-9.0.9~ubuntu24.04.1) date 2026-07-09 08:37:03*
%MOMM*%
%LPD*%
G01*
G04 APERTURE LIST*
G04 Aperture macros list*
%AMRoundRect*
0 Rectangle with rounded corners*
0 $1 Rounding radius*
0 $2 $3 $4 $5 $6 $7 $8 $9 X,Y pos of 4 corners*
0 Add a 4 corners polygon primitive as box body*
4,1,4,$2,$3,$4,$5,$6,$7,$8,$9,$2,$3,0*
0 Add four circle primitives for the rounded corners*
1,1,$1+$1,$2,$3*
1,1,$1+$1,$4,$5*
1,1,$1+$1,$6,$7*
1,1,$1+$1,$8,$9*
0 Add four rect primitives between the rounded corners*
20,1,$1+$1,$2,$3,$4,$5,0*
20,1,$1+$1,$4,$5,$6,$7,0*
20,1,$1+$1,$6,$7,$8,$9,0*
20,1,$1+$1,$8,$9,$2,$3,0*%
G04 Aperture macros list end*
%ADD10R,3.100000X5.000000*%
%ADD11RoundRect,0.250000X0.750000X-0.750000X0.750000X0.750000X-0.750000X0.750000X-0.750000X-0.750000X0*%
%ADD12C,2.000000*%
%ADD13RoundRect,0.250000X-0.750000X0.750000X-0.750000X-0.750000X0.750000X-0.750000X0.750000X0.750000X0*%
%ADD14R,1.500000X0.900000*%
%ADD15R,0.900000X1.500000*%
%ADD16R,1.000000X1.000000*%
%ADD17C,0.600000*%
%ADD18R,0.740000X2.400000*%
%ADD19RoundRect,0.375000X-0.625000X-0.375000X0.625000X-0.375000X0.625000X0.375000X-0.625000X0.375000X0*%
%ADD20RoundRect,0.500000X-0.500000X-1.400000X0.500000X-1.400000X0.500000X1.400000X-0.500000X1.400000X0*%
%ADD21RoundRect,0.250000X0.475000X-0.337500X0.475000X0.337500X-0.475000X0.337500X-0.475000X-0.337500X0*%
%ADD22RoundRect,0.250000X0.550000X-1.500000X0.550000X1.500000X-0.550000X1.500000X-0.550000X-1.500000X0*%
%ADD23RoundRect,0.250000X-0.450000X0.350000X-0.450000X-0.350000X0.450000X-0.350000X0.450000X0.350000X0*%
%ADD24RoundRect,0.250000X-1.050000X-0.550000X1.050000X-0.550000X1.050000X0.550000X-1.050000X0.550000X0*%
%ADD25RoundRect,0.250000X1.000000X-1.400000X1.000000X1.400000X-1.000000X1.400000X-1.000000X-1.400000X0*%
%ADD26R,0.850000X0.850000*%
%ADD27C,0.850000*%
%ADD28RoundRect,0.250000X0.350000X0.450000X-0.350000X0.450000X-0.350000X-0.450000X0.350000X-0.450000X0*%
%ADD29RoundRect,0.250000X0.550000X-1.412500X0.550000X1.412500X-0.550000X1.412500X-0.550000X-1.412500X0*%
%ADD30RoundRect,0.250000X2.050000X0.300000X-2.050000X0.300000X-2.050000X-0.300000X2.050000X-0.300000X0*%
%ADD31RoundRect,0.250002X4.449998X5.149998X-4.449998X5.149998X-4.449998X-5.149998X4.449998X-5.149998X0*%
%ADD32RoundRect,0.250000X-0.337500X-0.475000X0.337500X-0.475000X0.337500X0.475000X-0.337500X0.475000X0*%
%ADD33RoundRect,0.062500X0.062500X-0.350000X0.062500X0.350000X-0.062500X0.350000X-0.062500X-0.350000X0*%
%ADD34RoundRect,0.062500X0.350000X-0.062500X0.350000X0.062500X-0.350000X0.062500X-0.350000X-0.062500X0*%
%ADD35R,1.230000X1.230000*%
%ADD36RoundRect,0.250000X-0.750000X-0.750000X0.750000X-0.750000X0.750000X0.750000X-0.750000X0.750000X0*%
%ADD37RoundRect,0.150000X-0.150000X0.725000X-0.150000X-0.725000X0.150000X-0.725000X0.150000X0.725000X0*%
%ADD38RoundRect,0.250000X1.950000X1.000000X-1.950000X1.000000X-1.950000X-1.000000X1.950000X-1.000000X0*%
%ADD39R,2.600000X3.100000*%
%ADD40R,1.550000X0.600000*%
%ADD41RoundRect,0.250000X-0.475000X0.337500X-0.475000X-0.337500X0.475000X-0.337500X0.475000X0.337500X0*%
G04 APERTURE END LIST*
D10*
%TO.C,L1*%
X93950000Y-112000000D03*
X105050000Y-112000000D03*
%TD*%
D11*
%TO.C,J10*%
X110770000Y-99000000D03*
D12*
X110770000Y-96460000D03*
%TD*%
D13*
%TO.C,J4*%
X78500000Y-82500000D03*
D12*
X78500000Y-85040000D03*
%TD*%
D14*
%TO.C,U7*%
X87250000Y-77430000D03*
X87250000Y-78700000D03*
X87250000Y-79970000D03*
X87250000Y-81240000D03*
X87250000Y-82510000D03*
X87250000Y-83780000D03*
X87250000Y-85050000D03*
X87250000Y-86320000D03*
X87250000Y-87590000D03*
X87250000Y-88860000D03*
X87250000Y-90130000D03*
X87250000Y-91400000D03*
X87250000Y-92670000D03*
X87250000Y-93940000D03*
D15*
X89015000Y-95190000D03*
X90285000Y-95190000D03*
X91555000Y-95190000D03*
X92825000Y-95190000D03*
X94095000Y-95190000D03*
X95365000Y-95190000D03*
X96635000Y-95190000D03*
X97905000Y-95190000D03*
X99175000Y-95190000D03*
X100445000Y-95190000D03*
X101715000Y-95190000D03*
X102985000Y-95190000D03*
D14*
X104750000Y-93940000D03*
X104750000Y-92670000D03*
X104750000Y-91400000D03*
X104750000Y-90130000D03*
X104750000Y-88860000D03*
X104750000Y-87590000D03*
X104750000Y-86320000D03*
X104750000Y-85050000D03*
X104750000Y-83780000D03*
X104750000Y-82510000D03*
X104750000Y-81240000D03*
X104750000Y-79970000D03*
X104750000Y-78700000D03*
X104750000Y-77430000D03*
D16*
X93140000Y-81280000D03*
D17*
X93140000Y-82030000D03*
D16*
X93140000Y-82780000D03*
D17*
X93140000Y-83530000D03*
D16*
X93140000Y-84280000D03*
D17*
X93890000Y-81280000D03*
X93890000Y-82780000D03*
X93890000Y-84280000D03*
D16*
X94640000Y-81280000D03*
D17*
X94640000Y-82030000D03*
D16*
X94640000Y-82780000D03*
D17*
X94640000Y-83530000D03*
D16*
X94640000Y-84280000D03*
D17*
X95390000Y-81280000D03*
X95390000Y-82780000D03*
X95390000Y-84280000D03*
D16*
X96140000Y-81280000D03*
D17*
X96140000Y-82030000D03*
D16*
X96140000Y-82780000D03*
D17*
X96140000Y-83530000D03*
D16*
X96140000Y-84280000D03*
%TD*%
D11*
%TO.C,J11*%
X110770000Y-105000000D03*
D12*
X110770000Y-102460000D03*
%TD*%
D18*
%TO.C,J2*%
X88195000Y-98325000D03*
X88195000Y-102225000D03*
X86925000Y-98325000D03*
X86925000Y-102225000D03*
X85655000Y-98325000D03*
X85655000Y-102225000D03*
X84385000Y-98325000D03*
X84385000Y-102225000D03*
X83115000Y-98325000D03*
X83115000Y-102225000D03*
X81845000Y-98325000D03*
X81845000Y-102225000D03*
X80575000Y-98325000D03*
X80575000Y-102225000D03*
X79305000Y-98325000D03*
X79305000Y-102225000D03*
%TD*%
D19*
%TO.C,U6*%
X83850000Y-106700000D03*
X83850000Y-109000000D03*
D20*
X90150000Y-109000000D03*
D19*
X83850000Y-111300000D03*
%TD*%
D11*
%TO.C,J3*%
X110750000Y-123040000D03*
D12*
X110750000Y-120500000D03*
%TD*%
D11*
%TO.C,J8*%
X110750000Y-87000000D03*
D12*
X110750000Y-84460000D03*
%TD*%
D21*
%TO.C,C10*%
X83250000Y-79250000D03*
X83250000Y-77175000D03*
%TD*%
D22*
%TO.C,C2*%
X99850000Y-133287500D03*
X99850000Y-127687500D03*
%TD*%
D23*
%TO.C,R1*%
X104600000Y-128235000D03*
X104600000Y-130235000D03*
%TD*%
D24*
%TO.C,C6*%
X91450000Y-102750000D03*
X95050000Y-102750000D03*
%TD*%
D23*
%TO.C,R2*%
X85250000Y-79000000D03*
X85250000Y-81000000D03*
%TD*%
D25*
%TO.C,D1*%
X93200000Y-122250000D03*
X100000000Y-122250000D03*
%TD*%
D21*
%TO.C,C7*%
X78500000Y-94787500D03*
X78500000Y-92712500D03*
%TD*%
D26*
%TO.C,J6*%
X76250000Y-93000000D03*
D27*
X76250000Y-94000000D03*
X76250000Y-95000000D03*
%TD*%
D28*
%TO.C,R6*%
X104500000Y-119500000D03*
X102500000Y-119500000D03*
%TD*%
D21*
%TO.C,C8*%
X80500000Y-94825000D03*
X80500000Y-92750000D03*
%TD*%
D11*
%TO.C,J13*%
X110770000Y-117000000D03*
D12*
X110770000Y-114460000D03*
%TD*%
D29*
%TO.C,C5*%
X78500000Y-111075000D03*
X78500000Y-106000000D03*
%TD*%
D30*
%TO.C,U1*%
X89000000Y-122062500D03*
X89000000Y-120362500D03*
X89000000Y-118662500D03*
D31*
X79850000Y-118662500D03*
D30*
X89000000Y-116962500D03*
X89000000Y-115262500D03*
%TD*%
D23*
%TO.C,R3*%
X90500000Y-98000000D03*
X90500000Y-100000000D03*
%TD*%
D32*
%TO.C,C3*%
X89425000Y-126750000D03*
X91500000Y-126750000D03*
%TD*%
D33*
%TO.C,U3*%
X77440000Y-90747500D03*
X77940000Y-90747500D03*
X78440000Y-90747500D03*
X78940000Y-90747500D03*
D34*
X79627500Y-90060000D03*
X79627500Y-89560000D03*
X79627500Y-89060000D03*
X79627500Y-88560000D03*
D33*
X78940000Y-87872500D03*
X78440000Y-87872500D03*
X77940000Y-87872500D03*
X77440000Y-87872500D03*
D34*
X76752500Y-88560000D03*
X76752500Y-89060000D03*
X76752500Y-89560000D03*
X76752500Y-90060000D03*
D35*
X78190000Y-89310000D03*
%TD*%
D32*
%TO.C,C12*%
X82962500Y-85000000D03*
X85037500Y-85000000D03*
%TD*%
D28*
%TO.C,R4*%
X106250000Y-121500000D03*
X104250000Y-121500000D03*
%TD*%
%TO.C,R5*%
X106250000Y-123500000D03*
X104250000Y-123500000D03*
%TD*%
D36*
%TO.C,J1*%
X91660000Y-131505000D03*
D12*
X94200000Y-131505000D03*
%TD*%
D37*
%TO.C,U8*%
X106270000Y-98750000D03*
X105000000Y-98750000D03*
X103730000Y-98750000D03*
X102460000Y-98750000D03*
X101190000Y-98750000D03*
X99920000Y-98750000D03*
X98650000Y-98750000D03*
X97380000Y-98750000D03*
X97380000Y-103900000D03*
X98650000Y-103900000D03*
X99920000Y-103900000D03*
X101190000Y-103900000D03*
X102460000Y-103900000D03*
X103730000Y-103900000D03*
X105000000Y-103900000D03*
X106270000Y-103900000D03*
%TD*%
D11*
%TO.C,J9*%
X110770000Y-93000000D03*
D12*
X110770000Y-90460000D03*
%TD*%
D38*
%TO.C,C4*%
X87150000Y-130037500D03*
X78750000Y-130037500D03*
%TD*%
D39*
%TO.C,U4*%
X109450000Y-130135000D03*
D40*
X106750000Y-128230000D03*
X106750000Y-129500000D03*
X106750000Y-130770000D03*
X106750000Y-132040000D03*
X112150000Y-132040000D03*
X112150000Y-130770000D03*
X112150000Y-129500000D03*
X112150000Y-128230000D03*
%TD*%
D28*
%TO.C,R7*%
X104500000Y-125500000D03*
X102500000Y-125500000D03*
%TD*%
D41*
%TO.C,C11*%
X83250000Y-80925000D03*
X83250000Y-83000000D03*
%TD*%
D21*
%TO.C,C1*%
X104600000Y-134060000D03*
X104600000Y-131985000D03*
%TD*%
D11*
%TO.C,J7*%
X110750000Y-81000000D03*
D12*
X110750000Y-78460000D03*
%TD*%
D11*
%TO.C,J12*%
X110750000Y-111000000D03*
D12*
X110750000Y-108460000D03*
%TD*%
M02*
