%TF.GenerationSoftware,KiCad,Pcbnew,9.0.9-9.0.9~ubuntu24.04.1*%
%TF.CreationDate,2026-07-09T08:37:03+03:00*%
%TF.ProjectId,sounddecoder-esp32-s3-wroom-2-ext,736f756e-6464-4656-936f-6465722d6573,rev?*%
%TF.SameCoordinates,Original*%
%TF.FileFunction,Legend,Top*%
%TF.FilePolarity,Positive*%
%FSLAX46Y46*%
G04 Gerber Fmt 4.6, Leading zero omitted, Abs format (unit mm)*
G04 Created by KiCad (PCBNEW 9.0.9-9.0.9~ubuntu24.04.1) date 2026-07-09 08:37:03*
%MOMM*%
%LPD*%
G01*
G04 APERTURE LIST*
%ADD10C,0.100000*%
%ADD11C,0.150000*%
%ADD12C,0.120000*%
G04 APERTURE END LIST*
D10*
X107196115Y-80991466D02*
X106434211Y-80991466D01*
X106815163Y-81372419D02*
X106815163Y-80610514D01*
X107196115Y-86991466D02*
X106434211Y-86991466D01*
X106815163Y-87372419D02*
X106815163Y-86610514D01*
X107196115Y-92991466D02*
X106434211Y-92991466D01*
X106815163Y-93372419D02*
X106815163Y-92610514D01*
X107196115Y-98991466D02*
X106434211Y-98991466D01*
X106815163Y-99372419D02*
X106815163Y-98610514D01*
X107196115Y-104991466D02*
X106434211Y-104991466D01*
X106815163Y-105372419D02*
X106815163Y-104610514D01*
X107196115Y-110991466D02*
X106434211Y-110991466D01*
X106815163Y-111372419D02*
X106815163Y-110610514D01*
X107196115Y-116991466D02*
X106434211Y-116991466D01*
X106815163Y-117372419D02*
X106815163Y-116610514D01*
D11*
X99333333Y-112454819D02*
X98857143Y-112454819D01*
X98857143Y-112454819D02*
X98857143Y-111454819D01*
X100190476Y-112454819D02*
X99619048Y-112454819D01*
X99904762Y-112454819D02*
X99904762Y-111454819D01*
X99904762Y-111454819D02*
X99809524Y-111597676D01*
X99809524Y-111597676D02*
X99714286Y-111692914D01*
X99714286Y-111692914D02*
X99619048Y-111740533D01*
X74988095Y-80157200D02*
X75130952Y-80204819D01*
X75130952Y-80204819D02*
X75369047Y-80204819D01*
X75369047Y-80204819D02*
X75464285Y-80157200D01*
X75464285Y-80157200D02*
X75511904Y-80109580D01*
X75511904Y-80109580D02*
X75559523Y-80014342D01*
X75559523Y-80014342D02*
X75559523Y-79919104D01*
X75559523Y-79919104D02*
X75511904Y-79823866D01*
X75511904Y-79823866D02*
X75464285Y-79776247D01*
X75464285Y-79776247D02*
X75369047Y-79728628D01*
X75369047Y-79728628D02*
X75178571Y-79681009D01*
X75178571Y-79681009D02*
X75083333Y-79633390D01*
X75083333Y-79633390D02*
X75035714Y-79585771D01*
X75035714Y-79585771D02*
X74988095Y-79490533D01*
X74988095Y-79490533D02*
X74988095Y-79395295D01*
X74988095Y-79395295D02*
X75035714Y-79300057D01*
X75035714Y-79300057D02*
X75083333Y-79252438D01*
X75083333Y-79252438D02*
X75178571Y-79204819D01*
X75178571Y-79204819D02*
X75416666Y-79204819D01*
X75416666Y-79204819D02*
X75559523Y-79252438D01*
X75988095Y-79538152D02*
X75988095Y-80538152D01*
X75988095Y-79585771D02*
X76083333Y-79538152D01*
X76083333Y-79538152D02*
X76273809Y-79538152D01*
X76273809Y-79538152D02*
X76369047Y-79585771D01*
X76369047Y-79585771D02*
X76416666Y-79633390D01*
X76416666Y-79633390D02*
X76464285Y-79728628D01*
X76464285Y-79728628D02*
X76464285Y-80014342D01*
X76464285Y-80014342D02*
X76416666Y-80109580D01*
X76416666Y-80109580D02*
X76369047Y-80157200D01*
X76369047Y-80157200D02*
X76273809Y-80204819D01*
X76273809Y-80204819D02*
X76083333Y-80204819D01*
X76083333Y-80204819D02*
X75988095Y-80157200D01*
X77273809Y-80157200D02*
X77178571Y-80204819D01*
X77178571Y-80204819D02*
X76988095Y-80204819D01*
X76988095Y-80204819D02*
X76892857Y-80157200D01*
X76892857Y-80157200D02*
X76845238Y-80061961D01*
X76845238Y-80061961D02*
X76845238Y-79681009D01*
X76845238Y-79681009D02*
X76892857Y-79585771D01*
X76892857Y-79585771D02*
X76988095Y-79538152D01*
X76988095Y-79538152D02*
X77178571Y-79538152D01*
X77178571Y-79538152D02*
X77273809Y-79585771D01*
X77273809Y-79585771D02*
X77321428Y-79681009D01*
X77321428Y-79681009D02*
X77321428Y-79776247D01*
X77321428Y-79776247D02*
X76845238Y-79871485D01*
X78178571Y-80204819D02*
X78178571Y-79681009D01*
X78178571Y-79681009D02*
X78130952Y-79585771D01*
X78130952Y-79585771D02*
X78035714Y-79538152D01*
X78035714Y-79538152D02*
X77845238Y-79538152D01*
X77845238Y-79538152D02*
X77750000Y-79585771D01*
X78178571Y-80157200D02*
X78083333Y-80204819D01*
X78083333Y-80204819D02*
X77845238Y-80204819D01*
X77845238Y-80204819D02*
X77750000Y-80157200D01*
X77750000Y-80157200D02*
X77702381Y-80061961D01*
X77702381Y-80061961D02*
X77702381Y-79966723D01*
X77702381Y-79966723D02*
X77750000Y-79871485D01*
X77750000Y-79871485D02*
X77845238Y-79823866D01*
X77845238Y-79823866D02*
X78083333Y-79823866D01*
X78083333Y-79823866D02*
X78178571Y-79776247D01*
X78654762Y-80204819D02*
X78654762Y-79204819D01*
X78750000Y-79823866D02*
X79035714Y-80204819D01*
X79035714Y-79538152D02*
X78654762Y-79919104D01*
X79845238Y-80157200D02*
X79750000Y-80204819D01*
X79750000Y-80204819D02*
X79559524Y-80204819D01*
X79559524Y-80204819D02*
X79464286Y-80157200D01*
X79464286Y-80157200D02*
X79416667Y-80061961D01*
X79416667Y-80061961D02*
X79416667Y-79681009D01*
X79416667Y-79681009D02*
X79464286Y-79585771D01*
X79464286Y-79585771D02*
X79559524Y-79538152D01*
X79559524Y-79538152D02*
X79750000Y-79538152D01*
X79750000Y-79538152D02*
X79845238Y-79585771D01*
X79845238Y-79585771D02*
X79892857Y-79681009D01*
X79892857Y-79681009D02*
X79892857Y-79776247D01*
X79892857Y-79776247D02*
X79416667Y-79871485D01*
X80321429Y-80204819D02*
X80321429Y-79538152D01*
X80321429Y-79728628D02*
X80369048Y-79633390D01*
X80369048Y-79633390D02*
X80416667Y-79585771D01*
X80416667Y-79585771D02*
X80511905Y-79538152D01*
X80511905Y-79538152D02*
X80607143Y-79538152D01*
X88704819Y-93413220D02*
X89514342Y-93413220D01*
X89514342Y-93413220D02*
X89609580Y-93365601D01*
X89609580Y-93365601D02*
X89657200Y-93317982D01*
X89657200Y-93317982D02*
X89704819Y-93222744D01*
X89704819Y-93222744D02*
X89704819Y-93032268D01*
X89704819Y-93032268D02*
X89657200Y-92937030D01*
X89657200Y-92937030D02*
X89609580Y-92889411D01*
X89609580Y-92889411D02*
X89514342Y-92841792D01*
X89514342Y-92841792D02*
X88704819Y-92841792D01*
X88704819Y-92460839D02*
X88704819Y-91794173D01*
X88704819Y-91794173D02*
X89704819Y-92222744D01*
X89394819Y-100608333D02*
X90109104Y-100608333D01*
X90109104Y-100608333D02*
X90251961Y-100655952D01*
X90251961Y-100655952D02*
X90347200Y-100751190D01*
X90347200Y-100751190D02*
X90394819Y-100894047D01*
X90394819Y-100894047D02*
X90394819Y-100989285D01*
X89490057Y-100179761D02*
X89442438Y-100132142D01*
X89442438Y-100132142D02*
X89394819Y-100036904D01*
X89394819Y-100036904D02*
X89394819Y-99798809D01*
X89394819Y-99798809D02*
X89442438Y-99703571D01*
X89442438Y-99703571D02*
X89490057Y-99655952D01*
X89490057Y-99655952D02*
X89585295Y-99608333D01*
X89585295Y-99608333D02*
X89680533Y-99608333D01*
X89680533Y-99608333D02*
X89823390Y-99655952D01*
X89823390Y-99655952D02*
X90394819Y-100227380D01*
X90394819Y-100227380D02*
X90394819Y-99608333D01*
X86238095Y-106704819D02*
X86238095Y-107514342D01*
X86238095Y-107514342D02*
X86285714Y-107609580D01*
X86285714Y-107609580D02*
X86333333Y-107657200D01*
X86333333Y-107657200D02*
X86428571Y-107704819D01*
X86428571Y-107704819D02*
X86619047Y-107704819D01*
X86619047Y-107704819D02*
X86714285Y-107657200D01*
X86714285Y-107657200D02*
X86761904Y-107609580D01*
X86761904Y-107609580D02*
X86809523Y-107514342D01*
X86809523Y-107514342D02*
X86809523Y-106704819D01*
X87714285Y-106704819D02*
X87523809Y-106704819D01*
X87523809Y-106704819D02*
X87428571Y-106752438D01*
X87428571Y-106752438D02*
X87380952Y-106800057D01*
X87380952Y-106800057D02*
X87285714Y-106942914D01*
X87285714Y-106942914D02*
X87238095Y-107133390D01*
X87238095Y-107133390D02*
X87238095Y-107514342D01*
X87238095Y-107514342D02*
X87285714Y-107609580D01*
X87285714Y-107609580D02*
X87333333Y-107657200D01*
X87333333Y-107657200D02*
X87428571Y-107704819D01*
X87428571Y-107704819D02*
X87619047Y-107704819D01*
X87619047Y-107704819D02*
X87714285Y-107657200D01*
X87714285Y-107657200D02*
X87761904Y-107609580D01*
X87761904Y-107609580D02*
X87809523Y-107514342D01*
X87809523Y-107514342D02*
X87809523Y-107276247D01*
X87809523Y-107276247D02*
X87761904Y-107181009D01*
X87761904Y-107181009D02*
X87714285Y-107133390D01*
X87714285Y-107133390D02*
X87619047Y-107085771D01*
X87619047Y-107085771D02*
X87428571Y-107085771D01*
X87428571Y-107085771D02*
X87333333Y-107133390D01*
X87333333Y-107133390D02*
X87285714Y-107181009D01*
X87285714Y-107181009D02*
X87238095Y-107276247D01*
X114454819Y-129083333D02*
X113454819Y-129083333D01*
X113454819Y-129083333D02*
X114169104Y-128750000D01*
X114169104Y-128750000D02*
X113454819Y-128416667D01*
X113454819Y-128416667D02*
X114454819Y-128416667D01*
X114454819Y-127797619D02*
X114407200Y-127892857D01*
X114407200Y-127892857D02*
X114359580Y-127940476D01*
X114359580Y-127940476D02*
X114264342Y-127988095D01*
X114264342Y-127988095D02*
X113978628Y-127988095D01*
X113978628Y-127988095D02*
X113883390Y-127940476D01*
X113883390Y-127940476D02*
X113835771Y-127892857D01*
X113835771Y-127892857D02*
X113788152Y-127797619D01*
X113788152Y-127797619D02*
X113788152Y-127654762D01*
X113788152Y-127654762D02*
X113835771Y-127559524D01*
X113835771Y-127559524D02*
X113883390Y-127511905D01*
X113883390Y-127511905D02*
X113978628Y-127464286D01*
X113978628Y-127464286D02*
X114264342Y-127464286D01*
X114264342Y-127464286D02*
X114359580Y-127511905D01*
X114359580Y-127511905D02*
X114407200Y-127559524D01*
X114407200Y-127559524D02*
X114454819Y-127654762D01*
X114454819Y-127654762D02*
X114454819Y-127797619D01*
X113788152Y-127178571D02*
X113788152Y-126797619D01*
X113454819Y-127035714D02*
X114311961Y-127035714D01*
X114311961Y-127035714D02*
X114407200Y-126988095D01*
X114407200Y-126988095D02*
X114454819Y-126892857D01*
X114454819Y-126892857D02*
X114454819Y-126797619D01*
X114454819Y-126321428D02*
X114407200Y-126416666D01*
X114407200Y-126416666D02*
X114359580Y-126464285D01*
X114359580Y-126464285D02*
X114264342Y-126511904D01*
X114264342Y-126511904D02*
X113978628Y-126511904D01*
X113978628Y-126511904D02*
X113883390Y-126464285D01*
X113883390Y-126464285D02*
X113835771Y-126416666D01*
X113835771Y-126416666D02*
X113788152Y-126321428D01*
X113788152Y-126321428D02*
X113788152Y-126178571D01*
X113788152Y-126178571D02*
X113835771Y-126083333D01*
X113835771Y-126083333D02*
X113883390Y-126035714D01*
X113883390Y-126035714D02*
X113978628Y-125988095D01*
X113978628Y-125988095D02*
X114264342Y-125988095D01*
X114264342Y-125988095D02*
X114359580Y-126035714D01*
X114359580Y-126035714D02*
X114407200Y-126083333D01*
X114407200Y-126083333D02*
X114454819Y-126178571D01*
X114454819Y-126178571D02*
X114454819Y-126321428D01*
X114454819Y-125559523D02*
X113788152Y-125559523D01*
X113978628Y-125559523D02*
X113883390Y-125511904D01*
X113883390Y-125511904D02*
X113835771Y-125464285D01*
X113835771Y-125464285D02*
X113788152Y-125369047D01*
X113788152Y-125369047D02*
X113788152Y-125273809D01*
X80107142Y-77609580D02*
X80059523Y-77657200D01*
X80059523Y-77657200D02*
X79916666Y-77704819D01*
X79916666Y-77704819D02*
X79821428Y-77704819D01*
X79821428Y-77704819D02*
X79678571Y-77657200D01*
X79678571Y-77657200D02*
X79583333Y-77561961D01*
X79583333Y-77561961D02*
X79535714Y-77466723D01*
X79535714Y-77466723D02*
X79488095Y-77276247D01*
X79488095Y-77276247D02*
X79488095Y-77133390D01*
X79488095Y-77133390D02*
X79535714Y-76942914D01*
X79535714Y-76942914D02*
X79583333Y-76847676D01*
X79583333Y-76847676D02*
X79678571Y-76752438D01*
X79678571Y-76752438D02*
X79821428Y-76704819D01*
X79821428Y-76704819D02*
X79916666Y-76704819D01*
X79916666Y-76704819D02*
X80059523Y-76752438D01*
X80059523Y-76752438D02*
X80107142Y-76800057D01*
X81059523Y-77704819D02*
X80488095Y-77704819D01*
X80773809Y-77704819D02*
X80773809Y-76704819D01*
X80773809Y-76704819D02*
X80678571Y-76847676D01*
X80678571Y-76847676D02*
X80583333Y-76942914D01*
X80583333Y-76942914D02*
X80488095Y-76990533D01*
X81678571Y-76704819D02*
X81773809Y-76704819D01*
X81773809Y-76704819D02*
X81869047Y-76752438D01*
X81869047Y-76752438D02*
X81916666Y-76800057D01*
X81916666Y-76800057D02*
X81964285Y-76895295D01*
X81964285Y-76895295D02*
X82011904Y-77085771D01*
X82011904Y-77085771D02*
X82011904Y-77323866D01*
X82011904Y-77323866D02*
X81964285Y-77514342D01*
X81964285Y-77514342D02*
X81916666Y-77609580D01*
X81916666Y-77609580D02*
X81869047Y-77657200D01*
X81869047Y-77657200D02*
X81773809Y-77704819D01*
X81773809Y-77704819D02*
X81678571Y-77704819D01*
X81678571Y-77704819D02*
X81583333Y-77657200D01*
X81583333Y-77657200D02*
X81535714Y-77609580D01*
X81535714Y-77609580D02*
X81488095Y-77514342D01*
X81488095Y-77514342D02*
X81440476Y-77323866D01*
X81440476Y-77323866D02*
X81440476Y-77085771D01*
X81440476Y-77085771D02*
X81488095Y-76895295D01*
X81488095Y-76895295D02*
X81535714Y-76800057D01*
X81535714Y-76800057D02*
X81583333Y-76752438D01*
X81583333Y-76752438D02*
X81678571Y-76704819D01*
X97583333Y-126609580D02*
X97535714Y-126657200D01*
X97535714Y-126657200D02*
X97392857Y-126704819D01*
X97392857Y-126704819D02*
X97297619Y-126704819D01*
X97297619Y-126704819D02*
X97154762Y-126657200D01*
X97154762Y-126657200D02*
X97059524Y-126561961D01*
X97059524Y-126561961D02*
X97011905Y-126466723D01*
X97011905Y-126466723D02*
X96964286Y-126276247D01*
X96964286Y-126276247D02*
X96964286Y-126133390D01*
X96964286Y-126133390D02*
X97011905Y-125942914D01*
X97011905Y-125942914D02*
X97059524Y-125847676D01*
X97059524Y-125847676D02*
X97154762Y-125752438D01*
X97154762Y-125752438D02*
X97297619Y-125704819D01*
X97297619Y-125704819D02*
X97392857Y-125704819D01*
X97392857Y-125704819D02*
X97535714Y-125752438D01*
X97535714Y-125752438D02*
X97583333Y-125800057D01*
X97964286Y-125800057D02*
X98011905Y-125752438D01*
X98011905Y-125752438D02*
X98107143Y-125704819D01*
X98107143Y-125704819D02*
X98345238Y-125704819D01*
X98345238Y-125704819D02*
X98440476Y-125752438D01*
X98440476Y-125752438D02*
X98488095Y-125800057D01*
X98488095Y-125800057D02*
X98535714Y-125895295D01*
X98535714Y-125895295D02*
X98535714Y-125990533D01*
X98535714Y-125990533D02*
X98488095Y-126133390D01*
X98488095Y-126133390D02*
X97916667Y-126704819D01*
X97916667Y-126704819D02*
X98535714Y-126704819D01*
X103454819Y-128166666D02*
X102978628Y-128499999D01*
X103454819Y-128738094D02*
X102454819Y-128738094D01*
X102454819Y-128738094D02*
X102454819Y-128357142D01*
X102454819Y-128357142D02*
X102502438Y-128261904D01*
X102502438Y-128261904D02*
X102550057Y-128214285D01*
X102550057Y-128214285D02*
X102645295Y-128166666D01*
X102645295Y-128166666D02*
X102788152Y-128166666D01*
X102788152Y-128166666D02*
X102883390Y-128214285D01*
X102883390Y-128214285D02*
X102931009Y-128261904D01*
X102931009Y-128261904D02*
X102978628Y-128357142D01*
X102978628Y-128357142D02*
X102978628Y-128738094D01*
X103454819Y-127214285D02*
X103454819Y-127785713D01*
X103454819Y-127499999D02*
X102454819Y-127499999D01*
X102454819Y-127499999D02*
X102597676Y-127595237D01*
X102597676Y-127595237D02*
X102692914Y-127690475D01*
X102692914Y-127690475D02*
X102740533Y-127785713D01*
X90033333Y-105159580D02*
X89985714Y-105207200D01*
X89985714Y-105207200D02*
X89842857Y-105254819D01*
X89842857Y-105254819D02*
X89747619Y-105254819D01*
X89747619Y-105254819D02*
X89604762Y-105207200D01*
X89604762Y-105207200D02*
X89509524Y-105111961D01*
X89509524Y-105111961D02*
X89461905Y-105016723D01*
X89461905Y-105016723D02*
X89414286Y-104826247D01*
X89414286Y-104826247D02*
X89414286Y-104683390D01*
X89414286Y-104683390D02*
X89461905Y-104492914D01*
X89461905Y-104492914D02*
X89509524Y-104397676D01*
X89509524Y-104397676D02*
X89604762Y-104302438D01*
X89604762Y-104302438D02*
X89747619Y-104254819D01*
X89747619Y-104254819D02*
X89842857Y-104254819D01*
X89842857Y-104254819D02*
X89985714Y-104302438D01*
X89985714Y-104302438D02*
X90033333Y-104350057D01*
X90890476Y-104254819D02*
X90700000Y-104254819D01*
X90700000Y-104254819D02*
X90604762Y-104302438D01*
X90604762Y-104302438D02*
X90557143Y-104350057D01*
X90557143Y-104350057D02*
X90461905Y-104492914D01*
X90461905Y-104492914D02*
X90414286Y-104683390D01*
X90414286Y-104683390D02*
X90414286Y-105064342D01*
X90414286Y-105064342D02*
X90461905Y-105159580D01*
X90461905Y-105159580D02*
X90509524Y-105207200D01*
X90509524Y-105207200D02*
X90604762Y-105254819D01*
X90604762Y-105254819D02*
X90795238Y-105254819D01*
X90795238Y-105254819D02*
X90890476Y-105207200D01*
X90890476Y-105207200D02*
X90938095Y-105159580D01*
X90938095Y-105159580D02*
X90985714Y-105064342D01*
X90985714Y-105064342D02*
X90985714Y-104826247D01*
X90985714Y-104826247D02*
X90938095Y-104731009D01*
X90938095Y-104731009D02*
X90890476Y-104683390D01*
X90890476Y-104683390D02*
X90795238Y-104635771D01*
X90795238Y-104635771D02*
X90604762Y-104635771D01*
X90604762Y-104635771D02*
X90509524Y-104683390D01*
X90509524Y-104683390D02*
X90461905Y-104731009D01*
X90461905Y-104731009D02*
X90414286Y-104826247D01*
X85704819Y-77416666D02*
X85228628Y-77749999D01*
X85704819Y-77988094D02*
X84704819Y-77988094D01*
X84704819Y-77988094D02*
X84704819Y-77607142D01*
X84704819Y-77607142D02*
X84752438Y-77511904D01*
X84752438Y-77511904D02*
X84800057Y-77464285D01*
X84800057Y-77464285D02*
X84895295Y-77416666D01*
X84895295Y-77416666D02*
X85038152Y-77416666D01*
X85038152Y-77416666D02*
X85133390Y-77464285D01*
X85133390Y-77464285D02*
X85181009Y-77511904D01*
X85181009Y-77511904D02*
X85228628Y-77607142D01*
X85228628Y-77607142D02*
X85228628Y-77988094D01*
X84800057Y-77035713D02*
X84752438Y-76988094D01*
X84752438Y-76988094D02*
X84704819Y-76892856D01*
X84704819Y-76892856D02*
X84704819Y-76654761D01*
X84704819Y-76654761D02*
X84752438Y-76559523D01*
X84752438Y-76559523D02*
X84800057Y-76511904D01*
X84800057Y-76511904D02*
X84895295Y-76464285D01*
X84895295Y-76464285D02*
X84990533Y-76464285D01*
X84990533Y-76464285D02*
X85133390Y-76511904D01*
X85133390Y-76511904D02*
X85704819Y-77083332D01*
X85704819Y-77083332D02*
X85704819Y-76464285D01*
X95861905Y-124454819D02*
X95861905Y-123454819D01*
X95861905Y-123454819D02*
X96100000Y-123454819D01*
X96100000Y-123454819D02*
X96242857Y-123502438D01*
X96242857Y-123502438D02*
X96338095Y-123597676D01*
X96338095Y-123597676D02*
X96385714Y-123692914D01*
X96385714Y-123692914D02*
X96433333Y-123883390D01*
X96433333Y-123883390D02*
X96433333Y-124026247D01*
X96433333Y-124026247D02*
X96385714Y-124216723D01*
X96385714Y-124216723D02*
X96338095Y-124311961D01*
X96338095Y-124311961D02*
X96242857Y-124407200D01*
X96242857Y-124407200D02*
X96100000Y-124454819D01*
X96100000Y-124454819D02*
X95861905Y-124454819D01*
X97385714Y-124454819D02*
X96814286Y-124454819D01*
X97100000Y-124454819D02*
X97100000Y-123454819D01*
X97100000Y-123454819D02*
X97004762Y-123597676D01*
X97004762Y-123597676D02*
X96909524Y-123692914D01*
X96909524Y-123692914D02*
X96814286Y-123740533D01*
X78333333Y-96359580D02*
X78285714Y-96407200D01*
X78285714Y-96407200D02*
X78142857Y-96454819D01*
X78142857Y-96454819D02*
X78047619Y-96454819D01*
X78047619Y-96454819D02*
X77904762Y-96407200D01*
X77904762Y-96407200D02*
X77809524Y-96311961D01*
X77809524Y-96311961D02*
X77761905Y-96216723D01*
X77761905Y-96216723D02*
X77714286Y-96026247D01*
X77714286Y-96026247D02*
X77714286Y-95883390D01*
X77714286Y-95883390D02*
X77761905Y-95692914D01*
X77761905Y-95692914D02*
X77809524Y-95597676D01*
X77809524Y-95597676D02*
X77904762Y-95502438D01*
X77904762Y-95502438D02*
X78047619Y-95454819D01*
X78047619Y-95454819D02*
X78142857Y-95454819D01*
X78142857Y-95454819D02*
X78285714Y-95502438D01*
X78285714Y-95502438D02*
X78333333Y-95550057D01*
X78666667Y-95454819D02*
X79333333Y-95454819D01*
X79333333Y-95454819D02*
X78904762Y-96454819D01*
X75916666Y-95954819D02*
X75916666Y-96669104D01*
X75916666Y-96669104D02*
X75869047Y-96811961D01*
X75869047Y-96811961D02*
X75773809Y-96907200D01*
X75773809Y-96907200D02*
X75630952Y-96954819D01*
X75630952Y-96954819D02*
X75535714Y-96954819D01*
X76821428Y-95954819D02*
X76630952Y-95954819D01*
X76630952Y-95954819D02*
X76535714Y-96002438D01*
X76535714Y-96002438D02*
X76488095Y-96050057D01*
X76488095Y-96050057D02*
X76392857Y-96192914D01*
X76392857Y-96192914D02*
X76345238Y-96383390D01*
X76345238Y-96383390D02*
X76345238Y-96764342D01*
X76345238Y-96764342D02*
X76392857Y-96859580D01*
X76392857Y-96859580D02*
X76440476Y-96907200D01*
X76440476Y-96907200D02*
X76535714Y-96954819D01*
X76535714Y-96954819D02*
X76726190Y-96954819D01*
X76726190Y-96954819D02*
X76821428Y-96907200D01*
X76821428Y-96907200D02*
X76869047Y-96859580D01*
X76869047Y-96859580D02*
X76916666Y-96764342D01*
X76916666Y-96764342D02*
X76916666Y-96526247D01*
X76916666Y-96526247D02*
X76869047Y-96431009D01*
X76869047Y-96431009D02*
X76821428Y-96383390D01*
X76821428Y-96383390D02*
X76726190Y-96335771D01*
X76726190Y-96335771D02*
X76535714Y-96335771D01*
X76535714Y-96335771D02*
X76440476Y-96383390D01*
X76440476Y-96383390D02*
X76392857Y-96431009D01*
X76392857Y-96431009D02*
X76345238Y-96526247D01*
X106083333Y-119954819D02*
X105750000Y-119478628D01*
X105511905Y-119954819D02*
X105511905Y-118954819D01*
X105511905Y-118954819D02*
X105892857Y-118954819D01*
X105892857Y-118954819D02*
X105988095Y-119002438D01*
X105988095Y-119002438D02*
X106035714Y-119050057D01*
X106035714Y-119050057D02*
X106083333Y-119145295D01*
X106083333Y-119145295D02*
X106083333Y-119288152D01*
X106083333Y-119288152D02*
X106035714Y-119383390D01*
X106035714Y-119383390D02*
X105988095Y-119431009D01*
X105988095Y-119431009D02*
X105892857Y-119478628D01*
X105892857Y-119478628D02*
X105511905Y-119478628D01*
X106940476Y-118954819D02*
X106750000Y-118954819D01*
X106750000Y-118954819D02*
X106654762Y-119002438D01*
X106654762Y-119002438D02*
X106607143Y-119050057D01*
X106607143Y-119050057D02*
X106511905Y-119192914D01*
X106511905Y-119192914D02*
X106464286Y-119383390D01*
X106464286Y-119383390D02*
X106464286Y-119764342D01*
X106464286Y-119764342D02*
X106511905Y-119859580D01*
X106511905Y-119859580D02*
X106559524Y-119907200D01*
X106559524Y-119907200D02*
X106654762Y-119954819D01*
X106654762Y-119954819D02*
X106845238Y-119954819D01*
X106845238Y-119954819D02*
X106940476Y-119907200D01*
X106940476Y-119907200D02*
X106988095Y-119859580D01*
X106988095Y-119859580D02*
X107035714Y-119764342D01*
X107035714Y-119764342D02*
X107035714Y-119526247D01*
X107035714Y-119526247D02*
X106988095Y-119431009D01*
X106988095Y-119431009D02*
X106940476Y-119383390D01*
X106940476Y-119383390D02*
X106845238Y-119335771D01*
X106845238Y-119335771D02*
X106654762Y-119335771D01*
X106654762Y-119335771D02*
X106559524Y-119383390D01*
X106559524Y-119383390D02*
X106511905Y-119431009D01*
X106511905Y-119431009D02*
X106464286Y-119526247D01*
X80333333Y-96359580D02*
X80285714Y-96407200D01*
X80285714Y-96407200D02*
X80142857Y-96454819D01*
X80142857Y-96454819D02*
X80047619Y-96454819D01*
X80047619Y-96454819D02*
X79904762Y-96407200D01*
X79904762Y-96407200D02*
X79809524Y-96311961D01*
X79809524Y-96311961D02*
X79761905Y-96216723D01*
X79761905Y-96216723D02*
X79714286Y-96026247D01*
X79714286Y-96026247D02*
X79714286Y-95883390D01*
X79714286Y-95883390D02*
X79761905Y-95692914D01*
X79761905Y-95692914D02*
X79809524Y-95597676D01*
X79809524Y-95597676D02*
X79904762Y-95502438D01*
X79904762Y-95502438D02*
X80047619Y-95454819D01*
X80047619Y-95454819D02*
X80142857Y-95454819D01*
X80142857Y-95454819D02*
X80285714Y-95502438D01*
X80285714Y-95502438D02*
X80333333Y-95550057D01*
X80904762Y-95883390D02*
X80809524Y-95835771D01*
X80809524Y-95835771D02*
X80761905Y-95788152D01*
X80761905Y-95788152D02*
X80714286Y-95692914D01*
X80714286Y-95692914D02*
X80714286Y-95645295D01*
X80714286Y-95645295D02*
X80761905Y-95550057D01*
X80761905Y-95550057D02*
X80809524Y-95502438D01*
X80809524Y-95502438D02*
X80904762Y-95454819D01*
X80904762Y-95454819D02*
X81095238Y-95454819D01*
X81095238Y-95454819D02*
X81190476Y-95502438D01*
X81190476Y-95502438D02*
X81238095Y-95550057D01*
X81238095Y-95550057D02*
X81285714Y-95645295D01*
X81285714Y-95645295D02*
X81285714Y-95692914D01*
X81285714Y-95692914D02*
X81238095Y-95788152D01*
X81238095Y-95788152D02*
X81190476Y-95835771D01*
X81190476Y-95835771D02*
X81095238Y-95883390D01*
X81095238Y-95883390D02*
X80904762Y-95883390D01*
X80904762Y-95883390D02*
X80809524Y-95931009D01*
X80809524Y-95931009D02*
X80761905Y-95978628D01*
X80761905Y-95978628D02*
X80714286Y-96073866D01*
X80714286Y-96073866D02*
X80714286Y-96264342D01*
X80714286Y-96264342D02*
X80761905Y-96359580D01*
X80761905Y-96359580D02*
X80809524Y-96407200D01*
X80809524Y-96407200D02*
X80904762Y-96454819D01*
X80904762Y-96454819D02*
X81095238Y-96454819D01*
X81095238Y-96454819D02*
X81190476Y-96407200D01*
X81190476Y-96407200D02*
X81238095Y-96359580D01*
X81238095Y-96359580D02*
X81285714Y-96264342D01*
X81285714Y-96264342D02*
X81285714Y-96073866D01*
X81285714Y-96073866D02*
X81238095Y-95978628D01*
X81238095Y-95978628D02*
X81190476Y-95931009D01*
X81190476Y-95931009D02*
X81095238Y-95883390D01*
X76609580Y-104166666D02*
X76657200Y-104214285D01*
X76657200Y-104214285D02*
X76704819Y-104357142D01*
X76704819Y-104357142D02*
X76704819Y-104452380D01*
X76704819Y-104452380D02*
X76657200Y-104595237D01*
X76657200Y-104595237D02*
X76561961Y-104690475D01*
X76561961Y-104690475D02*
X76466723Y-104738094D01*
X76466723Y-104738094D02*
X76276247Y-104785713D01*
X76276247Y-104785713D02*
X76133390Y-104785713D01*
X76133390Y-104785713D02*
X75942914Y-104738094D01*
X75942914Y-104738094D02*
X75847676Y-104690475D01*
X75847676Y-104690475D02*
X75752438Y-104595237D01*
X75752438Y-104595237D02*
X75704819Y-104452380D01*
X75704819Y-104452380D02*
X75704819Y-104357142D01*
X75704819Y-104357142D02*
X75752438Y-104214285D01*
X75752438Y-104214285D02*
X75800057Y-104166666D01*
X75704819Y-103261904D02*
X75704819Y-103738094D01*
X75704819Y-103738094D02*
X76181009Y-103785713D01*
X76181009Y-103785713D02*
X76133390Y-103738094D01*
X76133390Y-103738094D02*
X76085771Y-103642856D01*
X76085771Y-103642856D02*
X76085771Y-103404761D01*
X76085771Y-103404761D02*
X76133390Y-103309523D01*
X76133390Y-103309523D02*
X76181009Y-103261904D01*
X76181009Y-103261904D02*
X76276247Y-103214285D01*
X76276247Y-103214285D02*
X76514342Y-103214285D01*
X76514342Y-103214285D02*
X76609580Y-103261904D01*
X76609580Y-103261904D02*
X76657200Y-103309523D01*
X76657200Y-103309523D02*
X76704819Y-103404761D01*
X76704819Y-103404761D02*
X76704819Y-103642856D01*
X76704819Y-103642856D02*
X76657200Y-103738094D01*
X76657200Y-103738094D02*
X76609580Y-103785713D01*
X87013095Y-113204819D02*
X87013095Y-114014342D01*
X87013095Y-114014342D02*
X87060714Y-114109580D01*
X87060714Y-114109580D02*
X87108333Y-114157200D01*
X87108333Y-114157200D02*
X87203571Y-114204819D01*
X87203571Y-114204819D02*
X87394047Y-114204819D01*
X87394047Y-114204819D02*
X87489285Y-114157200D01*
X87489285Y-114157200D02*
X87536904Y-114109580D01*
X87536904Y-114109580D02*
X87584523Y-114014342D01*
X87584523Y-114014342D02*
X87584523Y-113204819D01*
X88584523Y-114204819D02*
X88013095Y-114204819D01*
X88298809Y-114204819D02*
X88298809Y-113204819D01*
X88298809Y-113204819D02*
X88203571Y-113347676D01*
X88203571Y-113347676D02*
X88108333Y-113442914D01*
X88108333Y-113442914D02*
X88013095Y-113490533D01*
X92704819Y-99166666D02*
X92228628Y-99499999D01*
X92704819Y-99738094D02*
X91704819Y-99738094D01*
X91704819Y-99738094D02*
X91704819Y-99357142D01*
X91704819Y-99357142D02*
X91752438Y-99261904D01*
X91752438Y-99261904D02*
X91800057Y-99214285D01*
X91800057Y-99214285D02*
X91895295Y-99166666D01*
X91895295Y-99166666D02*
X92038152Y-99166666D01*
X92038152Y-99166666D02*
X92133390Y-99214285D01*
X92133390Y-99214285D02*
X92181009Y-99261904D01*
X92181009Y-99261904D02*
X92228628Y-99357142D01*
X92228628Y-99357142D02*
X92228628Y-99738094D01*
X91704819Y-98833332D02*
X91704819Y-98214285D01*
X91704819Y-98214285D02*
X92085771Y-98547618D01*
X92085771Y-98547618D02*
X92085771Y-98404761D01*
X92085771Y-98404761D02*
X92133390Y-98309523D01*
X92133390Y-98309523D02*
X92181009Y-98261904D01*
X92181009Y-98261904D02*
X92276247Y-98214285D01*
X92276247Y-98214285D02*
X92514342Y-98214285D01*
X92514342Y-98214285D02*
X92609580Y-98261904D01*
X92609580Y-98261904D02*
X92657200Y-98309523D01*
X92657200Y-98309523D02*
X92704819Y-98404761D01*
X92704819Y-98404761D02*
X92704819Y-98690475D01*
X92704819Y-98690475D02*
X92657200Y-98785713D01*
X92657200Y-98785713D02*
X92609580Y-98833332D01*
X90083333Y-125359580D02*
X90035714Y-125407200D01*
X90035714Y-125407200D02*
X89892857Y-125454819D01*
X89892857Y-125454819D02*
X89797619Y-125454819D01*
X89797619Y-125454819D02*
X89654762Y-125407200D01*
X89654762Y-125407200D02*
X89559524Y-125311961D01*
X89559524Y-125311961D02*
X89511905Y-125216723D01*
X89511905Y-125216723D02*
X89464286Y-125026247D01*
X89464286Y-125026247D02*
X89464286Y-124883390D01*
X89464286Y-124883390D02*
X89511905Y-124692914D01*
X89511905Y-124692914D02*
X89559524Y-124597676D01*
X89559524Y-124597676D02*
X89654762Y-124502438D01*
X89654762Y-124502438D02*
X89797619Y-124454819D01*
X89797619Y-124454819D02*
X89892857Y-124454819D01*
X89892857Y-124454819D02*
X90035714Y-124502438D01*
X90035714Y-124502438D02*
X90083333Y-124550057D01*
X90416667Y-124454819D02*
X91035714Y-124454819D01*
X91035714Y-124454819D02*
X90702381Y-124835771D01*
X90702381Y-124835771D02*
X90845238Y-124835771D01*
X90845238Y-124835771D02*
X90940476Y-124883390D01*
X90940476Y-124883390D02*
X90988095Y-124931009D01*
X90988095Y-124931009D02*
X91035714Y-125026247D01*
X91035714Y-125026247D02*
X91035714Y-125264342D01*
X91035714Y-125264342D02*
X90988095Y-125359580D01*
X90988095Y-125359580D02*
X90940476Y-125407200D01*
X90940476Y-125407200D02*
X90845238Y-125454819D01*
X90845238Y-125454819D02*
X90559524Y-125454819D01*
X90559524Y-125454819D02*
X90464286Y-125407200D01*
X90464286Y-125407200D02*
X90416667Y-125359580D01*
X80454819Y-90261904D02*
X81264342Y-90261904D01*
X81264342Y-90261904D02*
X81359580Y-90214285D01*
X81359580Y-90214285D02*
X81407200Y-90166666D01*
X81407200Y-90166666D02*
X81454819Y-90071428D01*
X81454819Y-90071428D02*
X81454819Y-89880952D01*
X81454819Y-89880952D02*
X81407200Y-89785714D01*
X81407200Y-89785714D02*
X81359580Y-89738095D01*
X81359580Y-89738095D02*
X81264342Y-89690476D01*
X81264342Y-89690476D02*
X80454819Y-89690476D01*
X80454819Y-89309523D02*
X80454819Y-88690476D01*
X80454819Y-88690476D02*
X80835771Y-89023809D01*
X80835771Y-89023809D02*
X80835771Y-88880952D01*
X80835771Y-88880952D02*
X80883390Y-88785714D01*
X80883390Y-88785714D02*
X80931009Y-88738095D01*
X80931009Y-88738095D02*
X81026247Y-88690476D01*
X81026247Y-88690476D02*
X81264342Y-88690476D01*
X81264342Y-88690476D02*
X81359580Y-88738095D01*
X81359580Y-88738095D02*
X81407200Y-88785714D01*
X81407200Y-88785714D02*
X81454819Y-88880952D01*
X81454819Y-88880952D02*
X81454819Y-89166666D01*
X81454819Y-89166666D02*
X81407200Y-89261904D01*
X81407200Y-89261904D02*
X81359580Y-89309523D01*
X83069642Y-87109580D02*
X83022023Y-87157200D01*
X83022023Y-87157200D02*
X82879166Y-87204819D01*
X82879166Y-87204819D02*
X82783928Y-87204819D01*
X82783928Y-87204819D02*
X82641071Y-87157200D01*
X82641071Y-87157200D02*
X82545833Y-87061961D01*
X82545833Y-87061961D02*
X82498214Y-86966723D01*
X82498214Y-86966723D02*
X82450595Y-86776247D01*
X82450595Y-86776247D02*
X82450595Y-86633390D01*
X82450595Y-86633390D02*
X82498214Y-86442914D01*
X82498214Y-86442914D02*
X82545833Y-86347676D01*
X82545833Y-86347676D02*
X82641071Y-86252438D01*
X82641071Y-86252438D02*
X82783928Y-86204819D01*
X82783928Y-86204819D02*
X82879166Y-86204819D01*
X82879166Y-86204819D02*
X83022023Y-86252438D01*
X83022023Y-86252438D02*
X83069642Y-86300057D01*
X84022023Y-87204819D02*
X83450595Y-87204819D01*
X83736309Y-87204819D02*
X83736309Y-86204819D01*
X83736309Y-86204819D02*
X83641071Y-86347676D01*
X83641071Y-86347676D02*
X83545833Y-86442914D01*
X83545833Y-86442914D02*
X83450595Y-86490533D01*
X84402976Y-86300057D02*
X84450595Y-86252438D01*
X84450595Y-86252438D02*
X84545833Y-86204819D01*
X84545833Y-86204819D02*
X84783928Y-86204819D01*
X84783928Y-86204819D02*
X84879166Y-86252438D01*
X84879166Y-86252438D02*
X84926785Y-86300057D01*
X84926785Y-86300057D02*
X84974404Y-86395295D01*
X84974404Y-86395295D02*
X84974404Y-86490533D01*
X84974404Y-86490533D02*
X84926785Y-86633390D01*
X84926785Y-86633390D02*
X84355357Y-87204819D01*
X84355357Y-87204819D02*
X84974404Y-87204819D01*
X102333333Y-121704819D02*
X102000000Y-121228628D01*
X101761905Y-121704819D02*
X101761905Y-120704819D01*
X101761905Y-120704819D02*
X102142857Y-120704819D01*
X102142857Y-120704819D02*
X102238095Y-120752438D01*
X102238095Y-120752438D02*
X102285714Y-120800057D01*
X102285714Y-120800057D02*
X102333333Y-120895295D01*
X102333333Y-120895295D02*
X102333333Y-121038152D01*
X102333333Y-121038152D02*
X102285714Y-121133390D01*
X102285714Y-121133390D02*
X102238095Y-121181009D01*
X102238095Y-121181009D02*
X102142857Y-121228628D01*
X102142857Y-121228628D02*
X101761905Y-121228628D01*
X103190476Y-121038152D02*
X103190476Y-121704819D01*
X102952381Y-120657200D02*
X102714286Y-121371485D01*
X102714286Y-121371485D02*
X103333333Y-121371485D01*
X102333333Y-123954819D02*
X102000000Y-123478628D01*
X101761905Y-123954819D02*
X101761905Y-122954819D01*
X101761905Y-122954819D02*
X102142857Y-122954819D01*
X102142857Y-122954819D02*
X102238095Y-123002438D01*
X102238095Y-123002438D02*
X102285714Y-123050057D01*
X102285714Y-123050057D02*
X102333333Y-123145295D01*
X102333333Y-123145295D02*
X102333333Y-123288152D01*
X102333333Y-123288152D02*
X102285714Y-123383390D01*
X102285714Y-123383390D02*
X102238095Y-123431009D01*
X102238095Y-123431009D02*
X102142857Y-123478628D01*
X102142857Y-123478628D02*
X101761905Y-123478628D01*
X103238095Y-122954819D02*
X102761905Y-122954819D01*
X102761905Y-122954819D02*
X102714286Y-123431009D01*
X102714286Y-123431009D02*
X102761905Y-123383390D01*
X102761905Y-123383390D02*
X102857143Y-123335771D01*
X102857143Y-123335771D02*
X103095238Y-123335771D01*
X103095238Y-123335771D02*
X103190476Y-123383390D01*
X103190476Y-123383390D02*
X103238095Y-123431009D01*
X103238095Y-123431009D02*
X103285714Y-123526247D01*
X103285714Y-123526247D02*
X103285714Y-123764342D01*
X103285714Y-123764342D02*
X103238095Y-123859580D01*
X103238095Y-123859580D02*
X103190476Y-123907200D01*
X103190476Y-123907200D02*
X103095238Y-123954819D01*
X103095238Y-123954819D02*
X102857143Y-123954819D01*
X102857143Y-123954819D02*
X102761905Y-123907200D01*
X102761905Y-123907200D02*
X102714286Y-123859580D01*
X92559523Y-127704819D02*
X92559523Y-126704819D01*
X93035713Y-127038152D02*
X93035713Y-127704819D01*
X93035713Y-127133390D02*
X93083332Y-127085771D01*
X93083332Y-127085771D02*
X93178570Y-127038152D01*
X93178570Y-127038152D02*
X93321427Y-127038152D01*
X93321427Y-127038152D02*
X93416665Y-127085771D01*
X93416665Y-127085771D02*
X93464284Y-127181009D01*
X93464284Y-127181009D02*
X93464284Y-127704819D01*
X93940475Y-127038152D02*
X93940475Y-128038152D01*
X93940475Y-127085771D02*
X94035713Y-127038152D01*
X94035713Y-127038152D02*
X94226189Y-127038152D01*
X94226189Y-127038152D02*
X94321427Y-127085771D01*
X94321427Y-127085771D02*
X94369046Y-127133390D01*
X94369046Y-127133390D02*
X94416665Y-127228628D01*
X94416665Y-127228628D02*
X94416665Y-127514342D01*
X94416665Y-127514342D02*
X94369046Y-127609580D01*
X94369046Y-127609580D02*
X94321427Y-127657200D01*
X94321427Y-127657200D02*
X94226189Y-127704819D01*
X94226189Y-127704819D02*
X94035713Y-127704819D01*
X94035713Y-127704819D02*
X93940475Y-127657200D01*
X95273808Y-127038152D02*
X95273808Y-127704819D01*
X94845237Y-127038152D02*
X94845237Y-127561961D01*
X94845237Y-127561961D02*
X94892856Y-127657200D01*
X94892856Y-127657200D02*
X94988094Y-127704819D01*
X94988094Y-127704819D02*
X95130951Y-127704819D01*
X95130951Y-127704819D02*
X95226189Y-127657200D01*
X95226189Y-127657200D02*
X95273808Y-127609580D01*
X95607142Y-127038152D02*
X95988094Y-127038152D01*
X95749999Y-126704819D02*
X95749999Y-127561961D01*
X95749999Y-127561961D02*
X95797618Y-127657200D01*
X95797618Y-127657200D02*
X95892856Y-127704819D01*
X95892856Y-127704819D02*
X95988094Y-127704819D01*
X97083333Y-127038152D02*
X97083333Y-128038152D01*
X97083333Y-127085771D02*
X97178571Y-127038152D01*
X97178571Y-127038152D02*
X97369047Y-127038152D01*
X97369047Y-127038152D02*
X97464285Y-127085771D01*
X97464285Y-127085771D02*
X97511904Y-127133390D01*
X97511904Y-127133390D02*
X97559523Y-127228628D01*
X97559523Y-127228628D02*
X97559523Y-127514342D01*
X97559523Y-127514342D02*
X97511904Y-127609580D01*
X97511904Y-127609580D02*
X97464285Y-127657200D01*
X97464285Y-127657200D02*
X97369047Y-127704819D01*
X97369047Y-127704819D02*
X97178571Y-127704819D01*
X97178571Y-127704819D02*
X97083333Y-127657200D01*
X98130952Y-127704819D02*
X98035714Y-127657200D01*
X98035714Y-127657200D02*
X97988095Y-127609580D01*
X97988095Y-127609580D02*
X97940476Y-127514342D01*
X97940476Y-127514342D02*
X97940476Y-127228628D01*
X97940476Y-127228628D02*
X97988095Y-127133390D01*
X97988095Y-127133390D02*
X98035714Y-127085771D01*
X98035714Y-127085771D02*
X98130952Y-127038152D01*
X98130952Y-127038152D02*
X98273809Y-127038152D01*
X98273809Y-127038152D02*
X98369047Y-127085771D01*
X98369047Y-127085771D02*
X98416666Y-127133390D01*
X98416666Y-127133390D02*
X98464285Y-127228628D01*
X98464285Y-127228628D02*
X98464285Y-127514342D01*
X98464285Y-127514342D02*
X98416666Y-127609580D01*
X98416666Y-127609580D02*
X98369047Y-127657200D01*
X98369047Y-127657200D02*
X98273809Y-127704819D01*
X98273809Y-127704819D02*
X98130952Y-127704819D01*
X98797619Y-127038152D02*
X98988095Y-127704819D01*
X98988095Y-127704819D02*
X99178571Y-127228628D01*
X99178571Y-127228628D02*
X99369047Y-127704819D01*
X99369047Y-127704819D02*
X99559523Y-127038152D01*
X100321428Y-127657200D02*
X100226190Y-127704819D01*
X100226190Y-127704819D02*
X100035714Y-127704819D01*
X100035714Y-127704819D02*
X99940476Y-127657200D01*
X99940476Y-127657200D02*
X99892857Y-127561961D01*
X99892857Y-127561961D02*
X99892857Y-127181009D01*
X99892857Y-127181009D02*
X99940476Y-127085771D01*
X99940476Y-127085771D02*
X100035714Y-127038152D01*
X100035714Y-127038152D02*
X100226190Y-127038152D01*
X100226190Y-127038152D02*
X100321428Y-127085771D01*
X100321428Y-127085771D02*
X100369047Y-127181009D01*
X100369047Y-127181009D02*
X100369047Y-127276247D01*
X100369047Y-127276247D02*
X99892857Y-127371485D01*
X100797619Y-127704819D02*
X100797619Y-127038152D01*
X100797619Y-127228628D02*
X100845238Y-127133390D01*
X100845238Y-127133390D02*
X100892857Y-127085771D01*
X100892857Y-127085771D02*
X100988095Y-127038152D01*
X100988095Y-127038152D02*
X101083333Y-127038152D01*
X101204819Y-102086904D02*
X102014342Y-102086904D01*
X102014342Y-102086904D02*
X102109580Y-102039285D01*
X102109580Y-102039285D02*
X102157200Y-101991666D01*
X102157200Y-101991666D02*
X102204819Y-101896428D01*
X102204819Y-101896428D02*
X102204819Y-101705952D01*
X102204819Y-101705952D02*
X102157200Y-101610714D01*
X102157200Y-101610714D02*
X102109580Y-101563095D01*
X102109580Y-101563095D02*
X102014342Y-101515476D01*
X102014342Y-101515476D02*
X101204819Y-101515476D01*
X101633390Y-100896428D02*
X101585771Y-100991666D01*
X101585771Y-100991666D02*
X101538152Y-101039285D01*
X101538152Y-101039285D02*
X101442914Y-101086904D01*
X101442914Y-101086904D02*
X101395295Y-101086904D01*
X101395295Y-101086904D02*
X101300057Y-101039285D01*
X101300057Y-101039285D02*
X101252438Y-100991666D01*
X101252438Y-100991666D02*
X101204819Y-100896428D01*
X101204819Y-100896428D02*
X101204819Y-100705952D01*
X101204819Y-100705952D02*
X101252438Y-100610714D01*
X101252438Y-100610714D02*
X101300057Y-100563095D01*
X101300057Y-100563095D02*
X101395295Y-100515476D01*
X101395295Y-100515476D02*
X101442914Y-100515476D01*
X101442914Y-100515476D02*
X101538152Y-100563095D01*
X101538152Y-100563095D02*
X101585771Y-100610714D01*
X101585771Y-100610714D02*
X101633390Y-100705952D01*
X101633390Y-100705952D02*
X101633390Y-100896428D01*
X101633390Y-100896428D02*
X101681009Y-100991666D01*
X101681009Y-100991666D02*
X101728628Y-101039285D01*
X101728628Y-101039285D02*
X101823866Y-101086904D01*
X101823866Y-101086904D02*
X102014342Y-101086904D01*
X102014342Y-101086904D02*
X102109580Y-101039285D01*
X102109580Y-101039285D02*
X102157200Y-100991666D01*
X102157200Y-100991666D02*
X102204819Y-100896428D01*
X102204819Y-100896428D02*
X102204819Y-100705952D01*
X102204819Y-100705952D02*
X102157200Y-100610714D01*
X102157200Y-100610714D02*
X102109580Y-100563095D01*
X102109580Y-100563095D02*
X102014342Y-100515476D01*
X102014342Y-100515476D02*
X101823866Y-100515476D01*
X101823866Y-100515476D02*
X101728628Y-100563095D01*
X101728628Y-100563095D02*
X101681009Y-100610714D01*
X101681009Y-100610714D02*
X101633390Y-100705952D01*
X76083333Y-132859580D02*
X76035714Y-132907200D01*
X76035714Y-132907200D02*
X75892857Y-132954819D01*
X75892857Y-132954819D02*
X75797619Y-132954819D01*
X75797619Y-132954819D02*
X75654762Y-132907200D01*
X75654762Y-132907200D02*
X75559524Y-132811961D01*
X75559524Y-132811961D02*
X75511905Y-132716723D01*
X75511905Y-132716723D02*
X75464286Y-132526247D01*
X75464286Y-132526247D02*
X75464286Y-132383390D01*
X75464286Y-132383390D02*
X75511905Y-132192914D01*
X75511905Y-132192914D02*
X75559524Y-132097676D01*
X75559524Y-132097676D02*
X75654762Y-132002438D01*
X75654762Y-132002438D02*
X75797619Y-131954819D01*
X75797619Y-131954819D02*
X75892857Y-131954819D01*
X75892857Y-131954819D02*
X76035714Y-132002438D01*
X76035714Y-132002438D02*
X76083333Y-132050057D01*
X76940476Y-132288152D02*
X76940476Y-132954819D01*
X76702381Y-131907200D02*
X76464286Y-132621485D01*
X76464286Y-132621485D02*
X77083333Y-132621485D01*
X108688095Y-126089819D02*
X108688095Y-126899342D01*
X108688095Y-126899342D02*
X108735714Y-126994580D01*
X108735714Y-126994580D02*
X108783333Y-127042200D01*
X108783333Y-127042200D02*
X108878571Y-127089819D01*
X108878571Y-127089819D02*
X109069047Y-127089819D01*
X109069047Y-127089819D02*
X109164285Y-127042200D01*
X109164285Y-127042200D02*
X109211904Y-126994580D01*
X109211904Y-126994580D02*
X109259523Y-126899342D01*
X109259523Y-126899342D02*
X109259523Y-126089819D01*
X110164285Y-126423152D02*
X110164285Y-127089819D01*
X109926190Y-126042200D02*
X109688095Y-126756485D01*
X109688095Y-126756485D02*
X110307142Y-126756485D01*
X106333333Y-125954819D02*
X106000000Y-125478628D01*
X105761905Y-125954819D02*
X105761905Y-124954819D01*
X105761905Y-124954819D02*
X106142857Y-124954819D01*
X106142857Y-124954819D02*
X106238095Y-125002438D01*
X106238095Y-125002438D02*
X106285714Y-125050057D01*
X106285714Y-125050057D02*
X106333333Y-125145295D01*
X106333333Y-125145295D02*
X106333333Y-125288152D01*
X106333333Y-125288152D02*
X106285714Y-125383390D01*
X106285714Y-125383390D02*
X106238095Y-125431009D01*
X106238095Y-125431009D02*
X106142857Y-125478628D01*
X106142857Y-125478628D02*
X105761905Y-125478628D01*
X106666667Y-124954819D02*
X107333333Y-124954819D01*
X107333333Y-124954819D02*
X106904762Y-125954819D01*
X84857142Y-83284580D02*
X84809523Y-83332200D01*
X84809523Y-83332200D02*
X84666666Y-83379819D01*
X84666666Y-83379819D02*
X84571428Y-83379819D01*
X84571428Y-83379819D02*
X84428571Y-83332200D01*
X84428571Y-83332200D02*
X84333333Y-83236961D01*
X84333333Y-83236961D02*
X84285714Y-83141723D01*
X84285714Y-83141723D02*
X84238095Y-82951247D01*
X84238095Y-82951247D02*
X84238095Y-82808390D01*
X84238095Y-82808390D02*
X84285714Y-82617914D01*
X84285714Y-82617914D02*
X84333333Y-82522676D01*
X84333333Y-82522676D02*
X84428571Y-82427438D01*
X84428571Y-82427438D02*
X84571428Y-82379819D01*
X84571428Y-82379819D02*
X84666666Y-82379819D01*
X84666666Y-82379819D02*
X84809523Y-82427438D01*
X84809523Y-82427438D02*
X84857142Y-82475057D01*
X85809523Y-83379819D02*
X85238095Y-83379819D01*
X85523809Y-83379819D02*
X85523809Y-82379819D01*
X85523809Y-82379819D02*
X85428571Y-82522676D01*
X85428571Y-82522676D02*
X85333333Y-82617914D01*
X85333333Y-82617914D02*
X85238095Y-82665533D01*
X86761904Y-83379819D02*
X86190476Y-83379819D01*
X86476190Y-83379819D02*
X86476190Y-82379819D01*
X86476190Y-82379819D02*
X86380952Y-82522676D01*
X86380952Y-82522676D02*
X86285714Y-82617914D01*
X86285714Y-82617914D02*
X86190476Y-82665533D01*
X103359580Y-134666666D02*
X103407200Y-134714285D01*
X103407200Y-134714285D02*
X103454819Y-134857142D01*
X103454819Y-134857142D02*
X103454819Y-134952380D01*
X103454819Y-134952380D02*
X103407200Y-135095237D01*
X103407200Y-135095237D02*
X103311961Y-135190475D01*
X103311961Y-135190475D02*
X103216723Y-135238094D01*
X103216723Y-135238094D02*
X103026247Y-135285713D01*
X103026247Y-135285713D02*
X102883390Y-135285713D01*
X102883390Y-135285713D02*
X102692914Y-135238094D01*
X102692914Y-135238094D02*
X102597676Y-135190475D01*
X102597676Y-135190475D02*
X102502438Y-135095237D01*
X102502438Y-135095237D02*
X102454819Y-134952380D01*
X102454819Y-134952380D02*
X102454819Y-134857142D01*
X102454819Y-134857142D02*
X102502438Y-134714285D01*
X102502438Y-134714285D02*
X102550057Y-134666666D01*
X103454819Y-133714285D02*
X103454819Y-134285713D01*
X103454819Y-133999999D02*
X102454819Y-133999999D01*
X102454819Y-133999999D02*
X102597676Y-134095237D01*
X102597676Y-134095237D02*
X102692914Y-134190475D01*
X102692914Y-134190475D02*
X102740533Y-134285713D01*
D12*
%TO.C,L1*%
X93050000Y-106250000D02*
X93050000Y-109200000D01*
X93050000Y-114800000D02*
X93050000Y-117700000D01*
X93750000Y-105600000D02*
X105250000Y-105600000D01*
X105250000Y-118400000D02*
X93750000Y-118400000D01*
X105950000Y-106300000D02*
X105950000Y-109200000D01*
X105950000Y-114800000D02*
X105950000Y-117700000D01*
X93050000Y-106300000D02*
G75*
G02*
X93750000Y-105600000I699999J1D01*
G01*
X93750000Y-118400000D02*
G75*
G02*
X93050000Y-117700000I-1J699999D01*
G01*
X105250000Y-105600000D02*
G75*
G02*
X105950000Y-106300000I0J-700000D01*
G01*
X105950000Y-117700000D02*
G75*
G02*
X105250000Y-118400000I-700000J0D01*
G01*
%TO.C,J10*%
X107550000Y-94820000D02*
X114290000Y-94820000D01*
X107550000Y-100640000D02*
X107550000Y-94820000D01*
X109270000Y-100640000D02*
X109270000Y-94820000D01*
X112370000Y-100640000D02*
X112370000Y-94820000D01*
X113370000Y-100640000D02*
X113370000Y-94820000D01*
X114290000Y-94820000D02*
X114290000Y-98700000D01*
X114290000Y-99300000D02*
X114290000Y-100640000D01*
X114290000Y-100640000D02*
X107550000Y-100640000D01*
X114900000Y-99440000D02*
X114290000Y-99000000D01*
X114900000Y-98560000D01*
X114900000Y-99440000D01*
G36*
X114900000Y-99440000D02*
G01*
X114290000Y-99000000D01*
X114900000Y-98560000D01*
X114900000Y-99440000D01*
G37*
%TO.C,J4*%
X74980000Y-80860000D02*
X81720000Y-80860000D01*
X74980000Y-82200000D02*
X74980000Y-80860000D01*
X74980000Y-86680000D02*
X74980000Y-82800000D01*
X75900000Y-80860000D02*
X75900000Y-86680000D01*
X76900000Y-80860000D02*
X76900000Y-86680000D01*
X80000000Y-80860000D02*
X80000000Y-86680000D01*
X81720000Y-80860000D02*
X81720000Y-86680000D01*
X81720000Y-86680000D02*
X74980000Y-86680000D01*
X74980000Y-82500000D02*
X74370000Y-82940000D01*
X74370000Y-82060000D01*
X74980000Y-82500000D01*
G36*
X74980000Y-82500000D02*
G01*
X74370000Y-82940000D01*
X74370000Y-82060000D01*
X74980000Y-82500000D01*
G37*
%TO.C,U7*%
X86800000Y-95640000D02*
X86800000Y-94690000D01*
X88200000Y-95640000D02*
X86800000Y-95640000D01*
X103800000Y-95640000D02*
X105200000Y-95640000D01*
X105200000Y-95640000D02*
X105200000Y-94690000D01*
X86800000Y-76690000D02*
X86300000Y-76690000D01*
X86800000Y-76190000D01*
X86800000Y-76690000D01*
G36*
X86800000Y-76690000D02*
G01*
X86300000Y-76690000D01*
X86800000Y-76190000D01*
X86800000Y-76690000D01*
G37*
%TO.C,J11*%
X107550000Y-100820000D02*
X114290000Y-100820000D01*
X107550000Y-106640000D02*
X107550000Y-100820000D01*
X109270000Y-106640000D02*
X109270000Y-100820000D01*
X112370000Y-106640000D02*
X112370000Y-100820000D01*
X113370000Y-106640000D02*
X113370000Y-100820000D01*
X114290000Y-100820000D02*
X114290000Y-104700000D01*
X114290000Y-105300000D02*
X114290000Y-106640000D01*
X114290000Y-106640000D02*
X107550000Y-106640000D01*
X114900000Y-105440000D02*
X114290000Y-105000000D01*
X114900000Y-104560000D01*
X114900000Y-105440000D01*
G36*
X114900000Y-105440000D02*
G01*
X114290000Y-105000000D01*
X114900000Y-104560000D01*
X114900000Y-105440000D01*
G37*
%TO.C,J2*%
X78560000Y-98460000D02*
X78560000Y-102090000D01*
X78625000Y-98460000D02*
X78560000Y-98460000D01*
X78625000Y-102090000D02*
X78560000Y-102090000D01*
X88875000Y-97185000D02*
X88875000Y-98460000D01*
X88940000Y-98460000D02*
X88875000Y-98460000D01*
X88940000Y-98460000D02*
X88940000Y-102090000D01*
X88940000Y-102090000D02*
X88875000Y-102090000D01*
%TO.C,U6*%
X85150000Y-105590000D02*
X88910000Y-105590000D01*
X85150000Y-112410000D02*
X88910000Y-112410000D01*
X88910000Y-105590000D02*
X88910000Y-106850000D01*
X88910000Y-112410000D02*
X88910000Y-111150000D01*
X83870000Y-105690000D02*
X83630000Y-105360000D01*
X84110000Y-105360000D01*
X83870000Y-105690000D01*
G36*
X83870000Y-105690000D02*
G01*
X83630000Y-105360000D01*
X84110000Y-105360000D01*
X83870000Y-105690000D01*
G37*
%TO.C,J3*%
X107530000Y-118860000D02*
X114270000Y-118860000D01*
X107530000Y-124680000D02*
X107530000Y-118860000D01*
X109250000Y-124680000D02*
X109250000Y-118860000D01*
X112350000Y-124680000D02*
X112350000Y-118860000D01*
X113350000Y-124680000D02*
X113350000Y-118860000D01*
X114270000Y-118860000D02*
X114270000Y-122740000D01*
X114270000Y-123340000D02*
X114270000Y-124680000D01*
X114270000Y-124680000D02*
X107530000Y-124680000D01*
X114880000Y-123480000D02*
X114270000Y-123040000D01*
X114880000Y-122600000D01*
X114880000Y-123480000D01*
G36*
X114880000Y-123480000D02*
G01*
X114270000Y-123040000D01*
X114880000Y-122600000D01*
X114880000Y-123480000D01*
G37*
%TO.C,J8*%
X107530000Y-82820000D02*
X114270000Y-82820000D01*
X107530000Y-88640000D02*
X107530000Y-82820000D01*
X109250000Y-88640000D02*
X109250000Y-82820000D01*
X112350000Y-88640000D02*
X112350000Y-82820000D01*
X113350000Y-88640000D02*
X113350000Y-82820000D01*
X114270000Y-82820000D02*
X114270000Y-86700000D01*
X114270000Y-87300000D02*
X114270000Y-88640000D01*
X114270000Y-88640000D02*
X107530000Y-88640000D01*
X114880000Y-87440000D02*
X114270000Y-87000000D01*
X114880000Y-86560000D01*
X114880000Y-87440000D01*
G36*
X114880000Y-87440000D02*
G01*
X114270000Y-87000000D01*
X114880000Y-86560000D01*
X114880000Y-87440000D01*
G37*
%TO.C,C10*%
X82515000Y-78473752D02*
X82515000Y-77951248D01*
X83985000Y-78473752D02*
X83985000Y-77951248D01*
%TO.C,C2*%
X96440000Y-127077500D02*
X98790000Y-127077500D01*
X96440000Y-132833063D02*
X96440000Y-127077500D01*
X97504437Y-133897500D02*
X96440000Y-132833063D01*
X97504437Y-133897500D02*
X98790000Y-133897500D01*
X97608750Y-134531250D02*
X98396250Y-134531250D01*
X98002500Y-134925000D02*
X98002500Y-134137500D01*
X102195563Y-133897500D02*
X100910000Y-133897500D01*
X102195563Y-133897500D02*
X103260000Y-132833063D01*
X103260000Y-127077500D02*
X100910000Y-127077500D01*
X103260000Y-132833063D02*
X103260000Y-127077500D01*
%TO.C,R1*%
X103865000Y-129007936D02*
X103865000Y-129462064D01*
X105335000Y-129007936D02*
X105335000Y-129462064D01*
%TO.C,C6*%
X90250000Y-101190000D02*
X90750000Y-101190000D01*
X90500000Y-100940000D02*
X90500000Y-101440000D01*
X90990000Y-101554437D02*
X90990000Y-101690000D01*
X90990000Y-101554437D02*
X92054437Y-100490000D01*
X90990000Y-103945563D02*
X90990000Y-103810000D01*
X90990000Y-103945563D02*
X92054437Y-105010000D01*
X92054437Y-100490000D02*
X95510000Y-100490000D01*
X92054437Y-105010000D02*
X95510000Y-105010000D01*
X95510000Y-100490000D02*
X95510000Y-101690000D01*
X95510000Y-105010000D02*
X95510000Y-103810000D01*
%TO.C,R2*%
X84515000Y-79772936D02*
X84515000Y-80227064D01*
X85985000Y-79772936D02*
X85985000Y-80227064D01*
%TO.C,D1*%
X91690000Y-119000000D02*
X100200000Y-119000000D01*
X91690000Y-125500000D02*
X91690000Y-119000000D01*
X91690000Y-125500000D02*
X100200000Y-125500000D01*
%TO.C,C7*%
X77765000Y-94011252D02*
X77765000Y-93488748D01*
X79235000Y-94011252D02*
X79235000Y-93488748D01*
%TO.C,J6*%
X75505000Y-92265000D02*
X76250000Y-92265000D01*
X75505000Y-93000000D02*
X75505000Y-92265000D01*
X75505000Y-93735000D02*
X75505000Y-95610000D01*
X75505000Y-93735000D02*
X75564435Y-93735000D01*
X75505000Y-95610000D02*
X75839970Y-95610000D01*
X76660030Y-95610000D02*
X76995000Y-95610000D01*
X76935565Y-93735000D02*
X76995000Y-93735000D01*
X76995000Y-93735000D02*
X76995000Y-95610000D01*
%TO.C,R6*%
X103727064Y-118765000D02*
X103272936Y-118765000D01*
X103727064Y-120235000D02*
X103272936Y-120235000D01*
%TO.C,C8*%
X79765000Y-94048752D02*
X79765000Y-93526248D01*
X81235000Y-94048752D02*
X81235000Y-93526248D01*
%TO.C,J13*%
X107550000Y-112820000D02*
X114290000Y-112820000D01*
X107550000Y-118640000D02*
X107550000Y-112820000D01*
X109270000Y-118640000D02*
X109270000Y-112820000D01*
X112370000Y-118640000D02*
X112370000Y-112820000D01*
X113370000Y-118640000D02*
X113370000Y-112820000D01*
X114290000Y-112820000D02*
X114290000Y-116700000D01*
X114290000Y-117300000D02*
X114290000Y-118640000D01*
X114290000Y-118640000D02*
X107550000Y-118640000D01*
X114900000Y-117440000D02*
X114290000Y-117000000D01*
X114900000Y-116560000D01*
X114900000Y-117440000D01*
G36*
X114900000Y-117440000D02*
G01*
X114290000Y-117000000D01*
X114900000Y-116560000D01*
X114900000Y-117440000D01*
G37*
%TO.C,C5*%
X75090000Y-105127500D02*
X77440000Y-105127500D01*
X75090000Y-110883063D02*
X75090000Y-105127500D01*
X76154437Y-111947500D02*
X75090000Y-110883063D01*
X76154437Y-111947500D02*
X77440000Y-111947500D01*
X80845563Y-111947500D02*
X79560000Y-111947500D01*
X80845563Y-111947500D02*
X81910000Y-110883063D01*
X81910000Y-105127500D02*
X79560000Y-105127500D01*
X81910000Y-110883063D02*
X81910000Y-105127500D01*
%TO.C,U1*%
X84810000Y-113462500D02*
X86175000Y-113462500D01*
X84810000Y-123862500D02*
X86175000Y-123862500D01*
X86175000Y-113462500D02*
X86175000Y-114412500D01*
X86175000Y-123862500D02*
X86175000Y-122912500D01*
X89340000Y-123342500D02*
X88660000Y-123342500D01*
X89000000Y-122872500D01*
X89340000Y-123342500D01*
G36*
X89340000Y-123342500D02*
G01*
X88660000Y-123342500D01*
X89000000Y-122872500D01*
X89340000Y-123342500D01*
G37*
%TO.C,R3*%
X89765000Y-98772936D02*
X89765000Y-99227064D01*
X91235000Y-98772936D02*
X91235000Y-99227064D01*
%TO.C,C3*%
X90201248Y-126015000D02*
X90723752Y-126015000D01*
X90201248Y-127485000D02*
X90723752Y-127485000D01*
%TO.C,U3*%
X76580000Y-87700000D02*
X77055000Y-87700000D01*
X76580000Y-88175000D02*
X76580000Y-87700000D01*
X76580000Y-90445000D02*
X76580000Y-90620000D01*
X77055000Y-90920000D02*
X76820000Y-90920000D01*
X79800000Y-87700000D02*
X79325000Y-87700000D01*
X79800000Y-88175000D02*
X79800000Y-87700000D01*
X79800000Y-90445000D02*
X79800000Y-90920000D01*
X79800000Y-90920000D02*
X79325000Y-90920000D01*
X76580000Y-90920000D02*
X76250000Y-91160000D01*
X76250000Y-90680000D01*
X76580000Y-90920000D01*
G36*
X76580000Y-90920000D02*
G01*
X76250000Y-91160000D01*
X76250000Y-90680000D01*
X76580000Y-90920000D01*
G37*
%TO.C,C12*%
X83738748Y-84265000D02*
X84261252Y-84265000D01*
X83738748Y-85735000D02*
X84261252Y-85735000D01*
%TO.C,R4*%
X105477064Y-120765000D02*
X105022936Y-120765000D01*
X105477064Y-122235000D02*
X105022936Y-122235000D01*
%TO.C,R5*%
X105477064Y-122765000D02*
X105022936Y-122765000D01*
X105477064Y-124235000D02*
X105022936Y-124235000D01*
%TO.C,J1*%
X90020000Y-128285000D02*
X95840000Y-128285000D01*
X90020000Y-130005000D02*
X95840000Y-130005000D01*
X90020000Y-133105000D02*
X95840000Y-133105000D01*
X90020000Y-134105000D02*
X95840000Y-134105000D01*
X90020000Y-135025000D02*
X90020000Y-128285000D01*
X91360000Y-135025000D02*
X90020000Y-135025000D01*
X95840000Y-128285000D02*
X95840000Y-135025000D01*
X95840000Y-135025000D02*
X91960000Y-135025000D01*
X92100000Y-135635000D02*
X91220000Y-135635000D01*
X91660000Y-135025000D01*
X92100000Y-135635000D01*
G36*
X92100000Y-135635000D02*
G01*
X91220000Y-135635000D01*
X91660000Y-135025000D01*
X92100000Y-135635000D01*
G37*
%TO.C,U8*%
X96765000Y-101325000D02*
X96765000Y-99375000D01*
X96765000Y-101325000D02*
X96765000Y-103275000D01*
X106885000Y-101325000D02*
X106885000Y-99375000D01*
X106885000Y-101325000D02*
X106885000Y-103275000D01*
X107160000Y-98865000D02*
X106830000Y-98625000D01*
X107160000Y-98385000D01*
X107160000Y-98865000D01*
G36*
X107160000Y-98865000D02*
G01*
X106830000Y-98625000D01*
X107160000Y-98385000D01*
X107160000Y-98865000D01*
G37*
%TO.C,J9*%
X107550000Y-88820000D02*
X114290000Y-88820000D01*
X107550000Y-94640000D02*
X107550000Y-88820000D01*
X109270000Y-94640000D02*
X109270000Y-88820000D01*
X112370000Y-94640000D02*
X112370000Y-88820000D01*
X113370000Y-94640000D02*
X113370000Y-88820000D01*
X114290000Y-88820000D02*
X114290000Y-92700000D01*
X114290000Y-93300000D02*
X114290000Y-94640000D01*
X114290000Y-94640000D02*
X107550000Y-94640000D01*
X114900000Y-93440000D02*
X114290000Y-93000000D01*
X114900000Y-92560000D01*
X114900000Y-93440000D01*
G36*
X114900000Y-93440000D02*
G01*
X114290000Y-93000000D01*
X114900000Y-92560000D01*
X114900000Y-93440000D01*
G37*
%TO.C,C4*%
X77590000Y-124677500D02*
X77590000Y-128527500D01*
X77590000Y-135397500D02*
X77590000Y-131547500D01*
X87245563Y-124677500D02*
X77590000Y-124677500D01*
X87245563Y-135397500D02*
X77590000Y-135397500D01*
X88310000Y-125741937D02*
X87245563Y-124677500D01*
X88310000Y-125741937D02*
X88310000Y-128527500D01*
X88310000Y-134333063D02*
X87245563Y-135397500D01*
X88310000Y-134333063D02*
X88310000Y-131547500D01*
X89175000Y-133422500D02*
X89175000Y-132172500D01*
X89800000Y-132797500D02*
X88550000Y-132797500D01*
D11*
%TO.C,U4*%
X107375000Y-127560000D02*
X111525000Y-127560000D01*
X107375000Y-132710000D02*
X111525000Y-132710000D01*
D12*
X106775000Y-127660000D02*
X106535000Y-127330000D01*
X107015000Y-127330000D01*
X106775000Y-127660000D01*
G36*
X106775000Y-127660000D02*
G01*
X106535000Y-127330000D01*
X107015000Y-127330000D01*
X106775000Y-127660000D01*
G37*
%TO.C,R7*%
X103727064Y-124765000D02*
X103272936Y-124765000D01*
X103727064Y-126235000D02*
X103272936Y-126235000D01*
%TO.C,C11*%
X82515000Y-81701248D02*
X82515000Y-82223752D01*
X83985000Y-81701248D02*
X83985000Y-82223752D01*
%TO.C,C1*%
X103865000Y-133283752D02*
X103865000Y-132761248D01*
X105335000Y-133283752D02*
X105335000Y-132761248D01*
%TO.C,J7*%
X107530000Y-76820000D02*
X114270000Y-76820000D01*
X107530000Y-82640000D02*
X107530000Y-76820000D01*
X109250000Y-82640000D02*
X109250000Y-76820000D01*
X112350000Y-82640000D02*
X112350000Y-76820000D01*
X113350000Y-82640000D02*
X113350000Y-76820000D01*
X114270000Y-76820000D02*
X114270000Y-80700000D01*
X114270000Y-81300000D02*
X114270000Y-82640000D01*
X114270000Y-82640000D02*
X107530000Y-82640000D01*
X114880000Y-81440000D02*
X114270000Y-81000000D01*
X114880000Y-80560000D01*
X114880000Y-81440000D01*
G36*
X114880000Y-81440000D02*
G01*
X114270000Y-81000000D01*
X114880000Y-80560000D01*
X114880000Y-81440000D01*
G37*
%TO.C,J12*%
X107530000Y-106820000D02*
X114270000Y-106820000D01*
X107530000Y-112640000D02*
X107530000Y-106820000D01*
X109250000Y-112640000D02*
X109250000Y-106820000D01*
X112350000Y-112640000D02*
X112350000Y-106820000D01*
X113350000Y-112640000D02*
X113350000Y-106820000D01*
X114270000Y-106820000D02*
X114270000Y-110700000D01*
X114270000Y-111300000D02*
X114270000Y-112640000D01*
X114270000Y-112640000D02*
X107530000Y-112640000D01*
X114880000Y-111440000D02*
X114270000Y-111000000D01*
X114880000Y-110560000D01*
X114880000Y-111440000D01*
G36*
X114880000Y-111440000D02*
G01*
X114270000Y-111000000D01*
X114880000Y-110560000D01*
X114880000Y-111440000D01*
G37*
%TD*%
M02*
