%TF.GenerationSoftware,KiCad,Pcbnew,9.0.9-9.0.9~ubuntu24.04.1*%
%TF.CreationDate,2026-07-09T08:37:03+03:00*%
%TF.ProjectId,sounddecoder-esp32-s3-wroom-2-ext,736f756e-6464-4656-936f-6465722d6573,rev?*%
%TF.SameCoordinates,Original*%
%TF.FileFunction,Copper,L4,Bot*%
%TF.FilePolarity,Positive*%
%FSLAX46Y46*%
G04 Gerber Fmt 4.6, Leading zero omitted, Abs format (unit mm)*
G04 Created by KiCad (PCBNEW 9.0.9-9.0.9~ubuntu24.04.1) date 2026-07-09 08:37:03*
%MOMM*%
%LPD*%
G01*
G04 APERTURE LIST*
G04 Aperture macros list*
%AMRoundRect*
0 Rectangle with rounded corners*
0 $1 Rounding radius*
0 $2 $3 $4 $5 $6 $7 $8 $9 X,Y pos of 4 corners*
0 Add a 4 corners polygon primitive as box body*
4,1,4,$2,$3,$4,$5,$6,$7,$8,$9,$2,$3,0*
0 Add four circle primitives for the rounded corners*
1,1,$1+$1,$2,$3*
1,1,$1+$1,$4,$5*
1,1,$1+$1,$6,$7*
1,1,$1+$1,$8,$9*
0 Add four rect primitives between the rounded corners*
20,1,$1+$1,$2,$3,$4,$5,0*
20,1,$1+$1,$4,$5,$6,$7,0*
20,1,$1+$1,$6,$7,$8,$9,0*
20,1,$1+$1,$8,$9,$2,$3,0*%
G04 Aperture macros list end*
%TA.AperFunction,ComponentPad*%
%ADD10RoundRect,0.250000X0.750000X-0.750000X0.750000X0.750000X-0.750000X0.750000X-0.750000X-0.750000X0*%
%TD*%
%TA.AperFunction,ComponentPad*%
%ADD11C,2.000000*%
%TD*%
%TA.AperFunction,ComponentPad*%
%ADD12RoundRect,0.250000X-0.750000X0.750000X-0.750000X-0.750000X0.750000X-0.750000X0.750000X0.750000X0*%
%TD*%
%TA.AperFunction,HeatsinkPad*%
%ADD13C,0.600000*%
%TD*%
%TA.AperFunction,ComponentPad*%
%ADD14R,0.850000X0.850000*%
%TD*%
%TA.AperFunction,ComponentPad*%
%ADD15C,0.850000*%
%TD*%
%TA.AperFunction,ComponentPad*%
%ADD16RoundRect,0.250000X-0.750000X-0.750000X0.750000X-0.750000X0.750000X0.750000X-0.750000X0.750000X0*%
%TD*%
%TA.AperFunction,ComponentPad*%
%ADD17C,0.700000*%
%TD*%
%TA.AperFunction,SMDPad,CuDef*%
%ADD18R,2.950000X4.900000*%
%TD*%
%TA.AperFunction,ViaPad*%
%ADD19C,1.000000*%
%TD*%
%TA.AperFunction,ViaPad*%
%ADD20C,0.600000*%
%TD*%
%TA.AperFunction,ViaPad*%
%ADD21C,0.700000*%
%TD*%
%TA.AperFunction,ViaPad*%
%ADD22C,0.800000*%
%TD*%
%TA.AperFunction,Conductor*%
%ADD23C,0.800000*%
%TD*%
%TA.AperFunction,Conductor*%
%ADD24C,0.600000*%
%TD*%
%TA.AperFunction,Conductor*%
%ADD25C,0.203200*%
%TD*%
G04 APERTURE END LIST*
D10*
%TO.P,J10,1,Pin_1*%
%TO.N,+5V*%
X110770000Y-99000000D03*
D11*
%TO.P,J10,2,Pin_2*%
%TO.N,Net-(J10-Pin_2)*%
X110770000Y-96460000D03*
%TD*%
D12*
%TO.P,J4,1,Pin_1*%
%TO.N,/Sound1*%
X78500000Y-82500000D03*
D11*
%TO.P,J4,2,Pin_2*%
%TO.N,/Sound2*%
X78500000Y-85040000D03*
%TD*%
D13*
%TO.P,U7,41,GND*%
%TO.N,GND*%
X93140000Y-82030000D03*
X93140000Y-83530000D03*
X93890000Y-81280000D03*
X93890000Y-82780000D03*
X93890000Y-84280000D03*
X94640000Y-82030000D03*
X94640000Y-83530000D03*
X95390000Y-81280000D03*
X95390000Y-82780000D03*
X95390000Y-84280000D03*
X96140000Y-82030000D03*
X96140000Y-83530000D03*
%TD*%
D10*
%TO.P,J11,1,Pin_1*%
%TO.N,+5V*%
X110770000Y-105000000D03*
D11*
%TO.P,J11,2,Pin_2*%
%TO.N,Net-(J11-Pin_2)*%
X110770000Y-102460000D03*
%TD*%
D10*
%TO.P,J3,1,Pin_1*%
%TO.N,/MOTOR2*%
X110750000Y-123040000D03*
D11*
%TO.P,J3,2,Pin_2*%
%TO.N,/MOTOR1*%
X110750000Y-120500000D03*
%TD*%
D10*
%TO.P,J8,1,Pin_1*%
%TO.N,+5V*%
X110750000Y-87000000D03*
D11*
%TO.P,J8,2,Pin_2*%
%TO.N,/FwdLED*%
X110750000Y-84460000D03*
%TD*%
D14*
%TO.P,J6,1,Pin_1*%
%TO.N,GND*%
X76250000Y-93000000D03*
D15*
%TO.P,J6,2,Pin_2*%
%TO.N,/SND_GAIN*%
X76250000Y-94000000D03*
%TO.P,J6,3,Pin_3*%
%TO.N,+3.3V*%
X76250000Y-95000000D03*
%TD*%
D10*
%TO.P,J13,1,Pin_1*%
%TO.N,+5V*%
X110770000Y-117000000D03*
D11*
%TO.P,J13,2,Pin_2*%
%TO.N,Net-(J13-Pin_2)*%
X110770000Y-114460000D03*
%TD*%
D16*
%TO.P,J1,1,Pin_1*%
%TO.N,VCC*%
X91660000Y-131505000D03*
D11*
%TO.P,J1,2,Pin_2*%
%TO.N,GND*%
X94200000Y-131505000D03*
%TD*%
D10*
%TO.P,J9,1,Pin_1*%
%TO.N,+5V*%
X110770000Y-93000000D03*
D11*
%TO.P,J9,2,Pin_2*%
%TO.N,/BackLED*%
X110770000Y-90460000D03*
%TD*%
D17*
%TO.P,U4,9,GND*%
%TO.N,GND*%
X108800000Y-128185000D03*
X108800000Y-129485000D03*
X108800000Y-130785000D03*
X108800000Y-132085000D03*
D18*
X109450000Y-130135000D03*
D17*
X110100000Y-128185000D03*
X110100000Y-129485000D03*
X110100000Y-130785000D03*
X110100000Y-132085000D03*
%TD*%
D10*
%TO.P,J7,1,Pin_1*%
%TO.N,+5V*%
X110750000Y-81000000D03*
D11*
%TO.P,J7,2,Pin_2*%
%TO.N,/Smoke*%
X110750000Y-78460000D03*
%TD*%
D10*
%TO.P,J12,1,Pin_1*%
%TO.N,+5V*%
X110750000Y-111000000D03*
D11*
%TO.P,J12,2,Pin_2*%
%TO.N,Net-(J12-Pin_2)*%
X110750000Y-108460000D03*
%TD*%
D19*
%TO.N,GND*%
X87525000Y-114000000D03*
D20*
X108500000Y-126750000D03*
D21*
X81250000Y-117850000D03*
D20*
X110250000Y-126750000D03*
D21*
X81250000Y-123012500D03*
D19*
X90775000Y-114000000D03*
D21*
X76250000Y-116100000D03*
X78750000Y-121500000D03*
X83750000Y-121500000D03*
X83750000Y-123012500D03*
X81250000Y-121500000D03*
D20*
X109000000Y-133500000D03*
D21*
X78750000Y-123012500D03*
X83750000Y-116100000D03*
X78750000Y-114250000D03*
D20*
X108000000Y-133500000D03*
D21*
X76250000Y-117850000D03*
X78750000Y-119750000D03*
X78750000Y-117850000D03*
X81250000Y-114250000D03*
D19*
X77000000Y-104250000D03*
D21*
X83750000Y-119750000D03*
D20*
X110000000Y-133500000D03*
X110250000Y-125500000D03*
D21*
X81250000Y-119750000D03*
X76250000Y-114250000D03*
D20*
X111000000Y-133500000D03*
D21*
X76250000Y-121500000D03*
D19*
X83500000Y-104750000D03*
X82000000Y-106250000D03*
D21*
X83750000Y-117850000D03*
X76250000Y-119750000D03*
X78750000Y-116100000D03*
X76250000Y-123012500D03*
X83750000Y-114250000D03*
D20*
X108500000Y-125500000D03*
D21*
X81250000Y-116100000D03*
D19*
%TO.N,VCC*%
X91025000Y-123250000D03*
D20*
X85250000Y-121250000D03*
X79750000Y-104250000D03*
D22*
X86000000Y-132250000D03*
X86000000Y-127000000D03*
D20*
%TO.N,+5V*%
X106250000Y-115000000D03*
X103000000Y-110750000D03*
X104000000Y-115000000D03*
D19*
X76750000Y-111000000D03*
X80500000Y-111250000D03*
D20*
X103000000Y-113500000D03*
X79500000Y-100250000D03*
%TO.N,+3.3V*%
X85250000Y-108750000D03*
X80500000Y-96500000D03*
X90000000Y-101250000D03*
X88500000Y-108750000D03*
D22*
X88500000Y-78750000D03*
D20*
X100500000Y-108750000D03*
%TO.N,Net-(J10-Pin_2)*%
X103000000Y-105500000D03*
%TO.N,Net-(J11-Pin_2)*%
X101375000Y-105375000D03*
%TO.N,Net-(J12-Pin_2)*%
X100000000Y-105250000D03*
%TO.N,Net-(J13-Pin_2)*%
X98750000Y-105250000D03*
%TO.N,/INOUT8*%
X82750000Y-100500000D03*
X84500000Y-90000000D03*
%TO.N,/Smoke*%
X105500000Y-100500000D03*
%TO.N,/FwdLED*%
X105250000Y-101750000D03*
%TO.N,/BackLED*%
X104000000Y-102500000D03*
%TO.N,/UART-TX*%
X87750000Y-96198400D03*
X90719918Y-92219918D03*
%TO.N,/UART-RX*%
X91609959Y-92109959D03*
X86873367Y-96596552D03*
%TO.N,/INOUT7*%
X85000000Y-90750000D03*
X83500000Y-100500000D03*
%TO.N,/INOUT9*%
X84000000Y-89250000D03*
X80750000Y-104000000D03*
%TO.N,/AUDIO_OUT*%
X82801600Y-91255309D03*
X76750000Y-91500000D03*
%TO.N,/AUDIO_BCLK*%
X76703709Y-90703709D03*
X82801600Y-93920120D03*
%TO.N,/AUDIO_LRCLK*%
X75675000Y-89000000D03*
X89750000Y-92250000D03*
%TO.N,/MOTOR_IN1*%
X106000000Y-80000000D03*
X106750000Y-130250000D03*
%TO.N,/MOTOR_IN2*%
X105750000Y-129000000D03*
X91250000Y-84000000D03*
%TO.N,/INOUT4*%
X86750000Y-100500000D03*
X86000000Y-93500000D03*
%TO.N,/INOUT6*%
X85500000Y-91500000D03*
X84896800Y-99969668D03*
%TO.N,/INOUT5*%
X85500000Y-100500000D03*
X85750000Y-92250000D03*
%TO.N,/OUT3*%
X103000000Y-97500000D03*
X99250000Y-94000000D03*
%TO.N,/MOTOR_SENSE_1*%
X103500000Y-78750000D03*
X104500000Y-117750000D03*
%TO.N,/IO0*%
X92500000Y-92500000D03*
X90500000Y-97000000D03*
%TO.N,/MOTOR_SENSE_2*%
X105250000Y-122500000D03*
X93750000Y-85500000D03*
%TD*%
D23*
%TO.N,VCC*%
X85250000Y-114477207D02*
X79750000Y-108977207D01*
X79750000Y-108977207D02*
X79750000Y-104250000D01*
X85250000Y-121250000D02*
X85250000Y-114477207D01*
%TO.N,+5V*%
X78800000Y-100950000D02*
X78800000Y-108950000D01*
X79500000Y-100250000D02*
X78800000Y-100950000D01*
X78800000Y-108950000D02*
X76750000Y-111000000D01*
D24*
%TO.N,Net-(J10-Pin_2)*%
X110770000Y-96460000D02*
X109000000Y-98230000D01*
X109000000Y-98230000D02*
X109000000Y-103169340D01*
X109000000Y-103169340D02*
X106669340Y-105500000D01*
X106669340Y-105500000D02*
X103000000Y-105500000D01*
%TO.N,Net-(J11-Pin_2)*%
X106980000Y-106250000D02*
X110770000Y-102460000D01*
X101375000Y-105375000D02*
X102250000Y-106250000D01*
X102250000Y-106250000D02*
X106980000Y-106250000D01*
%TO.N,Net-(J12-Pin_2)*%
X101560660Y-107250000D02*
X109540000Y-107250000D01*
X100000000Y-105250000D02*
X100000000Y-106500000D01*
X109540000Y-107250000D02*
X110750000Y-108460000D01*
X101310660Y-107000000D02*
X101560660Y-107250000D01*
X100500000Y-107000000D02*
X101310660Y-107000000D01*
X100000000Y-106500000D02*
X100500000Y-107000000D01*
%TO.N,Net-(J13-Pin_2)*%
X101250000Y-108000000D02*
X101000000Y-107750000D01*
X110770000Y-114460000D02*
X104310000Y-108000000D01*
X100189340Y-107750000D02*
X99250000Y-106810661D01*
X99250000Y-106810661D02*
X99250000Y-105750000D01*
X99250000Y-105750000D02*
X98750000Y-105250000D01*
X104310000Y-108000000D02*
X101250000Y-108000000D01*
X101000000Y-107750000D02*
X100189340Y-107750000D01*
D25*
%TO.N,/INOUT8*%
X83750000Y-99469919D02*
X82750000Y-100469919D01*
X83750000Y-90750000D02*
X83750000Y-99469919D01*
X84500000Y-90000000D02*
X83750000Y-90750000D01*
X82750000Y-100469919D02*
X82750000Y-100500000D01*
D24*
%TO.N,/Smoke*%
X105500000Y-83710000D02*
X110750000Y-78460000D01*
X110730000Y-78250000D02*
X110770000Y-78210000D01*
X105500000Y-100500000D02*
X105500000Y-83710000D01*
%TO.N,/FwdLED*%
X106250000Y-88960000D02*
X106250000Y-100810661D01*
X110750000Y-84460000D02*
X106250000Y-88960000D01*
X106250000Y-100810661D02*
X105310661Y-101750000D01*
X105310661Y-101750000D02*
X105250000Y-101750000D01*
%TO.N,/BackLED*%
X107000000Y-101121321D02*
X105621321Y-102500000D01*
X110770000Y-90460000D02*
X107000000Y-94230000D01*
X107000000Y-94230000D02*
X107000000Y-101121321D01*
X105621321Y-102500000D02*
X104000000Y-102500000D01*
D25*
%TO.N,/UART-TX*%
X89530082Y-95969918D02*
X89793600Y-95706400D01*
X90719918Y-92781082D02*
X90719918Y-92219918D01*
X89793600Y-93707400D02*
X90719918Y-92781082D01*
X87750000Y-96198400D02*
X87978482Y-95969918D01*
X89793600Y-95706400D02*
X89793600Y-93707400D01*
X87978482Y-95969918D02*
X89530082Y-95969918D01*
%TO.N,/UART-RX*%
X86873367Y-96596552D02*
X87026815Y-96750000D01*
X90146800Y-95853200D02*
X90146800Y-93853700D01*
X90146800Y-93853700D02*
X91609959Y-92390541D01*
X91609959Y-92390541D02*
X91609959Y-92109959D01*
X89250000Y-96750000D02*
X90146800Y-95853200D01*
X87026815Y-96750000D02*
X89250000Y-96750000D01*
%TO.N,/INOUT7*%
X85000000Y-90750000D02*
X84250000Y-91500000D01*
X84250000Y-91500000D02*
X84250000Y-99750000D01*
X84250000Y-99750000D02*
X83500000Y-100500000D01*
%TO.N,/INOUT9*%
X83396800Y-99073119D02*
X83396800Y-89853200D01*
X81500000Y-103250000D02*
X81500000Y-100969919D01*
X81500000Y-100969919D02*
X83396800Y-99073119D01*
X80750000Y-104000000D02*
X81500000Y-103250000D01*
X83396800Y-89853200D02*
X84000000Y-89250000D01*
%TO.N,/AUDIO_OUT*%
X82801600Y-91255309D02*
X82796291Y-91250000D01*
X82796291Y-91250000D02*
X77000000Y-91250000D01*
X77000000Y-91250000D02*
X76750000Y-91500000D01*
%TO.N,/AUDIO_BCLK*%
X76573400Y-92323400D02*
X81204880Y-92323400D01*
X76198400Y-91209018D02*
X76198400Y-91948400D01*
X81204880Y-92323400D02*
X82801600Y-93920120D01*
X76703709Y-90703709D02*
X76198400Y-91209018D01*
X76198400Y-91948400D02*
X76573400Y-92323400D01*
%TO.N,/AUDIO_LRCLK*%
X88000000Y-85750000D02*
X81000000Y-85750000D01*
X89750000Y-92250000D02*
X89750000Y-87500000D01*
X81000000Y-85750000D02*
X77750000Y-89000000D01*
X89750000Y-87500000D02*
X88000000Y-85750000D01*
X77750000Y-89000000D02*
X75675000Y-89000000D01*
%TO.N,/MOTOR_IN1*%
X109791600Y-77208400D02*
X111268430Y-77208400D01*
X113000000Y-118250000D02*
X112500000Y-118750000D01*
X113000000Y-78939970D02*
X113000000Y-118250000D01*
X111268430Y-77208400D02*
X113000000Y-78939970D01*
X106000000Y-80000000D02*
X107000000Y-80000000D01*
X112500000Y-118750000D02*
X107000000Y-118750000D01*
X107000000Y-118750000D02*
X106750000Y-119000000D01*
X107000000Y-80000000D02*
X109791600Y-77208400D01*
X106750000Y-119000000D02*
X106750000Y-130250000D01*
%TO.N,/MOTOR_IN2*%
X96750000Y-89500000D02*
X96750000Y-119000000D01*
X91250000Y-84000000D02*
X96750000Y-89500000D01*
X105750000Y-128000000D02*
X105750000Y-129000000D01*
X96750000Y-119000000D02*
X105750000Y-128000000D01*
%TO.N,/INOUT4*%
X86000000Y-99750000D02*
X86750000Y-100500000D01*
X86000000Y-93500000D02*
X86000000Y-99750000D01*
%TO.N,/INOUT6*%
X85500000Y-91500000D02*
X84896800Y-92103200D01*
X84896800Y-92103200D02*
X84896800Y-99969668D01*
%TO.N,/INOUT5*%
X85448400Y-100448400D02*
X85500000Y-100500000D01*
X85750000Y-92250000D02*
X85448400Y-92551600D01*
X85448400Y-92551600D02*
X85448400Y-100448400D01*
%TO.N,/OUT3*%
X103000000Y-97500000D02*
X102750000Y-97500000D01*
X102750000Y-97500000D02*
X99250000Y-94000000D01*
%TO.N,/MOTOR_SENSE_1*%
X104500000Y-117750000D02*
X98198400Y-111448400D01*
X98198400Y-111448400D02*
X98198400Y-84051600D01*
X98198400Y-84051600D02*
X103500000Y-78750000D01*
%TO.N,/IO0*%
X92500000Y-92500000D02*
X92000000Y-92500000D01*
X90500000Y-94000000D02*
X90500000Y-97000000D01*
X92000000Y-92500000D02*
X90500000Y-94000000D01*
%TO.N,/MOTOR_SENSE_2*%
X97103200Y-88853200D02*
X93750000Y-85500000D01*
X105250000Y-122500000D02*
X97103200Y-114353200D01*
X97103200Y-114353200D02*
X97103200Y-88853200D01*
%TD*%
%TA.AperFunction,Conductor*%
%TO.N,GND*%
G36*
X114317539Y-76520185D02*
G01*
X114363294Y-76572989D01*
X114374500Y-76624500D01*
X114374500Y-135125500D01*
X114354815Y-135192539D01*
X114302011Y-135238294D01*
X114250500Y-135249500D01*
X75499500Y-135249500D01*
X75432461Y-135229815D01*
X75386706Y-135177011D01*
X75375500Y-135125500D01*
X75375500Y-132318995D01*
X85299499Y-132318995D01*
X85326418Y-132454322D01*
X85326421Y-132454332D01*
X85379221Y-132581804D01*
X85379228Y-132581817D01*
X85455885Y-132696541D01*
X85455888Y-132696545D01*
X85553454Y-132794111D01*
X85553458Y-132794114D01*
X85668182Y-132870771D01*
X85668195Y-132870778D01*
X85795667Y-132923578D01*
X85795672Y-132923580D01*
X85795676Y-132923580D01*
X85795677Y-132923581D01*
X85931004Y-132950500D01*
X85931007Y-132950500D01*
X86068995Y-132950500D01*
X86160041Y-132932389D01*
X86204328Y-132923580D01*
X86331811Y-132870775D01*
X86446542Y-132794114D01*
X86544114Y-132696542D01*
X86620775Y-132581811D01*
X86673580Y-132454328D01*
X86700500Y-132318993D01*
X86700500Y-132181007D01*
X86700500Y-132181004D01*
X86673581Y-132045677D01*
X86673580Y-132045676D01*
X86673580Y-132045672D01*
X86673578Y-132045667D01*
X86620778Y-131918195D01*
X86620771Y-131918182D01*
X86544114Y-131803458D01*
X86544111Y-131803454D01*
X86446545Y-131705888D01*
X86446541Y-131705885D01*
X86331817Y-131629228D01*
X86331804Y-131629221D01*
X86204332Y-131576421D01*
X86204322Y-131576418D01*
X86068995Y-131549500D01*
X86068993Y-131549500D01*
X85931007Y-131549500D01*
X85931005Y-131549500D01*
X85795677Y-131576418D01*
X85795667Y-131576421D01*
X85668195Y-131629221D01*
X85668182Y-131629228D01*
X85553458Y-131705885D01*
X85553454Y-131705888D01*
X85455888Y-131803454D01*
X85455885Y-131803458D01*
X85379228Y-131918182D01*
X85379221Y-131918195D01*
X85326421Y-132045667D01*
X85326418Y-132045677D01*
X85299500Y-132181004D01*
X85299500Y-132181007D01*
X85299500Y-132318993D01*
X85299500Y-132318995D01*
X85299499Y-132318995D01*
X75375500Y-132318995D01*
X75375500Y-130711898D01*
X90359500Y-130711898D01*
X90359500Y-132298102D01*
X90362009Y-132318993D01*
X90370122Y-132386561D01*
X90425639Y-132527343D01*
X90517077Y-132647922D01*
X90637656Y-132739360D01*
X90637657Y-132739360D01*
X90637658Y-132739361D01*
X90778436Y-132794877D01*
X90866898Y-132805500D01*
X90866903Y-132805500D01*
X92453097Y-132805500D01*
X92453102Y-132805500D01*
X92541564Y-132794877D01*
X92682342Y-132739361D01*
X92802922Y-132647922D01*
X92894361Y-132527342D01*
X92949877Y-132386564D01*
X92960500Y-132298102D01*
X92960500Y-130711898D01*
X92949877Y-130623436D01*
X92894361Y-130482658D01*
X92894360Y-130482657D01*
X92894360Y-130482656D01*
X92802922Y-130362077D01*
X92682343Y-130270639D01*
X92541561Y-130215122D01*
X92495926Y-130209642D01*
X92453102Y-130204500D01*
X90866898Y-130204500D01*
X90827853Y-130209188D01*
X90778438Y-130215122D01*
X90637656Y-130270639D01*
X90517077Y-130362077D01*
X90425639Y-130482656D01*
X90370122Y-130623438D01*
X90364188Y-130672853D01*
X90359500Y-130711898D01*
X75375500Y-130711898D01*
X75375500Y-127068995D01*
X85299499Y-127068995D01*
X85326418Y-127204322D01*
X85326421Y-127204332D01*
X85379221Y-127331804D01*
X85379228Y-127331817D01*
X85455885Y-127446541D01*
X85455888Y-127446545D01*
X85553454Y-127544111D01*
X85553458Y-127544114D01*
X85668182Y-127620771D01*
X85668195Y-127620778D01*
X85795667Y-127673578D01*
X85795672Y-127673580D01*
X85795676Y-127673580D01*
X85795677Y-127673581D01*
X85931004Y-127700500D01*
X85931007Y-127700500D01*
X86068995Y-127700500D01*
X86160041Y-127682389D01*
X86204328Y-127673580D01*
X86331811Y-127620775D01*
X86446542Y-127544114D01*
X86544114Y-127446542D01*
X86620775Y-127331811D01*
X86673580Y-127204328D01*
X86700500Y-127068993D01*
X86700500Y-126931007D01*
X86700500Y-126931004D01*
X86673581Y-126795677D01*
X86673580Y-126795676D01*
X86673580Y-126795672D01*
X86673578Y-126795667D01*
X86620778Y-126668195D01*
X86620771Y-126668182D01*
X86544114Y-126553458D01*
X86544111Y-126553454D01*
X86446545Y-126455888D01*
X86446541Y-126455885D01*
X86331817Y-126379228D01*
X86331804Y-126379221D01*
X86204332Y-126326421D01*
X86204322Y-126326418D01*
X86068995Y-126299500D01*
X86068993Y-126299500D01*
X85931007Y-126299500D01*
X85931005Y-126299500D01*
X85795677Y-126326418D01*
X85795667Y-126326421D01*
X85668195Y-126379221D01*
X85668182Y-126379228D01*
X85553458Y-126455885D01*
X85553454Y-126455888D01*
X85455888Y-126553454D01*
X85455885Y-126553458D01*
X85379228Y-126668182D01*
X85379221Y-126668195D01*
X85326421Y-126795667D01*
X85326418Y-126795677D01*
X85299500Y-126931004D01*
X85299500Y-126931007D01*
X85299500Y-127068993D01*
X85299500Y-127068995D01*
X85299499Y-127068995D01*
X75375500Y-127068995D01*
X75375500Y-123171153D01*
X90224500Y-123171153D01*
X90224500Y-123328846D01*
X90255261Y-123483489D01*
X90255264Y-123483501D01*
X90315602Y-123629172D01*
X90315609Y-123629185D01*
X90403210Y-123760288D01*
X90403213Y-123760292D01*
X90514707Y-123871786D01*
X90514711Y-123871789D01*
X90645814Y-123959390D01*
X90645827Y-123959397D01*
X90791498Y-124019735D01*
X90791503Y-124019737D01*
X90946153Y-124050499D01*
X90946156Y-124050500D01*
X90946158Y-124050500D01*
X91103844Y-124050500D01*
X91103845Y-124050499D01*
X91258497Y-124019737D01*
X91404179Y-123959394D01*
X91535289Y-123871789D01*
X91646789Y-123760289D01*
X91734394Y-123629179D01*
X91794737Y-123483497D01*
X91825500Y-123328842D01*
X91825500Y-123171158D01*
X91825500Y-123171155D01*
X91825499Y-123171153D01*
X91794738Y-123016510D01*
X91794737Y-123016503D01*
X91779834Y-122980524D01*
X91734397Y-122870827D01*
X91734390Y-122870814D01*
X91646789Y-122739711D01*
X91646786Y-122739707D01*
X91535292Y-122628213D01*
X91535288Y-122628210D01*
X91404185Y-122540609D01*
X91404172Y-122540602D01*
X91258501Y-122480264D01*
X91258489Y-122480261D01*
X91103845Y-122449500D01*
X91103842Y-122449500D01*
X90946158Y-122449500D01*
X90946155Y-122449500D01*
X90791510Y-122480261D01*
X90791498Y-122480264D01*
X90645827Y-122540602D01*
X90645814Y-122540609D01*
X90514711Y-122628210D01*
X90514707Y-122628213D01*
X90403213Y-122739707D01*
X90403210Y-122739711D01*
X90315609Y-122870814D01*
X90315602Y-122870827D01*
X90255264Y-123016498D01*
X90255261Y-123016510D01*
X90224500Y-123171153D01*
X75375500Y-123171153D01*
X75375500Y-96420943D01*
X79899500Y-96420943D01*
X79899500Y-96579057D01*
X79902214Y-96589183D01*
X79940423Y-96731783D01*
X79940426Y-96731790D01*
X80019475Y-96868709D01*
X80019479Y-96868714D01*
X80019480Y-96868716D01*
X80131284Y-96980520D01*
X80131286Y-96980521D01*
X80131290Y-96980524D01*
X80198765Y-97019480D01*
X80268216Y-97059577D01*
X80420943Y-97100500D01*
X80420945Y-97100500D01*
X80579055Y-97100500D01*
X80579057Y-97100500D01*
X80731784Y-97059577D01*
X80868716Y-96980520D01*
X80980520Y-96868716D01*
X81059577Y-96731784D01*
X81100500Y-96579057D01*
X81100500Y-96420943D01*
X81059577Y-96268216D01*
X81030922Y-96218583D01*
X80980524Y-96131290D01*
X80980518Y-96131282D01*
X80868717Y-96019481D01*
X80868709Y-96019475D01*
X80731790Y-95940426D01*
X80731786Y-95940424D01*
X80731784Y-95940423D01*
X80579057Y-95899500D01*
X80420943Y-95899500D01*
X80268216Y-95940423D01*
X80268209Y-95940426D01*
X80131290Y-96019475D01*
X80131282Y-96019481D01*
X80019481Y-96131282D01*
X80019475Y-96131290D01*
X79940426Y-96268209D01*
X79940423Y-96268216D01*
X79899500Y-96420943D01*
X75375500Y-96420943D01*
X75375500Y-95405450D01*
X75395185Y-95338411D01*
X75447989Y-95292656D01*
X75517147Y-95282712D01*
X75580703Y-95311737D01*
X75602677Y-95339262D01*
X75603686Y-95338588D01*
X75686467Y-95462478D01*
X75686470Y-95462482D01*
X75787517Y-95563529D01*
X75787521Y-95563532D01*
X75906340Y-95642925D01*
X75906346Y-95642928D01*
X75906347Y-95642929D01*
X76038380Y-95697619D01*
X76038384Y-95697619D01*
X76038385Y-95697620D01*
X76178542Y-95725500D01*
X76178545Y-95725500D01*
X76321457Y-95725500D01*
X76415751Y-95706742D01*
X76461620Y-95697619D01*
X76593653Y-95642929D01*
X76712479Y-95563532D01*
X76813532Y-95462479D01*
X76892929Y-95343653D01*
X76947619Y-95211620D01*
X76956742Y-95165751D01*
X76975500Y-95071457D01*
X76975500Y-94928542D01*
X76947620Y-94788385D01*
X76947619Y-94788384D01*
X76947619Y-94788380D01*
X76892929Y-94656347D01*
X76892928Y-94656346D01*
X76892925Y-94656340D01*
X76834493Y-94568891D01*
X76813615Y-94502214D01*
X76832099Y-94434833D01*
X76834493Y-94431109D01*
X76892925Y-94343659D01*
X76892925Y-94343658D01*
X76892929Y-94343653D01*
X76947619Y-94211620D01*
X76959496Y-94151910D01*
X76975500Y-94071457D01*
X76975500Y-93928542D01*
X76947620Y-93788385D01*
X76947619Y-93788384D01*
X76947619Y-93788380D01*
X76892929Y-93656347D01*
X76892928Y-93656346D01*
X76892925Y-93656340D01*
X76813532Y-93537521D01*
X76813529Y-93537517D01*
X76712482Y-93436470D01*
X76712478Y-93436467D01*
X76593659Y-93357074D01*
X76593650Y-93357069D01*
X76461620Y-93302381D01*
X76461614Y-93302379D01*
X76321457Y-93274500D01*
X76321455Y-93274500D01*
X76178545Y-93274500D01*
X76178543Y-93274500D01*
X76038385Y-93302379D01*
X76038379Y-93302381D01*
X75906349Y-93357069D01*
X75906340Y-93357074D01*
X75787521Y-93436467D01*
X75787517Y-93436470D01*
X75686470Y-93537517D01*
X75686467Y-93537521D01*
X75603686Y-93661412D01*
X75601821Y-93660166D01*
X75559895Y-93702847D01*
X75491758Y-93718307D01*
X75426078Y-93694475D01*
X75383709Y-93638917D01*
X75375500Y-93594549D01*
X75375500Y-89703032D01*
X75395185Y-89635993D01*
X75447989Y-89590238D01*
X75517147Y-89580294D01*
X75531581Y-89583254D01*
X75595943Y-89600500D01*
X75595946Y-89600500D01*
X75754055Y-89600500D01*
X75754057Y-89600500D01*
X75906784Y-89559577D01*
X76043716Y-89480520D01*
X76085817Y-89438419D01*
X76147140Y-89404934D01*
X76173498Y-89402100D01*
X77802936Y-89402100D01*
X77802938Y-89402100D01*
X77905205Y-89374698D01*
X77996895Y-89321760D01*
X81130236Y-86188419D01*
X81191559Y-86154934D01*
X81217917Y-86152100D01*
X87782083Y-86152100D01*
X87849122Y-86171785D01*
X87869764Y-86188419D01*
X89311581Y-87630236D01*
X89345066Y-87691559D01*
X89347900Y-87717917D01*
X89347900Y-91751502D01*
X89328215Y-91818541D01*
X89311581Y-91839183D01*
X89269481Y-91881282D01*
X89269475Y-91881290D01*
X89190426Y-92018209D01*
X89190423Y-92018216D01*
X89149500Y-92170943D01*
X89149500Y-92329057D01*
X89174122Y-92420945D01*
X89190423Y-92481783D01*
X89190426Y-92481790D01*
X89269475Y-92618709D01*
X89269479Y-92618714D01*
X89269480Y-92618716D01*
X89381284Y-92730520D01*
X89381286Y-92730521D01*
X89381290Y-92730524D01*
X89489356Y-92792915D01*
X89518216Y-92809577D01*
X89670943Y-92850500D01*
X89670945Y-92850500D01*
X89782483Y-92850500D01*
X89849522Y-92870185D01*
X89895277Y-92922989D01*
X89905221Y-92992147D01*
X89876196Y-93055703D01*
X89870164Y-93062181D01*
X89471842Y-93460502D01*
X89471840Y-93460505D01*
X89418902Y-93552194D01*
X89391500Y-93654462D01*
X89391500Y-95443818D01*
X89371815Y-95510857D01*
X89319011Y-95556612D01*
X89267500Y-95567818D01*
X88031419Y-95567818D01*
X87925544Y-95567818D01*
X87829041Y-95593675D01*
X87796952Y-95597900D01*
X87670943Y-95597900D01*
X87518216Y-95638823D01*
X87518209Y-95638826D01*
X87381290Y-95717875D01*
X87381282Y-95717881D01*
X87269481Y-95829682D01*
X87269477Y-95829687D01*
X87191393Y-95964935D01*
X87140826Y-96013150D01*
X87072219Y-96026374D01*
X87051913Y-96022710D01*
X87039862Y-96019481D01*
X86952424Y-95996052D01*
X86794310Y-95996052D01*
X86641583Y-96036975D01*
X86641578Y-96036977D01*
X86588098Y-96067853D01*
X86520198Y-96084324D01*
X86454171Y-96061471D01*
X86410982Y-96006549D01*
X86402100Y-95960465D01*
X86402100Y-93998498D01*
X86421785Y-93931459D01*
X86438419Y-93910817D01*
X86480520Y-93868716D01*
X86559577Y-93731784D01*
X86600500Y-93579057D01*
X86600500Y-93420943D01*
X86559577Y-93268216D01*
X86538034Y-93230902D01*
X86480524Y-93131290D01*
X86480518Y-93131282D01*
X86368717Y-93019481D01*
X86368709Y-93019475D01*
X86231790Y-92940426D01*
X86231787Y-92940424D01*
X86231784Y-92940423D01*
X86184517Y-92927757D01*
X86124859Y-92891394D01*
X86094330Y-92828547D01*
X86102625Y-92759171D01*
X86128927Y-92720308D01*
X86230520Y-92618716D01*
X86309577Y-92481784D01*
X86350500Y-92329057D01*
X86350500Y-92170943D01*
X86309577Y-92018216D01*
X86286160Y-91977656D01*
X86230524Y-91881290D01*
X86230518Y-91881282D01*
X86114731Y-91765495D01*
X86081246Y-91704172D01*
X86082636Y-91645723D01*
X86100500Y-91579057D01*
X86100500Y-91420943D01*
X86059577Y-91268216D01*
X85994836Y-91156080D01*
X85980524Y-91131290D01*
X85980518Y-91131282D01*
X85868717Y-91019481D01*
X85868709Y-91019475D01*
X85731790Y-90940426D01*
X85731782Y-90940422D01*
X85692403Y-90929870D01*
X85632744Y-90893504D01*
X85602216Y-90830656D01*
X85600500Y-90810096D01*
X85600500Y-90670945D01*
X85600500Y-90670943D01*
X85559577Y-90518216D01*
X85532847Y-90471918D01*
X85480524Y-90381290D01*
X85480518Y-90381282D01*
X85368717Y-90269481D01*
X85368709Y-90269475D01*
X85231790Y-90190426D01*
X85231782Y-90190422D01*
X85192403Y-90179870D01*
X85132744Y-90143504D01*
X85102216Y-90080656D01*
X85100500Y-90060096D01*
X85100500Y-89920945D01*
X85100500Y-89920943D01*
X85059577Y-89768216D01*
X85030537Y-89717917D01*
X84980524Y-89631290D01*
X84980518Y-89631282D01*
X84868717Y-89519481D01*
X84868709Y-89519475D01*
X84731790Y-89440426D01*
X84731782Y-89440422D01*
X84692403Y-89429870D01*
X84632744Y-89393504D01*
X84602216Y-89330656D01*
X84600500Y-89310096D01*
X84600500Y-89170945D01*
X84600500Y-89170943D01*
X84559577Y-89018216D01*
X84559573Y-89018209D01*
X84480524Y-88881290D01*
X84480518Y-88881282D01*
X84368717Y-88769481D01*
X84368709Y-88769475D01*
X84231790Y-88690426D01*
X84231786Y-88690424D01*
X84231784Y-88690423D01*
X84079057Y-88649500D01*
X83920943Y-88649500D01*
X83768216Y-88690423D01*
X83768209Y-88690426D01*
X83631290Y-88769475D01*
X83631282Y-88769481D01*
X83519481Y-88881282D01*
X83519475Y-88881290D01*
X83440426Y-89018209D01*
X83440423Y-89018216D01*
X83399500Y-89170943D01*
X83399500Y-89230482D01*
X83379815Y-89297521D01*
X83363181Y-89318163D01*
X83149905Y-89531440D01*
X83075042Y-89606302D01*
X83075040Y-89606305D01*
X83022102Y-89697994D01*
X82994700Y-89800262D01*
X82994700Y-90530809D01*
X82975015Y-90597848D01*
X82922211Y-90643603D01*
X82870700Y-90654809D01*
X82722543Y-90654809D01*
X82569816Y-90695732D01*
X82569809Y-90695735D01*
X82432890Y-90774784D01*
X82432882Y-90774790D01*
X82396092Y-90811581D01*
X82334769Y-90845066D01*
X82308411Y-90847900D01*
X77428209Y-90847900D01*
X77361170Y-90828215D01*
X77315415Y-90775411D01*
X77304209Y-90723900D01*
X77304209Y-90624654D01*
X77304209Y-90624652D01*
X77263286Y-90471925D01*
X77263282Y-90471918D01*
X77184233Y-90334999D01*
X77184227Y-90334991D01*
X77072426Y-90223190D01*
X77072418Y-90223184D01*
X76935499Y-90144135D01*
X76935495Y-90144133D01*
X76935493Y-90144132D01*
X76782766Y-90103209D01*
X76624652Y-90103209D01*
X76471925Y-90144132D01*
X76471918Y-90144135D01*
X76334999Y-90223184D01*
X76334991Y-90223190D01*
X76223190Y-90334991D01*
X76223184Y-90334999D01*
X76144135Y-90471918D01*
X76144132Y-90471925D01*
X76103209Y-90624652D01*
X76103209Y-90684190D01*
X76083524Y-90751229D01*
X76066891Y-90771871D01*
X75951505Y-90887258D01*
X75876639Y-90962123D01*
X75823702Y-91053812D01*
X75802944Y-91131284D01*
X75796300Y-91156080D01*
X75796300Y-91895462D01*
X75796300Y-92001338D01*
X75823702Y-92103605D01*
X75876640Y-92195295D01*
X76326505Y-92645160D01*
X76418195Y-92698098D01*
X76520462Y-92725500D01*
X76626337Y-92725500D01*
X80986963Y-92725500D01*
X81054002Y-92745185D01*
X81074644Y-92761819D01*
X82164781Y-93851956D01*
X82198266Y-93913279D01*
X82201100Y-93939637D01*
X82201100Y-93999177D01*
X82239617Y-94142922D01*
X82242023Y-94151903D01*
X82242026Y-94151910D01*
X82321075Y-94288829D01*
X82321079Y-94288834D01*
X82321080Y-94288836D01*
X82432884Y-94400640D01*
X82432886Y-94400641D01*
X82432890Y-94400644D01*
X82539993Y-94462479D01*
X82569816Y-94479697D01*
X82722543Y-94520620D01*
X82722545Y-94520620D01*
X82870700Y-94520620D01*
X82937739Y-94540305D01*
X82983494Y-94593109D01*
X82994700Y-94644620D01*
X82994700Y-98855202D01*
X82975015Y-98922241D01*
X82958381Y-98942883D01*
X81178242Y-100723021D01*
X81178240Y-100723024D01*
X81125302Y-100814713D01*
X81097900Y-100916981D01*
X81097900Y-103032083D01*
X81078215Y-103099122D01*
X81061581Y-103119764D01*
X80818164Y-103363181D01*
X80756841Y-103396666D01*
X80730483Y-103399500D01*
X80670943Y-103399500D01*
X80518216Y-103440423D01*
X80518209Y-103440426D01*
X80381290Y-103519475D01*
X80381286Y-103519478D01*
X80267503Y-103633261D01*
X80206180Y-103666745D01*
X80136488Y-103661761D01*
X80110933Y-103648682D01*
X80081820Y-103629230D01*
X80081804Y-103629221D01*
X79954332Y-103576421D01*
X79954322Y-103576418D01*
X79818995Y-103549500D01*
X79818993Y-103549500D01*
X79681007Y-103549500D01*
X79648690Y-103555928D01*
X79579099Y-103549699D01*
X79523922Y-103506836D01*
X79500678Y-103440946D01*
X79500500Y-103434310D01*
X79500500Y-101291518D01*
X79520185Y-101224479D01*
X79536819Y-101203837D01*
X80044110Y-100696546D01*
X80044113Y-100696543D01*
X80120774Y-100581812D01*
X80173580Y-100454329D01*
X80200499Y-100318994D01*
X80200499Y-100181007D01*
X80173580Y-100045672D01*
X80120774Y-99918189D01*
X80120772Y-99918186D01*
X80120770Y-99918182D01*
X80044113Y-99803456D01*
X79946543Y-99705886D01*
X79831817Y-99629229D01*
X79831807Y-99629224D01*
X79704329Y-99576420D01*
X79659216Y-99567447D01*
X79568993Y-99549501D01*
X79431006Y-99549501D01*
X79363338Y-99562960D01*
X79295669Y-99576420D01*
X79168189Y-99629225D01*
X79168185Y-99629227D01*
X79053461Y-99705883D01*
X79053453Y-99705889D01*
X78255888Y-100503453D01*
X78255887Y-100503454D01*
X78179223Y-100618192D01*
X78126421Y-100745668D01*
X78126421Y-100745669D01*
X78126420Y-100745672D01*
X78112687Y-100814714D01*
X78112687Y-100814715D01*
X78099500Y-100881005D01*
X78099500Y-108608480D01*
X78079815Y-108675519D01*
X78063181Y-108696161D01*
X76555412Y-110203929D01*
X76515184Y-110230809D01*
X76370823Y-110290604D01*
X76370814Y-110290609D01*
X76239711Y-110378210D01*
X76239707Y-110378213D01*
X76128213Y-110489707D01*
X76128210Y-110489711D01*
X76040609Y-110620814D01*
X76040602Y-110620827D01*
X75980264Y-110766498D01*
X75980261Y-110766510D01*
X75949500Y-110921153D01*
X75949500Y-111078846D01*
X75980261Y-111233489D01*
X75980264Y-111233501D01*
X76040602Y-111379172D01*
X76040609Y-111379185D01*
X76128210Y-111510288D01*
X76128213Y-111510292D01*
X76239707Y-111621786D01*
X76239711Y-111621789D01*
X76370814Y-111709390D01*
X76370827Y-111709397D01*
X76516498Y-111769735D01*
X76516503Y-111769737D01*
X76633936Y-111793096D01*
X76671153Y-111800499D01*
X76671156Y-111800500D01*
X76671158Y-111800500D01*
X76828844Y-111800500D01*
X76828845Y-111800499D01*
X76983497Y-111769737D01*
X77129179Y-111709394D01*
X77260289Y-111621789D01*
X77371789Y-111510289D01*
X77459394Y-111379179D01*
X77459395Y-111379176D01*
X77459397Y-111379173D01*
X77499711Y-111281845D01*
X77519192Y-111234810D01*
X77546069Y-111194586D01*
X79173715Y-109566941D01*
X79235038Y-109533456D01*
X79304730Y-109538440D01*
X79349077Y-109566941D01*
X80135023Y-110352887D01*
X80168508Y-110414210D01*
X80163524Y-110483902D01*
X80121652Y-110539835D01*
X80116233Y-110543670D01*
X79989711Y-110628210D01*
X79989707Y-110628213D01*
X79878213Y-110739707D01*
X79878210Y-110739711D01*
X79790609Y-110870814D01*
X79790602Y-110870827D01*
X79730264Y-111016498D01*
X79730261Y-111016510D01*
X79699500Y-111171153D01*
X79699500Y-111328846D01*
X79730261Y-111483489D01*
X79730264Y-111483501D01*
X79790602Y-111629172D01*
X79790609Y-111629185D01*
X79878210Y-111760288D01*
X79878213Y-111760292D01*
X79989707Y-111871786D01*
X79989711Y-111871789D01*
X80120814Y-111959390D01*
X80120827Y-111959397D01*
X80264238Y-112018799D01*
X80266503Y-112019737D01*
X80421153Y-112050499D01*
X80421156Y-112050500D01*
X80421158Y-112050500D01*
X80578844Y-112050500D01*
X80578845Y-112050499D01*
X80733497Y-112019737D01*
X80879179Y-111959394D01*
X81010289Y-111871789D01*
X81121789Y-111760289D01*
X81206329Y-111633765D01*
X81259941Y-111588961D01*
X81329266Y-111580254D01*
X81392293Y-111610408D01*
X81397112Y-111614976D01*
X84513181Y-114731045D01*
X84546666Y-114792368D01*
X84549500Y-114818726D01*
X84549500Y-121318993D01*
X84549500Y-121318995D01*
X84549499Y-121318995D01*
X84576418Y-121454322D01*
X84576421Y-121454332D01*
X84629221Y-121581804D01*
X84629228Y-121581817D01*
X84705885Y-121696541D01*
X84705888Y-121696545D01*
X84803454Y-121794111D01*
X84803458Y-121794114D01*
X84918182Y-121870771D01*
X84918195Y-121870778D01*
X85045667Y-121923578D01*
X85045672Y-121923580D01*
X85045676Y-121923580D01*
X85045677Y-121923581D01*
X85181004Y-121950500D01*
X85181007Y-121950500D01*
X85318995Y-121950500D01*
X85410041Y-121932389D01*
X85454328Y-121923580D01*
X85581811Y-121870775D01*
X85696542Y-121794114D01*
X85794114Y-121696542D01*
X85870775Y-121581811D01*
X85923580Y-121454328D01*
X85932389Y-121410041D01*
X85950500Y-121318995D01*
X85950500Y-114408214D01*
X85945075Y-114380943D01*
X85940441Y-114357648D01*
X85923581Y-114272886D01*
X85923580Y-114272879D01*
X85887861Y-114186645D01*
X85870777Y-114145399D01*
X85794112Y-114030661D01*
X80486819Y-108723368D01*
X80458193Y-108670943D01*
X84649500Y-108670943D01*
X84649500Y-108829056D01*
X84690423Y-108981783D01*
X84690426Y-108981790D01*
X84769475Y-109118709D01*
X84769479Y-109118714D01*
X84769480Y-109118716D01*
X84881284Y-109230520D01*
X84881286Y-109230521D01*
X84881290Y-109230524D01*
X85014121Y-109307213D01*
X85018216Y-109309577D01*
X85170943Y-109350500D01*
X85170945Y-109350500D01*
X85329055Y-109350500D01*
X85329057Y-109350500D01*
X85481784Y-109309577D01*
X85618716Y-109230520D01*
X85730520Y-109118716D01*
X85809577Y-108981784D01*
X85850500Y-108829057D01*
X85850500Y-108670943D01*
X87899500Y-108670943D01*
X87899500Y-108829056D01*
X87940423Y-108981783D01*
X87940426Y-108981790D01*
X88019475Y-109118709D01*
X88019479Y-109118714D01*
X88019480Y-109118716D01*
X88131284Y-109230520D01*
X88131286Y-109230521D01*
X88131290Y-109230524D01*
X88264121Y-109307213D01*
X88268216Y-109309577D01*
X88420943Y-109350500D01*
X88420945Y-109350500D01*
X88579055Y-109350500D01*
X88579057Y-109350500D01*
X88731784Y-109309577D01*
X88868716Y-109230520D01*
X88980520Y-109118716D01*
X89059577Y-108981784D01*
X89100500Y-108829057D01*
X89100500Y-108670943D01*
X89059577Y-108518216D01*
X89026949Y-108461702D01*
X88980524Y-108381290D01*
X88980518Y-108381282D01*
X88868717Y-108269481D01*
X88868709Y-108269475D01*
X88731790Y-108190426D01*
X88731786Y-108190424D01*
X88731784Y-108190423D01*
X88579057Y-108149500D01*
X88420943Y-108149500D01*
X88268216Y-108190423D01*
X88268209Y-108190426D01*
X88131290Y-108269475D01*
X88131282Y-108269481D01*
X88019481Y-108381282D01*
X88019475Y-108381290D01*
X87940426Y-108518209D01*
X87940423Y-108518216D01*
X87899500Y-108670943D01*
X85850500Y-108670943D01*
X85809577Y-108518216D01*
X85776949Y-108461702D01*
X85730524Y-108381290D01*
X85730518Y-108381282D01*
X85618717Y-108269481D01*
X85618709Y-108269475D01*
X85481790Y-108190426D01*
X85481786Y-108190424D01*
X85481784Y-108190423D01*
X85329057Y-108149500D01*
X85170943Y-108149500D01*
X85018216Y-108190423D01*
X85018209Y-108190426D01*
X84881290Y-108269475D01*
X84881282Y-108269481D01*
X84769481Y-108381282D01*
X84769475Y-108381290D01*
X84690426Y-108518209D01*
X84690423Y-108518216D01*
X84649500Y-108670943D01*
X80458193Y-108670943D01*
X80453334Y-108662045D01*
X80450500Y-108635687D01*
X80450500Y-104703032D01*
X80470185Y-104635993D01*
X80522989Y-104590238D01*
X80592147Y-104580294D01*
X80606581Y-104583254D01*
X80670943Y-104600500D01*
X80670946Y-104600500D01*
X80829055Y-104600500D01*
X80829057Y-104600500D01*
X80981784Y-104559577D01*
X81118716Y-104480520D01*
X81230520Y-104368716D01*
X81309577Y-104231784D01*
X81350500Y-104079057D01*
X81350500Y-104019517D01*
X81370185Y-103952478D01*
X81386819Y-103931836D01*
X81593835Y-103724820D01*
X81821760Y-103496895D01*
X81874698Y-103405205D01*
X81902100Y-103302938D01*
X81902100Y-103197063D01*
X81902100Y-101187835D01*
X81907060Y-101170943D01*
X89399500Y-101170943D01*
X89399500Y-101329057D01*
X89405946Y-101353111D01*
X89440423Y-101481783D01*
X89440426Y-101481790D01*
X89519475Y-101618709D01*
X89519479Y-101618714D01*
X89519480Y-101618716D01*
X89631284Y-101730520D01*
X89631286Y-101730521D01*
X89631290Y-101730524D01*
X89709192Y-101775500D01*
X89768216Y-101809577D01*
X89920943Y-101850500D01*
X89920945Y-101850500D01*
X90079055Y-101850500D01*
X90079057Y-101850500D01*
X90231784Y-101809577D01*
X90368716Y-101730520D01*
X90480520Y-101618716D01*
X90559577Y-101481784D01*
X90600500Y-101329057D01*
X90600500Y-101170943D01*
X90559577Y-101018216D01*
X90537816Y-100980524D01*
X90480524Y-100881290D01*
X90480518Y-100881282D01*
X90368717Y-100769481D01*
X90368709Y-100769475D01*
X90231790Y-100690426D01*
X90231786Y-100690424D01*
X90231784Y-100690423D01*
X90079057Y-100649500D01*
X89920943Y-100649500D01*
X89768216Y-100690423D01*
X89768209Y-100690426D01*
X89631290Y-100769475D01*
X89631282Y-100769481D01*
X89519481Y-100881282D01*
X89519475Y-100881290D01*
X89440426Y-101018209D01*
X89440423Y-101018216D01*
X89399500Y-101170943D01*
X81907060Y-101170943D01*
X81921785Y-101120796D01*
X81938415Y-101100158D01*
X82131989Y-100906583D01*
X82193310Y-100873100D01*
X82263001Y-100878084D01*
X82307349Y-100906585D01*
X82381284Y-100980520D01*
X82381286Y-100980521D01*
X82381290Y-100980524D01*
X82475072Y-101034668D01*
X82518216Y-101059577D01*
X82670943Y-101100500D01*
X82670945Y-101100500D01*
X82829055Y-101100500D01*
X82829057Y-101100500D01*
X82981784Y-101059577D01*
X83063001Y-101012686D01*
X83130900Y-100996214D01*
X83186998Y-101012686D01*
X83268216Y-101059577D01*
X83420943Y-101100500D01*
X83420945Y-101100500D01*
X83579055Y-101100500D01*
X83579057Y-101100500D01*
X83731784Y-101059577D01*
X83868716Y-100980520D01*
X83980520Y-100868716D01*
X84059577Y-100731784D01*
X84100500Y-100579057D01*
X84100500Y-100519516D01*
X84109144Y-100490075D01*
X84115668Y-100460089D01*
X84119422Y-100455073D01*
X84120185Y-100452477D01*
X84136815Y-100431839D01*
X84235595Y-100333059D01*
X84296917Y-100299575D01*
X84366609Y-100304559D01*
X84410956Y-100333060D01*
X84416280Y-100338384D01*
X84528084Y-100450188D01*
X84528086Y-100450189D01*
X84528090Y-100450192D01*
X84620344Y-100503454D01*
X84665016Y-100529245D01*
X84817743Y-100570168D01*
X84817753Y-100570168D01*
X84817872Y-100570184D01*
X84817976Y-100570230D01*
X84825593Y-100572271D01*
X84825274Y-100573458D01*
X84881769Y-100598449D01*
X84920242Y-100656773D01*
X84921458Y-100661007D01*
X84929341Y-100690426D01*
X84940423Y-100731785D01*
X84940426Y-100731790D01*
X85019475Y-100868709D01*
X85019479Y-100868714D01*
X85019480Y-100868716D01*
X85131284Y-100980520D01*
X85131286Y-100980521D01*
X85131290Y-100980524D01*
X85225072Y-101034668D01*
X85268216Y-101059577D01*
X85420943Y-101100500D01*
X85420945Y-101100500D01*
X85579055Y-101100500D01*
X85579057Y-101100500D01*
X85731784Y-101059577D01*
X85868716Y-100980520D01*
X85980520Y-100868716D01*
X86017613Y-100804467D01*
X86068179Y-100756253D01*
X86136786Y-100743029D01*
X86201651Y-100768997D01*
X86232385Y-100804466D01*
X86269480Y-100868716D01*
X86381284Y-100980520D01*
X86381286Y-100980521D01*
X86381290Y-100980524D01*
X86475072Y-101034668D01*
X86518216Y-101059577D01*
X86670943Y-101100500D01*
X86670945Y-101100500D01*
X86829055Y-101100500D01*
X86829057Y-101100500D01*
X86981784Y-101059577D01*
X86988970Y-101055427D01*
X86988973Y-101055427D01*
X87118709Y-100980524D01*
X87118708Y-100980524D01*
X87118716Y-100980520D01*
X87230520Y-100868716D01*
X87309577Y-100731784D01*
X87350500Y-100579057D01*
X87350500Y-100420943D01*
X87309577Y-100268216D01*
X87290031Y-100234361D01*
X87230524Y-100131290D01*
X87230518Y-100131282D01*
X87118717Y-100019481D01*
X87118709Y-100019475D01*
X86981790Y-99940426D01*
X86981786Y-99940424D01*
X86981784Y-99940423D01*
X86829057Y-99899500D01*
X86829056Y-99899500D01*
X86769517Y-99899500D01*
X86702478Y-99879815D01*
X86681836Y-99863181D01*
X86438419Y-99619764D01*
X86404934Y-99558441D01*
X86402100Y-99532083D01*
X86402100Y-97232638D01*
X86421785Y-97165599D01*
X86474589Y-97119844D01*
X86543747Y-97109900D01*
X86588099Y-97125251D01*
X86641576Y-97156125D01*
X86641583Y-97156129D01*
X86794310Y-97197052D01*
X86794312Y-97197052D01*
X86952422Y-97197052D01*
X86952424Y-97197052D01*
X87104420Y-97156324D01*
X87136512Y-97152100D01*
X89302936Y-97152100D01*
X89302938Y-97152100D01*
X89405205Y-97124698D01*
X89496895Y-97071760D01*
X89687819Y-96880836D01*
X89749142Y-96847351D01*
X89818834Y-96852335D01*
X89874767Y-96894207D01*
X89899184Y-96959671D01*
X89899500Y-96968517D01*
X89899500Y-97079057D01*
X89931117Y-97197051D01*
X89940423Y-97231783D01*
X89940426Y-97231790D01*
X90019475Y-97368709D01*
X90019479Y-97368714D01*
X90019480Y-97368716D01*
X90131284Y-97480520D01*
X90131286Y-97480521D01*
X90131290Y-97480524D01*
X90255742Y-97552375D01*
X90268216Y-97559577D01*
X90420943Y-97600500D01*
X90420945Y-97600500D01*
X90579055Y-97600500D01*
X90579057Y-97600500D01*
X90731784Y-97559577D01*
X90868716Y-97480520D01*
X90980520Y-97368716D01*
X91059577Y-97231784D01*
X91100500Y-97079057D01*
X91100500Y-96920943D01*
X91059577Y-96768216D01*
X91038543Y-96731783D01*
X90980524Y-96631290D01*
X90980518Y-96631282D01*
X90938419Y-96589183D01*
X90904934Y-96527860D01*
X90902100Y-96501502D01*
X90902100Y-94217916D01*
X90921785Y-94150877D01*
X90938414Y-94130239D01*
X92036649Y-93032004D01*
X92097970Y-92998521D01*
X92167662Y-93003505D01*
X92186327Y-93012299D01*
X92198765Y-93019480D01*
X92268216Y-93059577D01*
X92420943Y-93100500D01*
X92420945Y-93100500D01*
X92579055Y-93100500D01*
X92579057Y-93100500D01*
X92731784Y-93059577D01*
X92868716Y-92980520D01*
X92980520Y-92868716D01*
X93059577Y-92731784D01*
X93100500Y-92579057D01*
X93100500Y-92420943D01*
X93059577Y-92268216D01*
X93059573Y-92268209D01*
X92980524Y-92131290D01*
X92980518Y-92131282D01*
X92868717Y-92019481D01*
X92868709Y-92019475D01*
X92731790Y-91940426D01*
X92731786Y-91940424D01*
X92731784Y-91940423D01*
X92579057Y-91899500D01*
X92420943Y-91899500D01*
X92305786Y-91930356D01*
X92235936Y-91928693D01*
X92178074Y-91889530D01*
X92166309Y-91872586D01*
X92090479Y-91741243D01*
X91978675Y-91629439D01*
X91978672Y-91629437D01*
X91978668Y-91629434D01*
X91841749Y-91550385D01*
X91841745Y-91550383D01*
X91841743Y-91550382D01*
X91689016Y-91509459D01*
X91530902Y-91509459D01*
X91378175Y-91550382D01*
X91378168Y-91550385D01*
X91241249Y-91629434D01*
X91241245Y-91629437D01*
X91182953Y-91687729D01*
X91121629Y-91721213D01*
X91051938Y-91716228D01*
X91033273Y-91707435D01*
X90951702Y-91660341D01*
X90920946Y-91652100D01*
X90798975Y-91619418D01*
X90640861Y-91619418D01*
X90488134Y-91660341D01*
X90488127Y-91660344D01*
X90344163Y-91743461D01*
X90343460Y-91742244D01*
X90286416Y-91764297D01*
X90217972Y-91750258D01*
X90167982Y-91701444D01*
X90152100Y-91640727D01*
X90152100Y-87447064D01*
X90152100Y-87447062D01*
X90124698Y-87344795D01*
X90071761Y-87253105D01*
X88246895Y-85428240D01*
X88155205Y-85375302D01*
X88052938Y-85347900D01*
X81052937Y-85347900D01*
X80947062Y-85347900D01*
X80844794Y-85375302D01*
X80753105Y-85428240D01*
X80753102Y-85428242D01*
X77619764Y-88561581D01*
X77558441Y-88595066D01*
X77532083Y-88597900D01*
X76173498Y-88597900D01*
X76106459Y-88578215D01*
X76085817Y-88561581D01*
X76043717Y-88519481D01*
X76043709Y-88519475D01*
X75906790Y-88440426D01*
X75906786Y-88440424D01*
X75906784Y-88440423D01*
X75754057Y-88399500D01*
X75595943Y-88399500D01*
X75595941Y-88399500D01*
X75531592Y-88416742D01*
X75461742Y-88415079D01*
X75403880Y-88375915D01*
X75376377Y-88311687D01*
X75375500Y-88296967D01*
X75375500Y-81706898D01*
X77199500Y-81706898D01*
X77199500Y-83293102D01*
X77205126Y-83339954D01*
X77210122Y-83381561D01*
X77210122Y-83381563D01*
X77210123Y-83381564D01*
X77217591Y-83400501D01*
X77265639Y-83522343D01*
X77357077Y-83642922D01*
X77477656Y-83734360D01*
X77477657Y-83734360D01*
X77477658Y-83734361D01*
X77618436Y-83789877D01*
X77639060Y-83792353D01*
X77703274Y-83819888D01*
X77742408Y-83877770D01*
X77744037Y-83947621D01*
X77707643Y-84007263D01*
X77697164Y-84015787D01*
X77652782Y-84048032D01*
X77508028Y-84192786D01*
X77387715Y-84358386D01*
X77294781Y-84540776D01*
X77231522Y-84735465D01*
X77199500Y-84937648D01*
X77199500Y-85142351D01*
X77231522Y-85344534D01*
X77294781Y-85539223D01*
X77337074Y-85622226D01*
X77380597Y-85707645D01*
X77387715Y-85721613D01*
X77508028Y-85887213D01*
X77652786Y-86031971D01*
X77771800Y-86118438D01*
X77818390Y-86152287D01*
X77925570Y-86206898D01*
X78000776Y-86245218D01*
X78000778Y-86245218D01*
X78000781Y-86245220D01*
X78105137Y-86279127D01*
X78195465Y-86308477D01*
X78296557Y-86324488D01*
X78397648Y-86340500D01*
X78397649Y-86340500D01*
X78602351Y-86340500D01*
X78602352Y-86340500D01*
X78804534Y-86308477D01*
X78999219Y-86245220D01*
X79181610Y-86152287D01*
X79274590Y-86084732D01*
X79347213Y-86031971D01*
X79347215Y-86031968D01*
X79347219Y-86031966D01*
X79491966Y-85887219D01*
X79491968Y-85887215D01*
X79491971Y-85887213D01*
X79580298Y-85765639D01*
X79612287Y-85721610D01*
X79705220Y-85539219D01*
X79768477Y-85344534D01*
X79800500Y-85142352D01*
X79800500Y-84937648D01*
X79768477Y-84735466D01*
X79705220Y-84540781D01*
X79705218Y-84540778D01*
X79705218Y-84540776D01*
X79671503Y-84474607D01*
X79612287Y-84358390D01*
X79547718Y-84269517D01*
X79491971Y-84192786D01*
X79347217Y-84048032D01*
X79347212Y-84048028D01*
X79302836Y-84015787D01*
X79287936Y-83996465D01*
X79269871Y-83980058D01*
X79266979Y-83969287D01*
X79260170Y-83960457D01*
X79258081Y-83936143D01*
X79254001Y-83920943D01*
X90649500Y-83920943D01*
X90649500Y-84079057D01*
X90682571Y-84202478D01*
X90690423Y-84231783D01*
X90690426Y-84231790D01*
X90769475Y-84368709D01*
X90769479Y-84368714D01*
X90769480Y-84368716D01*
X90881284Y-84480520D01*
X90881286Y-84480521D01*
X90881290Y-84480524D01*
X90985651Y-84540776D01*
X91018216Y-84559577D01*
X91170943Y-84600500D01*
X91230483Y-84600500D01*
X91297522Y-84620185D01*
X91318164Y-84636819D01*
X96311581Y-89630236D01*
X96345066Y-89691559D01*
X96347900Y-89717917D01*
X96347900Y-118947062D01*
X96347900Y-119052938D01*
X96375302Y-119155205D01*
X96428240Y-119246895D01*
X96428242Y-119246897D01*
X105311581Y-128130236D01*
X105345066Y-128191559D01*
X105347900Y-128217917D01*
X105347900Y-128501502D01*
X105328215Y-128568541D01*
X105311581Y-128589183D01*
X105269481Y-128631282D01*
X105269475Y-128631290D01*
X105190426Y-128768209D01*
X105190423Y-128768216D01*
X105149500Y-128920943D01*
X105149500Y-129079056D01*
X105190423Y-129231783D01*
X105190426Y-129231790D01*
X105269475Y-129368709D01*
X105269479Y-129368714D01*
X105269480Y-129368716D01*
X105381284Y-129480520D01*
X105381286Y-129480521D01*
X105381290Y-129480524D01*
X105487515Y-129541852D01*
X105518216Y-129559577D01*
X105670943Y-129600500D01*
X105670945Y-129600500D01*
X105829055Y-129600500D01*
X105829057Y-129600500D01*
X105981784Y-129559577D01*
X106118716Y-129480520D01*
X106136219Y-129463017D01*
X106155655Y-129452404D01*
X106172389Y-129437904D01*
X106185720Y-129435987D01*
X106197542Y-129429532D01*
X106219628Y-129431111D01*
X106241547Y-129427960D01*
X106253798Y-129433555D01*
X106267234Y-129434516D01*
X106284960Y-129447786D01*
X106305103Y-129456985D01*
X106312385Y-129468316D01*
X106323167Y-129476388D01*
X106330904Y-129497133D01*
X106342877Y-129515763D01*
X106346028Y-129537681D01*
X106347584Y-129541852D01*
X106347900Y-129550698D01*
X106347900Y-129751502D01*
X106328215Y-129818541D01*
X106311581Y-129839183D01*
X106269481Y-129881282D01*
X106269475Y-129881290D01*
X106190426Y-130018209D01*
X106190423Y-130018216D01*
X106149500Y-130170943D01*
X106149500Y-130329056D01*
X106190423Y-130481783D01*
X106190426Y-130481790D01*
X106269475Y-130618709D01*
X106269479Y-130618714D01*
X106269480Y-130618716D01*
X106381284Y-130730520D01*
X106381286Y-130730521D01*
X106381290Y-130730524D01*
X106518209Y-130809573D01*
X106518216Y-130809577D01*
X106670943Y-130850500D01*
X106670945Y-130850500D01*
X106829055Y-130850500D01*
X106829057Y-130850500D01*
X106981784Y-130809577D01*
X107118716Y-130730520D01*
X107230520Y-130618716D01*
X107309577Y-130481784D01*
X107350500Y-130329057D01*
X107350500Y-130170943D01*
X107309577Y-130018216D01*
X107309573Y-130018209D01*
X107230524Y-129881290D01*
X107230518Y-129881282D01*
X107188419Y-129839183D01*
X107154934Y-129777860D01*
X107152100Y-129751502D01*
X107152100Y-119276100D01*
X107171785Y-119209061D01*
X107224589Y-119163306D01*
X107276100Y-119152100D01*
X110014309Y-119152100D01*
X110081348Y-119171785D01*
X110127103Y-119224589D01*
X110137047Y-119293747D01*
X110108022Y-119357303D01*
X110072500Y-119385100D01*
X110072542Y-119385168D01*
X110071954Y-119385528D01*
X110070605Y-119386584D01*
X110068388Y-119387713D01*
X109902786Y-119508028D01*
X109758028Y-119652786D01*
X109637715Y-119818386D01*
X109544781Y-120000776D01*
X109481522Y-120195465D01*
X109449500Y-120397648D01*
X109449500Y-120602351D01*
X109481522Y-120804534D01*
X109544781Y-120999223D01*
X109637715Y-121181613D01*
X109758028Y-121347213D01*
X109758034Y-121347219D01*
X109902781Y-121491966D01*
X109947163Y-121524211D01*
X109989829Y-121579541D01*
X109995808Y-121649154D01*
X109963203Y-121710950D01*
X109902364Y-121745307D01*
X109889063Y-121747645D01*
X109868441Y-121750121D01*
X109727656Y-121805639D01*
X109607077Y-121897077D01*
X109515639Y-122017656D01*
X109460122Y-122158438D01*
X109454188Y-122207853D01*
X109449500Y-122246898D01*
X109449500Y-123833102D01*
X109454146Y-123871789D01*
X109460122Y-123921561D01*
X109460122Y-123921563D01*
X109460123Y-123921564D01*
X109477722Y-123966192D01*
X109515639Y-124062343D01*
X109607077Y-124182922D01*
X109727656Y-124274360D01*
X109727657Y-124274360D01*
X109727658Y-124274361D01*
X109868436Y-124329877D01*
X109956898Y-124340500D01*
X109956903Y-124340500D01*
X111543097Y-124340500D01*
X111543102Y-124340500D01*
X111631564Y-124329877D01*
X111772342Y-124274361D01*
X111892922Y-124182922D01*
X111984361Y-124062342D01*
X112039877Y-123921564D01*
X112050500Y-123833102D01*
X112050500Y-122246898D01*
X112039877Y-122158436D01*
X111984361Y-122017658D01*
X111984360Y-122017657D01*
X111984360Y-122017656D01*
X111892922Y-121897077D01*
X111772343Y-121805639D01*
X111699336Y-121776849D01*
X111631564Y-121750123D01*
X111631562Y-121750122D01*
X111631558Y-121750121D01*
X111610936Y-121747645D01*
X111546722Y-121720108D01*
X111507590Y-121662226D01*
X111505963Y-121592375D01*
X111542358Y-121532733D01*
X111552837Y-121524211D01*
X111597215Y-121491969D01*
X111597215Y-121491968D01*
X111597219Y-121491966D01*
X111741966Y-121347219D01*
X111741968Y-121347215D01*
X111741971Y-121347213D01*
X111794732Y-121274590D01*
X111862287Y-121181610D01*
X111955220Y-120999219D01*
X112018477Y-120804534D01*
X112050500Y-120602352D01*
X112050500Y-120397648D01*
X112018477Y-120195466D01*
X111955220Y-120000781D01*
X111955218Y-120000778D01*
X111955218Y-120000776D01*
X111921503Y-119934607D01*
X111862287Y-119818390D01*
X111854556Y-119807749D01*
X111741971Y-119652786D01*
X111597213Y-119508028D01*
X111431611Y-119387713D01*
X111429395Y-119386584D01*
X111428704Y-119385931D01*
X111427458Y-119385168D01*
X111427618Y-119384906D01*
X111378600Y-119338610D01*
X111361805Y-119270789D01*
X111384343Y-119204654D01*
X111439058Y-119161203D01*
X111485691Y-119152100D01*
X112552936Y-119152100D01*
X112552938Y-119152100D01*
X112655205Y-119124698D01*
X112746895Y-119071760D01*
X113321761Y-118496895D01*
X113374698Y-118405205D01*
X113389356Y-118350500D01*
X113402100Y-118302938D01*
X113402100Y-78887032D01*
X113374698Y-78784765D01*
X113321761Y-78693075D01*
X111515325Y-76886640D01*
X111423635Y-76833702D01*
X111321368Y-76806300D01*
X109738662Y-76806300D01*
X109636395Y-76833702D01*
X109636392Y-76833703D01*
X109544708Y-76886636D01*
X109544703Y-76886640D01*
X106869764Y-79561581D01*
X106808441Y-79595066D01*
X106782083Y-79597900D01*
X106498498Y-79597900D01*
X106431459Y-79578215D01*
X106410817Y-79561581D01*
X106368717Y-79519481D01*
X106368709Y-79519475D01*
X106231790Y-79440426D01*
X106231786Y-79440424D01*
X106231784Y-79440423D01*
X106079057Y-79399500D01*
X105920943Y-79399500D01*
X105768216Y-79440423D01*
X105768209Y-79440426D01*
X105631290Y-79519475D01*
X105631282Y-79519481D01*
X105519481Y-79631282D01*
X105519475Y-79631290D01*
X105440426Y-79768209D01*
X105440423Y-79768216D01*
X105399500Y-79920943D01*
X105399500Y-80079056D01*
X105440423Y-80231783D01*
X105440426Y-80231790D01*
X105519475Y-80368709D01*
X105519479Y-80368714D01*
X105519480Y-80368716D01*
X105631284Y-80480520D01*
X105631286Y-80480521D01*
X105631290Y-80480524D01*
X105768209Y-80559573D01*
X105768216Y-80559577D01*
X105920943Y-80600500D01*
X105920945Y-80600500D01*
X106079055Y-80600500D01*
X106079057Y-80600500D01*
X106231784Y-80559577D01*
X106368716Y-80480520D01*
X106410817Y-80438419D01*
X106472140Y-80404934D01*
X106498498Y-80402100D01*
X107052936Y-80402100D01*
X107052938Y-80402100D01*
X107155205Y-80374698D01*
X107246895Y-80321760D01*
X109237819Y-78330836D01*
X109299142Y-78297351D01*
X109368834Y-78302335D01*
X109424767Y-78344207D01*
X109449184Y-78409671D01*
X109449500Y-78418517D01*
X109449500Y-78562351D01*
X109481522Y-78764534D01*
X109486173Y-78778848D01*
X109488165Y-78848690D01*
X109455921Y-78904842D01*
X105131286Y-83229478D01*
X105019481Y-83341282D01*
X105019479Y-83341284D01*
X104996226Y-83381561D01*
X104985292Y-83400500D01*
X104940423Y-83478215D01*
X104899499Y-83630943D01*
X104899499Y-83630945D01*
X104899499Y-83799046D01*
X104899500Y-83799059D01*
X104899500Y-100579057D01*
X104929341Y-100690423D01*
X104940423Y-100731783D01*
X104940426Y-100731790D01*
X105019475Y-100868709D01*
X105019481Y-100868717D01*
X105093413Y-100942649D01*
X105097751Y-100950594D01*
X105104999Y-100956020D01*
X105114233Y-100980779D01*
X105126898Y-101003972D01*
X105126252Y-101013001D01*
X105129416Y-101021484D01*
X105123799Y-101047304D01*
X105121914Y-101073664D01*
X105116095Y-101082717D01*
X105114564Y-101089757D01*
X105093413Y-101118011D01*
X105036353Y-101175071D01*
X105010672Y-101194777D01*
X104881287Y-101269477D01*
X104881282Y-101269481D01*
X104769481Y-101381282D01*
X104769475Y-101381290D01*
X104690426Y-101518209D01*
X104690423Y-101518216D01*
X104649500Y-101670943D01*
X104649500Y-101775500D01*
X104629815Y-101842539D01*
X104577011Y-101888294D01*
X104525500Y-101899500D01*
X103920943Y-101899500D01*
X103768216Y-101940423D01*
X103768209Y-101940426D01*
X103631290Y-102019475D01*
X103631282Y-102019481D01*
X103519481Y-102131282D01*
X103519475Y-102131290D01*
X103440426Y-102268209D01*
X103440423Y-102268216D01*
X103399500Y-102420943D01*
X103399500Y-102579056D01*
X103440423Y-102731783D01*
X103440426Y-102731790D01*
X103519475Y-102868709D01*
X103519478Y-102868713D01*
X103519480Y-102868716D01*
X103631284Y-102980520D01*
X103631286Y-102980521D01*
X103631290Y-102980524D01*
X103768209Y-103059573D01*
X103768216Y-103059577D01*
X103920943Y-103100500D01*
X105534652Y-103100500D01*
X105534668Y-103100501D01*
X105542264Y-103100501D01*
X105700375Y-103100501D01*
X105700378Y-103100501D01*
X105853106Y-103059577D01*
X105903225Y-103030639D01*
X105990037Y-102980520D01*
X106101841Y-102868716D01*
X106101841Y-102868714D01*
X106112049Y-102858507D01*
X106112050Y-102858504D01*
X107480520Y-101490037D01*
X107559577Y-101353105D01*
X107600501Y-101200378D01*
X107600501Y-101042263D01*
X107600501Y-101034668D01*
X107600500Y-101034650D01*
X107600500Y-94530097D01*
X107620185Y-94463058D01*
X107636819Y-94442416D01*
X109257819Y-92821416D01*
X109319142Y-92787931D01*
X109388834Y-92792915D01*
X109444767Y-92834787D01*
X109469184Y-92900251D01*
X109469500Y-92909097D01*
X109469500Y-93793102D01*
X109475126Y-93839954D01*
X109480122Y-93881561D01*
X109480122Y-93881563D01*
X109480123Y-93881564D01*
X109491659Y-93910817D01*
X109535639Y-94022343D01*
X109627077Y-94142922D01*
X109747656Y-94234360D01*
X109747657Y-94234360D01*
X109747658Y-94234361D01*
X109888436Y-94289877D01*
X109976898Y-94300500D01*
X109976903Y-94300500D01*
X111563097Y-94300500D01*
X111563102Y-94300500D01*
X111651564Y-94289877D01*
X111792342Y-94234361D01*
X111912922Y-94142922D01*
X112004361Y-94022342D01*
X112059877Y-93881564D01*
X112070500Y-93793102D01*
X112070500Y-92206898D01*
X112059877Y-92118436D01*
X112004361Y-91977658D01*
X112004360Y-91977657D01*
X112004360Y-91977656D01*
X111912922Y-91857077D01*
X111792343Y-91765639D01*
X111716760Y-91735833D01*
X111651564Y-91710123D01*
X111651562Y-91710122D01*
X111651558Y-91710121D01*
X111630936Y-91707645D01*
X111566722Y-91680108D01*
X111527590Y-91622226D01*
X111525963Y-91552375D01*
X111562358Y-91492733D01*
X111572837Y-91484211D01*
X111617215Y-91451969D01*
X111617215Y-91451968D01*
X111617219Y-91451966D01*
X111761966Y-91307219D01*
X111761968Y-91307215D01*
X111761971Y-91307213D01*
X111814732Y-91234590D01*
X111882287Y-91141610D01*
X111975220Y-90959219D01*
X112038477Y-90764534D01*
X112070500Y-90562352D01*
X112070500Y-90357648D01*
X112066911Y-90334991D01*
X112038477Y-90155465D01*
X111975218Y-89960776D01*
X111893431Y-89800262D01*
X111882287Y-89778390D01*
X111874556Y-89767749D01*
X111761971Y-89612786D01*
X111617213Y-89468028D01*
X111451613Y-89347715D01*
X111451612Y-89347714D01*
X111451610Y-89347713D01*
X111353103Y-89297521D01*
X111269223Y-89254781D01*
X111074534Y-89191522D01*
X110899995Y-89163878D01*
X110872352Y-89159500D01*
X110667648Y-89159500D01*
X110643329Y-89163351D01*
X110465465Y-89191522D01*
X110270776Y-89254781D01*
X110088386Y-89347715D01*
X109922786Y-89468028D01*
X109778028Y-89612786D01*
X109657715Y-89778386D01*
X109564781Y-89960776D01*
X109501522Y-90155465D01*
X109469500Y-90357648D01*
X109469500Y-90562351D01*
X109501522Y-90764534D01*
X109506173Y-90778848D01*
X109508165Y-90848690D01*
X109475921Y-90904842D01*
X107062181Y-93318583D01*
X107000858Y-93352068D01*
X106931166Y-93347084D01*
X106875233Y-93305212D01*
X106850816Y-93239748D01*
X106850500Y-93230902D01*
X106850500Y-89260097D01*
X106870185Y-89193058D01*
X106886819Y-89172416D01*
X109237819Y-86821416D01*
X109299142Y-86787931D01*
X109368834Y-86792915D01*
X109424767Y-86834787D01*
X109449184Y-86900251D01*
X109449500Y-86909097D01*
X109449500Y-87793102D01*
X109455126Y-87839954D01*
X109460122Y-87881561D01*
X109515639Y-88022343D01*
X109607077Y-88142922D01*
X109727656Y-88234360D01*
X109727657Y-88234360D01*
X109727658Y-88234361D01*
X109868436Y-88289877D01*
X109956898Y-88300500D01*
X109956903Y-88300500D01*
X111543097Y-88300500D01*
X111543102Y-88300500D01*
X111631564Y-88289877D01*
X111772342Y-88234361D01*
X111892922Y-88142922D01*
X111984361Y-88022342D01*
X112039877Y-87881564D01*
X112050500Y-87793102D01*
X112050500Y-86206898D01*
X112039877Y-86118436D01*
X111984361Y-85977658D01*
X111984360Y-85977657D01*
X111984360Y-85977656D01*
X111892922Y-85857077D01*
X111772343Y-85765639D01*
X111660700Y-85721613D01*
X111631564Y-85710123D01*
X111631562Y-85710122D01*
X111631558Y-85710121D01*
X111610936Y-85707645D01*
X111546722Y-85680108D01*
X111507590Y-85622226D01*
X111505963Y-85552375D01*
X111542358Y-85492733D01*
X111552837Y-85484211D01*
X111597215Y-85451969D01*
X111597215Y-85451968D01*
X111597219Y-85451966D01*
X111741966Y-85307219D01*
X111741968Y-85307215D01*
X111741971Y-85307213D01*
X111805627Y-85219596D01*
X111862287Y-85141610D01*
X111955220Y-84959219D01*
X112018477Y-84764534D01*
X112050500Y-84562352D01*
X112050500Y-84357648D01*
X112018477Y-84155466D01*
X111955220Y-83960781D01*
X111955218Y-83960778D01*
X111955218Y-83960776D01*
X111912924Y-83877770D01*
X111862287Y-83778390D01*
X111854556Y-83767749D01*
X111741971Y-83612786D01*
X111597213Y-83468028D01*
X111431613Y-83347715D01*
X111431612Y-83347714D01*
X111431610Y-83347713D01*
X111374653Y-83318691D01*
X111249223Y-83254781D01*
X111054534Y-83191522D01*
X110879995Y-83163878D01*
X110852352Y-83159500D01*
X110647648Y-83159500D01*
X110623329Y-83163351D01*
X110445465Y-83191522D01*
X110250776Y-83254781D01*
X110068386Y-83347715D01*
X109902786Y-83468028D01*
X109758028Y-83612786D01*
X109637715Y-83778386D01*
X109544781Y-83960776D01*
X109481522Y-84155465D01*
X109449500Y-84357648D01*
X109449500Y-84562351D01*
X109481522Y-84764534D01*
X109486173Y-84778848D01*
X109488165Y-84848690D01*
X109455921Y-84904842D01*
X106312181Y-88048583D01*
X106250858Y-88082068D01*
X106181166Y-88077084D01*
X106125233Y-88035212D01*
X106100816Y-87969748D01*
X106100500Y-87960902D01*
X106100500Y-84010097D01*
X106120185Y-83943058D01*
X106136819Y-83922416D01*
X109237819Y-80821416D01*
X109299142Y-80787931D01*
X109368834Y-80792915D01*
X109424767Y-80834787D01*
X109449184Y-80900251D01*
X109449500Y-80909097D01*
X109449500Y-81793102D01*
X109455126Y-81839954D01*
X109460122Y-81881561D01*
X109515639Y-82022343D01*
X109607077Y-82142922D01*
X109727656Y-82234360D01*
X109727657Y-82234360D01*
X109727658Y-82234361D01*
X109868436Y-82289877D01*
X109956898Y-82300500D01*
X109956903Y-82300500D01*
X111543097Y-82300500D01*
X111543102Y-82300500D01*
X111631564Y-82289877D01*
X111772342Y-82234361D01*
X111892922Y-82142922D01*
X111984361Y-82022342D01*
X112039877Y-81881564D01*
X112050500Y-81793102D01*
X112050500Y-80206898D01*
X112039877Y-80118436D01*
X111984361Y-79977658D01*
X111984360Y-79977657D01*
X111984360Y-79977656D01*
X111892922Y-79857077D01*
X111772343Y-79765639D01*
X111699336Y-79736849D01*
X111631564Y-79710123D01*
X111631562Y-79710122D01*
X111631558Y-79710121D01*
X111610936Y-79707645D01*
X111546722Y-79680108D01*
X111507590Y-79622226D01*
X111505963Y-79552375D01*
X111542358Y-79492733D01*
X111552837Y-79484211D01*
X111597215Y-79451969D01*
X111597215Y-79451968D01*
X111597219Y-79451966D01*
X111741966Y-79307219D01*
X111741968Y-79307215D01*
X111741971Y-79307213D01*
X111797692Y-79230518D01*
X111862287Y-79141610D01*
X111955220Y-78959219D01*
X112014175Y-78777775D01*
X112053613Y-78720099D01*
X112117971Y-78692901D01*
X112186818Y-78704816D01*
X112219787Y-78728412D01*
X112561581Y-79070206D01*
X112595066Y-79131529D01*
X112597900Y-79157887D01*
X112597900Y-118032082D01*
X112578215Y-118099121D01*
X112561581Y-118119763D01*
X112369764Y-118311581D01*
X112308441Y-118345066D01*
X112282083Y-118347900D01*
X112007136Y-118347900D01*
X111940097Y-118328215D01*
X111894342Y-118275411D01*
X111884398Y-118206253D01*
X111908332Y-118148974D01*
X111912920Y-118142923D01*
X111912922Y-118142922D01*
X112004361Y-118022342D01*
X112059877Y-117881564D01*
X112070500Y-117793102D01*
X112070500Y-116206898D01*
X112059877Y-116118436D01*
X112004361Y-115977658D01*
X112004360Y-115977657D01*
X112004360Y-115977656D01*
X111912922Y-115857077D01*
X111792343Y-115765639D01*
X111719336Y-115736849D01*
X111651564Y-115710123D01*
X111651562Y-115710122D01*
X111651558Y-115710121D01*
X111630936Y-115707645D01*
X111566722Y-115680108D01*
X111527590Y-115622226D01*
X111525963Y-115552375D01*
X111562358Y-115492733D01*
X111572837Y-115484211D01*
X111617215Y-115451969D01*
X111617215Y-115451968D01*
X111617219Y-115451966D01*
X111761966Y-115307219D01*
X111761968Y-115307215D01*
X111761971Y-115307213D01*
X111852625Y-115182436D01*
X111882287Y-115141610D01*
X111975220Y-114959219D01*
X112038477Y-114764534D01*
X112070500Y-114562352D01*
X112070500Y-114357648D01*
X112038477Y-114155466D01*
X112020617Y-114100500D01*
X111981635Y-113980524D01*
X111975220Y-113960781D01*
X111975218Y-113960778D01*
X111975218Y-113960776D01*
X111928307Y-113868709D01*
X111882287Y-113778390D01*
X111874556Y-113767749D01*
X111761971Y-113612786D01*
X111617213Y-113468028D01*
X111451613Y-113347715D01*
X111451612Y-113347714D01*
X111451610Y-113347713D01*
X111394653Y-113318691D01*
X111269223Y-113254781D01*
X111074534Y-113191522D01*
X110899995Y-113163878D01*
X110872352Y-113159500D01*
X110667648Y-113159500D01*
X110627211Y-113165904D01*
X110465462Y-113191523D01*
X110465460Y-113191523D01*
X110451149Y-113196173D01*
X110381308Y-113198164D01*
X110325157Y-113165921D01*
X109598029Y-112438793D01*
X109564544Y-112377470D01*
X109569528Y-112307778D01*
X109611400Y-112251845D01*
X109676864Y-112227428D01*
X109731200Y-112235758D01*
X109771994Y-112251845D01*
X109868436Y-112289877D01*
X109956898Y-112300500D01*
X109956903Y-112300500D01*
X111543097Y-112300500D01*
X111543102Y-112300500D01*
X111631564Y-112289877D01*
X111772342Y-112234361D01*
X111892922Y-112142922D01*
X111984361Y-112022342D01*
X112039877Y-111881564D01*
X112050500Y-111793102D01*
X112050500Y-110206898D01*
X112039877Y-110118436D01*
X111984361Y-109977658D01*
X111984360Y-109977657D01*
X111984360Y-109977656D01*
X111892922Y-109857077D01*
X111772343Y-109765639D01*
X111699336Y-109736849D01*
X111631564Y-109710123D01*
X111631562Y-109710122D01*
X111631558Y-109710121D01*
X111610936Y-109707645D01*
X111546722Y-109680108D01*
X111507590Y-109622226D01*
X111505963Y-109552375D01*
X111542358Y-109492733D01*
X111552837Y-109484211D01*
X111597215Y-109451969D01*
X111597215Y-109451968D01*
X111597219Y-109451966D01*
X111741966Y-109307219D01*
X111741968Y-109307215D01*
X111741971Y-109307213D01*
X111797692Y-109230518D01*
X111862287Y-109141610D01*
X111955220Y-108959219D01*
X112018477Y-108764534D01*
X112050500Y-108562352D01*
X112050500Y-108357648D01*
X112037634Y-108276418D01*
X112018477Y-108155465D01*
X111955218Y-107960776D01*
X111899029Y-107850500D01*
X111862287Y-107778390D01*
X111854556Y-107767749D01*
X111741971Y-107612786D01*
X111597213Y-107468028D01*
X111431613Y-107347715D01*
X111431612Y-107347714D01*
X111431610Y-107347713D01*
X111357121Y-107309759D01*
X111249223Y-107254781D01*
X111054534Y-107191522D01*
X110879995Y-107163878D01*
X110852352Y-107159500D01*
X110647648Y-107159500D01*
X110609599Y-107165526D01*
X110445468Y-107191522D01*
X110438418Y-107193813D01*
X110431154Y-107196173D01*
X110361313Y-107198167D01*
X110305157Y-107165922D01*
X110027590Y-106888355D01*
X110027588Y-106888352D01*
X109908717Y-106769481D01*
X109908716Y-106769480D01*
X109821904Y-106719360D01*
X109821904Y-106719359D01*
X109821900Y-106719358D01*
X109771785Y-106690423D01*
X109619057Y-106649499D01*
X109460943Y-106649499D01*
X109453347Y-106649499D01*
X109453331Y-106649500D01*
X107729096Y-106649500D01*
X107662057Y-106629815D01*
X107616302Y-106577011D01*
X107606358Y-106507853D01*
X107635383Y-106444297D01*
X107641415Y-106437819D01*
X108448972Y-105630262D01*
X109257820Y-104821413D01*
X109319142Y-104787930D01*
X109388834Y-104792914D01*
X109444767Y-104834786D01*
X109469184Y-104900250D01*
X109469500Y-104909096D01*
X109469500Y-105793102D01*
X109475126Y-105839954D01*
X109480122Y-105881561D01*
X109535639Y-106022343D01*
X109627077Y-106142922D01*
X109747656Y-106234360D01*
X109747657Y-106234360D01*
X109747658Y-106234361D01*
X109888436Y-106289877D01*
X109976898Y-106300500D01*
X109976903Y-106300500D01*
X111563097Y-106300500D01*
X111563102Y-106300500D01*
X111651564Y-106289877D01*
X111792342Y-106234361D01*
X111912922Y-106142922D01*
X112004361Y-106022342D01*
X112059877Y-105881564D01*
X112070500Y-105793102D01*
X112070500Y-104206898D01*
X112059877Y-104118436D01*
X112004361Y-103977658D01*
X112004360Y-103977657D01*
X112004360Y-103977656D01*
X111912922Y-103857077D01*
X111792343Y-103765639D01*
X111719336Y-103736849D01*
X111651564Y-103710123D01*
X111651562Y-103710122D01*
X111651558Y-103710121D01*
X111630936Y-103707645D01*
X111566722Y-103680108D01*
X111527590Y-103622226D01*
X111525963Y-103552375D01*
X111562358Y-103492733D01*
X111572837Y-103484211D01*
X111617215Y-103451969D01*
X111617215Y-103451968D01*
X111617219Y-103451966D01*
X111761966Y-103307219D01*
X111761968Y-103307215D01*
X111761971Y-103307213D01*
X111841998Y-103197063D01*
X111882287Y-103141610D01*
X111975220Y-102959219D01*
X112038477Y-102764534D01*
X112070500Y-102562352D01*
X112070500Y-102357648D01*
X112038477Y-102155466D01*
X111975220Y-101960781D01*
X111975218Y-101960778D01*
X111975218Y-101960776D01*
X111919028Y-101850499D01*
X111882287Y-101778390D01*
X111847508Y-101730520D01*
X111761971Y-101612786D01*
X111617213Y-101468028D01*
X111451613Y-101347715D01*
X111451612Y-101347714D01*
X111451610Y-101347713D01*
X111394653Y-101318691D01*
X111269223Y-101254781D01*
X111074534Y-101191522D01*
X110899995Y-101163878D01*
X110872352Y-101159500D01*
X110667648Y-101159500D01*
X110643329Y-101163351D01*
X110465465Y-101191522D01*
X110270776Y-101254781D01*
X110088386Y-101347715D01*
X109922786Y-101468028D01*
X109922782Y-101468032D01*
X109812181Y-101578634D01*
X109750858Y-101612119D01*
X109681166Y-101607135D01*
X109625233Y-101565263D01*
X109600816Y-101499799D01*
X109600500Y-101490953D01*
X109600500Y-100358522D01*
X109620185Y-100291483D01*
X109672989Y-100245728D01*
X109742147Y-100235784D01*
X109769990Y-100243168D01*
X109833490Y-100268209D01*
X109888436Y-100289877D01*
X109976898Y-100300500D01*
X109976903Y-100300500D01*
X111563097Y-100300500D01*
X111563102Y-100300500D01*
X111651564Y-100289877D01*
X111792342Y-100234361D01*
X111912922Y-100142922D01*
X112004361Y-100022342D01*
X112059877Y-99881564D01*
X112070500Y-99793102D01*
X112070500Y-98206898D01*
X112059877Y-98118436D01*
X112004361Y-97977658D01*
X112004360Y-97977657D01*
X112004360Y-97977656D01*
X111912922Y-97857077D01*
X111792343Y-97765639D01*
X111706492Y-97731784D01*
X111651564Y-97710123D01*
X111651562Y-97710122D01*
X111651558Y-97710121D01*
X111630936Y-97707645D01*
X111566722Y-97680108D01*
X111527590Y-97622226D01*
X111525963Y-97552375D01*
X111562358Y-97492733D01*
X111572837Y-97484211D01*
X111617215Y-97451969D01*
X111617215Y-97451968D01*
X111617219Y-97451966D01*
X111761966Y-97307219D01*
X111761968Y-97307215D01*
X111761971Y-97307213D01*
X111864858Y-97165599D01*
X111882287Y-97141610D01*
X111975220Y-96959219D01*
X112038477Y-96764534D01*
X112070500Y-96562352D01*
X112070500Y-96357648D01*
X112038477Y-96155466D01*
X111975220Y-95960781D01*
X111975218Y-95960778D01*
X111975218Y-95960776D01*
X111908424Y-95829687D01*
X111882287Y-95778390D01*
X111874556Y-95767749D01*
X111761971Y-95612786D01*
X111617213Y-95468028D01*
X111451613Y-95347715D01*
X111451612Y-95347714D01*
X111451610Y-95347713D01*
X111381003Y-95311737D01*
X111269223Y-95254781D01*
X111074534Y-95191522D01*
X110899995Y-95163878D01*
X110872352Y-95159500D01*
X110667648Y-95159500D01*
X110643329Y-95163351D01*
X110465465Y-95191522D01*
X110270776Y-95254781D01*
X110088386Y-95347715D01*
X109922786Y-95468028D01*
X109778028Y-95612786D01*
X109657715Y-95778386D01*
X109564781Y-95960776D01*
X109501522Y-96155465D01*
X109469500Y-96357648D01*
X109469500Y-96562351D01*
X109501522Y-96764534D01*
X109506173Y-96778848D01*
X109508165Y-96848690D01*
X109475921Y-96904842D01*
X108631286Y-97749478D01*
X108519481Y-97861282D01*
X108519475Y-97861290D01*
X108485697Y-97919797D01*
X108485697Y-97919799D01*
X108440423Y-97998214D01*
X108440423Y-97998215D01*
X108399499Y-98150943D01*
X108399499Y-98150945D01*
X108399499Y-98319046D01*
X108399500Y-98319059D01*
X108399500Y-102869243D01*
X108379815Y-102936282D01*
X108363181Y-102956924D01*
X106456924Y-104863181D01*
X106395601Y-104896666D01*
X106369243Y-104899500D01*
X102920943Y-104899500D01*
X102768216Y-104940423D01*
X102768209Y-104940426D01*
X102631290Y-105019475D01*
X102631282Y-105019481D01*
X102519481Y-105131282D01*
X102519475Y-105131290D01*
X102440426Y-105268209D01*
X102440423Y-105268214D01*
X102440423Y-105268216D01*
X102427757Y-105315482D01*
X102391394Y-105375141D01*
X102328547Y-105405670D01*
X102259171Y-105397375D01*
X102220303Y-105371068D01*
X101862590Y-105013355D01*
X101862588Y-105013352D01*
X101743717Y-104894481D01*
X101743716Y-104894480D01*
X101656904Y-104844360D01*
X101656904Y-104844359D01*
X101656900Y-104844358D01*
X101606785Y-104815423D01*
X101454057Y-104774499D01*
X101295943Y-104774499D01*
X101188587Y-104803265D01*
X101143210Y-104815424D01*
X101143209Y-104815425D01*
X101093096Y-104844359D01*
X101093095Y-104844360D01*
X101060496Y-104863181D01*
X101006285Y-104894479D01*
X101006282Y-104894481D01*
X100894481Y-105006282D01*
X100894477Y-105006287D01*
X100846903Y-105088690D01*
X100813234Y-105147006D01*
X100762667Y-105195222D01*
X100694060Y-105208444D01*
X100629195Y-105182476D01*
X100588667Y-105125562D01*
X100586076Y-105117113D01*
X100559577Y-105018216D01*
X100540958Y-104985967D01*
X100480524Y-104881290D01*
X100480521Y-104881286D01*
X100480520Y-104881284D01*
X100368716Y-104769480D01*
X100368714Y-104769479D01*
X100368709Y-104769475D01*
X100231790Y-104690426D01*
X100231786Y-104690424D01*
X100231784Y-104690423D01*
X100079057Y-104649500D01*
X99920943Y-104649500D01*
X99768216Y-104690423D01*
X99768209Y-104690426D01*
X99631290Y-104769475D01*
X99631282Y-104769481D01*
X99519481Y-104881282D01*
X99519475Y-104881290D01*
X99494513Y-104924527D01*
X99443947Y-104972743D01*
X99375340Y-104985967D01*
X99310475Y-104959999D01*
X99299445Y-104950209D01*
X99118717Y-104769481D01*
X99118716Y-104769480D01*
X99031904Y-104719360D01*
X99031904Y-104719359D01*
X99031900Y-104719358D01*
X98981785Y-104690423D01*
X98829057Y-104649499D01*
X98724500Y-104649499D01*
X98657461Y-104629814D01*
X98611706Y-104577010D01*
X98600500Y-104525499D01*
X98600500Y-94499098D01*
X98620185Y-94432059D01*
X98672989Y-94386304D01*
X98742147Y-94376360D01*
X98805703Y-94405385D01*
X98812181Y-94411417D01*
X98881284Y-94480520D01*
X98881286Y-94480521D01*
X98881290Y-94480524D01*
X99018209Y-94559573D01*
X99018216Y-94559577D01*
X99170943Y-94600500D01*
X99230483Y-94600500D01*
X99297522Y-94620185D01*
X99318164Y-94636819D01*
X102466161Y-97784816D01*
X102485867Y-97810497D01*
X102519477Y-97868712D01*
X102519479Y-97868715D01*
X102519480Y-97868716D01*
X102631284Y-97980520D01*
X102631286Y-97980521D01*
X102631290Y-97980524D01*
X102768209Y-98059573D01*
X102768216Y-98059577D01*
X102920943Y-98100500D01*
X102920945Y-98100500D01*
X103079055Y-98100500D01*
X103079057Y-98100500D01*
X103231784Y-98059577D01*
X103368716Y-97980520D01*
X103480520Y-97868716D01*
X103559577Y-97731784D01*
X103600500Y-97579057D01*
X103600500Y-97420943D01*
X103559577Y-97268216D01*
X103518491Y-97197052D01*
X103480524Y-97131290D01*
X103480518Y-97131282D01*
X103368717Y-97019481D01*
X103368709Y-97019475D01*
X103231790Y-96940426D01*
X103231786Y-96940424D01*
X103231784Y-96940423D01*
X103079057Y-96899500D01*
X102920943Y-96899500D01*
X102830160Y-96923825D01*
X102760310Y-96922162D01*
X102710386Y-96891731D01*
X99886819Y-94068164D01*
X99853334Y-94006841D01*
X99850500Y-93980483D01*
X99850500Y-93920945D01*
X99850500Y-93920943D01*
X99809577Y-93768216D01*
X99788543Y-93731783D01*
X99730524Y-93631290D01*
X99730518Y-93631282D01*
X99618717Y-93519481D01*
X99618709Y-93519475D01*
X99481790Y-93440426D01*
X99481786Y-93440424D01*
X99481784Y-93440423D01*
X99329057Y-93399500D01*
X99170943Y-93399500D01*
X99018216Y-93440423D01*
X99018209Y-93440426D01*
X98881290Y-93519475D01*
X98881282Y-93519481D01*
X98812181Y-93588583D01*
X98750858Y-93622068D01*
X98681166Y-93617084D01*
X98625233Y-93575212D01*
X98600816Y-93509748D01*
X98600500Y-93500902D01*
X98600500Y-84269517D01*
X98620185Y-84202478D01*
X98636819Y-84181836D01*
X103431837Y-79386819D01*
X103493160Y-79353334D01*
X103519518Y-79350500D01*
X103579055Y-79350500D01*
X103579057Y-79350500D01*
X103731784Y-79309577D01*
X103868716Y-79230520D01*
X103980520Y-79118716D01*
X104059577Y-78981784D01*
X104100500Y-78829057D01*
X104100500Y-78670943D01*
X104059577Y-78518216D01*
X104059573Y-78518209D01*
X103980524Y-78381290D01*
X103980518Y-78381282D01*
X103868717Y-78269481D01*
X103868709Y-78269475D01*
X103731790Y-78190426D01*
X103731786Y-78190424D01*
X103731784Y-78190423D01*
X103579057Y-78149500D01*
X103420943Y-78149500D01*
X103268216Y-78190423D01*
X103268209Y-78190426D01*
X103131290Y-78269475D01*
X103131282Y-78269481D01*
X103019481Y-78381282D01*
X103019475Y-78381290D01*
X102940426Y-78518209D01*
X102940423Y-78518216D01*
X102899500Y-78670943D01*
X102899500Y-78730482D01*
X102879815Y-78797521D01*
X102863181Y-78818163D01*
X97951505Y-83729840D01*
X97876642Y-83804702D01*
X97876640Y-83804705D01*
X97823702Y-83896394D01*
X97823702Y-83896395D01*
X97796300Y-83998662D01*
X97796300Y-111395462D01*
X97796300Y-111501338D01*
X97823702Y-111603605D01*
X97876640Y-111695295D01*
X97876642Y-111695297D01*
X103863181Y-117681836D01*
X103896666Y-117743159D01*
X103899500Y-117769517D01*
X103899500Y-117829057D01*
X103913569Y-117881561D01*
X103940423Y-117981783D01*
X103940426Y-117981790D01*
X104019475Y-118118709D01*
X104019479Y-118118714D01*
X104019480Y-118118716D01*
X104131284Y-118230520D01*
X104131286Y-118230521D01*
X104131290Y-118230524D01*
X104268209Y-118309573D01*
X104268216Y-118309577D01*
X104420943Y-118350500D01*
X104420945Y-118350500D01*
X104579055Y-118350500D01*
X104579057Y-118350500D01*
X104731784Y-118309577D01*
X104868716Y-118230520D01*
X104980520Y-118118716D01*
X105059577Y-117981784D01*
X105100500Y-117829057D01*
X105100500Y-117670943D01*
X105059577Y-117518216D01*
X105059573Y-117518209D01*
X104980524Y-117381290D01*
X104980518Y-117381282D01*
X104868717Y-117269481D01*
X104868709Y-117269475D01*
X104731790Y-117190426D01*
X104731786Y-117190424D01*
X104731784Y-117190423D01*
X104579057Y-117149500D01*
X104579056Y-117149500D01*
X104519517Y-117149500D01*
X104452478Y-117129815D01*
X104431836Y-117113181D01*
X102239598Y-114920943D01*
X103399500Y-114920943D01*
X103399500Y-115079057D01*
X103432732Y-115203078D01*
X103440423Y-115231783D01*
X103440426Y-115231790D01*
X103519475Y-115368709D01*
X103519479Y-115368714D01*
X103519480Y-115368716D01*
X103631284Y-115480520D01*
X103631286Y-115480521D01*
X103631290Y-115480524D01*
X103733512Y-115539541D01*
X103768216Y-115559577D01*
X103920943Y-115600500D01*
X103920945Y-115600500D01*
X104079055Y-115600500D01*
X104079057Y-115600500D01*
X104231784Y-115559577D01*
X104368716Y-115480520D01*
X104480520Y-115368716D01*
X104559577Y-115231784D01*
X104600500Y-115079057D01*
X104600500Y-114920943D01*
X105649500Y-114920943D01*
X105649500Y-115079057D01*
X105682732Y-115203078D01*
X105690423Y-115231783D01*
X105690426Y-115231790D01*
X105769475Y-115368709D01*
X105769479Y-115368714D01*
X105769480Y-115368716D01*
X105881284Y-115480520D01*
X105881286Y-115480521D01*
X105881290Y-115480524D01*
X105983512Y-115539541D01*
X106018216Y-115559577D01*
X106170943Y-115600500D01*
X106170945Y-115600500D01*
X106329055Y-115600500D01*
X106329057Y-115600500D01*
X106481784Y-115559577D01*
X106618716Y-115480520D01*
X106730520Y-115368716D01*
X106809577Y-115231784D01*
X106850500Y-115079057D01*
X106850500Y-114920943D01*
X106809577Y-114768216D01*
X106788117Y-114731045D01*
X106730524Y-114631290D01*
X106730518Y-114631282D01*
X106618717Y-114519481D01*
X106618709Y-114519475D01*
X106481790Y-114440426D01*
X106481786Y-114440424D01*
X106481784Y-114440423D01*
X106329057Y-114399500D01*
X106170943Y-114399500D01*
X106018216Y-114440423D01*
X106018209Y-114440426D01*
X105881290Y-114519475D01*
X105881282Y-114519481D01*
X105769481Y-114631282D01*
X105769475Y-114631290D01*
X105690426Y-114768209D01*
X105690423Y-114768216D01*
X105649500Y-114920943D01*
X104600500Y-114920943D01*
X104559577Y-114768216D01*
X104538117Y-114731045D01*
X104480524Y-114631290D01*
X104480518Y-114631282D01*
X104368717Y-114519481D01*
X104368709Y-114519475D01*
X104231790Y-114440426D01*
X104231786Y-114440424D01*
X104231784Y-114440423D01*
X104079057Y-114399500D01*
X103920943Y-114399500D01*
X103768216Y-114440423D01*
X103768209Y-114440426D01*
X103631290Y-114519475D01*
X103631282Y-114519481D01*
X103519481Y-114631282D01*
X103519475Y-114631290D01*
X103440426Y-114768209D01*
X103440423Y-114768216D01*
X103399500Y-114920943D01*
X102239598Y-114920943D01*
X100739598Y-113420943D01*
X102399500Y-113420943D01*
X102399500Y-113579057D01*
X102408537Y-113612781D01*
X102440423Y-113731783D01*
X102440426Y-113731790D01*
X102519475Y-113868709D01*
X102519479Y-113868714D01*
X102519480Y-113868716D01*
X102631284Y-113980520D01*
X102631286Y-113980521D01*
X102631290Y-113980524D01*
X102768209Y-114059573D01*
X102768216Y-114059577D01*
X102920943Y-114100500D01*
X102920945Y-114100500D01*
X103079055Y-114100500D01*
X103079057Y-114100500D01*
X103231784Y-114059577D01*
X103368716Y-113980520D01*
X103480520Y-113868716D01*
X103559577Y-113731784D01*
X103600500Y-113579057D01*
X103600500Y-113420943D01*
X103559577Y-113268216D01*
X103551820Y-113254780D01*
X103480524Y-113131290D01*
X103480518Y-113131282D01*
X103368717Y-113019481D01*
X103368709Y-113019475D01*
X103231790Y-112940426D01*
X103231786Y-112940424D01*
X103231784Y-112940423D01*
X103079057Y-112899500D01*
X102920943Y-112899500D01*
X102768216Y-112940423D01*
X102768209Y-112940426D01*
X102631290Y-113019475D01*
X102631282Y-113019481D01*
X102519481Y-113131282D01*
X102519475Y-113131290D01*
X102440426Y-113268209D01*
X102440423Y-113268216D01*
X102399500Y-113420943D01*
X100739598Y-113420943D01*
X98636819Y-111318164D01*
X98603334Y-111256841D01*
X98600500Y-111230483D01*
X98600500Y-110670943D01*
X102399500Y-110670943D01*
X102399500Y-110829057D01*
X102424179Y-110921158D01*
X102440423Y-110981783D01*
X102440426Y-110981790D01*
X102519475Y-111118709D01*
X102519479Y-111118714D01*
X102519480Y-111118716D01*
X102631284Y-111230520D01*
X102631286Y-111230521D01*
X102631290Y-111230524D01*
X102720182Y-111281845D01*
X102768216Y-111309577D01*
X102920943Y-111350500D01*
X102920945Y-111350500D01*
X103079055Y-111350500D01*
X103079057Y-111350500D01*
X103231784Y-111309577D01*
X103368716Y-111230520D01*
X103480520Y-111118716D01*
X103559577Y-110981784D01*
X103600500Y-110829057D01*
X103600500Y-110670943D01*
X103559577Y-110518216D01*
X103543120Y-110489711D01*
X103480524Y-110381290D01*
X103480518Y-110381282D01*
X103368717Y-110269481D01*
X103368709Y-110269475D01*
X103231790Y-110190426D01*
X103231786Y-110190424D01*
X103231784Y-110190423D01*
X103079057Y-110149500D01*
X102920943Y-110149500D01*
X102768216Y-110190423D01*
X102768209Y-110190426D01*
X102631290Y-110269475D01*
X102631282Y-110269481D01*
X102519481Y-110381282D01*
X102519475Y-110381290D01*
X102440426Y-110518209D01*
X102440423Y-110518216D01*
X102399500Y-110670943D01*
X98600500Y-110670943D01*
X98600500Y-107309759D01*
X98606738Y-107288513D01*
X98608318Y-107266426D01*
X98616390Y-107255642D01*
X98620185Y-107242720D01*
X98636916Y-107228221D01*
X98650189Y-107210492D01*
X98662811Y-107205784D01*
X98672989Y-107196965D01*
X98694904Y-107193813D01*
X98715653Y-107186075D01*
X98728814Y-107188937D01*
X98742147Y-107187021D01*
X98762288Y-107196219D01*
X98783926Y-107200926D01*
X98801652Y-107214196D01*
X98805703Y-107216046D01*
X98812166Y-107222063D01*
X98881284Y-107291181D01*
X98881286Y-107291182D01*
X98888355Y-107298251D01*
X98888356Y-107298252D01*
X99704479Y-108114374D01*
X99704489Y-108114385D01*
X99708819Y-108118715D01*
X99708820Y-108118716D01*
X99820624Y-108230520D01*
X99900126Y-108276420D01*
X99927663Y-108292318D01*
X99946664Y-108312246D01*
X99975876Y-108342881D01*
X99975876Y-108342882D01*
X99975878Y-108342884D01*
X99981922Y-108374245D01*
X99989101Y-108411488D01*
X99973050Y-108461702D01*
X99940425Y-108518211D01*
X99940423Y-108518216D01*
X99899500Y-108670943D01*
X99899500Y-108829056D01*
X99940423Y-108981783D01*
X99940426Y-108981790D01*
X100019475Y-109118709D01*
X100019479Y-109118714D01*
X100019480Y-109118716D01*
X100131284Y-109230520D01*
X100131286Y-109230521D01*
X100131290Y-109230524D01*
X100264121Y-109307213D01*
X100268216Y-109309577D01*
X100420943Y-109350500D01*
X100420945Y-109350500D01*
X100579055Y-109350500D01*
X100579057Y-109350500D01*
X100731784Y-109309577D01*
X100868716Y-109230520D01*
X100980520Y-109118716D01*
X101059577Y-108981784D01*
X101100500Y-108829057D01*
X101100500Y-108724500D01*
X101120185Y-108657461D01*
X101172989Y-108611706D01*
X101224500Y-108600500D01*
X104009903Y-108600500D01*
X104076942Y-108620185D01*
X104097584Y-108636819D01*
X109475921Y-114015157D01*
X109509406Y-114076480D01*
X109506173Y-114141149D01*
X109501523Y-114155460D01*
X109501523Y-114155462D01*
X109469500Y-114357648D01*
X109469500Y-114562351D01*
X109501522Y-114764534D01*
X109564781Y-114959223D01*
X109657715Y-115141613D01*
X109778028Y-115307213D01*
X109778034Y-115307219D01*
X109922781Y-115451966D01*
X109962080Y-115480518D01*
X109967163Y-115484211D01*
X110009829Y-115539541D01*
X110015808Y-115609154D01*
X109983203Y-115670950D01*
X109922364Y-115705307D01*
X109909063Y-115707645D01*
X109888441Y-115710121D01*
X109747656Y-115765639D01*
X109627077Y-115857077D01*
X109535639Y-115977656D01*
X109480122Y-116118438D01*
X109474188Y-116167853D01*
X109469500Y-116206898D01*
X109469500Y-117793102D01*
X109473818Y-117829056D01*
X109480122Y-117881561D01*
X109535638Y-118022341D01*
X109535639Y-118022342D01*
X109627078Y-118142922D01*
X109627079Y-118142923D01*
X109631668Y-118148974D01*
X109656491Y-118214286D01*
X109642063Y-118282650D01*
X109592966Y-118332361D01*
X109532864Y-118347900D01*
X106947062Y-118347900D01*
X106844794Y-118375302D01*
X106753105Y-118428240D01*
X106753102Y-118428242D01*
X106428242Y-118753102D01*
X106428240Y-118753105D01*
X106375302Y-118844794D01*
X106347900Y-118947062D01*
X106347900Y-127768617D01*
X106328215Y-127835656D01*
X106275411Y-127881411D01*
X106206253Y-127891355D01*
X106142697Y-127862330D01*
X106116514Y-127830618D01*
X106071764Y-127753111D01*
X106071761Y-127753108D01*
X106071760Y-127753105D01*
X105996895Y-127678240D01*
X97188419Y-118869764D01*
X97154934Y-118808441D01*
X97152100Y-118782083D01*
X97152100Y-115270117D01*
X97171785Y-115203078D01*
X97224589Y-115157323D01*
X97293747Y-115147379D01*
X97357303Y-115176404D01*
X97363781Y-115182436D01*
X104613181Y-122431836D01*
X104646666Y-122493159D01*
X104649500Y-122519517D01*
X104649500Y-122579057D01*
X104662672Y-122628213D01*
X104690423Y-122731783D01*
X104690426Y-122731790D01*
X104769475Y-122868709D01*
X104769479Y-122868714D01*
X104769480Y-122868716D01*
X104881284Y-122980520D01*
X104881286Y-122980521D01*
X104881290Y-122980524D01*
X104943621Y-123016510D01*
X105018216Y-123059577D01*
X105170943Y-123100500D01*
X105170945Y-123100500D01*
X105329055Y-123100500D01*
X105329057Y-123100500D01*
X105481784Y-123059577D01*
X105618716Y-122980520D01*
X105730520Y-122868716D01*
X105809577Y-122731784D01*
X105850500Y-122579057D01*
X105850500Y-122420943D01*
X105809577Y-122268216D01*
X105797269Y-122246898D01*
X105730524Y-122131290D01*
X105730518Y-122131282D01*
X105618717Y-122019481D01*
X105618709Y-122019475D01*
X105481790Y-121940426D01*
X105481786Y-121940424D01*
X105481784Y-121940423D01*
X105329057Y-121899500D01*
X105329056Y-121899500D01*
X105269517Y-121899500D01*
X105202478Y-121879815D01*
X105181836Y-121863181D01*
X97541619Y-114222964D01*
X97508134Y-114161641D01*
X97505300Y-114135283D01*
X97505300Y-88800264D01*
X97505300Y-88800262D01*
X97477898Y-88697995D01*
X97473526Y-88690423D01*
X97466492Y-88678239D01*
X97466490Y-88678237D01*
X97424961Y-88606305D01*
X94386819Y-85568163D01*
X94353334Y-85506840D01*
X94350500Y-85480482D01*
X94350500Y-85420945D01*
X94350500Y-85420943D01*
X94309577Y-85268216D01*
X94287158Y-85229385D01*
X94230524Y-85131290D01*
X94230518Y-85131282D01*
X94118717Y-85019481D01*
X94118709Y-85019475D01*
X93981790Y-84940426D01*
X93981786Y-84940424D01*
X93981784Y-84940423D01*
X93829057Y-84899500D01*
X93670943Y-84899500D01*
X93518216Y-84940423D01*
X93518209Y-84940426D01*
X93381290Y-85019475D01*
X93381282Y-85019481D01*
X93269479Y-85131284D01*
X93233319Y-85193916D01*
X93182751Y-85242131D01*
X93114144Y-85255353D01*
X93049280Y-85229385D01*
X93038251Y-85219596D01*
X91886819Y-84068163D01*
X91853334Y-84006840D01*
X91850500Y-83980482D01*
X91850500Y-83920945D01*
X91850500Y-83920943D01*
X91809577Y-83768216D01*
X91790031Y-83734361D01*
X91730524Y-83631290D01*
X91730518Y-83631282D01*
X91618717Y-83519481D01*
X91618709Y-83519475D01*
X91481790Y-83440426D01*
X91481786Y-83440424D01*
X91481784Y-83440423D01*
X91329057Y-83399500D01*
X91170943Y-83399500D01*
X91018216Y-83440423D01*
X91018209Y-83440426D01*
X90881290Y-83519475D01*
X90881282Y-83519481D01*
X90769481Y-83631282D01*
X90769475Y-83631290D01*
X90690426Y-83768209D01*
X90690423Y-83768216D01*
X90649500Y-83920943D01*
X79254001Y-83920943D01*
X79251755Y-83912577D01*
X79255145Y-83901953D01*
X79254191Y-83890844D01*
X79265577Y-83869262D01*
X79272997Y-83846015D01*
X79281592Y-83838911D01*
X79286796Y-83829049D01*
X79308044Y-83817049D01*
X79326854Y-83801504D01*
X79343472Y-83797042D01*
X79347635Y-83794692D01*
X79360931Y-83792354D01*
X79381564Y-83789877D01*
X79522342Y-83734361D01*
X79642922Y-83642922D01*
X79734361Y-83522342D01*
X79789877Y-83381564D01*
X79800500Y-83293102D01*
X79800500Y-81706898D01*
X79789877Y-81618436D01*
X79734361Y-81477658D01*
X79734360Y-81477657D01*
X79734360Y-81477656D01*
X79642922Y-81357077D01*
X79522343Y-81265639D01*
X79381561Y-81210122D01*
X79335926Y-81204642D01*
X79293102Y-81199500D01*
X77706898Y-81199500D01*
X77667853Y-81204188D01*
X77618438Y-81210122D01*
X77477656Y-81265639D01*
X77357077Y-81357077D01*
X77265639Y-81477656D01*
X77210122Y-81618438D01*
X77204188Y-81667853D01*
X77199500Y-81706898D01*
X75375500Y-81706898D01*
X75375500Y-78818995D01*
X87799499Y-78818995D01*
X87826418Y-78954322D01*
X87826421Y-78954332D01*
X87879221Y-79081804D01*
X87879228Y-79081817D01*
X87955885Y-79196541D01*
X87955888Y-79196545D01*
X88053454Y-79294111D01*
X88053458Y-79294114D01*
X88168182Y-79370771D01*
X88168195Y-79370778D01*
X88295667Y-79423578D01*
X88295672Y-79423580D01*
X88295676Y-79423580D01*
X88295677Y-79423581D01*
X88431004Y-79450500D01*
X88431007Y-79450500D01*
X88568995Y-79450500D01*
X88660041Y-79432389D01*
X88704328Y-79423580D01*
X88831811Y-79370775D01*
X88946542Y-79294114D01*
X89044114Y-79196542D01*
X89120775Y-79081811D01*
X89173580Y-78954328D01*
X89186966Y-78887032D01*
X89200500Y-78818995D01*
X89200500Y-78681004D01*
X89173581Y-78545677D01*
X89173580Y-78545676D01*
X89173580Y-78545672D01*
X89173578Y-78545667D01*
X89120778Y-78418195D01*
X89120771Y-78418182D01*
X89044114Y-78303458D01*
X89044111Y-78303454D01*
X88946545Y-78205888D01*
X88946541Y-78205885D01*
X88831817Y-78129228D01*
X88831804Y-78129221D01*
X88704332Y-78076421D01*
X88704322Y-78076418D01*
X88568995Y-78049500D01*
X88568993Y-78049500D01*
X88431007Y-78049500D01*
X88431005Y-78049500D01*
X88295677Y-78076418D01*
X88295667Y-78076421D01*
X88168195Y-78129221D01*
X88168182Y-78129228D01*
X88053458Y-78205885D01*
X88053454Y-78205888D01*
X87955888Y-78303454D01*
X87955885Y-78303458D01*
X87879228Y-78418182D01*
X87879221Y-78418195D01*
X87826421Y-78545667D01*
X87826418Y-78545677D01*
X87799500Y-78681004D01*
X87799500Y-78681007D01*
X87799500Y-78818993D01*
X87799500Y-78818995D01*
X87799499Y-78818995D01*
X75375500Y-78818995D01*
X75375500Y-76624500D01*
X75395185Y-76557461D01*
X75447989Y-76511706D01*
X75499500Y-76500500D01*
X114250500Y-76500500D01*
X114317539Y-76520185D01*
G37*
%TD.AperFunction*%
%TD*%
M02*
