%TF.GenerationSoftware,KiCad,Pcbnew,9.0.9-9.0.9~ubuntu24.04.1*%
%TF.CreationDate,2026-07-09T08:37:03+03:00*%
%TF.ProjectId,sounddecoder-esp32-s3-wroom-2-ext,736f756e-6464-4656-936f-6465722d6573,rev?*%
%TF.SameCoordinates,Original*%
%TF.FileFunction,Copper,L2,Inr*%
%TF.FilePolarity,Positive*%
%FSLAX46Y46*%
G04 Gerber Fmt 4.6, Leading zero omitted, Abs format (unit mm)*
G04 Created by KiCad (PCBNEW 9.0.9-9.0.9~ubuntu24.04.1) date 2026-07-09 08:37:03*
%MOMM*%
%LPD*%
G01*
G04 APERTURE LIST*
G04 Aperture macros list*
%AMRoundRect*
0 Rectangle with rounded corners*
0 $1 Rounding radius*
0 $2 $3 $4 $5 $6 $7 $8 $9 X,Y pos of 4 corners*
0 Add a 4 corners polygon primitive as box body*
4,1,4,$2,$3,$4,$5,$6,$7,$8,$9,$2,$3,0*
0 Add four circle primitives for the rounded corners*
1,1,$1+$1,$2,$3*
1,1,$1+$1,$4,$5*
1,1,$1+$1,$6,$7*
1,1,$1+$1,$8,$9*
0 Add four rect primitives between the rounded corners*
20,1,$1+$1,$2,$3,$4,$5,0*
20,1,$1+$1,$4,$5,$6,$7,0*
20,1,$1+$1,$6,$7,$8,$9,0*
20,1,$1+$1,$8,$9,$2,$3,0*%
G04 Aperture macros list end*
%TA.AperFunction,ComponentPad*%
%ADD10RoundRect,0.250000X0.750000X-0.750000X0.750000X0.750000X-0.750000X0.750000X-0.750000X-0.750000X0*%
%TD*%
%TA.AperFunction,ComponentPad*%
%ADD11C,2.000000*%
%TD*%
%TA.AperFunction,ComponentPad*%
%ADD12RoundRect,0.250000X-0.750000X0.750000X-0.750000X-0.750000X0.750000X-0.750000X0.750000X0.750000X0*%
%TD*%
%TA.AperFunction,HeatsinkPad*%
%ADD13C,0.600000*%
%TD*%
%TA.AperFunction,ComponentPad*%
%ADD14R,0.850000X0.850000*%
%TD*%
%TA.AperFunction,ComponentPad*%
%ADD15C,0.850000*%
%TD*%
%TA.AperFunction,ComponentPad*%
%ADD16RoundRect,0.250000X-0.750000X-0.750000X0.750000X-0.750000X0.750000X0.750000X-0.750000X0.750000X0*%
%TD*%
%TA.AperFunction,ComponentPad*%
%ADD17C,0.700000*%
%TD*%
%TA.AperFunction,ViaPad*%
%ADD18C,1.000000*%
%TD*%
%TA.AperFunction,ViaPad*%
%ADD19C,0.600000*%
%TD*%
%TA.AperFunction,ViaPad*%
%ADD20C,0.700000*%
%TD*%
%TA.AperFunction,ViaPad*%
%ADD21C,0.800000*%
%TD*%
G04 APERTURE END LIST*
D10*
%TO.N,+5V*%
%TO.C,J10*%
X110770000Y-99000000D03*
D11*
%TO.N,Net-(J10-Pin_2)*%
X110770000Y-96460000D03*
%TD*%
D12*
%TO.N,/Sound1*%
%TO.C,J4*%
X78500000Y-82500000D03*
D11*
%TO.N,/Sound2*%
X78500000Y-85040000D03*
%TD*%
D13*
%TO.N,GND*%
%TO.C,U7*%
X93140000Y-82030000D03*
X93140000Y-83530000D03*
X93890000Y-81280000D03*
X93890000Y-82780000D03*
X93890000Y-84280000D03*
X94640000Y-82030000D03*
X94640000Y-83530000D03*
X95390000Y-81280000D03*
X95390000Y-82780000D03*
X95390000Y-84280000D03*
X96140000Y-82030000D03*
X96140000Y-83530000D03*
%TD*%
D10*
%TO.N,+5V*%
%TO.C,J11*%
X110770000Y-105000000D03*
D11*
%TO.N,Net-(J11-Pin_2)*%
X110770000Y-102460000D03*
%TD*%
D10*
%TO.N,/MOTOR2*%
%TO.C,J3*%
X110750000Y-123040000D03*
D11*
%TO.N,/MOTOR1*%
X110750000Y-120500000D03*
%TD*%
D10*
%TO.N,+5V*%
%TO.C,J8*%
X110750000Y-87000000D03*
D11*
%TO.N,/FwdLED*%
X110750000Y-84460000D03*
%TD*%
D14*
%TO.N,GND*%
%TO.C,J6*%
X76250000Y-93000000D03*
D15*
%TO.N,/SND_GAIN*%
X76250000Y-94000000D03*
%TO.N,+3.3V*%
X76250000Y-95000000D03*
%TD*%
D10*
%TO.N,+5V*%
%TO.C,J13*%
X110770000Y-117000000D03*
D11*
%TO.N,Net-(J13-Pin_2)*%
X110770000Y-114460000D03*
%TD*%
D16*
%TO.N,VCC*%
%TO.C,J1*%
X91660000Y-131505000D03*
D11*
%TO.N,GND*%
X94200000Y-131505000D03*
%TD*%
D10*
%TO.N,+5V*%
%TO.C,J9*%
X110770000Y-93000000D03*
D11*
%TO.N,/BackLED*%
X110770000Y-90460000D03*
%TD*%
D17*
%TO.N,GND*%
%TO.C,U4*%
X108800000Y-128185000D03*
X108800000Y-129485000D03*
X108800000Y-130785000D03*
X108800000Y-132085000D03*
X110100000Y-128185000D03*
X110100000Y-129485000D03*
X110100000Y-130785000D03*
X110100000Y-132085000D03*
%TD*%
D10*
%TO.N,+5V*%
%TO.C,J7*%
X110750000Y-81000000D03*
D11*
%TO.N,/Smoke*%
X110750000Y-78460000D03*
%TD*%
D10*
%TO.N,+5V*%
%TO.C,J12*%
X110750000Y-111000000D03*
D11*
%TO.N,Net-(J12-Pin_2)*%
X110750000Y-108460000D03*
%TD*%
D18*
%TO.N,GND*%
X87525000Y-114000000D03*
D19*
X108500000Y-126750000D03*
D20*
X81250000Y-117850000D03*
D19*
X110250000Y-126750000D03*
D20*
X81250000Y-123012500D03*
D18*
X90775000Y-114000000D03*
D20*
X76250000Y-116100000D03*
X78750000Y-121500000D03*
X83750000Y-121500000D03*
X83750000Y-123012500D03*
X81250000Y-121500000D03*
D19*
X109000000Y-133500000D03*
D20*
X78750000Y-123012500D03*
X83750000Y-116100000D03*
X78750000Y-114250000D03*
D19*
X108000000Y-133500000D03*
D20*
X76250000Y-117850000D03*
X78750000Y-119750000D03*
X78750000Y-117850000D03*
X81250000Y-114250000D03*
D18*
X77000000Y-104250000D03*
D20*
X83750000Y-119750000D03*
D19*
X110000000Y-133500000D03*
X110250000Y-125500000D03*
D20*
X81250000Y-119750000D03*
X76250000Y-114250000D03*
D19*
X111000000Y-133500000D03*
D20*
X76250000Y-121500000D03*
D18*
X83500000Y-104750000D03*
X82000000Y-106250000D03*
D20*
X83750000Y-117850000D03*
X76250000Y-119750000D03*
X78750000Y-116100000D03*
X76250000Y-123012500D03*
X83750000Y-114250000D03*
D19*
X108500000Y-125500000D03*
D20*
X81250000Y-116100000D03*
D18*
%TO.N,VCC*%
X91025000Y-123250000D03*
D19*
X85250000Y-121250000D03*
X79750000Y-104250000D03*
D21*
X86000000Y-132250000D03*
X86000000Y-127000000D03*
D19*
%TO.N,+5V*%
X106250000Y-115000000D03*
X103000000Y-110750000D03*
X104000000Y-115000000D03*
D18*
X76750000Y-111000000D03*
X80500000Y-111250000D03*
D19*
X103000000Y-113500000D03*
X79500000Y-100250000D03*
%TO.N,+3.3V*%
X85250000Y-108750000D03*
X80500000Y-96500000D03*
X90000000Y-101250000D03*
X88500000Y-108750000D03*
D21*
X88500000Y-78750000D03*
D19*
X100500000Y-108750000D03*
%TO.N,Net-(J10-Pin_2)*%
X103000000Y-105500000D03*
%TO.N,Net-(J11-Pin_2)*%
X101375000Y-105375000D03*
%TO.N,Net-(J12-Pin_2)*%
X100000000Y-105250000D03*
%TO.N,Net-(J13-Pin_2)*%
X98750000Y-105250000D03*
%TO.N,/INOUT8*%
X82750000Y-100500000D03*
X84500000Y-90000000D03*
%TO.N,/Smoke*%
X105500000Y-100500000D03*
%TO.N,/FwdLED*%
X105250000Y-101750000D03*
%TO.N,/BackLED*%
X104000000Y-102500000D03*
%TO.N,/UART-TX*%
X87750000Y-96198400D03*
X90719918Y-92219918D03*
%TO.N,/UART-RX*%
X91609959Y-92109959D03*
X86873367Y-96596552D03*
%TO.N,/INOUT7*%
X85000000Y-90750000D03*
X83500000Y-100500000D03*
%TO.N,/INOUT9*%
X84000000Y-89250000D03*
X80750000Y-104000000D03*
%TO.N,/AUDIO_OUT*%
X82801600Y-91255309D03*
X76750000Y-91500000D03*
%TO.N,/AUDIO_BCLK*%
X76703709Y-90703709D03*
X82801600Y-93920120D03*
%TO.N,/AUDIO_LRCLK*%
X75675000Y-89000000D03*
X89750000Y-92250000D03*
%TO.N,/MOTOR_IN1*%
X106000000Y-80000000D03*
X106750000Y-130250000D03*
%TO.N,/MOTOR_IN2*%
X105750000Y-129000000D03*
X91250000Y-84000000D03*
%TO.N,/INOUT4*%
X86750000Y-100500000D03*
X86000000Y-93500000D03*
%TO.N,/INOUT6*%
X85500000Y-91500000D03*
X84896800Y-99969668D03*
%TO.N,/INOUT5*%
X85500000Y-100500000D03*
X85750000Y-92250000D03*
%TO.N,/OUT3*%
X103000000Y-97500000D03*
X99250000Y-94000000D03*
%TO.N,/MOTOR_SENSE_1*%
X103500000Y-78750000D03*
X104500000Y-117750000D03*
%TO.N,/IO0*%
X92500000Y-92500000D03*
X90500000Y-97000000D03*
%TO.N,/MOTOR_SENSE_2*%
X105250000Y-122500000D03*
X93750000Y-85500000D03*
%TD*%
%TA.AperFunction,Conductor*%
%TO.N,GND*%
G36*
X114317539Y-76520185D02*
G01*
X114363294Y-76572989D01*
X114374500Y-76624500D01*
X114374500Y-135125500D01*
X114354815Y-135192539D01*
X114302011Y-135238294D01*
X114250500Y-135249500D01*
X75499500Y-135249500D01*
X75432461Y-135229815D01*
X75386706Y-135177011D01*
X75375500Y-135125500D01*
X75375500Y-132161304D01*
X85099500Y-132161304D01*
X85099500Y-132338695D01*
X85134103Y-132512658D01*
X85134106Y-132512667D01*
X85201983Y-132676540D01*
X85201990Y-132676553D01*
X85300535Y-132824034D01*
X85300538Y-132824038D01*
X85425959Y-132949459D01*
X85425965Y-132949464D01*
X85573446Y-133048009D01*
X85573459Y-133048016D01*
X85696363Y-133098923D01*
X85737334Y-133115894D01*
X85737336Y-133115894D01*
X85737341Y-133115896D01*
X85911304Y-133150499D01*
X85911307Y-133150500D01*
X85911309Y-133150500D01*
X86088693Y-133150500D01*
X86088694Y-133150499D01*
X86146682Y-133138964D01*
X86262658Y-133115896D01*
X86262661Y-133115894D01*
X86262666Y-133115894D01*
X86426547Y-133048013D01*
X86574035Y-132949464D01*
X86574037Y-132949461D01*
X86574041Y-132949459D01*
X86699461Y-132824038D01*
X86699464Y-132824035D01*
X86798013Y-132676547D01*
X86865894Y-132512666D01*
X86886754Y-132407799D01*
X86900499Y-132338695D01*
X86900500Y-132338693D01*
X86900500Y-132161306D01*
X86900499Y-132161304D01*
X86865896Y-131987341D01*
X86865893Y-131987332D01*
X86798016Y-131823459D01*
X86798009Y-131823446D01*
X86699464Y-131675965D01*
X86699461Y-131675961D01*
X86574038Y-131550538D01*
X86574034Y-131550535D01*
X86426553Y-131451990D01*
X86426540Y-131451983D01*
X86262667Y-131384106D01*
X86262658Y-131384103D01*
X86088694Y-131349500D01*
X86088691Y-131349500D01*
X85911309Y-131349500D01*
X85911306Y-131349500D01*
X85737341Y-131384103D01*
X85737332Y-131384106D01*
X85573459Y-131451983D01*
X85573446Y-131451990D01*
X85425965Y-131550535D01*
X85425961Y-131550538D01*
X85300538Y-131675961D01*
X85300535Y-131675965D01*
X85201990Y-131823446D01*
X85201983Y-131823459D01*
X85134106Y-131987332D01*
X85134103Y-131987341D01*
X85099500Y-132161304D01*
X75375500Y-132161304D01*
X75375500Y-130704983D01*
X90159500Y-130704983D01*
X90159500Y-132305001D01*
X90159501Y-132305018D01*
X90170000Y-132407796D01*
X90170001Y-132407799D01*
X90225185Y-132574331D01*
X90225186Y-132574334D01*
X90317288Y-132723656D01*
X90441344Y-132847712D01*
X90590666Y-132939814D01*
X90757203Y-132994999D01*
X90859991Y-133005500D01*
X92460008Y-133005499D01*
X92562797Y-132994999D01*
X92729334Y-132939814D01*
X92878656Y-132847712D01*
X93002712Y-132723656D01*
X93094814Y-132574334D01*
X93149999Y-132407797D01*
X93160500Y-132305009D01*
X93160499Y-130704992D01*
X93149999Y-130602203D01*
X93094814Y-130435666D01*
X93002712Y-130286344D01*
X92878656Y-130162288D01*
X92729334Y-130070186D01*
X92562797Y-130015001D01*
X92562795Y-130015000D01*
X92460010Y-130004500D01*
X90859998Y-130004500D01*
X90859981Y-130004501D01*
X90757203Y-130015000D01*
X90757200Y-130015001D01*
X90590668Y-130070185D01*
X90590663Y-130070187D01*
X90441342Y-130162289D01*
X90317289Y-130286342D01*
X90225187Y-130435663D01*
X90225186Y-130435666D01*
X90170001Y-130602203D01*
X90170001Y-130602204D01*
X90170000Y-130602204D01*
X90159500Y-130704983D01*
X75375500Y-130704983D01*
X75375500Y-128921153D01*
X104949500Y-128921153D01*
X104949500Y-129078846D01*
X104980261Y-129233489D01*
X104980264Y-129233501D01*
X105040602Y-129379172D01*
X105040609Y-129379185D01*
X105128210Y-129510288D01*
X105128213Y-129510292D01*
X105239707Y-129621786D01*
X105239711Y-129621789D01*
X105370814Y-129709390D01*
X105370827Y-129709397D01*
X105444013Y-129739711D01*
X105516503Y-129769737D01*
X105636168Y-129793540D01*
X105671153Y-129800499D01*
X105671156Y-129800500D01*
X105671158Y-129800500D01*
X105828843Y-129800500D01*
X105845939Y-129797099D01*
X105863831Y-129793540D01*
X105933423Y-129799767D01*
X105988601Y-129842629D01*
X106011846Y-129908518D01*
X106002586Y-129962607D01*
X105980264Y-130016499D01*
X105980261Y-130016510D01*
X105949500Y-130171153D01*
X105949500Y-130328846D01*
X105980261Y-130483489D01*
X105980264Y-130483501D01*
X106040602Y-130629172D01*
X106040609Y-130629185D01*
X106128210Y-130760288D01*
X106128213Y-130760292D01*
X106239707Y-130871786D01*
X106239711Y-130871789D01*
X106370814Y-130959390D01*
X106370827Y-130959397D01*
X106516498Y-131019735D01*
X106516503Y-131019737D01*
X106671153Y-131050499D01*
X106671156Y-131050500D01*
X106671158Y-131050500D01*
X106828844Y-131050500D01*
X106828845Y-131050499D01*
X106983497Y-131019737D01*
X107129179Y-130959394D01*
X107260289Y-130871789D01*
X107371789Y-130760289D01*
X107459394Y-130629179D01*
X107519737Y-130483497D01*
X107550500Y-130328842D01*
X107550500Y-130171158D01*
X107550500Y-130171155D01*
X107550499Y-130171153D01*
X107519738Y-130016510D01*
X107519737Y-130016503D01*
X107519115Y-130015001D01*
X107459397Y-129870827D01*
X107459390Y-129870814D01*
X107371789Y-129739711D01*
X107371786Y-129739707D01*
X107260292Y-129628213D01*
X107260288Y-129628210D01*
X107129185Y-129540609D01*
X107129172Y-129540602D01*
X106983501Y-129480264D01*
X106983489Y-129480261D01*
X106828845Y-129449500D01*
X106828842Y-129449500D01*
X106671158Y-129449500D01*
X106671157Y-129449500D01*
X106636164Y-129456460D01*
X106566573Y-129450231D01*
X106511396Y-129407367D01*
X106488153Y-129341477D01*
X106497414Y-129287389D01*
X106519737Y-129233497D01*
X106550500Y-129078842D01*
X106550500Y-128921158D01*
X106550500Y-128921155D01*
X106550499Y-128921153D01*
X106519738Y-128766510D01*
X106519737Y-128766503D01*
X106519735Y-128766498D01*
X106459397Y-128620827D01*
X106459390Y-128620814D01*
X106371789Y-128489711D01*
X106371786Y-128489707D01*
X106260292Y-128378213D01*
X106260288Y-128378210D01*
X106129185Y-128290609D01*
X106129172Y-128290602D01*
X105983501Y-128230264D01*
X105983489Y-128230261D01*
X105828845Y-128199500D01*
X105828842Y-128199500D01*
X105671158Y-128199500D01*
X105671155Y-128199500D01*
X105516510Y-128230261D01*
X105516498Y-128230264D01*
X105370827Y-128290602D01*
X105370814Y-128290609D01*
X105239711Y-128378210D01*
X105239707Y-128378213D01*
X105128213Y-128489707D01*
X105128210Y-128489711D01*
X105040609Y-128620814D01*
X105040602Y-128620827D01*
X104980264Y-128766498D01*
X104980261Y-128766510D01*
X104949500Y-128921153D01*
X75375500Y-128921153D01*
X75375500Y-126911304D01*
X85099500Y-126911304D01*
X85099500Y-127088695D01*
X85134103Y-127262658D01*
X85134106Y-127262667D01*
X85201983Y-127426540D01*
X85201990Y-127426553D01*
X85300535Y-127574034D01*
X85300538Y-127574038D01*
X85425961Y-127699461D01*
X85425965Y-127699464D01*
X85573446Y-127798009D01*
X85573459Y-127798016D01*
X85696363Y-127848923D01*
X85737334Y-127865894D01*
X85737336Y-127865894D01*
X85737341Y-127865896D01*
X85911304Y-127900499D01*
X85911307Y-127900500D01*
X85911309Y-127900500D01*
X86088693Y-127900500D01*
X86088694Y-127900499D01*
X86146682Y-127888964D01*
X86262658Y-127865896D01*
X86262661Y-127865894D01*
X86262666Y-127865894D01*
X86426547Y-127798013D01*
X86574035Y-127699464D01*
X86699464Y-127574035D01*
X86798013Y-127426547D01*
X86865894Y-127262666D01*
X86900500Y-127088691D01*
X86900500Y-126911309D01*
X86900500Y-126911306D01*
X86900499Y-126911304D01*
X86865896Y-126737341D01*
X86865893Y-126737332D01*
X86798016Y-126573459D01*
X86798009Y-126573446D01*
X86699464Y-126425965D01*
X86699461Y-126425961D01*
X86574038Y-126300538D01*
X86574034Y-126300535D01*
X86426553Y-126201990D01*
X86426540Y-126201983D01*
X86262667Y-126134106D01*
X86262658Y-126134103D01*
X86088694Y-126099500D01*
X86088691Y-126099500D01*
X85911309Y-126099500D01*
X85911306Y-126099500D01*
X85737341Y-126134103D01*
X85737332Y-126134106D01*
X85573459Y-126201983D01*
X85573446Y-126201990D01*
X85425965Y-126300535D01*
X85425961Y-126300538D01*
X85300538Y-126425961D01*
X85300535Y-126425965D01*
X85201990Y-126573446D01*
X85201983Y-126573459D01*
X85134106Y-126737332D01*
X85134103Y-126737341D01*
X85099500Y-126911304D01*
X75375500Y-126911304D01*
X75375500Y-123348543D01*
X90024499Y-123348543D01*
X90062947Y-123541829D01*
X90062950Y-123541839D01*
X90138364Y-123723907D01*
X90138371Y-123723920D01*
X90247860Y-123887781D01*
X90247863Y-123887785D01*
X90387214Y-124027136D01*
X90387218Y-124027139D01*
X90551079Y-124136628D01*
X90551092Y-124136635D01*
X90733160Y-124212049D01*
X90733165Y-124212051D01*
X90733169Y-124212051D01*
X90733170Y-124212052D01*
X90926456Y-124250500D01*
X90926459Y-124250500D01*
X91123543Y-124250500D01*
X91253582Y-124224632D01*
X91316835Y-124212051D01*
X91498914Y-124136632D01*
X91662782Y-124027139D01*
X91802139Y-123887782D01*
X91911632Y-123723914D01*
X91987051Y-123541835D01*
X92025500Y-123348541D01*
X92025500Y-123151459D01*
X92025500Y-123151456D01*
X91987052Y-122958170D01*
X91987051Y-122958169D01*
X91987051Y-122958165D01*
X91954334Y-122879179D01*
X91911635Y-122776092D01*
X91911628Y-122776079D01*
X91802139Y-122612218D01*
X91802136Y-122612214D01*
X91662785Y-122472863D01*
X91662781Y-122472860D01*
X91585396Y-122421153D01*
X104449500Y-122421153D01*
X104449500Y-122578846D01*
X104480261Y-122733489D01*
X104480264Y-122733501D01*
X104540602Y-122879172D01*
X104540609Y-122879185D01*
X104628210Y-123010288D01*
X104628213Y-123010292D01*
X104739707Y-123121786D01*
X104739711Y-123121789D01*
X104870814Y-123209390D01*
X104870827Y-123209397D01*
X105016498Y-123269735D01*
X105016503Y-123269737D01*
X105171153Y-123300499D01*
X105171156Y-123300500D01*
X105171158Y-123300500D01*
X105328844Y-123300500D01*
X105328845Y-123300499D01*
X105483497Y-123269737D01*
X105629179Y-123209394D01*
X105760289Y-123121789D01*
X105871789Y-123010289D01*
X105959394Y-122879179D01*
X106019737Y-122733497D01*
X106050500Y-122578842D01*
X106050500Y-122421158D01*
X106050500Y-122421155D01*
X106050499Y-122421153D01*
X106024003Y-122287949D01*
X106019737Y-122266503D01*
X106012694Y-122249500D01*
X105959397Y-122120827D01*
X105959390Y-122120814D01*
X105871789Y-121989711D01*
X105871786Y-121989707D01*
X105760292Y-121878213D01*
X105760288Y-121878210D01*
X105629185Y-121790609D01*
X105629172Y-121790602D01*
X105483501Y-121730264D01*
X105483489Y-121730261D01*
X105328845Y-121699500D01*
X105328842Y-121699500D01*
X105171158Y-121699500D01*
X105171155Y-121699500D01*
X105016510Y-121730261D01*
X105016498Y-121730264D01*
X104870827Y-121790602D01*
X104870814Y-121790609D01*
X104739711Y-121878210D01*
X104739707Y-121878213D01*
X104628213Y-121989707D01*
X104628210Y-121989711D01*
X104540609Y-122120814D01*
X104540602Y-122120827D01*
X104480264Y-122266498D01*
X104480261Y-122266510D01*
X104449500Y-122421153D01*
X91585396Y-122421153D01*
X91498920Y-122363371D01*
X91498907Y-122363364D01*
X91316839Y-122287950D01*
X91316829Y-122287947D01*
X91123543Y-122249500D01*
X91123541Y-122249500D01*
X90926459Y-122249500D01*
X90926457Y-122249500D01*
X90733170Y-122287947D01*
X90733160Y-122287950D01*
X90551092Y-122363364D01*
X90551079Y-122363371D01*
X90387218Y-122472860D01*
X90387214Y-122472863D01*
X90247863Y-122612214D01*
X90247860Y-122612218D01*
X90138371Y-122776079D01*
X90138364Y-122776092D01*
X90062950Y-122958160D01*
X90062947Y-122958170D01*
X90024500Y-123151456D01*
X90024500Y-123151459D01*
X90024500Y-123348541D01*
X90024500Y-123348543D01*
X90024499Y-123348543D01*
X75375500Y-123348543D01*
X75375500Y-121171153D01*
X84449500Y-121171153D01*
X84449500Y-121328846D01*
X84480261Y-121483489D01*
X84480264Y-121483501D01*
X84540602Y-121629172D01*
X84540609Y-121629185D01*
X84628210Y-121760288D01*
X84628213Y-121760292D01*
X84739707Y-121871786D01*
X84739711Y-121871789D01*
X84870814Y-121959390D01*
X84870827Y-121959397D01*
X84944013Y-121989711D01*
X85016503Y-122019737D01*
X85171153Y-122050499D01*
X85171156Y-122050500D01*
X85171158Y-122050500D01*
X85328844Y-122050500D01*
X85328845Y-122050499D01*
X85483497Y-122019737D01*
X85629179Y-121959394D01*
X85760289Y-121871789D01*
X85871789Y-121760289D01*
X85959394Y-121629179D01*
X86019737Y-121483497D01*
X86050500Y-121328842D01*
X86050500Y-121171158D01*
X86050500Y-121171155D01*
X86050499Y-121171153D01*
X86019738Y-121016510D01*
X86019737Y-121016503D01*
X86019735Y-121016498D01*
X85959397Y-120870827D01*
X85959390Y-120870814D01*
X85871789Y-120739711D01*
X85871786Y-120739707D01*
X85760292Y-120628213D01*
X85760288Y-120628210D01*
X85629185Y-120540609D01*
X85629172Y-120540602D01*
X85510861Y-120491597D01*
X85483501Y-120480264D01*
X85483489Y-120480261D01*
X85328845Y-120449500D01*
X85328842Y-120449500D01*
X85171158Y-120449500D01*
X85171155Y-120449500D01*
X85016510Y-120480261D01*
X85016498Y-120480264D01*
X84870827Y-120540602D01*
X84870814Y-120540609D01*
X84739711Y-120628210D01*
X84739707Y-120628213D01*
X84628213Y-120739707D01*
X84628210Y-120739711D01*
X84540609Y-120870814D01*
X84540602Y-120870827D01*
X84480264Y-121016498D01*
X84480261Y-121016510D01*
X84449500Y-121171153D01*
X75375500Y-121171153D01*
X75375500Y-120381902D01*
X109249500Y-120381902D01*
X109249500Y-120618097D01*
X109286446Y-120851368D01*
X109359433Y-121075996D01*
X109407921Y-121171158D01*
X109466657Y-121286433D01*
X109605483Y-121477510D01*
X109605489Y-121477516D01*
X109608647Y-121481214D01*
X109606864Y-121482736D01*
X109635726Y-121535591D01*
X109630742Y-121605283D01*
X109588870Y-121661216D01*
X109579658Y-121667487D01*
X109531344Y-121697287D01*
X109407289Y-121821342D01*
X109315187Y-121970663D01*
X109315186Y-121970666D01*
X109260001Y-122137203D01*
X109260001Y-122137204D01*
X109260000Y-122137204D01*
X109249500Y-122239983D01*
X109249500Y-123840001D01*
X109249501Y-123840018D01*
X109260000Y-123942796D01*
X109260001Y-123942799D01*
X109287948Y-124027136D01*
X109315186Y-124109334D01*
X109407288Y-124258656D01*
X109531344Y-124382712D01*
X109680666Y-124474814D01*
X109847203Y-124529999D01*
X109949991Y-124540500D01*
X111550008Y-124540499D01*
X111652797Y-124529999D01*
X111819334Y-124474814D01*
X111968656Y-124382712D01*
X112092712Y-124258656D01*
X112184814Y-124109334D01*
X112239999Y-123942797D01*
X112250500Y-123840009D01*
X112250499Y-122239992D01*
X112239999Y-122137203D01*
X112184814Y-121970666D01*
X112092712Y-121821344D01*
X111968656Y-121697288D01*
X111968655Y-121697287D01*
X111920342Y-121667487D01*
X111873618Y-121615539D01*
X111862397Y-121546576D01*
X111890241Y-121482494D01*
X111891381Y-121481249D01*
X111891348Y-121481221D01*
X111894511Y-121477516D01*
X111894511Y-121477515D01*
X111894517Y-121477510D01*
X112033343Y-121286433D01*
X112140568Y-121075992D01*
X112213553Y-120851368D01*
X112231238Y-120739711D01*
X112250500Y-120618097D01*
X112250500Y-120381902D01*
X112213553Y-120148631D01*
X112140566Y-119924003D01*
X112033342Y-119713566D01*
X111894517Y-119522490D01*
X111727510Y-119355483D01*
X111536433Y-119216657D01*
X111325996Y-119109433D01*
X111101368Y-119036446D01*
X110868097Y-118999500D01*
X110868092Y-118999500D01*
X110631908Y-118999500D01*
X110631903Y-118999500D01*
X110398631Y-119036446D01*
X110174003Y-119109433D01*
X109963566Y-119216657D01*
X109854550Y-119295862D01*
X109772490Y-119355483D01*
X109772488Y-119355485D01*
X109772487Y-119355485D01*
X109605485Y-119522487D01*
X109605485Y-119522488D01*
X109605483Y-119522490D01*
X109545862Y-119604550D01*
X109466657Y-119713566D01*
X109359433Y-119924003D01*
X109286446Y-120148631D01*
X109249500Y-120381902D01*
X75375500Y-120381902D01*
X75375500Y-117671153D01*
X103699500Y-117671153D01*
X103699500Y-117828846D01*
X103730261Y-117983489D01*
X103730264Y-117983501D01*
X103790602Y-118129172D01*
X103790609Y-118129185D01*
X103878210Y-118260288D01*
X103878213Y-118260292D01*
X103989707Y-118371786D01*
X103989711Y-118371789D01*
X104120814Y-118459390D01*
X104120827Y-118459397D01*
X104220060Y-118500500D01*
X104266503Y-118519737D01*
X104421153Y-118550499D01*
X104421156Y-118550500D01*
X104421158Y-118550500D01*
X104578844Y-118550500D01*
X104578845Y-118550499D01*
X104733497Y-118519737D01*
X104879179Y-118459394D01*
X105010289Y-118371789D01*
X105121789Y-118260289D01*
X105209394Y-118129179D01*
X105269737Y-117983497D01*
X105300500Y-117828842D01*
X105300500Y-117671158D01*
X105300500Y-117671155D01*
X105300499Y-117671153D01*
X105269738Y-117516510D01*
X105269737Y-117516503D01*
X105269735Y-117516498D01*
X105209397Y-117370827D01*
X105209390Y-117370814D01*
X105121789Y-117239711D01*
X105121786Y-117239707D01*
X105010292Y-117128213D01*
X105010288Y-117128210D01*
X104879185Y-117040609D01*
X104879172Y-117040602D01*
X104733501Y-116980264D01*
X104733489Y-116980261D01*
X104578845Y-116949500D01*
X104578842Y-116949500D01*
X104421158Y-116949500D01*
X104421155Y-116949500D01*
X104266510Y-116980261D01*
X104266498Y-116980264D01*
X104120827Y-117040602D01*
X104120814Y-117040609D01*
X103989711Y-117128210D01*
X103989707Y-117128213D01*
X103878213Y-117239707D01*
X103878210Y-117239711D01*
X103790609Y-117370814D01*
X103790602Y-117370827D01*
X103730264Y-117516498D01*
X103730261Y-117516510D01*
X103699500Y-117671153D01*
X75375500Y-117671153D01*
X75375500Y-113421153D01*
X102199500Y-113421153D01*
X102199500Y-113578846D01*
X102230261Y-113733489D01*
X102230264Y-113733501D01*
X102290602Y-113879172D01*
X102290609Y-113879185D01*
X102378210Y-114010288D01*
X102378213Y-114010292D01*
X102489707Y-114121786D01*
X102489711Y-114121789D01*
X102620814Y-114209390D01*
X102620827Y-114209397D01*
X102701847Y-114242956D01*
X102766503Y-114269737D01*
X102921153Y-114300499D01*
X102921156Y-114300500D01*
X102921158Y-114300500D01*
X103078844Y-114300500D01*
X103078845Y-114300499D01*
X103233497Y-114269737D01*
X103280121Y-114250424D01*
X103349588Y-114242956D01*
X103412067Y-114274231D01*
X103447720Y-114334319D01*
X103445227Y-114404144D01*
X103415254Y-114452666D01*
X103378214Y-114489706D01*
X103378210Y-114489711D01*
X103290609Y-114620814D01*
X103290602Y-114620827D01*
X103230264Y-114766498D01*
X103230261Y-114766510D01*
X103199500Y-114921153D01*
X103199500Y-115078846D01*
X103230261Y-115233489D01*
X103230264Y-115233501D01*
X103290602Y-115379172D01*
X103290609Y-115379185D01*
X103378210Y-115510288D01*
X103378213Y-115510292D01*
X103489707Y-115621786D01*
X103489711Y-115621789D01*
X103620814Y-115709390D01*
X103620827Y-115709397D01*
X103766498Y-115769735D01*
X103766503Y-115769737D01*
X103921153Y-115800499D01*
X103921156Y-115800500D01*
X103921158Y-115800500D01*
X104078844Y-115800500D01*
X104078845Y-115800499D01*
X104233497Y-115769737D01*
X104379179Y-115709394D01*
X104510289Y-115621789D01*
X104621789Y-115510289D01*
X104709394Y-115379179D01*
X104769737Y-115233497D01*
X104800500Y-115078842D01*
X104800500Y-114921158D01*
X104800500Y-114921155D01*
X104800499Y-114921153D01*
X105449500Y-114921153D01*
X105449500Y-115078846D01*
X105480261Y-115233489D01*
X105480264Y-115233501D01*
X105540602Y-115379172D01*
X105540609Y-115379185D01*
X105628210Y-115510288D01*
X105628213Y-115510292D01*
X105739707Y-115621786D01*
X105739711Y-115621789D01*
X105870814Y-115709390D01*
X105870827Y-115709397D01*
X106016498Y-115769735D01*
X106016503Y-115769737D01*
X106171153Y-115800499D01*
X106171156Y-115800500D01*
X106171158Y-115800500D01*
X106328844Y-115800500D01*
X106328845Y-115800499D01*
X106483497Y-115769737D01*
X106629179Y-115709394D01*
X106760289Y-115621789D01*
X106871789Y-115510289D01*
X106959394Y-115379179D01*
X107019737Y-115233497D01*
X107050500Y-115078842D01*
X107050500Y-114921158D01*
X107050500Y-114921155D01*
X107050499Y-114921153D01*
X107019738Y-114766510D01*
X107019737Y-114766503D01*
X107019735Y-114766498D01*
X106959397Y-114620827D01*
X106959390Y-114620814D01*
X106871789Y-114489711D01*
X106871786Y-114489707D01*
X106760292Y-114378213D01*
X106760288Y-114378210D01*
X106705950Y-114341902D01*
X109269500Y-114341902D01*
X109269500Y-114578097D01*
X109306446Y-114811368D01*
X109379433Y-115035996D01*
X109480062Y-115233489D01*
X109486657Y-115246433D01*
X109625483Y-115437510D01*
X109625489Y-115437516D01*
X109628647Y-115441214D01*
X109626864Y-115442736D01*
X109655726Y-115495591D01*
X109650742Y-115565283D01*
X109608870Y-115621216D01*
X109599658Y-115627487D01*
X109551344Y-115657287D01*
X109427289Y-115781342D01*
X109335187Y-115930663D01*
X109335186Y-115930666D01*
X109280001Y-116097203D01*
X109280001Y-116097204D01*
X109280000Y-116097204D01*
X109269500Y-116199983D01*
X109269500Y-117800001D01*
X109269501Y-117800018D01*
X109280000Y-117902796D01*
X109280001Y-117902799D01*
X109335185Y-118069331D01*
X109335186Y-118069334D01*
X109427288Y-118218656D01*
X109551344Y-118342712D01*
X109700666Y-118434814D01*
X109867203Y-118489999D01*
X109969991Y-118500500D01*
X111570008Y-118500499D01*
X111672797Y-118489999D01*
X111839334Y-118434814D01*
X111988656Y-118342712D01*
X112112712Y-118218656D01*
X112204814Y-118069334D01*
X112259999Y-117902797D01*
X112270500Y-117800009D01*
X112270499Y-116199992D01*
X112259999Y-116097203D01*
X112204814Y-115930666D01*
X112112712Y-115781344D01*
X111988656Y-115657288D01*
X111988655Y-115657287D01*
X111940342Y-115627487D01*
X111893618Y-115575539D01*
X111882397Y-115506576D01*
X111910241Y-115442494D01*
X111911381Y-115441249D01*
X111911348Y-115441221D01*
X111914511Y-115437516D01*
X111914511Y-115437515D01*
X111914517Y-115437510D01*
X112053343Y-115246433D01*
X112160568Y-115035992D01*
X112233553Y-114811368D01*
X112240660Y-114766498D01*
X112270500Y-114578097D01*
X112270500Y-114341902D01*
X112233553Y-114108631D01*
X112160566Y-113884003D01*
X112053342Y-113673566D01*
X111914517Y-113482490D01*
X111747510Y-113315483D01*
X111556433Y-113176657D01*
X111345996Y-113069433D01*
X111121368Y-112996446D01*
X110888097Y-112959500D01*
X110888092Y-112959500D01*
X110651908Y-112959500D01*
X110651903Y-112959500D01*
X110418631Y-112996446D01*
X110194003Y-113069433D01*
X109983566Y-113176657D01*
X109874550Y-113255862D01*
X109792490Y-113315483D01*
X109792488Y-113315485D01*
X109792487Y-113315485D01*
X109625485Y-113482487D01*
X109625485Y-113482488D01*
X109625483Y-113482490D01*
X109565862Y-113564550D01*
X109486657Y-113673566D01*
X109379433Y-113884003D01*
X109306446Y-114108631D01*
X109269500Y-114341902D01*
X106705950Y-114341902D01*
X106629185Y-114290609D01*
X106629172Y-114290602D01*
X106483501Y-114230264D01*
X106483489Y-114230261D01*
X106328845Y-114199500D01*
X106328842Y-114199500D01*
X106171158Y-114199500D01*
X106171155Y-114199500D01*
X106016510Y-114230261D01*
X106016498Y-114230264D01*
X105870827Y-114290602D01*
X105870814Y-114290609D01*
X105739711Y-114378210D01*
X105739707Y-114378213D01*
X105628213Y-114489707D01*
X105628210Y-114489711D01*
X105540609Y-114620814D01*
X105540602Y-114620827D01*
X105480264Y-114766498D01*
X105480261Y-114766510D01*
X105449500Y-114921153D01*
X104800499Y-114921153D01*
X104769738Y-114766510D01*
X104769737Y-114766503D01*
X104769735Y-114766498D01*
X104709397Y-114620827D01*
X104709390Y-114620814D01*
X104621789Y-114489711D01*
X104621786Y-114489707D01*
X104510292Y-114378213D01*
X104510288Y-114378210D01*
X104379185Y-114290609D01*
X104379172Y-114290602D01*
X104233501Y-114230264D01*
X104233489Y-114230261D01*
X104078845Y-114199500D01*
X104078842Y-114199500D01*
X103921158Y-114199500D01*
X103921155Y-114199500D01*
X103766510Y-114230261D01*
X103766502Y-114230263D01*
X103719878Y-114249575D01*
X103650408Y-114257042D01*
X103587930Y-114225766D01*
X103552278Y-114165677D01*
X103554773Y-114095852D01*
X103584747Y-114047331D01*
X103621786Y-114010292D01*
X103621789Y-114010289D01*
X103709394Y-113879179D01*
X103769737Y-113733497D01*
X103800500Y-113578842D01*
X103800500Y-113421158D01*
X103800500Y-113421155D01*
X103800499Y-113421153D01*
X103769738Y-113266510D01*
X103769737Y-113266503D01*
X103732522Y-113176657D01*
X103709397Y-113120827D01*
X103709390Y-113120814D01*
X103621789Y-112989711D01*
X103621786Y-112989707D01*
X103510292Y-112878213D01*
X103510288Y-112878210D01*
X103379185Y-112790609D01*
X103379172Y-112790602D01*
X103233501Y-112730264D01*
X103233489Y-112730261D01*
X103078845Y-112699500D01*
X103078842Y-112699500D01*
X102921158Y-112699500D01*
X102921155Y-112699500D01*
X102766510Y-112730261D01*
X102766498Y-112730264D01*
X102620827Y-112790602D01*
X102620814Y-112790609D01*
X102489711Y-112878210D01*
X102489707Y-112878213D01*
X102378213Y-112989707D01*
X102378210Y-112989711D01*
X102290609Y-113120814D01*
X102290602Y-113120827D01*
X102230264Y-113266498D01*
X102230261Y-113266510D01*
X102199500Y-113421153D01*
X75375500Y-113421153D01*
X75375500Y-111098543D01*
X75749499Y-111098543D01*
X75787947Y-111291829D01*
X75787950Y-111291839D01*
X75863364Y-111473907D01*
X75863371Y-111473920D01*
X75972860Y-111637781D01*
X75972863Y-111637785D01*
X76112214Y-111777136D01*
X76112218Y-111777139D01*
X76276079Y-111886628D01*
X76276092Y-111886635D01*
X76458160Y-111962049D01*
X76458165Y-111962051D01*
X76458169Y-111962051D01*
X76458170Y-111962052D01*
X76651456Y-112000500D01*
X76651459Y-112000500D01*
X76848543Y-112000500D01*
X76978582Y-111974632D01*
X77041835Y-111962051D01*
X77184893Y-111902795D01*
X77223907Y-111886635D01*
X77223907Y-111886634D01*
X77223914Y-111886632D01*
X77387782Y-111777139D01*
X77527139Y-111637782D01*
X77636632Y-111473914D01*
X77688562Y-111348543D01*
X79499499Y-111348543D01*
X79537947Y-111541829D01*
X79537950Y-111541839D01*
X79613364Y-111723907D01*
X79613371Y-111723920D01*
X79722860Y-111887781D01*
X79722863Y-111887785D01*
X79862214Y-112027136D01*
X79862218Y-112027139D01*
X80026079Y-112136628D01*
X80026092Y-112136635D01*
X80208160Y-112212049D01*
X80208165Y-112212051D01*
X80208169Y-112212051D01*
X80208170Y-112212052D01*
X80401456Y-112250500D01*
X80401459Y-112250500D01*
X80598543Y-112250500D01*
X80728582Y-112224632D01*
X80791835Y-112212051D01*
X80973914Y-112136632D01*
X81137782Y-112027139D01*
X81277139Y-111887782D01*
X81386632Y-111723914D01*
X81462051Y-111541835D01*
X81495876Y-111371789D01*
X81500500Y-111348543D01*
X81500500Y-111151456D01*
X81462052Y-110958170D01*
X81462051Y-110958169D01*
X81462051Y-110958165D01*
X81408484Y-110828842D01*
X81386635Y-110776092D01*
X81386628Y-110776079D01*
X81358483Y-110733957D01*
X81316518Y-110671153D01*
X102199500Y-110671153D01*
X102199500Y-110828846D01*
X102230261Y-110983489D01*
X102230264Y-110983501D01*
X102290602Y-111129172D01*
X102290609Y-111129185D01*
X102378210Y-111260288D01*
X102378213Y-111260292D01*
X102489707Y-111371786D01*
X102489711Y-111371789D01*
X102620814Y-111459390D01*
X102620827Y-111459397D01*
X102766498Y-111519735D01*
X102766503Y-111519737D01*
X102877617Y-111541839D01*
X102921153Y-111550499D01*
X102921156Y-111550500D01*
X102921158Y-111550500D01*
X103078844Y-111550500D01*
X103078845Y-111550499D01*
X103233497Y-111519737D01*
X103379179Y-111459394D01*
X103510289Y-111371789D01*
X103621789Y-111260289D01*
X103709394Y-111129179D01*
X103769737Y-110983497D01*
X103800500Y-110828842D01*
X103800500Y-110671158D01*
X103800500Y-110671155D01*
X103800499Y-110671153D01*
X103771643Y-110526086D01*
X103769737Y-110516503D01*
X103751660Y-110472860D01*
X103709397Y-110370827D01*
X103709390Y-110370814D01*
X103621789Y-110239711D01*
X103621786Y-110239707D01*
X103510292Y-110128213D01*
X103510288Y-110128210D01*
X103379185Y-110040609D01*
X103379172Y-110040602D01*
X103233501Y-109980264D01*
X103233489Y-109980261D01*
X103078845Y-109949500D01*
X103078842Y-109949500D01*
X102921158Y-109949500D01*
X102921155Y-109949500D01*
X102766510Y-109980261D01*
X102766498Y-109980264D01*
X102620827Y-110040602D01*
X102620814Y-110040609D01*
X102489711Y-110128210D01*
X102489707Y-110128213D01*
X102378213Y-110239707D01*
X102378210Y-110239711D01*
X102290609Y-110370814D01*
X102290602Y-110370827D01*
X102230264Y-110516498D01*
X102230261Y-110516510D01*
X102199500Y-110671153D01*
X81316518Y-110671153D01*
X81277139Y-110612218D01*
X81277136Y-110612214D01*
X81137785Y-110472863D01*
X81137781Y-110472860D01*
X80973920Y-110363371D01*
X80973907Y-110363364D01*
X80791839Y-110287950D01*
X80791829Y-110287947D01*
X80598543Y-110249500D01*
X80598541Y-110249500D01*
X80401459Y-110249500D01*
X80401457Y-110249500D01*
X80208170Y-110287947D01*
X80208160Y-110287950D01*
X80026092Y-110363364D01*
X80026079Y-110363371D01*
X79862218Y-110472860D01*
X79862214Y-110472863D01*
X79722863Y-110612214D01*
X79722860Y-110612218D01*
X79613371Y-110776079D01*
X79613364Y-110776092D01*
X79537950Y-110958160D01*
X79537947Y-110958170D01*
X79499500Y-111151456D01*
X79499500Y-111151459D01*
X79499500Y-111348541D01*
X79499500Y-111348543D01*
X79499499Y-111348543D01*
X77688562Y-111348543D01*
X77712051Y-111291835D01*
X77739974Y-111151459D01*
X77745998Y-111121176D01*
X77745998Y-111121175D01*
X77750500Y-111098543D01*
X77750500Y-110901456D01*
X77712052Y-110708170D01*
X77712051Y-110708169D01*
X77712051Y-110708165D01*
X77672307Y-110612214D01*
X77636635Y-110526092D01*
X77636628Y-110526079D01*
X77527139Y-110362218D01*
X77527136Y-110362214D01*
X77387785Y-110222863D01*
X77387781Y-110222860D01*
X77223920Y-110113371D01*
X77223907Y-110113364D01*
X77041839Y-110037950D01*
X77041829Y-110037947D01*
X76848543Y-109999500D01*
X76848541Y-109999500D01*
X76651459Y-109999500D01*
X76651457Y-109999500D01*
X76458170Y-110037947D01*
X76458160Y-110037950D01*
X76276092Y-110113364D01*
X76276079Y-110113371D01*
X76112218Y-110222860D01*
X76112214Y-110222863D01*
X75972863Y-110362214D01*
X75972860Y-110362218D01*
X75863371Y-110526079D01*
X75863364Y-110526092D01*
X75787950Y-110708160D01*
X75787947Y-110708170D01*
X75749500Y-110901456D01*
X75749500Y-110901459D01*
X75749500Y-111098541D01*
X75749500Y-111098543D01*
X75749499Y-111098543D01*
X75375500Y-111098543D01*
X75375500Y-108671153D01*
X84449500Y-108671153D01*
X84449500Y-108828846D01*
X84480261Y-108983489D01*
X84480264Y-108983501D01*
X84540602Y-109129172D01*
X84540609Y-109129185D01*
X84628210Y-109260288D01*
X84628213Y-109260292D01*
X84739707Y-109371786D01*
X84739711Y-109371789D01*
X84870814Y-109459390D01*
X84870827Y-109459397D01*
X84984729Y-109506576D01*
X85016503Y-109519737D01*
X85171153Y-109550499D01*
X85171156Y-109550500D01*
X85171158Y-109550500D01*
X85328844Y-109550500D01*
X85328845Y-109550499D01*
X85483497Y-109519737D01*
X85629179Y-109459394D01*
X85760289Y-109371789D01*
X85871789Y-109260289D01*
X85959394Y-109129179D01*
X86019737Y-108983497D01*
X86050500Y-108828842D01*
X86050500Y-108671158D01*
X86050500Y-108671155D01*
X86050499Y-108671153D01*
X87699500Y-108671153D01*
X87699500Y-108828846D01*
X87730261Y-108983489D01*
X87730264Y-108983501D01*
X87790602Y-109129172D01*
X87790609Y-109129185D01*
X87878210Y-109260288D01*
X87878213Y-109260292D01*
X87989707Y-109371786D01*
X87989711Y-109371789D01*
X88120814Y-109459390D01*
X88120827Y-109459397D01*
X88234729Y-109506576D01*
X88266503Y-109519737D01*
X88421153Y-109550499D01*
X88421156Y-109550500D01*
X88421158Y-109550500D01*
X88578844Y-109550500D01*
X88578845Y-109550499D01*
X88733497Y-109519737D01*
X88879179Y-109459394D01*
X89010289Y-109371789D01*
X89121789Y-109260289D01*
X89209394Y-109129179D01*
X89269737Y-108983497D01*
X89300500Y-108828842D01*
X89300500Y-108671158D01*
X89300500Y-108671155D01*
X89300499Y-108671153D01*
X99699500Y-108671153D01*
X99699500Y-108828846D01*
X99730261Y-108983489D01*
X99730264Y-108983501D01*
X99790602Y-109129172D01*
X99790609Y-109129185D01*
X99878210Y-109260288D01*
X99878213Y-109260292D01*
X99989707Y-109371786D01*
X99989711Y-109371789D01*
X100120814Y-109459390D01*
X100120827Y-109459397D01*
X100234729Y-109506576D01*
X100266503Y-109519737D01*
X100421153Y-109550499D01*
X100421156Y-109550500D01*
X100421158Y-109550500D01*
X100578844Y-109550500D01*
X100578845Y-109550499D01*
X100733497Y-109519737D01*
X100879179Y-109459394D01*
X101010289Y-109371789D01*
X101121789Y-109260289D01*
X101209394Y-109129179D01*
X101269737Y-108983497D01*
X101300500Y-108828842D01*
X101300500Y-108671158D01*
X101300500Y-108671155D01*
X101300499Y-108671153D01*
X101269738Y-108516510D01*
X101269737Y-108516503D01*
X101269735Y-108516498D01*
X101215056Y-108384488D01*
X101215055Y-108384487D01*
X101209398Y-108370829D01*
X101209390Y-108370814D01*
X101190071Y-108341902D01*
X109249500Y-108341902D01*
X109249500Y-108578097D01*
X109286446Y-108811368D01*
X109359433Y-109035996D01*
X109406913Y-109129179D01*
X109466657Y-109246433D01*
X109605483Y-109437510D01*
X109605489Y-109437516D01*
X109608647Y-109441214D01*
X109606864Y-109442736D01*
X109635726Y-109495591D01*
X109630742Y-109565283D01*
X109588870Y-109621216D01*
X109579658Y-109627487D01*
X109531344Y-109657287D01*
X109407289Y-109781342D01*
X109315187Y-109930663D01*
X109315186Y-109930666D01*
X109260001Y-110097203D01*
X109260001Y-110097204D01*
X109260000Y-110097204D01*
X109249500Y-110199983D01*
X109249500Y-111800001D01*
X109249501Y-111800018D01*
X109260000Y-111902796D01*
X109260001Y-111902799D01*
X109301203Y-112027136D01*
X109315186Y-112069334D01*
X109407288Y-112218656D01*
X109531344Y-112342712D01*
X109680666Y-112434814D01*
X109847203Y-112489999D01*
X109949991Y-112500500D01*
X111550008Y-112500499D01*
X111652797Y-112489999D01*
X111819334Y-112434814D01*
X111968656Y-112342712D01*
X112092712Y-112218656D01*
X112184814Y-112069334D01*
X112239999Y-111902797D01*
X112250500Y-111800009D01*
X112250499Y-110199992D01*
X112243166Y-110128211D01*
X112239999Y-110097203D01*
X112239998Y-110097200D01*
X112184814Y-109930666D01*
X112092712Y-109781344D01*
X111968656Y-109657288D01*
X111968655Y-109657287D01*
X111920342Y-109627487D01*
X111873618Y-109575539D01*
X111862397Y-109506576D01*
X111890241Y-109442494D01*
X111891381Y-109441249D01*
X111891348Y-109441221D01*
X111894511Y-109437516D01*
X111894511Y-109437515D01*
X111894517Y-109437510D01*
X112033343Y-109246433D01*
X112140568Y-109035992D01*
X112213553Y-108811368D01*
X112235760Y-108671158D01*
X112250500Y-108578097D01*
X112250500Y-108341902D01*
X112213553Y-108108631D01*
X112179689Y-108004412D01*
X112140568Y-107884008D01*
X112140566Y-107884005D01*
X112140566Y-107884003D01*
X112033342Y-107673566D01*
X111894517Y-107482490D01*
X111727510Y-107315483D01*
X111536433Y-107176657D01*
X111325996Y-107069433D01*
X111101368Y-106996446D01*
X110868097Y-106959500D01*
X110868092Y-106959500D01*
X110631908Y-106959500D01*
X110631903Y-106959500D01*
X110398631Y-106996446D01*
X110174003Y-107069433D01*
X109963566Y-107176657D01*
X109854550Y-107255862D01*
X109772490Y-107315483D01*
X109772488Y-107315485D01*
X109772487Y-107315485D01*
X109605485Y-107482487D01*
X109605485Y-107482488D01*
X109605483Y-107482490D01*
X109545862Y-107564550D01*
X109466657Y-107673566D01*
X109359433Y-107884003D01*
X109286446Y-108108631D01*
X109249500Y-108341902D01*
X101190071Y-108341902D01*
X101121789Y-108239711D01*
X101121786Y-108239707D01*
X101010292Y-108128213D01*
X101010288Y-108128210D01*
X100879185Y-108040609D01*
X100879172Y-108040602D01*
X100733501Y-107980264D01*
X100733489Y-107980261D01*
X100578845Y-107949500D01*
X100578842Y-107949500D01*
X100421158Y-107949500D01*
X100421155Y-107949500D01*
X100266510Y-107980261D01*
X100266498Y-107980264D01*
X100120827Y-108040602D01*
X100120814Y-108040609D01*
X99989711Y-108128210D01*
X99989707Y-108128213D01*
X99878213Y-108239707D01*
X99878210Y-108239711D01*
X99790609Y-108370814D01*
X99790602Y-108370827D01*
X99730264Y-108516498D01*
X99730261Y-108516510D01*
X99699500Y-108671153D01*
X89300499Y-108671153D01*
X89269738Y-108516510D01*
X89269737Y-108516503D01*
X89215055Y-108384487D01*
X89209397Y-108370827D01*
X89209390Y-108370814D01*
X89121789Y-108239711D01*
X89121786Y-108239707D01*
X89010292Y-108128213D01*
X89010288Y-108128210D01*
X88879185Y-108040609D01*
X88879172Y-108040602D01*
X88733501Y-107980264D01*
X88733489Y-107980261D01*
X88578845Y-107949500D01*
X88578842Y-107949500D01*
X88421158Y-107949500D01*
X88421155Y-107949500D01*
X88266510Y-107980261D01*
X88266498Y-107980264D01*
X88120827Y-108040602D01*
X88120814Y-108040609D01*
X87989711Y-108128210D01*
X87989707Y-108128213D01*
X87878213Y-108239707D01*
X87878210Y-108239711D01*
X87790609Y-108370814D01*
X87790602Y-108370827D01*
X87730264Y-108516498D01*
X87730261Y-108516510D01*
X87699500Y-108671153D01*
X86050499Y-108671153D01*
X86019738Y-108516510D01*
X86019737Y-108516503D01*
X85965055Y-108384487D01*
X85959397Y-108370827D01*
X85959390Y-108370814D01*
X85871789Y-108239711D01*
X85871786Y-108239707D01*
X85760292Y-108128213D01*
X85760288Y-108128210D01*
X85629185Y-108040609D01*
X85629172Y-108040602D01*
X85483501Y-107980264D01*
X85483489Y-107980261D01*
X85328845Y-107949500D01*
X85328842Y-107949500D01*
X85171158Y-107949500D01*
X85171155Y-107949500D01*
X85016510Y-107980261D01*
X85016498Y-107980264D01*
X84870827Y-108040602D01*
X84870814Y-108040609D01*
X84739711Y-108128210D01*
X84739707Y-108128213D01*
X84628213Y-108239707D01*
X84628210Y-108239711D01*
X84540609Y-108370814D01*
X84540602Y-108370827D01*
X84480264Y-108516498D01*
X84480261Y-108516510D01*
X84449500Y-108671153D01*
X75375500Y-108671153D01*
X75375500Y-105171153D01*
X97949500Y-105171153D01*
X97949500Y-105328846D01*
X97980261Y-105483489D01*
X97980264Y-105483501D01*
X98040602Y-105629172D01*
X98040609Y-105629185D01*
X98128210Y-105760288D01*
X98128213Y-105760292D01*
X98239707Y-105871786D01*
X98239711Y-105871789D01*
X98370814Y-105959390D01*
X98370827Y-105959397D01*
X98516498Y-106019735D01*
X98516503Y-106019737D01*
X98671153Y-106050499D01*
X98671156Y-106050500D01*
X98671158Y-106050500D01*
X98828844Y-106050500D01*
X98828845Y-106050499D01*
X98983497Y-106019737D01*
X99129179Y-105959394D01*
X99260289Y-105871789D01*
X99260292Y-105871786D01*
X99287319Y-105844760D01*
X99348642Y-105811275D01*
X99418334Y-105816259D01*
X99462681Y-105844760D01*
X99489707Y-105871786D01*
X99489711Y-105871789D01*
X99620814Y-105959390D01*
X99620827Y-105959397D01*
X99766498Y-106019735D01*
X99766503Y-106019737D01*
X99921153Y-106050499D01*
X99921156Y-106050500D01*
X99921158Y-106050500D01*
X100078844Y-106050500D01*
X100078845Y-106050499D01*
X100233497Y-106019737D01*
X100379179Y-105959394D01*
X100510289Y-105871789D01*
X100543662Y-105838416D01*
X100604984Y-105804930D01*
X100674676Y-105809914D01*
X100730610Y-105851784D01*
X100734447Y-105857206D01*
X100753212Y-105885291D01*
X100864707Y-105996786D01*
X100864711Y-105996789D01*
X100995814Y-106084390D01*
X100995827Y-106084397D01*
X101086101Y-106121789D01*
X101141503Y-106144737D01*
X101296153Y-106175499D01*
X101296156Y-106175500D01*
X101296158Y-106175500D01*
X101453844Y-106175500D01*
X101453845Y-106175499D01*
X101608497Y-106144737D01*
X101754179Y-106084394D01*
X101885289Y-105996789D01*
X101996789Y-105885289D01*
X102036520Y-105825828D01*
X102050844Y-105804391D01*
X102104456Y-105759585D01*
X102173781Y-105750878D01*
X102236808Y-105781032D01*
X102268507Y-105825828D01*
X102290604Y-105879175D01*
X102290609Y-105879185D01*
X102378210Y-106010288D01*
X102378213Y-106010292D01*
X102489707Y-106121786D01*
X102489711Y-106121789D01*
X102620814Y-106209390D01*
X102620827Y-106209397D01*
X102766498Y-106269735D01*
X102766503Y-106269737D01*
X102921153Y-106300499D01*
X102921156Y-106300500D01*
X102921158Y-106300500D01*
X103078844Y-106300500D01*
X103078845Y-106300499D01*
X103233497Y-106269737D01*
X103379179Y-106209394D01*
X103510289Y-106121789D01*
X103621789Y-106010289D01*
X103709394Y-105879179D01*
X103769737Y-105733497D01*
X103800500Y-105578842D01*
X103800500Y-105421158D01*
X103800500Y-105421155D01*
X103800499Y-105421153D01*
X103782137Y-105328842D01*
X103769737Y-105266503D01*
X103710761Y-105124121D01*
X103709397Y-105120827D01*
X103709390Y-105120814D01*
X103621789Y-104989711D01*
X103621786Y-104989707D01*
X103510292Y-104878213D01*
X103510288Y-104878210D01*
X103379185Y-104790609D01*
X103379172Y-104790602D01*
X103233501Y-104730264D01*
X103233489Y-104730261D01*
X103078845Y-104699500D01*
X103078842Y-104699500D01*
X102921158Y-104699500D01*
X102921155Y-104699500D01*
X102766510Y-104730261D01*
X102766498Y-104730264D01*
X102620827Y-104790602D01*
X102620814Y-104790609D01*
X102489711Y-104878210D01*
X102489707Y-104878213D01*
X102378213Y-104989707D01*
X102378208Y-104989713D01*
X102324154Y-105070610D01*
X102270542Y-105115414D01*
X102201217Y-105124121D01*
X102138190Y-105093966D01*
X102106492Y-105049170D01*
X102084397Y-104995827D01*
X102084390Y-104995814D01*
X101996789Y-104864711D01*
X101996786Y-104864707D01*
X101885292Y-104753213D01*
X101885288Y-104753210D01*
X101754185Y-104665609D01*
X101754172Y-104665602D01*
X101608501Y-104605264D01*
X101608489Y-104605261D01*
X101453845Y-104574500D01*
X101453842Y-104574500D01*
X101296158Y-104574500D01*
X101296155Y-104574500D01*
X101141510Y-104605261D01*
X101141498Y-104605264D01*
X100995827Y-104665602D01*
X100995814Y-104665609D01*
X100864711Y-104753210D01*
X100864706Y-104753214D01*
X100831335Y-104786585D01*
X100770011Y-104820070D01*
X100700320Y-104815084D01*
X100644387Y-104773212D01*
X100640552Y-104767792D01*
X100621790Y-104739712D01*
X100621786Y-104739707D01*
X100510292Y-104628213D01*
X100510288Y-104628210D01*
X100379185Y-104540609D01*
X100379172Y-104540602D01*
X100233501Y-104480264D01*
X100233489Y-104480261D01*
X100078845Y-104449500D01*
X100078842Y-104449500D01*
X99921158Y-104449500D01*
X99921155Y-104449500D01*
X99766510Y-104480261D01*
X99766498Y-104480264D01*
X99620827Y-104540602D01*
X99620814Y-104540609D01*
X99489711Y-104628210D01*
X99489707Y-104628213D01*
X99462681Y-104655240D01*
X99401358Y-104688725D01*
X99331666Y-104683741D01*
X99287319Y-104655240D01*
X99260292Y-104628213D01*
X99260288Y-104628210D01*
X99129185Y-104540609D01*
X99129172Y-104540602D01*
X98983501Y-104480264D01*
X98983489Y-104480261D01*
X98828845Y-104449500D01*
X98828842Y-104449500D01*
X98671158Y-104449500D01*
X98671155Y-104449500D01*
X98516510Y-104480261D01*
X98516498Y-104480264D01*
X98370827Y-104540602D01*
X98370814Y-104540609D01*
X98239711Y-104628210D01*
X98239707Y-104628213D01*
X98128213Y-104739707D01*
X98128210Y-104739711D01*
X98040609Y-104870814D01*
X98040602Y-104870827D01*
X97980264Y-105016498D01*
X97980261Y-105016510D01*
X97949500Y-105171153D01*
X75375500Y-105171153D01*
X75375500Y-104171153D01*
X78949500Y-104171153D01*
X78949500Y-104328846D01*
X78980261Y-104483489D01*
X78980264Y-104483501D01*
X79040602Y-104629172D01*
X79040609Y-104629185D01*
X79128210Y-104760288D01*
X79128213Y-104760292D01*
X79239707Y-104871786D01*
X79239711Y-104871789D01*
X79370814Y-104959390D01*
X79370827Y-104959397D01*
X79508683Y-105016498D01*
X79516503Y-105019737D01*
X79664472Y-105049170D01*
X79671153Y-105050499D01*
X79671156Y-105050500D01*
X79671158Y-105050500D01*
X79828844Y-105050500D01*
X79828845Y-105050499D01*
X79839179Y-105048443D01*
X79864287Y-105043450D01*
X79864292Y-105043449D01*
X79949800Y-105026439D01*
X79983497Y-105019737D01*
X80129179Y-104959394D01*
X80260289Y-104871789D01*
X80348908Y-104783169D01*
X80410229Y-104749685D01*
X80479920Y-104754669D01*
X80484042Y-104756291D01*
X80516497Y-104769735D01*
X80516499Y-104769735D01*
X80516503Y-104769737D01*
X80671153Y-104800499D01*
X80671156Y-104800500D01*
X80671158Y-104800500D01*
X80828844Y-104800500D01*
X80828845Y-104800499D01*
X80983497Y-104769737D01*
X81129179Y-104709394D01*
X81260289Y-104621789D01*
X81371789Y-104510289D01*
X81459394Y-104379179D01*
X81519737Y-104233497D01*
X81550500Y-104078842D01*
X81550500Y-103921158D01*
X81550500Y-103921155D01*
X81550499Y-103921153D01*
X81522689Y-103781344D01*
X81519737Y-103766503D01*
X81519735Y-103766498D01*
X81459397Y-103620827D01*
X81459390Y-103620814D01*
X81371789Y-103489711D01*
X81371786Y-103489707D01*
X81260292Y-103378213D01*
X81260288Y-103378210D01*
X81129185Y-103290609D01*
X81129172Y-103290602D01*
X80983501Y-103230264D01*
X80983489Y-103230261D01*
X80828845Y-103199500D01*
X80828842Y-103199500D01*
X80671158Y-103199500D01*
X80671155Y-103199500D01*
X80516510Y-103230261D01*
X80516498Y-103230264D01*
X80370827Y-103290602D01*
X80370814Y-103290609D01*
X80239711Y-103378210D01*
X80239707Y-103378213D01*
X80151092Y-103466829D01*
X80089769Y-103500314D01*
X80020077Y-103495330D01*
X80015959Y-103493709D01*
X79983498Y-103480263D01*
X79983488Y-103480260D01*
X79828845Y-103449500D01*
X79828842Y-103449500D01*
X79671158Y-103449500D01*
X79671155Y-103449500D01*
X79516510Y-103480261D01*
X79516498Y-103480264D01*
X79370827Y-103540602D01*
X79370814Y-103540609D01*
X79239711Y-103628210D01*
X79239707Y-103628213D01*
X79128213Y-103739707D01*
X79128210Y-103739711D01*
X79040609Y-103870814D01*
X79040602Y-103870827D01*
X78980264Y-104016498D01*
X78980261Y-104016510D01*
X78949500Y-104171153D01*
X75375500Y-104171153D01*
X75375500Y-102421153D01*
X103199500Y-102421153D01*
X103199500Y-102578846D01*
X103230261Y-102733489D01*
X103230264Y-102733501D01*
X103290602Y-102879172D01*
X103290609Y-102879185D01*
X103378210Y-103010288D01*
X103378213Y-103010292D01*
X103489707Y-103121786D01*
X103489711Y-103121789D01*
X103620814Y-103209390D01*
X103620827Y-103209397D01*
X103766498Y-103269735D01*
X103766503Y-103269737D01*
X103921153Y-103300499D01*
X103921156Y-103300500D01*
X103921158Y-103300500D01*
X104078844Y-103300500D01*
X104078845Y-103300499D01*
X104233497Y-103269737D01*
X104379179Y-103209394D01*
X104510289Y-103121789D01*
X104621789Y-103010289D01*
X104709394Y-102879179D01*
X104769737Y-102733497D01*
X104798327Y-102589765D01*
X104830711Y-102527855D01*
X104891427Y-102493281D01*
X104961197Y-102497020D01*
X104967359Y-102499381D01*
X105016503Y-102519737D01*
X105171153Y-102550499D01*
X105171156Y-102550500D01*
X105171158Y-102550500D01*
X105328844Y-102550500D01*
X105328845Y-102550499D01*
X105483497Y-102519737D01*
X105629179Y-102459394D01*
X105760289Y-102371789D01*
X105790176Y-102341902D01*
X109269500Y-102341902D01*
X109269500Y-102578097D01*
X109306446Y-102811368D01*
X109379433Y-103035996D01*
X109467785Y-103209394D01*
X109486657Y-103246433D01*
X109625483Y-103437510D01*
X109625489Y-103437516D01*
X109628647Y-103441214D01*
X109626864Y-103442736D01*
X109655726Y-103495591D01*
X109650742Y-103565283D01*
X109608870Y-103621216D01*
X109599658Y-103627487D01*
X109551344Y-103657287D01*
X109427289Y-103781342D01*
X109335187Y-103930663D01*
X109335186Y-103930666D01*
X109280001Y-104097203D01*
X109280001Y-104097204D01*
X109280000Y-104097204D01*
X109269500Y-104199983D01*
X109269500Y-105800001D01*
X109269501Y-105800018D01*
X109280000Y-105902796D01*
X109280001Y-105902799D01*
X109335185Y-106069331D01*
X109335187Y-106069336D01*
X109344475Y-106084394D01*
X109427288Y-106218656D01*
X109551344Y-106342712D01*
X109700666Y-106434814D01*
X109867203Y-106489999D01*
X109969991Y-106500500D01*
X111570008Y-106500499D01*
X111672797Y-106489999D01*
X111839334Y-106434814D01*
X111988656Y-106342712D01*
X112112712Y-106218656D01*
X112204814Y-106069334D01*
X112259999Y-105902797D01*
X112270500Y-105800009D01*
X112270499Y-104199992D01*
X112259999Y-104097203D01*
X112204814Y-103930666D01*
X112112712Y-103781344D01*
X111988656Y-103657288D01*
X111988655Y-103657287D01*
X111940342Y-103627487D01*
X111893618Y-103575539D01*
X111882397Y-103506576D01*
X111910241Y-103442494D01*
X111911381Y-103441249D01*
X111911348Y-103441221D01*
X111914511Y-103437516D01*
X111914511Y-103437515D01*
X111914517Y-103437510D01*
X112053343Y-103246433D01*
X112160568Y-103035992D01*
X112233553Y-102811368D01*
X112245886Y-102733501D01*
X112270500Y-102578097D01*
X112270500Y-102341902D01*
X112233553Y-102108631D01*
X112160566Y-101884003D01*
X112097530Y-101760289D01*
X112053343Y-101673567D01*
X111914517Y-101482490D01*
X111747510Y-101315483D01*
X111556433Y-101176657D01*
X111545631Y-101171153D01*
X111345996Y-101069433D01*
X111121368Y-100996446D01*
X110888097Y-100959500D01*
X110888092Y-100959500D01*
X110651908Y-100959500D01*
X110651903Y-100959500D01*
X110418631Y-100996446D01*
X110194003Y-101069433D01*
X109983566Y-101176657D01*
X109896786Y-101239707D01*
X109792490Y-101315483D01*
X109792488Y-101315485D01*
X109792487Y-101315485D01*
X109625485Y-101482487D01*
X109625485Y-101482488D01*
X109625483Y-101482490D01*
X109600766Y-101516510D01*
X109486657Y-101673566D01*
X109379433Y-101884003D01*
X109306446Y-102108631D01*
X109269500Y-102341902D01*
X105790176Y-102341902D01*
X105871789Y-102260289D01*
X105959394Y-102129179D01*
X105962854Y-102120827D01*
X105991984Y-102050499D01*
X106019737Y-101983497D01*
X106050500Y-101828842D01*
X106050500Y-101671158D01*
X106050500Y-101671155D01*
X106050499Y-101671153D01*
X106019738Y-101516510D01*
X106019738Y-101516508D01*
X106019737Y-101516503D01*
X106006062Y-101483489D01*
X105959397Y-101370827D01*
X105959395Y-101370823D01*
X105959394Y-101370821D01*
X105931346Y-101328844D01*
X105928956Y-101325267D01*
X105908078Y-101258590D01*
X105926562Y-101191210D01*
X105963167Y-101153274D01*
X106010289Y-101121789D01*
X106121789Y-101010289D01*
X106209394Y-100879179D01*
X106212854Y-100870827D01*
X106267163Y-100739711D01*
X106269737Y-100733497D01*
X106300500Y-100578842D01*
X106300500Y-100421158D01*
X106300500Y-100421155D01*
X106300499Y-100421153D01*
X106284896Y-100342712D01*
X106269737Y-100266503D01*
X106230242Y-100171153D01*
X106209397Y-100120827D01*
X106209390Y-100120814D01*
X106121789Y-99989711D01*
X106121786Y-99989707D01*
X106010292Y-99878213D01*
X106010288Y-99878210D01*
X105879185Y-99790609D01*
X105879172Y-99790602D01*
X105733501Y-99730264D01*
X105733489Y-99730261D01*
X105578845Y-99699500D01*
X105578842Y-99699500D01*
X105421158Y-99699500D01*
X105421155Y-99699500D01*
X105266510Y-99730261D01*
X105266498Y-99730264D01*
X105120827Y-99790602D01*
X105120814Y-99790609D01*
X104989711Y-99878210D01*
X104989707Y-99878213D01*
X104878213Y-99989707D01*
X104878210Y-99989711D01*
X104790609Y-100120814D01*
X104790602Y-100120827D01*
X104730264Y-100266498D01*
X104730261Y-100266510D01*
X104699500Y-100421153D01*
X104699500Y-100578846D01*
X104730261Y-100733489D01*
X104730264Y-100733501D01*
X104790602Y-100879172D01*
X104790609Y-100879185D01*
X104821043Y-100924732D01*
X104841921Y-100991409D01*
X104823437Y-101058790D01*
X104786832Y-101096725D01*
X104739711Y-101128210D01*
X104739707Y-101128213D01*
X104628213Y-101239707D01*
X104628210Y-101239711D01*
X104540609Y-101370814D01*
X104540602Y-101370827D01*
X104480264Y-101516498D01*
X104480261Y-101516508D01*
X104451672Y-101660234D01*
X104419287Y-101722145D01*
X104358571Y-101756719D01*
X104288801Y-101752979D01*
X104282603Y-101750603D01*
X104233501Y-101730264D01*
X104233489Y-101730261D01*
X104078845Y-101699500D01*
X104078842Y-101699500D01*
X103921158Y-101699500D01*
X103921155Y-101699500D01*
X103766510Y-101730261D01*
X103766498Y-101730264D01*
X103620827Y-101790602D01*
X103620814Y-101790609D01*
X103489711Y-101878210D01*
X103489707Y-101878213D01*
X103378213Y-101989707D01*
X103378210Y-101989711D01*
X103290609Y-102120814D01*
X103290602Y-102120827D01*
X103230264Y-102266498D01*
X103230261Y-102266510D01*
X103199500Y-102421153D01*
X75375500Y-102421153D01*
X75375500Y-100171153D01*
X78699500Y-100171153D01*
X78699500Y-100328846D01*
X78730261Y-100483489D01*
X78730264Y-100483501D01*
X78790602Y-100629172D01*
X78790609Y-100629185D01*
X78878210Y-100760288D01*
X78878213Y-100760292D01*
X78989707Y-100871786D01*
X78989711Y-100871789D01*
X79120814Y-100959390D01*
X79120827Y-100959397D01*
X79258683Y-101016498D01*
X79266503Y-101019737D01*
X79371418Y-101040606D01*
X79421153Y-101050499D01*
X79421156Y-101050500D01*
X79421158Y-101050500D01*
X79578844Y-101050500D01*
X79578845Y-101050499D01*
X79733497Y-101019737D01*
X79879179Y-100959394D01*
X80010289Y-100871789D01*
X80121789Y-100760289D01*
X80209394Y-100629179D01*
X80269737Y-100483497D01*
X80282138Y-100421153D01*
X81949500Y-100421153D01*
X81949500Y-100578846D01*
X81980261Y-100733489D01*
X81980264Y-100733501D01*
X82040602Y-100879172D01*
X82040609Y-100879185D01*
X82128210Y-101010288D01*
X82128213Y-101010292D01*
X82239707Y-101121786D01*
X82239711Y-101121789D01*
X82370814Y-101209390D01*
X82370827Y-101209397D01*
X82516498Y-101269735D01*
X82516503Y-101269737D01*
X82671153Y-101300499D01*
X82671156Y-101300500D01*
X82671158Y-101300500D01*
X82828844Y-101300500D01*
X82828845Y-101300499D01*
X82983497Y-101269737D01*
X83077550Y-101230778D01*
X83147016Y-101223310D01*
X83172443Y-101230775D01*
X83266503Y-101269737D01*
X83421153Y-101300499D01*
X83421156Y-101300500D01*
X83421158Y-101300500D01*
X83578844Y-101300500D01*
X83578845Y-101300499D01*
X83733497Y-101269737D01*
X83852516Y-101220438D01*
X83879172Y-101209397D01*
X83879172Y-101209396D01*
X83879179Y-101209394D01*
X84010289Y-101121789D01*
X84121789Y-101010289D01*
X84209394Y-100879179D01*
X84212854Y-100870827D01*
X84267163Y-100739711D01*
X84269737Y-100733497D01*
X84272170Y-100721261D01*
X84304555Y-100659352D01*
X84365270Y-100624777D01*
X84435040Y-100628516D01*
X84462679Y-100642351D01*
X84517621Y-100679062D01*
X84517623Y-100679063D01*
X84517627Y-100679065D01*
X84605030Y-100715267D01*
X84663303Y-100739405D01*
X84673935Y-100741519D01*
X84735846Y-100773903D01*
X84764306Y-100815685D01*
X84790602Y-100879173D01*
X84790609Y-100879185D01*
X84878210Y-101010288D01*
X84878213Y-101010292D01*
X84989707Y-101121786D01*
X84989711Y-101121789D01*
X85120814Y-101209390D01*
X85120827Y-101209397D01*
X85266498Y-101269735D01*
X85266503Y-101269737D01*
X85421153Y-101300499D01*
X85421156Y-101300500D01*
X85421158Y-101300500D01*
X85578844Y-101300500D01*
X85578845Y-101300499D01*
X85733497Y-101269737D01*
X85852516Y-101220438D01*
X85879172Y-101209397D01*
X85879172Y-101209396D01*
X85879179Y-101209394D01*
X86010289Y-101121789D01*
X86010292Y-101121786D01*
X86037319Y-101094760D01*
X86098642Y-101061275D01*
X86168334Y-101066259D01*
X86212681Y-101094760D01*
X86239707Y-101121786D01*
X86239711Y-101121789D01*
X86370814Y-101209390D01*
X86370827Y-101209397D01*
X86516498Y-101269735D01*
X86516503Y-101269737D01*
X86671153Y-101300499D01*
X86671156Y-101300500D01*
X86671158Y-101300500D01*
X86828844Y-101300500D01*
X86828845Y-101300499D01*
X86983497Y-101269737D01*
X87102516Y-101220438D01*
X87129172Y-101209397D01*
X87129172Y-101209396D01*
X87129179Y-101209394D01*
X87186411Y-101171153D01*
X89199500Y-101171153D01*
X89199500Y-101328846D01*
X89230261Y-101483489D01*
X89230264Y-101483501D01*
X89290602Y-101629172D01*
X89290609Y-101629185D01*
X89378210Y-101760288D01*
X89378213Y-101760292D01*
X89489707Y-101871786D01*
X89489711Y-101871789D01*
X89620814Y-101959390D01*
X89620827Y-101959397D01*
X89694013Y-101989711D01*
X89766503Y-102019737D01*
X89921153Y-102050499D01*
X89921156Y-102050500D01*
X89921158Y-102050500D01*
X90078844Y-102050500D01*
X90078845Y-102050499D01*
X90233497Y-102019737D01*
X90379179Y-101959394D01*
X90510289Y-101871789D01*
X90621789Y-101760289D01*
X90709394Y-101629179D01*
X90769737Y-101483497D01*
X90800500Y-101328842D01*
X90800500Y-101171158D01*
X90800500Y-101171155D01*
X90800499Y-101171153D01*
X90781847Y-101077385D01*
X90769737Y-101016503D01*
X90767163Y-101010288D01*
X90709397Y-100870827D01*
X90709390Y-100870814D01*
X90621789Y-100739711D01*
X90621786Y-100739707D01*
X90510292Y-100628213D01*
X90510288Y-100628210D01*
X90379185Y-100540609D01*
X90379172Y-100540602D01*
X90233501Y-100480264D01*
X90233489Y-100480261D01*
X90078845Y-100449500D01*
X90078842Y-100449500D01*
X89921158Y-100449500D01*
X89921155Y-100449500D01*
X89766510Y-100480261D01*
X89766498Y-100480264D01*
X89620827Y-100540602D01*
X89620814Y-100540609D01*
X89489711Y-100628210D01*
X89489707Y-100628213D01*
X89378213Y-100739707D01*
X89378210Y-100739711D01*
X89290609Y-100870814D01*
X89290602Y-100870827D01*
X89230264Y-101016498D01*
X89230261Y-101016510D01*
X89199500Y-101171153D01*
X87186411Y-101171153D01*
X87260289Y-101121789D01*
X87260292Y-101121786D01*
X87304694Y-101077385D01*
X87371786Y-101010292D01*
X87371789Y-101010289D01*
X87459394Y-100879179D01*
X87462854Y-100870827D01*
X87517163Y-100739711D01*
X87519737Y-100733497D01*
X87550500Y-100578842D01*
X87550500Y-100421158D01*
X87550500Y-100421155D01*
X87550499Y-100421153D01*
X87534896Y-100342712D01*
X87519737Y-100266503D01*
X87480242Y-100171153D01*
X87459397Y-100120827D01*
X87459390Y-100120814D01*
X87371789Y-99989711D01*
X87371786Y-99989707D01*
X87260292Y-99878213D01*
X87260288Y-99878210D01*
X87129185Y-99790609D01*
X87129172Y-99790602D01*
X86983501Y-99730264D01*
X86983489Y-99730261D01*
X86828845Y-99699500D01*
X86828842Y-99699500D01*
X86671158Y-99699500D01*
X86671155Y-99699500D01*
X86516510Y-99730261D01*
X86516498Y-99730264D01*
X86370827Y-99790602D01*
X86370814Y-99790609D01*
X86239711Y-99878210D01*
X86239707Y-99878213D01*
X86212681Y-99905240D01*
X86151358Y-99938725D01*
X86081666Y-99933741D01*
X86037319Y-99905240D01*
X86010292Y-99878213D01*
X86010288Y-99878210D01*
X85879185Y-99790609D01*
X85879172Y-99790602D01*
X85733501Y-99730264D01*
X85733492Y-99730261D01*
X85722861Y-99728147D01*
X85660950Y-99695761D01*
X85632494Y-99653986D01*
X85606194Y-99590489D01*
X85532544Y-99480264D01*
X85518589Y-99459378D01*
X85407092Y-99347881D01*
X85407088Y-99347878D01*
X85275985Y-99260277D01*
X85275972Y-99260270D01*
X85130301Y-99199932D01*
X85130289Y-99199929D01*
X84975645Y-99169168D01*
X84975642Y-99169168D01*
X84817958Y-99169168D01*
X84817955Y-99169168D01*
X84663310Y-99199929D01*
X84663298Y-99199932D01*
X84517627Y-99260270D01*
X84517614Y-99260277D01*
X84386511Y-99347878D01*
X84386507Y-99347881D01*
X84275013Y-99459375D01*
X84275010Y-99459379D01*
X84187409Y-99590482D01*
X84187402Y-99590495D01*
X84127064Y-99736166D01*
X84127061Y-99736177D01*
X84124627Y-99748412D01*
X84092239Y-99810321D01*
X84031521Y-99844892D01*
X83961752Y-99841149D01*
X83934120Y-99827316D01*
X83879185Y-99790609D01*
X83879172Y-99790602D01*
X83733501Y-99730264D01*
X83733489Y-99730261D01*
X83578845Y-99699500D01*
X83578842Y-99699500D01*
X83421158Y-99699500D01*
X83421155Y-99699500D01*
X83266510Y-99730261D01*
X83266498Y-99730264D01*
X83172452Y-99769219D01*
X83102982Y-99776688D01*
X83077548Y-99769219D01*
X82983501Y-99730264D01*
X82983489Y-99730261D01*
X82828845Y-99699500D01*
X82828842Y-99699500D01*
X82671158Y-99699500D01*
X82671155Y-99699500D01*
X82516510Y-99730261D01*
X82516498Y-99730264D01*
X82370827Y-99790602D01*
X82370814Y-99790609D01*
X82239711Y-99878210D01*
X82239707Y-99878213D01*
X82128213Y-99989707D01*
X82128210Y-99989711D01*
X82040609Y-100120814D01*
X82040602Y-100120827D01*
X81980264Y-100266498D01*
X81980261Y-100266510D01*
X81949500Y-100421153D01*
X80282138Y-100421153D01*
X80297741Y-100342712D01*
X80300500Y-100328844D01*
X80300500Y-100171155D01*
X80300499Y-100171153D01*
X80269738Y-100016510D01*
X80269737Y-100016503D01*
X80260630Y-99994516D01*
X80209397Y-99870827D01*
X80209390Y-99870814D01*
X80121789Y-99739711D01*
X80121786Y-99739707D01*
X80010292Y-99628213D01*
X80010288Y-99628210D01*
X79879185Y-99540609D01*
X79879172Y-99540602D01*
X79733501Y-99480264D01*
X79733489Y-99480261D01*
X79578845Y-99449500D01*
X79578842Y-99449500D01*
X79421158Y-99449500D01*
X79421155Y-99449500D01*
X79266510Y-99480261D01*
X79266498Y-99480264D01*
X79120827Y-99540602D01*
X79120814Y-99540609D01*
X78989711Y-99628210D01*
X78989707Y-99628213D01*
X78878213Y-99739707D01*
X78878210Y-99739711D01*
X78790609Y-99870814D01*
X78790602Y-99870827D01*
X78730264Y-100016498D01*
X78730261Y-100016510D01*
X78699500Y-100171153D01*
X75375500Y-100171153D01*
X75375500Y-96421153D01*
X79699500Y-96421153D01*
X79699500Y-96578846D01*
X79730261Y-96733489D01*
X79730264Y-96733501D01*
X79790602Y-96879172D01*
X79790609Y-96879185D01*
X79878210Y-97010288D01*
X79878213Y-97010292D01*
X79989707Y-97121786D01*
X79989711Y-97121789D01*
X80120814Y-97209390D01*
X80120827Y-97209397D01*
X80258683Y-97266498D01*
X80266503Y-97269737D01*
X80421153Y-97300499D01*
X80421156Y-97300500D01*
X80421158Y-97300500D01*
X80578844Y-97300500D01*
X80578845Y-97300499D01*
X80733497Y-97269737D01*
X80879179Y-97209394D01*
X81010289Y-97121789D01*
X81121789Y-97010289D01*
X81209394Y-96879179D01*
X81269737Y-96733497D01*
X81300500Y-96578842D01*
X81300500Y-96517705D01*
X86072867Y-96517705D01*
X86072867Y-96675398D01*
X86103628Y-96830041D01*
X86103631Y-96830053D01*
X86163969Y-96975724D01*
X86163976Y-96975737D01*
X86251577Y-97106840D01*
X86251580Y-97106844D01*
X86363074Y-97218338D01*
X86363078Y-97218341D01*
X86494181Y-97305942D01*
X86494194Y-97305949D01*
X86639865Y-97366287D01*
X86639870Y-97366289D01*
X86794520Y-97397051D01*
X86794523Y-97397052D01*
X86794525Y-97397052D01*
X86952211Y-97397052D01*
X86952212Y-97397051D01*
X87106864Y-97366289D01*
X87252546Y-97305946D01*
X87383656Y-97218341D01*
X87495156Y-97106841D01*
X87533435Y-97049550D01*
X87587044Y-97004747D01*
X87656369Y-96996038D01*
X87660716Y-96996823D01*
X87667012Y-96998075D01*
X87671157Y-96998900D01*
X87671158Y-96998900D01*
X87828844Y-96998900D01*
X87828845Y-96998899D01*
X87983497Y-96968137D01*
X88096927Y-96921153D01*
X89699500Y-96921153D01*
X89699500Y-97078846D01*
X89730261Y-97233489D01*
X89730264Y-97233501D01*
X89790602Y-97379172D01*
X89790609Y-97379185D01*
X89878210Y-97510288D01*
X89878213Y-97510292D01*
X89989707Y-97621786D01*
X89989711Y-97621789D01*
X90120814Y-97709390D01*
X90120827Y-97709397D01*
X90266498Y-97769735D01*
X90266503Y-97769737D01*
X90421153Y-97800499D01*
X90421156Y-97800500D01*
X90421158Y-97800500D01*
X90578844Y-97800500D01*
X90578845Y-97800499D01*
X90733497Y-97769737D01*
X90879179Y-97709394D01*
X91010289Y-97621789D01*
X91121789Y-97510289D01*
X91181348Y-97421153D01*
X102199500Y-97421153D01*
X102199500Y-97578846D01*
X102230261Y-97733489D01*
X102230264Y-97733501D01*
X102290602Y-97879172D01*
X102290609Y-97879185D01*
X102378210Y-98010288D01*
X102378213Y-98010292D01*
X102489707Y-98121786D01*
X102489711Y-98121789D01*
X102620814Y-98209390D01*
X102620827Y-98209397D01*
X102766498Y-98269735D01*
X102766503Y-98269737D01*
X102921153Y-98300499D01*
X102921156Y-98300500D01*
X102921158Y-98300500D01*
X103078844Y-98300500D01*
X103078845Y-98300499D01*
X103233497Y-98269737D01*
X103379179Y-98209394D01*
X103510289Y-98121789D01*
X103621789Y-98010289D01*
X103709394Y-97879179D01*
X103769737Y-97733497D01*
X103800500Y-97578842D01*
X103800500Y-97421158D01*
X103800500Y-97421155D01*
X103800499Y-97421153D01*
X103777583Y-97305949D01*
X103769737Y-97266503D01*
X103709794Y-97121786D01*
X103709397Y-97120827D01*
X103709390Y-97120814D01*
X103621789Y-96989711D01*
X103621786Y-96989707D01*
X103510292Y-96878213D01*
X103510288Y-96878210D01*
X103379185Y-96790609D01*
X103379172Y-96790602D01*
X103233501Y-96730264D01*
X103233489Y-96730261D01*
X103078845Y-96699500D01*
X103078842Y-96699500D01*
X102921158Y-96699500D01*
X102921155Y-96699500D01*
X102766510Y-96730261D01*
X102766498Y-96730264D01*
X102620827Y-96790602D01*
X102620814Y-96790609D01*
X102489711Y-96878210D01*
X102489707Y-96878213D01*
X102378213Y-96989707D01*
X102378210Y-96989711D01*
X102290609Y-97120814D01*
X102290602Y-97120827D01*
X102230264Y-97266498D01*
X102230261Y-97266510D01*
X102199500Y-97421153D01*
X91181348Y-97421153D01*
X91209394Y-97379179D01*
X91269737Y-97233497D01*
X91300500Y-97078842D01*
X91300500Y-96921158D01*
X91300500Y-96921155D01*
X91300499Y-96921153D01*
X91282377Y-96830049D01*
X91269737Y-96766503D01*
X91256062Y-96733489D01*
X91209397Y-96620827D01*
X91209390Y-96620814D01*
X91121789Y-96489711D01*
X91121786Y-96489707D01*
X91010292Y-96378213D01*
X91010288Y-96378210D01*
X90955950Y-96341902D01*
X109269500Y-96341902D01*
X109269500Y-96578097D01*
X109306446Y-96811368D01*
X109379433Y-97035996D01*
X109467785Y-97209394D01*
X109486657Y-97246433D01*
X109625483Y-97437510D01*
X109625489Y-97437516D01*
X109628647Y-97441214D01*
X109626864Y-97442736D01*
X109655726Y-97495591D01*
X109650742Y-97565283D01*
X109608870Y-97621216D01*
X109599658Y-97627487D01*
X109551344Y-97657287D01*
X109427289Y-97781342D01*
X109335187Y-97930663D01*
X109335185Y-97930668D01*
X109307349Y-98014670D01*
X109280001Y-98097203D01*
X109280001Y-98097204D01*
X109280000Y-98097204D01*
X109269500Y-98199983D01*
X109269500Y-99800001D01*
X109269501Y-99800018D01*
X109280000Y-99902796D01*
X109280001Y-99902799D01*
X109317682Y-100016510D01*
X109335186Y-100069334D01*
X109427288Y-100218656D01*
X109551344Y-100342712D01*
X109700666Y-100434814D01*
X109867203Y-100489999D01*
X109969991Y-100500500D01*
X111570008Y-100500499D01*
X111672797Y-100489999D01*
X111839334Y-100434814D01*
X111988656Y-100342712D01*
X112112712Y-100218656D01*
X112204814Y-100069334D01*
X112259999Y-99902797D01*
X112270500Y-99800009D01*
X112270499Y-98199992D01*
X112262510Y-98121789D01*
X112259999Y-98097203D01*
X112259998Y-98097200D01*
X112231198Y-98010288D01*
X112204814Y-97930666D01*
X112112712Y-97781344D01*
X111988656Y-97657288D01*
X111988655Y-97657287D01*
X111940342Y-97627487D01*
X111893618Y-97575539D01*
X111882397Y-97506576D01*
X111910241Y-97442494D01*
X111911381Y-97441249D01*
X111911348Y-97441221D01*
X111914511Y-97437516D01*
X111914511Y-97437515D01*
X111914517Y-97437510D01*
X112053343Y-97246433D01*
X112160568Y-97035992D01*
X112233553Y-96811368D01*
X112245886Y-96733501D01*
X112270500Y-96578097D01*
X112270500Y-96341902D01*
X112233553Y-96108631D01*
X112186851Y-95964898D01*
X112160568Y-95884008D01*
X112160566Y-95884005D01*
X112160566Y-95884003D01*
X112083991Y-95733718D01*
X112053343Y-95673567D01*
X111914517Y-95482490D01*
X111747510Y-95315483D01*
X111556433Y-95176657D01*
X111345996Y-95069433D01*
X111121368Y-94996446D01*
X110888097Y-94959500D01*
X110888092Y-94959500D01*
X110651908Y-94959500D01*
X110651903Y-94959500D01*
X110418631Y-94996446D01*
X110194003Y-95069433D01*
X109983566Y-95176657D01*
X109874550Y-95255862D01*
X109792490Y-95315483D01*
X109792488Y-95315485D01*
X109792487Y-95315485D01*
X109625485Y-95482487D01*
X109625485Y-95482488D01*
X109625483Y-95482490D01*
X109620752Y-95489002D01*
X109486657Y-95673566D01*
X109379433Y-95884003D01*
X109306446Y-96108631D01*
X109269500Y-96341902D01*
X90955950Y-96341902D01*
X90879185Y-96290609D01*
X90879172Y-96290602D01*
X90733501Y-96230264D01*
X90733489Y-96230261D01*
X90578845Y-96199500D01*
X90578842Y-96199500D01*
X90421158Y-96199500D01*
X90421155Y-96199500D01*
X90266510Y-96230261D01*
X90266498Y-96230264D01*
X90120827Y-96290602D01*
X90120814Y-96290609D01*
X89989711Y-96378210D01*
X89989707Y-96378213D01*
X89878213Y-96489707D01*
X89878210Y-96489711D01*
X89790609Y-96620814D01*
X89790602Y-96620827D01*
X89730264Y-96766498D01*
X89730261Y-96766510D01*
X89699500Y-96921153D01*
X88096927Y-96921153D01*
X88129179Y-96907794D01*
X88260289Y-96820189D01*
X88371789Y-96708689D01*
X88459394Y-96577579D01*
X88519737Y-96431897D01*
X88550500Y-96277242D01*
X88550500Y-96119558D01*
X88550500Y-96119555D01*
X88550499Y-96119553D01*
X88543876Y-96086259D01*
X88519737Y-95964903D01*
X88488683Y-95889931D01*
X88459397Y-95819227D01*
X88459390Y-95819214D01*
X88371789Y-95688111D01*
X88371786Y-95688107D01*
X88260292Y-95576613D01*
X88260288Y-95576610D01*
X88129185Y-95489009D01*
X88129172Y-95489002D01*
X87983501Y-95428664D01*
X87983489Y-95428661D01*
X87828845Y-95397900D01*
X87828842Y-95397900D01*
X87671158Y-95397900D01*
X87671155Y-95397900D01*
X87516510Y-95428661D01*
X87516498Y-95428664D01*
X87370827Y-95489002D01*
X87370814Y-95489009D01*
X87239711Y-95576610D01*
X87239707Y-95576613D01*
X87128213Y-95688107D01*
X87128208Y-95688113D01*
X87089930Y-95745400D01*
X87036318Y-95790204D01*
X86966993Y-95798911D01*
X86962645Y-95798127D01*
X86952210Y-95796052D01*
X86952209Y-95796052D01*
X86794525Y-95796052D01*
X86794522Y-95796052D01*
X86639877Y-95826813D01*
X86639865Y-95826816D01*
X86494194Y-95887154D01*
X86494181Y-95887161D01*
X86363078Y-95974762D01*
X86363074Y-95974765D01*
X86251580Y-96086259D01*
X86251577Y-96086263D01*
X86163976Y-96217366D01*
X86163969Y-96217379D01*
X86103631Y-96363050D01*
X86103628Y-96363062D01*
X86072867Y-96517705D01*
X81300500Y-96517705D01*
X81300500Y-96421158D01*
X81300500Y-96421155D01*
X81300499Y-96421153D01*
X81288944Y-96363062D01*
X81269737Y-96266503D01*
X81269735Y-96266498D01*
X81209397Y-96120827D01*
X81209390Y-96120814D01*
X81121789Y-95989711D01*
X81121786Y-95989707D01*
X81010292Y-95878213D01*
X81010288Y-95878210D01*
X80879185Y-95790609D01*
X80879172Y-95790602D01*
X80733501Y-95730264D01*
X80733489Y-95730261D01*
X80578845Y-95699500D01*
X80578842Y-95699500D01*
X80421158Y-95699500D01*
X80421155Y-95699500D01*
X80266510Y-95730261D01*
X80266498Y-95730264D01*
X80120827Y-95790602D01*
X80120814Y-95790609D01*
X79989711Y-95878210D01*
X79989707Y-95878213D01*
X79878213Y-95989707D01*
X79878210Y-95989711D01*
X79790609Y-96120814D01*
X79790602Y-96120827D01*
X79730264Y-96266498D01*
X79730261Y-96266510D01*
X79699500Y-96421153D01*
X75375500Y-96421153D01*
X75375500Y-95733718D01*
X75395185Y-95666679D01*
X75447989Y-95620924D01*
X75517147Y-95610980D01*
X75580703Y-95640005D01*
X75587181Y-95646037D01*
X75660024Y-95718880D01*
X75660032Y-95718886D01*
X75811608Y-95820166D01*
X75811612Y-95820168D01*
X75973350Y-95887161D01*
X75980042Y-95889933D01*
X75980046Y-95889933D01*
X75980047Y-95889934D01*
X76158843Y-95925500D01*
X76158846Y-95925500D01*
X76341156Y-95925500D01*
X76461445Y-95901572D01*
X76519958Y-95889933D01*
X76672337Y-95826816D01*
X76688387Y-95820168D01*
X76688391Y-95820166D01*
X76800286Y-95745400D01*
X76839972Y-95718883D01*
X76968883Y-95589972D01*
X77070167Y-95438389D01*
X77074197Y-95428661D01*
X77139931Y-95269962D01*
X77139933Y-95269958D01*
X77175500Y-95091154D01*
X77175500Y-94908846D01*
X77175500Y-94908843D01*
X77139934Y-94730047D01*
X77139933Y-94730046D01*
X77139933Y-94730042D01*
X77123287Y-94689855D01*
X77070169Y-94561615D01*
X77068482Y-94558459D01*
X77068097Y-94556613D01*
X77067836Y-94555982D01*
X77067955Y-94555932D01*
X77054236Y-94490057D01*
X77068482Y-94441541D01*
X77070163Y-94438394D01*
X77070167Y-94438389D01*
X77139933Y-94269958D01*
X77163077Y-94153609D01*
X77175500Y-94091156D01*
X77175500Y-93908844D01*
X77165660Y-93859379D01*
X77165660Y-93859377D01*
X77162059Y-93841273D01*
X82001100Y-93841273D01*
X82001100Y-93998966D01*
X82031861Y-94153609D01*
X82031864Y-94153621D01*
X82092202Y-94299292D01*
X82092209Y-94299305D01*
X82179810Y-94430408D01*
X82179813Y-94430412D01*
X82291307Y-94541906D01*
X82291311Y-94541909D01*
X82422414Y-94629510D01*
X82422427Y-94629517D01*
X82568098Y-94689855D01*
X82568103Y-94689857D01*
X82666337Y-94709397D01*
X82722753Y-94720619D01*
X82722756Y-94720620D01*
X82722758Y-94720620D01*
X82880444Y-94720620D01*
X82880445Y-94720619D01*
X83035097Y-94689857D01*
X83180779Y-94629514D01*
X83311889Y-94541909D01*
X83423389Y-94430409D01*
X83510994Y-94299299D01*
X83571337Y-94153617D01*
X83602100Y-93998962D01*
X83602100Y-93841278D01*
X83602100Y-93841275D01*
X83602099Y-93841273D01*
X83593889Y-93800001D01*
X83571337Y-93686623D01*
X83526693Y-93578842D01*
X83510997Y-93540947D01*
X83510990Y-93540934D01*
X83423389Y-93409831D01*
X83423386Y-93409827D01*
X83311892Y-93298333D01*
X83311888Y-93298330D01*
X83180785Y-93210729D01*
X83180772Y-93210722D01*
X83035101Y-93150384D01*
X83035089Y-93150381D01*
X82880445Y-93119620D01*
X82880442Y-93119620D01*
X82722758Y-93119620D01*
X82722755Y-93119620D01*
X82568110Y-93150381D01*
X82568098Y-93150384D01*
X82422427Y-93210722D01*
X82422414Y-93210729D01*
X82291311Y-93298330D01*
X82291307Y-93298333D01*
X82179813Y-93409827D01*
X82179810Y-93409831D01*
X82092209Y-93540934D01*
X82092202Y-93540947D01*
X82031864Y-93686618D01*
X82031861Y-93686630D01*
X82001100Y-93841273D01*
X77162059Y-93841273D01*
X77153852Y-93800016D01*
X77139933Y-93730042D01*
X77121951Y-93686630D01*
X77070168Y-93561612D01*
X77070166Y-93561608D01*
X76968886Y-93410032D01*
X76968880Y-93410024D01*
X76839975Y-93281119D01*
X76839967Y-93281113D01*
X76688391Y-93179833D01*
X76688387Y-93179831D01*
X76519962Y-93110068D01*
X76519952Y-93110065D01*
X76341156Y-93074500D01*
X76341154Y-93074500D01*
X76158846Y-93074500D01*
X76158844Y-93074500D01*
X75980047Y-93110065D01*
X75980037Y-93110068D01*
X75811612Y-93179831D01*
X75811608Y-93179833D01*
X75660032Y-93281113D01*
X75660024Y-93281119D01*
X75587181Y-93353963D01*
X75525858Y-93387448D01*
X75456166Y-93382464D01*
X75400233Y-93340592D01*
X75375816Y-93275128D01*
X75375500Y-93266282D01*
X75375500Y-90624862D01*
X75903209Y-90624862D01*
X75903209Y-90782555D01*
X75933970Y-90937198D01*
X75933973Y-90937210D01*
X75994311Y-91082880D01*
X75994313Y-91082884D01*
X75994315Y-91082888D01*
X75994318Y-91082892D01*
X75995767Y-91085061D01*
X75996177Y-91086370D01*
X75997188Y-91088262D01*
X75996829Y-91088453D01*
X76016645Y-91151738D01*
X76007227Y-91201403D01*
X75980263Y-91266502D01*
X75980261Y-91266505D01*
X75949500Y-91421153D01*
X75949500Y-91578846D01*
X75980261Y-91733489D01*
X75980264Y-91733501D01*
X76040602Y-91879172D01*
X76040609Y-91879185D01*
X76128210Y-92010288D01*
X76128213Y-92010292D01*
X76239707Y-92121786D01*
X76239711Y-92121789D01*
X76370814Y-92209390D01*
X76370827Y-92209397D01*
X76508683Y-92266498D01*
X76516503Y-92269737D01*
X76671153Y-92300499D01*
X76671156Y-92300500D01*
X76671158Y-92300500D01*
X76828844Y-92300500D01*
X76828845Y-92300499D01*
X76983497Y-92269737D01*
X77129179Y-92209394D01*
X77260289Y-92121789D01*
X77371789Y-92010289D01*
X77459394Y-91879179D01*
X77462854Y-91870827D01*
X77473067Y-91846166D01*
X77519737Y-91733497D01*
X77550500Y-91578842D01*
X77550500Y-91421158D01*
X77550500Y-91421155D01*
X77550499Y-91421153D01*
X77533194Y-91334155D01*
X77519737Y-91266503D01*
X77482441Y-91176462D01*
X82001100Y-91176462D01*
X82001100Y-91334155D01*
X82031861Y-91488798D01*
X82031864Y-91488810D01*
X82092202Y-91634481D01*
X82092209Y-91634494D01*
X82179810Y-91765597D01*
X82179813Y-91765601D01*
X82291307Y-91877095D01*
X82291311Y-91877098D01*
X82422414Y-91964699D01*
X82422427Y-91964706D01*
X82532476Y-92010289D01*
X82568103Y-92025046D01*
X82691403Y-92049572D01*
X82722753Y-92055808D01*
X82722756Y-92055809D01*
X82722758Y-92055809D01*
X82880444Y-92055809D01*
X82880445Y-92055808D01*
X83035097Y-92025046D01*
X83180779Y-91964703D01*
X83311889Y-91877098D01*
X83423389Y-91765598D01*
X83510994Y-91634488D01*
X83571337Y-91488806D01*
X83602100Y-91334151D01*
X83602100Y-91176467D01*
X83602100Y-91176464D01*
X83602099Y-91176462D01*
X83583918Y-91085061D01*
X83571337Y-91021812D01*
X83563255Y-91002300D01*
X83510997Y-90876136D01*
X83510990Y-90876123D01*
X83423389Y-90745020D01*
X83423386Y-90745016D01*
X83311892Y-90633522D01*
X83311888Y-90633519D01*
X83180785Y-90545918D01*
X83180772Y-90545911D01*
X83035101Y-90485573D01*
X83035089Y-90485570D01*
X82880445Y-90454809D01*
X82880442Y-90454809D01*
X82722758Y-90454809D01*
X82722755Y-90454809D01*
X82568110Y-90485570D01*
X82568098Y-90485573D01*
X82422427Y-90545911D01*
X82422414Y-90545918D01*
X82291311Y-90633519D01*
X82291307Y-90633522D01*
X82179813Y-90745016D01*
X82179810Y-90745020D01*
X82092209Y-90876123D01*
X82092202Y-90876136D01*
X82031864Y-91021807D01*
X82031861Y-91021819D01*
X82001100Y-91176462D01*
X77482441Y-91176462D01*
X77459394Y-91120821D01*
X77451920Y-91109636D01*
X77447551Y-91099709D01*
X77444393Y-91075377D01*
X77437063Y-91051964D01*
X77439611Y-91038527D01*
X77438559Y-91030420D01*
X77442879Y-91021293D01*
X77446480Y-91002305D01*
X77473446Y-90937206D01*
X77504209Y-90782551D01*
X77504209Y-90624867D01*
X77504209Y-90624864D01*
X77504208Y-90624862D01*
X77488504Y-90545915D01*
X77473446Y-90470212D01*
X77467066Y-90454809D01*
X77413106Y-90324536D01*
X77413099Y-90324523D01*
X77325498Y-90193420D01*
X77325495Y-90193416D01*
X77214001Y-90081922D01*
X77213997Y-90081919D01*
X77082894Y-89994318D01*
X77082881Y-89994311D01*
X76937210Y-89933973D01*
X76937198Y-89933970D01*
X76782554Y-89903209D01*
X76782551Y-89903209D01*
X76624867Y-89903209D01*
X76624864Y-89903209D01*
X76470219Y-89933970D01*
X76470207Y-89933973D01*
X76324536Y-89994311D01*
X76324523Y-89994318D01*
X76193420Y-90081919D01*
X76193416Y-90081922D01*
X76081922Y-90193416D01*
X76081919Y-90193420D01*
X75994318Y-90324523D01*
X75994311Y-90324536D01*
X75933973Y-90470207D01*
X75933970Y-90470219D01*
X75903209Y-90624862D01*
X75375500Y-90624862D01*
X75375500Y-89907702D01*
X75395185Y-89840663D01*
X75447989Y-89794908D01*
X75517147Y-89784964D01*
X75523667Y-89786080D01*
X75580435Y-89797372D01*
X75596157Y-89800500D01*
X75596158Y-89800500D01*
X75753844Y-89800500D01*
X75753845Y-89800499D01*
X75908497Y-89769737D01*
X76054179Y-89709394D01*
X76185289Y-89621789D01*
X76296789Y-89510289D01*
X76384394Y-89379179D01*
X76444737Y-89233497D01*
X76457138Y-89171153D01*
X83199500Y-89171153D01*
X83199500Y-89328846D01*
X83230261Y-89483489D01*
X83230264Y-89483501D01*
X83290602Y-89629172D01*
X83290609Y-89629185D01*
X83378210Y-89760288D01*
X83378213Y-89760292D01*
X83489710Y-89871789D01*
X83582771Y-89933970D01*
X83620821Y-89959394D01*
X83622945Y-89960274D01*
X83623885Y-89961031D01*
X83626192Y-89962264D01*
X83625958Y-89962701D01*
X83677349Y-90004107D01*
X83699421Y-90070399D01*
X83699500Y-90074837D01*
X83699500Y-90078846D01*
X83730261Y-90233489D01*
X83730264Y-90233501D01*
X83790602Y-90379172D01*
X83790609Y-90379185D01*
X83878210Y-90510288D01*
X83878213Y-90510292D01*
X83989710Y-90621789D01*
X84120815Y-90709390D01*
X84120821Y-90709394D01*
X84122945Y-90710274D01*
X84123885Y-90711031D01*
X84126192Y-90712264D01*
X84125958Y-90712701D01*
X84177349Y-90754107D01*
X84199421Y-90820399D01*
X84199500Y-90824837D01*
X84199500Y-90828846D01*
X84230261Y-90983489D01*
X84230264Y-90983501D01*
X84290602Y-91129172D01*
X84290609Y-91129185D01*
X84378210Y-91260288D01*
X84378213Y-91260292D01*
X84489710Y-91371789D01*
X84607028Y-91450178D01*
X84620821Y-91459394D01*
X84622945Y-91460274D01*
X84623885Y-91461031D01*
X84626192Y-91462264D01*
X84625958Y-91462701D01*
X84677349Y-91504107D01*
X84699421Y-91570399D01*
X84699500Y-91574837D01*
X84699500Y-91578846D01*
X84730261Y-91733489D01*
X84730264Y-91733501D01*
X84790602Y-91879172D01*
X84790609Y-91879185D01*
X84878210Y-92010288D01*
X84878213Y-92010292D01*
X84917494Y-92049572D01*
X84950980Y-92110895D01*
X84951432Y-92161441D01*
X84949500Y-92171154D01*
X84949500Y-92328846D01*
X84980261Y-92483489D01*
X84980264Y-92483501D01*
X85040602Y-92629172D01*
X85040609Y-92629185D01*
X85128210Y-92760288D01*
X85128213Y-92760292D01*
X85239708Y-92871787D01*
X85239711Y-92871789D01*
X85286832Y-92903274D01*
X85331636Y-92956885D01*
X85340344Y-93026210D01*
X85321044Y-93075266D01*
X85290608Y-93120816D01*
X85290602Y-93120827D01*
X85230264Y-93266498D01*
X85230261Y-93266510D01*
X85199500Y-93421153D01*
X85199500Y-93578846D01*
X85230261Y-93733489D01*
X85230264Y-93733501D01*
X85290602Y-93879172D01*
X85290609Y-93879185D01*
X85378210Y-94010288D01*
X85378213Y-94010292D01*
X85489707Y-94121786D01*
X85489711Y-94121789D01*
X85620814Y-94209390D01*
X85620827Y-94209397D01*
X85766498Y-94269735D01*
X85766503Y-94269737D01*
X85915085Y-94299292D01*
X85921153Y-94300499D01*
X85921156Y-94300500D01*
X85921158Y-94300500D01*
X86078844Y-94300500D01*
X86078845Y-94300499D01*
X86233497Y-94269737D01*
X86379179Y-94209394D01*
X86510289Y-94121789D01*
X86621789Y-94010289D01*
X86681348Y-93921153D01*
X98449500Y-93921153D01*
X98449500Y-94078846D01*
X98480261Y-94233489D01*
X98480264Y-94233501D01*
X98540602Y-94379172D01*
X98540609Y-94379185D01*
X98628210Y-94510288D01*
X98628213Y-94510292D01*
X98739707Y-94621786D01*
X98739711Y-94621789D01*
X98870814Y-94709390D01*
X98870827Y-94709397D01*
X99016498Y-94769735D01*
X99016503Y-94769737D01*
X99171153Y-94800499D01*
X99171156Y-94800500D01*
X99171158Y-94800500D01*
X99328844Y-94800500D01*
X99328845Y-94800499D01*
X99483497Y-94769737D01*
X99629179Y-94709394D01*
X99760289Y-94621789D01*
X99871789Y-94510289D01*
X99959394Y-94379179D01*
X100019737Y-94233497D01*
X100050500Y-94078842D01*
X100050500Y-93921158D01*
X100050500Y-93921155D01*
X100050499Y-93921153D01*
X100046848Y-93902797D01*
X100019737Y-93766503D01*
X100006062Y-93733489D01*
X99959397Y-93620827D01*
X99959390Y-93620814D01*
X99871789Y-93489711D01*
X99871786Y-93489707D01*
X99760292Y-93378213D01*
X99760288Y-93378210D01*
X99629185Y-93290609D01*
X99629172Y-93290602D01*
X99483501Y-93230264D01*
X99483489Y-93230261D01*
X99328845Y-93199500D01*
X99328842Y-93199500D01*
X99171158Y-93199500D01*
X99171155Y-93199500D01*
X99016510Y-93230261D01*
X99016498Y-93230264D01*
X98870827Y-93290602D01*
X98870814Y-93290609D01*
X98739711Y-93378210D01*
X98739707Y-93378213D01*
X98628213Y-93489707D01*
X98628210Y-93489711D01*
X98540609Y-93620814D01*
X98540602Y-93620827D01*
X98480264Y-93766498D01*
X98480261Y-93766510D01*
X98449500Y-93921153D01*
X86681348Y-93921153D01*
X86709394Y-93879179D01*
X86769737Y-93733497D01*
X86800500Y-93578842D01*
X86800500Y-93421158D01*
X86800500Y-93421155D01*
X86800499Y-93421153D01*
X86774531Y-93290606D01*
X86769737Y-93266503D01*
X86769735Y-93266498D01*
X86709397Y-93120827D01*
X86709390Y-93120814D01*
X86621789Y-92989711D01*
X86621786Y-92989707D01*
X86510292Y-92878213D01*
X86510284Y-92878207D01*
X86463168Y-92846725D01*
X86418362Y-92793113D01*
X86409655Y-92723788D01*
X86428957Y-92674731D01*
X86459389Y-92629186D01*
X86459390Y-92629185D01*
X86459394Y-92629179D01*
X86519737Y-92483497D01*
X86550500Y-92328842D01*
X86550500Y-92171158D01*
X86550500Y-92171155D01*
X86550499Y-92171153D01*
X88949500Y-92171153D01*
X88949500Y-92328846D01*
X88980261Y-92483489D01*
X88980264Y-92483501D01*
X89040602Y-92629172D01*
X89040609Y-92629185D01*
X89128210Y-92760288D01*
X89128213Y-92760292D01*
X89239707Y-92871786D01*
X89239711Y-92871789D01*
X89370814Y-92959390D01*
X89370827Y-92959397D01*
X89516498Y-93019735D01*
X89516503Y-93019737D01*
X89671153Y-93050499D01*
X89671156Y-93050500D01*
X89671158Y-93050500D01*
X89828844Y-93050500D01*
X89828845Y-93050499D01*
X89983497Y-93019737D01*
X90129179Y-92959394D01*
X90188579Y-92919703D01*
X90255254Y-92898825D01*
X90322634Y-92917309D01*
X90326318Y-92919676D01*
X90340739Y-92929312D01*
X90340741Y-92929313D01*
X90340743Y-92929314D01*
X90486416Y-92989653D01*
X90486421Y-92989655D01*
X90641071Y-93020417D01*
X90641074Y-93020418D01*
X90641076Y-93020418D01*
X90798762Y-93020418D01*
X90798763Y-93020417D01*
X90953415Y-92989655D01*
X91099097Y-92929312D01*
X91099102Y-92929308D01*
X91099105Y-92929307D01*
X91144724Y-92898825D01*
X91195970Y-92864583D01*
X91262645Y-92843705D01*
X91312309Y-92853123D01*
X91376462Y-92879696D01*
X91494991Y-92903273D01*
X91531112Y-92910458D01*
X91531115Y-92910459D01*
X91531117Y-92910459D01*
X91688802Y-92910459D01*
X91715847Y-92905079D01*
X91785439Y-92911306D01*
X91840617Y-92954168D01*
X91843142Y-92957805D01*
X91878210Y-93010288D01*
X91878213Y-93010292D01*
X91989707Y-93121786D01*
X91989711Y-93121789D01*
X92120814Y-93209390D01*
X92120827Y-93209397D01*
X92258162Y-93266282D01*
X92266503Y-93269737D01*
X92410249Y-93298330D01*
X92421153Y-93300499D01*
X92421156Y-93300500D01*
X92421158Y-93300500D01*
X92578844Y-93300500D01*
X92578845Y-93300499D01*
X92733497Y-93269737D01*
X92879179Y-93209394D01*
X93010289Y-93121789D01*
X93121789Y-93010289D01*
X93209394Y-92879179D01*
X93269737Y-92733497D01*
X93300500Y-92578842D01*
X93300500Y-92421158D01*
X93300500Y-92421155D01*
X93300499Y-92421153D01*
X93269738Y-92266510D01*
X93269737Y-92266503D01*
X93242190Y-92199998D01*
X93209397Y-92120827D01*
X93209390Y-92120814D01*
X93121789Y-91989711D01*
X93121786Y-91989707D01*
X93010292Y-91878213D01*
X93010288Y-91878210D01*
X92879185Y-91790609D01*
X92879172Y-91790602D01*
X92733501Y-91730264D01*
X92733489Y-91730261D01*
X92578845Y-91699500D01*
X92578842Y-91699500D01*
X92421158Y-91699500D01*
X92421157Y-91699500D01*
X92394106Y-91704880D01*
X92324515Y-91698651D01*
X92269338Y-91655786D01*
X92266815Y-91652152D01*
X92255016Y-91634494D01*
X92231748Y-91599670D01*
X92231746Y-91599667D01*
X92120251Y-91488172D01*
X92120247Y-91488169D01*
X91989144Y-91400568D01*
X91989131Y-91400561D01*
X91843460Y-91340223D01*
X91843448Y-91340220D01*
X91688804Y-91309459D01*
X91688801Y-91309459D01*
X91531117Y-91309459D01*
X91531114Y-91309459D01*
X91376469Y-91340220D01*
X91376457Y-91340223D01*
X91230786Y-91400561D01*
X91230773Y-91400568D01*
X91133907Y-91465293D01*
X91067229Y-91486171D01*
X91017564Y-91476752D01*
X90953416Y-91450181D01*
X90953406Y-91450178D01*
X90798763Y-91419418D01*
X90798760Y-91419418D01*
X90641076Y-91419418D01*
X90641073Y-91419418D01*
X90486428Y-91450179D01*
X90486416Y-91450182D01*
X90340746Y-91510520D01*
X90340735Y-91510526D01*
X90281338Y-91550214D01*
X90214660Y-91571091D01*
X90147280Y-91552606D01*
X90143559Y-91550214D01*
X90129179Y-91540606D01*
X90129174Y-91540603D01*
X89983501Y-91480264D01*
X89983489Y-91480261D01*
X89828845Y-91449500D01*
X89828842Y-91449500D01*
X89671158Y-91449500D01*
X89671155Y-91449500D01*
X89516510Y-91480261D01*
X89516498Y-91480264D01*
X89370827Y-91540602D01*
X89370814Y-91540609D01*
X89239711Y-91628210D01*
X89239707Y-91628213D01*
X89128213Y-91739707D01*
X89128210Y-91739711D01*
X89040609Y-91870814D01*
X89040602Y-91870827D01*
X88980264Y-92016498D01*
X88980261Y-92016510D01*
X88949500Y-92171153D01*
X86550499Y-92171153D01*
X86538513Y-92110895D01*
X86519737Y-92016503D01*
X86517163Y-92010288D01*
X86459397Y-91870827D01*
X86459390Y-91870814D01*
X86371789Y-91739711D01*
X86371786Y-91739707D01*
X86332505Y-91700427D01*
X86299019Y-91639104D01*
X86298569Y-91588549D01*
X86300500Y-91578842D01*
X86300500Y-91421158D01*
X86300500Y-91421155D01*
X86300499Y-91421153D01*
X86283194Y-91334155D01*
X86269737Y-91266503D01*
X86232441Y-91176462D01*
X86209397Y-91120827D01*
X86209390Y-91120814D01*
X86121789Y-90989711D01*
X86121786Y-90989707D01*
X86010292Y-90878213D01*
X86010288Y-90878210D01*
X85879185Y-90790609D01*
X85879169Y-90790601D01*
X85877038Y-90789718D01*
X85876094Y-90788957D01*
X85873809Y-90787736D01*
X85874040Y-90787302D01*
X85822638Y-90745873D01*
X85800579Y-90679577D01*
X85800500Y-90675161D01*
X85800500Y-90671155D01*
X85800499Y-90671153D01*
X85775587Y-90545915D01*
X85769737Y-90516503D01*
X85767163Y-90510288D01*
X85715056Y-90384488D01*
X85715055Y-90384487D01*
X85709398Y-90370829D01*
X85709390Y-90370814D01*
X85690071Y-90341902D01*
X109269500Y-90341902D01*
X109269500Y-90578097D01*
X109306446Y-90811368D01*
X109379433Y-91035996D01*
X109463713Y-91201403D01*
X109486657Y-91246433D01*
X109625483Y-91437510D01*
X109625489Y-91437516D01*
X109628647Y-91441214D01*
X109626864Y-91442736D01*
X109655726Y-91495591D01*
X109650742Y-91565283D01*
X109608870Y-91621216D01*
X109599658Y-91627487D01*
X109551344Y-91657287D01*
X109427289Y-91781342D01*
X109335187Y-91930663D01*
X109335185Y-91930668D01*
X109307349Y-92014670D01*
X109280001Y-92097203D01*
X109280001Y-92097204D01*
X109280000Y-92097204D01*
X109269500Y-92199983D01*
X109269500Y-93800001D01*
X109269501Y-93800018D01*
X109280000Y-93902796D01*
X109280001Y-93902799D01*
X109335185Y-94069331D01*
X109335187Y-94069336D01*
X109348646Y-94091156D01*
X109427288Y-94218656D01*
X109551344Y-94342712D01*
X109700666Y-94434814D01*
X109867203Y-94489999D01*
X109969991Y-94500500D01*
X111570008Y-94500499D01*
X111672797Y-94489999D01*
X111839334Y-94434814D01*
X111988656Y-94342712D01*
X112112712Y-94218656D01*
X112204814Y-94069334D01*
X112259999Y-93902797D01*
X112270500Y-93800009D01*
X112270499Y-92199992D01*
X112262510Y-92121789D01*
X112259999Y-92097203D01*
X112259998Y-92097200D01*
X112246282Y-92055808D01*
X112204814Y-91930666D01*
X112112712Y-91781344D01*
X111988656Y-91657288D01*
X111988655Y-91657287D01*
X111940342Y-91627487D01*
X111893618Y-91575539D01*
X111882397Y-91506576D01*
X111910241Y-91442494D01*
X111911381Y-91441249D01*
X111911348Y-91441221D01*
X111914511Y-91437516D01*
X111914511Y-91437515D01*
X111914517Y-91437510D01*
X112053343Y-91246433D01*
X112160568Y-91035992D01*
X112233553Y-90811368D01*
X112237365Y-90787302D01*
X112270500Y-90578097D01*
X112270500Y-90341902D01*
X112233553Y-90108631D01*
X112185061Y-89959390D01*
X112160568Y-89884008D01*
X112160566Y-89884005D01*
X112160566Y-89884003D01*
X112097530Y-89760289D01*
X112053343Y-89673567D01*
X111914517Y-89482490D01*
X111747510Y-89315483D01*
X111556433Y-89176657D01*
X111545631Y-89171153D01*
X111345996Y-89069433D01*
X111121368Y-88996446D01*
X110888097Y-88959500D01*
X110888092Y-88959500D01*
X110651908Y-88959500D01*
X110651903Y-88959500D01*
X110418631Y-88996446D01*
X110194003Y-89069433D01*
X109983566Y-89176657D01*
X109905328Y-89233501D01*
X109792490Y-89315483D01*
X109792488Y-89315485D01*
X109792487Y-89315485D01*
X109625485Y-89482487D01*
X109625485Y-89482488D01*
X109625483Y-89482490D01*
X109620240Y-89489707D01*
X109486657Y-89673566D01*
X109379433Y-89884003D01*
X109306446Y-90108631D01*
X109269500Y-90341902D01*
X85690071Y-90341902D01*
X85621789Y-90239711D01*
X85621786Y-90239707D01*
X85510292Y-90128213D01*
X85510288Y-90128210D01*
X85379185Y-90040609D01*
X85379169Y-90040601D01*
X85377038Y-90039718D01*
X85376094Y-90038957D01*
X85373809Y-90037736D01*
X85374040Y-90037302D01*
X85322638Y-89995873D01*
X85300579Y-89929577D01*
X85300500Y-89925161D01*
X85300500Y-89921155D01*
X85300499Y-89921153D01*
X85269738Y-89766510D01*
X85269737Y-89766503D01*
X85231242Y-89673566D01*
X85209397Y-89620827D01*
X85209390Y-89620814D01*
X85121789Y-89489711D01*
X85121786Y-89489707D01*
X85010292Y-89378213D01*
X85010288Y-89378210D01*
X84879185Y-89290609D01*
X84879169Y-89290601D01*
X84877038Y-89289718D01*
X84876094Y-89288957D01*
X84873809Y-89287736D01*
X84874040Y-89287302D01*
X84822638Y-89245873D01*
X84800579Y-89179577D01*
X84800500Y-89175161D01*
X84800500Y-89171155D01*
X84800499Y-89171153D01*
X84782137Y-89078842D01*
X84769737Y-89016503D01*
X84730242Y-88921153D01*
X84709397Y-88870827D01*
X84709390Y-88870814D01*
X84621789Y-88739711D01*
X84621786Y-88739707D01*
X84510292Y-88628213D01*
X84510288Y-88628210D01*
X84379185Y-88540609D01*
X84379172Y-88540602D01*
X84233501Y-88480264D01*
X84233489Y-88480261D01*
X84078845Y-88449500D01*
X84078842Y-88449500D01*
X83921158Y-88449500D01*
X83921155Y-88449500D01*
X83766510Y-88480261D01*
X83766498Y-88480264D01*
X83620827Y-88540602D01*
X83620814Y-88540609D01*
X83489711Y-88628210D01*
X83489707Y-88628213D01*
X83378213Y-88739707D01*
X83378210Y-88739711D01*
X83290609Y-88870814D01*
X83290602Y-88870827D01*
X83230264Y-89016498D01*
X83230261Y-89016510D01*
X83199500Y-89171153D01*
X76457138Y-89171153D01*
X76475500Y-89078842D01*
X76475500Y-88921158D01*
X76475500Y-88921155D01*
X76475499Y-88921153D01*
X76444738Y-88766510D01*
X76444737Y-88766503D01*
X76444735Y-88766498D01*
X76384397Y-88620827D01*
X76384390Y-88620814D01*
X76296789Y-88489711D01*
X76296786Y-88489707D01*
X76185292Y-88378213D01*
X76185288Y-88378210D01*
X76054185Y-88290609D01*
X76054172Y-88290602D01*
X75908501Y-88230264D01*
X75908489Y-88230261D01*
X75753845Y-88199500D01*
X75753842Y-88199500D01*
X75596158Y-88199500D01*
X75596155Y-88199500D01*
X75523691Y-88213914D01*
X75454100Y-88207687D01*
X75398922Y-88164824D01*
X75375678Y-88098934D01*
X75375500Y-88092297D01*
X75375500Y-81699983D01*
X76999500Y-81699983D01*
X76999500Y-83300001D01*
X76999501Y-83300018D01*
X77010000Y-83402796D01*
X77010001Y-83402799D01*
X77065185Y-83569331D01*
X77065186Y-83569334D01*
X77157288Y-83718656D01*
X77281344Y-83842712D01*
X77323102Y-83868468D01*
X77329656Y-83872511D01*
X77376381Y-83924459D01*
X77387604Y-83993421D01*
X77359760Y-84057504D01*
X77358615Y-84058759D01*
X77358647Y-84058786D01*
X77355485Y-84062487D01*
X77355483Y-84062490D01*
X77321959Y-84108632D01*
X77216657Y-84253566D01*
X77109433Y-84464003D01*
X77036446Y-84688631D01*
X76999500Y-84921902D01*
X76999500Y-85158097D01*
X77036446Y-85391368D01*
X77109433Y-85615996D01*
X77193682Y-85781342D01*
X77216657Y-85826433D01*
X77355483Y-86017510D01*
X77522490Y-86184517D01*
X77713567Y-86323343D01*
X77812991Y-86374002D01*
X77924003Y-86430566D01*
X77924005Y-86430566D01*
X77924008Y-86430568D01*
X78044412Y-86469689D01*
X78148631Y-86503553D01*
X78381903Y-86540500D01*
X78381908Y-86540500D01*
X78618097Y-86540500D01*
X78851368Y-86503553D01*
X79075992Y-86430568D01*
X79286433Y-86323343D01*
X79477510Y-86184517D01*
X79644517Y-86017510D01*
X79783343Y-85826433D01*
X79890568Y-85615992D01*
X79953875Y-85421153D01*
X92949500Y-85421153D01*
X92949500Y-85578846D01*
X92980261Y-85733489D01*
X92980264Y-85733501D01*
X93040602Y-85879172D01*
X93040609Y-85879185D01*
X93128210Y-86010288D01*
X93128213Y-86010292D01*
X93239707Y-86121786D01*
X93239711Y-86121789D01*
X93370814Y-86209390D01*
X93370827Y-86209397D01*
X93516498Y-86269735D01*
X93516503Y-86269737D01*
X93671153Y-86300499D01*
X93671156Y-86300500D01*
X93671158Y-86300500D01*
X93828844Y-86300500D01*
X93828845Y-86300499D01*
X93983497Y-86269737D01*
X94129179Y-86209394D01*
X94260289Y-86121789D01*
X94371789Y-86010289D01*
X94459394Y-85879179D01*
X94519737Y-85733497D01*
X94550500Y-85578842D01*
X94550500Y-85421158D01*
X94550500Y-85421155D01*
X94550499Y-85421153D01*
X94519737Y-85266503D01*
X94511424Y-85246433D01*
X94459397Y-85120827D01*
X94459390Y-85120814D01*
X94371789Y-84989711D01*
X94371786Y-84989707D01*
X94260292Y-84878213D01*
X94260288Y-84878210D01*
X94129185Y-84790609D01*
X94129172Y-84790602D01*
X93983501Y-84730264D01*
X93983489Y-84730261D01*
X93828845Y-84699500D01*
X93828842Y-84699500D01*
X93671158Y-84699500D01*
X93671155Y-84699500D01*
X93516510Y-84730261D01*
X93516498Y-84730264D01*
X93370827Y-84790602D01*
X93370814Y-84790609D01*
X93239711Y-84878210D01*
X93239707Y-84878213D01*
X93128213Y-84989707D01*
X93128210Y-84989711D01*
X93040609Y-85120814D01*
X93040602Y-85120827D01*
X92980264Y-85266498D01*
X92980261Y-85266510D01*
X92949500Y-85421153D01*
X79953875Y-85421153D01*
X79963553Y-85391368D01*
X79986508Y-85246433D01*
X80000500Y-85158097D01*
X80000500Y-84921902D01*
X79963553Y-84688631D01*
X79927636Y-84578092D01*
X79890568Y-84464008D01*
X79890566Y-84464005D01*
X79890566Y-84464003D01*
X79828352Y-84341902D01*
X79783343Y-84253567D01*
X79644517Y-84062490D01*
X79644508Y-84062481D01*
X79641353Y-84058786D01*
X79643134Y-84057264D01*
X79638872Y-84049459D01*
X79625918Y-84036197D01*
X79622475Y-84019430D01*
X79614273Y-84004408D01*
X79615595Y-83985916D01*
X79611867Y-83967755D01*
X79618035Y-83951789D01*
X79619257Y-83934716D01*
X79629410Y-83921153D01*
X90449500Y-83921153D01*
X90449500Y-84078846D01*
X90480261Y-84233489D01*
X90480264Y-84233501D01*
X90540602Y-84379172D01*
X90540609Y-84379185D01*
X90628210Y-84510288D01*
X90628213Y-84510292D01*
X90739707Y-84621786D01*
X90739711Y-84621789D01*
X90870814Y-84709390D01*
X90870827Y-84709397D01*
X91016498Y-84769735D01*
X91016503Y-84769737D01*
X91171153Y-84800499D01*
X91171156Y-84800500D01*
X91171158Y-84800500D01*
X91328844Y-84800500D01*
X91328845Y-84800499D01*
X91483497Y-84769737D01*
X91629179Y-84709394D01*
X91760289Y-84621789D01*
X91871789Y-84510289D01*
X91959394Y-84379179D01*
X91974835Y-84341902D01*
X109249500Y-84341902D01*
X109249500Y-84578097D01*
X109286446Y-84811368D01*
X109359433Y-85035996D01*
X109466657Y-85246433D01*
X109605483Y-85437510D01*
X109605489Y-85437516D01*
X109608647Y-85441214D01*
X109606864Y-85442736D01*
X109635726Y-85495591D01*
X109630742Y-85565283D01*
X109588870Y-85621216D01*
X109579658Y-85627487D01*
X109531344Y-85657287D01*
X109407289Y-85781342D01*
X109315187Y-85930663D01*
X109315185Y-85930668D01*
X109287349Y-86014670D01*
X109260001Y-86097203D01*
X109260001Y-86097204D01*
X109260000Y-86097204D01*
X109249500Y-86199983D01*
X109249500Y-87800001D01*
X109249501Y-87800018D01*
X109260000Y-87902796D01*
X109260001Y-87902799D01*
X109315185Y-88069331D01*
X109315187Y-88069336D01*
X109333443Y-88098934D01*
X109407288Y-88218656D01*
X109531344Y-88342712D01*
X109680666Y-88434814D01*
X109847203Y-88489999D01*
X109949991Y-88500500D01*
X111550008Y-88500499D01*
X111652797Y-88489999D01*
X111819334Y-88434814D01*
X111968656Y-88342712D01*
X112092712Y-88218656D01*
X112184814Y-88069334D01*
X112239999Y-87902797D01*
X112250500Y-87800009D01*
X112250499Y-86199992D01*
X112242510Y-86121789D01*
X112239999Y-86097203D01*
X112239998Y-86097200D01*
X112213592Y-86017512D01*
X112184814Y-85930666D01*
X112092712Y-85781344D01*
X111968656Y-85657288D01*
X111968655Y-85657287D01*
X111920342Y-85627487D01*
X111873618Y-85575539D01*
X111862397Y-85506576D01*
X111890241Y-85442494D01*
X111891381Y-85441249D01*
X111891348Y-85441221D01*
X111894511Y-85437516D01*
X111894511Y-85437515D01*
X111894517Y-85437510D01*
X112033343Y-85246433D01*
X112140568Y-85035992D01*
X112213553Y-84811368D01*
X112215274Y-84800500D01*
X112250500Y-84578097D01*
X112250500Y-84341902D01*
X112213553Y-84108631D01*
X112152221Y-83919873D01*
X112140568Y-83884008D01*
X112140566Y-83884005D01*
X112140566Y-83884003D01*
X112033342Y-83673566D01*
X111894517Y-83482490D01*
X111727510Y-83315483D01*
X111536433Y-83176657D01*
X111325996Y-83069433D01*
X111101368Y-82996446D01*
X110868097Y-82959500D01*
X110868092Y-82959500D01*
X110631908Y-82959500D01*
X110631903Y-82959500D01*
X110398631Y-82996446D01*
X110174003Y-83069433D01*
X109963566Y-83176657D01*
X109854550Y-83255862D01*
X109772490Y-83315483D01*
X109772488Y-83315485D01*
X109772487Y-83315485D01*
X109605485Y-83482487D01*
X109605485Y-83482488D01*
X109605483Y-83482490D01*
X109600240Y-83489707D01*
X109466657Y-83673566D01*
X109359433Y-83884003D01*
X109286446Y-84108631D01*
X109249500Y-84341902D01*
X91974835Y-84341902D01*
X92019737Y-84233497D01*
X92050500Y-84078842D01*
X92050500Y-83921158D01*
X92050500Y-83921155D01*
X92050499Y-83921153D01*
X92019738Y-83766510D01*
X92019737Y-83766503D01*
X91981242Y-83673566D01*
X91959397Y-83620827D01*
X91959390Y-83620814D01*
X91871789Y-83489711D01*
X91871786Y-83489707D01*
X91760292Y-83378213D01*
X91760288Y-83378210D01*
X91629185Y-83290609D01*
X91629172Y-83290602D01*
X91483501Y-83230264D01*
X91483489Y-83230261D01*
X91328845Y-83199500D01*
X91328842Y-83199500D01*
X91171158Y-83199500D01*
X91171155Y-83199500D01*
X91016510Y-83230261D01*
X91016498Y-83230264D01*
X90870827Y-83290602D01*
X90870814Y-83290609D01*
X90739711Y-83378210D01*
X90739707Y-83378213D01*
X90628213Y-83489707D01*
X90628210Y-83489711D01*
X90540609Y-83620814D01*
X90540602Y-83620827D01*
X90480264Y-83766498D01*
X90480261Y-83766510D01*
X90449500Y-83921153D01*
X79629410Y-83921153D01*
X79630368Y-83919873D01*
X79637050Y-83902581D01*
X79656390Y-83885112D01*
X79661129Y-83878783D01*
X79662297Y-83877919D01*
X79666209Y-83875061D01*
X79718656Y-83842712D01*
X79842712Y-83718656D01*
X79934814Y-83569334D01*
X79989999Y-83402797D01*
X80000500Y-83300009D01*
X80000499Y-81699992D01*
X79989999Y-81597203D01*
X79934814Y-81430666D01*
X79842712Y-81281344D01*
X79718656Y-81157288D01*
X79569334Y-81065186D01*
X79402797Y-81010001D01*
X79402795Y-81010000D01*
X79300010Y-80999500D01*
X77699998Y-80999500D01*
X77699981Y-80999501D01*
X77597203Y-81010000D01*
X77597200Y-81010001D01*
X77430668Y-81065185D01*
X77430663Y-81065187D01*
X77281342Y-81157289D01*
X77157289Y-81281342D01*
X77065187Y-81430663D01*
X77065186Y-81430666D01*
X77010001Y-81597203D01*
X77010001Y-81597204D01*
X77010000Y-81597204D01*
X76999500Y-81699983D01*
X75375500Y-81699983D01*
X75375500Y-79921153D01*
X105199500Y-79921153D01*
X105199500Y-80078846D01*
X105230261Y-80233489D01*
X105230264Y-80233501D01*
X105290602Y-80379172D01*
X105290609Y-80379185D01*
X105378210Y-80510288D01*
X105378213Y-80510292D01*
X105489707Y-80621786D01*
X105489711Y-80621789D01*
X105620814Y-80709390D01*
X105620827Y-80709397D01*
X105766498Y-80769735D01*
X105766503Y-80769737D01*
X105921153Y-80800499D01*
X105921156Y-80800500D01*
X105921158Y-80800500D01*
X106078844Y-80800500D01*
X106078845Y-80800499D01*
X106233497Y-80769737D01*
X106379179Y-80709394D01*
X106510289Y-80621789D01*
X106621789Y-80510289D01*
X106709394Y-80379179D01*
X106769737Y-80233497D01*
X106800500Y-80078842D01*
X106800500Y-79921158D01*
X106800500Y-79921155D01*
X106800499Y-79921153D01*
X106772689Y-79781344D01*
X106769737Y-79766503D01*
X106724499Y-79657287D01*
X106709397Y-79620827D01*
X106709390Y-79620814D01*
X106621789Y-79489711D01*
X106621786Y-79489707D01*
X106510292Y-79378213D01*
X106510288Y-79378210D01*
X106379185Y-79290609D01*
X106379172Y-79290602D01*
X106233501Y-79230264D01*
X106233489Y-79230261D01*
X106078845Y-79199500D01*
X106078842Y-79199500D01*
X105921158Y-79199500D01*
X105921155Y-79199500D01*
X105766510Y-79230261D01*
X105766498Y-79230264D01*
X105620827Y-79290602D01*
X105620814Y-79290609D01*
X105489711Y-79378210D01*
X105489707Y-79378213D01*
X105378213Y-79489707D01*
X105378210Y-79489711D01*
X105290609Y-79620814D01*
X105290602Y-79620827D01*
X105230264Y-79766498D01*
X105230261Y-79766510D01*
X105199500Y-79921153D01*
X75375500Y-79921153D01*
X75375500Y-78661304D01*
X87599500Y-78661304D01*
X87599500Y-78838695D01*
X87634103Y-79012658D01*
X87634106Y-79012667D01*
X87701983Y-79176540D01*
X87701990Y-79176553D01*
X87800535Y-79324034D01*
X87800538Y-79324038D01*
X87925961Y-79449461D01*
X87925965Y-79449464D01*
X88073446Y-79548009D01*
X88073459Y-79548016D01*
X88139907Y-79575539D01*
X88237334Y-79615894D01*
X88237336Y-79615894D01*
X88237341Y-79615896D01*
X88411304Y-79650499D01*
X88411307Y-79650500D01*
X88411309Y-79650500D01*
X88588693Y-79650500D01*
X88588694Y-79650499D01*
X88646682Y-79638964D01*
X88762658Y-79615896D01*
X88762661Y-79615894D01*
X88762666Y-79615894D01*
X88926547Y-79548013D01*
X89074035Y-79449464D01*
X89199464Y-79324035D01*
X89298013Y-79176547D01*
X89365894Y-79012666D01*
X89371696Y-78983501D01*
X89400499Y-78838695D01*
X89400500Y-78838693D01*
X89400500Y-78671153D01*
X102699500Y-78671153D01*
X102699500Y-78828846D01*
X102730261Y-78983489D01*
X102730264Y-78983501D01*
X102790602Y-79129172D01*
X102790609Y-79129185D01*
X102878210Y-79260288D01*
X102878213Y-79260292D01*
X102989707Y-79371786D01*
X102989711Y-79371789D01*
X103120814Y-79459390D01*
X103120827Y-79459397D01*
X103234729Y-79506576D01*
X103266503Y-79519737D01*
X103408635Y-79548009D01*
X103421153Y-79550499D01*
X103421156Y-79550500D01*
X103421158Y-79550500D01*
X103578844Y-79550500D01*
X103578845Y-79550499D01*
X103733497Y-79519737D01*
X103879179Y-79459394D01*
X104010289Y-79371789D01*
X104121789Y-79260289D01*
X104209394Y-79129179D01*
X104269737Y-78983497D01*
X104300500Y-78828842D01*
X104300500Y-78671158D01*
X104300500Y-78671155D01*
X104300499Y-78671153D01*
X104269738Y-78516510D01*
X104269737Y-78516503D01*
X104257654Y-78487332D01*
X104215056Y-78384488D01*
X104215055Y-78384487D01*
X104209398Y-78370829D01*
X104209390Y-78370814D01*
X104190071Y-78341902D01*
X109249500Y-78341902D01*
X109249500Y-78578097D01*
X109286446Y-78811368D01*
X109359433Y-79035996D01*
X109431048Y-79176547D01*
X109466657Y-79246433D01*
X109605483Y-79437510D01*
X109605489Y-79437516D01*
X109608647Y-79441214D01*
X109606864Y-79442736D01*
X109635726Y-79495591D01*
X109630742Y-79565283D01*
X109588870Y-79621216D01*
X109579658Y-79627487D01*
X109531344Y-79657287D01*
X109407289Y-79781342D01*
X109315187Y-79930663D01*
X109315186Y-79930666D01*
X109260001Y-80097203D01*
X109260001Y-80097204D01*
X109260000Y-80097204D01*
X109249500Y-80199983D01*
X109249500Y-81800001D01*
X109249501Y-81800018D01*
X109260000Y-81902796D01*
X109260001Y-81902799D01*
X109315185Y-82069331D01*
X109315186Y-82069334D01*
X109407288Y-82218656D01*
X109531344Y-82342712D01*
X109680666Y-82434814D01*
X109847203Y-82489999D01*
X109949991Y-82500500D01*
X111550008Y-82500499D01*
X111652797Y-82489999D01*
X111819334Y-82434814D01*
X111968656Y-82342712D01*
X112092712Y-82218656D01*
X112184814Y-82069334D01*
X112239999Y-81902797D01*
X112250500Y-81800009D01*
X112250499Y-80199992D01*
X112239999Y-80097203D01*
X112184814Y-79930666D01*
X112092712Y-79781344D01*
X111968656Y-79657288D01*
X111968655Y-79657287D01*
X111920342Y-79627487D01*
X111873618Y-79575539D01*
X111862397Y-79506576D01*
X111890241Y-79442494D01*
X111891381Y-79441249D01*
X111891348Y-79441221D01*
X111894511Y-79437516D01*
X111894511Y-79437515D01*
X111894517Y-79437510D01*
X112033343Y-79246433D01*
X112140568Y-79035992D01*
X112213553Y-78811368D01*
X112235760Y-78671158D01*
X112250500Y-78578097D01*
X112250500Y-78341902D01*
X112213553Y-78108631D01*
X112179689Y-78004412D01*
X112140568Y-77884008D01*
X112140566Y-77884005D01*
X112140566Y-77884003D01*
X112033342Y-77673566D01*
X111894517Y-77482490D01*
X111727510Y-77315483D01*
X111536433Y-77176657D01*
X111325996Y-77069433D01*
X111101368Y-76996446D01*
X110868097Y-76959500D01*
X110868092Y-76959500D01*
X110631908Y-76959500D01*
X110631903Y-76959500D01*
X110398631Y-76996446D01*
X110174003Y-77069433D01*
X109963566Y-77176657D01*
X109854550Y-77255862D01*
X109772490Y-77315483D01*
X109772488Y-77315485D01*
X109772487Y-77315485D01*
X109605485Y-77482487D01*
X109605485Y-77482488D01*
X109605483Y-77482490D01*
X109545862Y-77564550D01*
X109466657Y-77673566D01*
X109359433Y-77884003D01*
X109286446Y-78108631D01*
X109249500Y-78341902D01*
X104190071Y-78341902D01*
X104121789Y-78239711D01*
X104121786Y-78239707D01*
X104010292Y-78128213D01*
X104010288Y-78128210D01*
X103879185Y-78040609D01*
X103879172Y-78040602D01*
X103733501Y-77980264D01*
X103733489Y-77980261D01*
X103578845Y-77949500D01*
X103578842Y-77949500D01*
X103421158Y-77949500D01*
X103421155Y-77949500D01*
X103266510Y-77980261D01*
X103266498Y-77980264D01*
X103120827Y-78040602D01*
X103120814Y-78040609D01*
X102989711Y-78128210D01*
X102989707Y-78128213D01*
X102878213Y-78239707D01*
X102878210Y-78239711D01*
X102790609Y-78370814D01*
X102790602Y-78370827D01*
X102730264Y-78516498D01*
X102730261Y-78516510D01*
X102699500Y-78671153D01*
X89400500Y-78671153D01*
X89400500Y-78661306D01*
X89400499Y-78661304D01*
X89365896Y-78487341D01*
X89365893Y-78487332D01*
X89298016Y-78323459D01*
X89298009Y-78323446D01*
X89199464Y-78175965D01*
X89199461Y-78175961D01*
X89074038Y-78050538D01*
X89074034Y-78050535D01*
X88926553Y-77951990D01*
X88926540Y-77951983D01*
X88762667Y-77884106D01*
X88762658Y-77884103D01*
X88588694Y-77849500D01*
X88588691Y-77849500D01*
X88411309Y-77849500D01*
X88411306Y-77849500D01*
X88237341Y-77884103D01*
X88237332Y-77884106D01*
X88073459Y-77951983D01*
X88073446Y-77951990D01*
X87925965Y-78050535D01*
X87925961Y-78050538D01*
X87800538Y-78175961D01*
X87800535Y-78175965D01*
X87701990Y-78323446D01*
X87701983Y-78323459D01*
X87634106Y-78487332D01*
X87634103Y-78487341D01*
X87599500Y-78661304D01*
X75375500Y-78661304D01*
X75375500Y-76624500D01*
X75395185Y-76557461D01*
X75447989Y-76511706D01*
X75499500Y-76500500D01*
X114250500Y-76500500D01*
X114317539Y-76520185D01*
G37*
%TD.AperFunction*%
%TD*%
M02*
