M48
; DRILL file {KiCad 9.0.9-9.0.9~ubuntu24.04.1} date 2026-07-09T08:37:00+0300
; FORMAT={-:-/ absolute / inch / decimal}
; #@! TF.CreationDate,2026-07-09T08:37:00+03:00
; #@! TF.GenerationSoftware,Kicad,Pcbnew,9.0.9-9.0.9~ubuntu24.04.1
; #@! TF.FileFunction,Plated,1,4,PTH
FMAT,2
INCH
; #@! TA.AperFunction,Plated,PTH,ComponentDrill
T1C0.0079
; #@! TA.AperFunction,Plated,PTH,ViaDrill
T2C0.0118
; #@! TA.AperFunction,Plated,PTH,ViaDrill
T3C0.0157
; #@! TA.AperFunction,Plated,PTH,ComponentDrill
T4C0.0157
; #@! TA.AperFunction,Plated,PTH,ViaDrill
T5C0.0197
; #@! TA.AperFunction,Plated,PTH,ComponentDrill
T6C0.0197
; #@! TA.AperFunction,Plated,PTH,ViaDrill
T7C0.0236
; #@! TA.AperFunction,Plated,PTH,ComponentDrill
T8C0.0472
%
G90
G05
T1
X3.6669Y-3.2295
X3.6669Y-3.2886
X3.6965Y-3.2
X3.6965Y-3.2591
X3.6965Y-3.3181
X3.726Y-3.2295
X3.726Y-3.2886
X3.7555Y-3.2
X3.7555Y-3.2591
X3.7555Y-3.3181
X3.785Y-3.2295
X3.785Y-3.2886
T2
X2.9793Y-3.5039
X3.0198Y-3.571
X3.0217Y-3.6024
X3.1299Y-3.9469
X3.1398Y-4.1043
X3.1693Y-3.7992
X3.1791Y-4.0945
X3.2579Y-3.9567
X3.2599Y-3.5927
X3.2599Y-3.6976
X3.2874Y-3.9567
X3.3071Y-3.5138
X3.3268Y-3.5433
X3.3424Y-3.9358
X3.3465Y-3.5728
X3.3563Y-4.2815
X3.3563Y-4.7736
X3.3661Y-3.6024
X3.3661Y-3.9567
X3.376Y-3.6319
X3.3858Y-3.6811
X3.4154Y-3.9567
X3.4202Y-3.803
X3.4547Y-3.7873
X3.4843Y-4.2815
X3.5335Y-3.6319
X3.5433Y-3.9862
X3.563Y-3.8189
X3.5717Y-3.6307
X3.5925Y-3.3071
X3.6067Y-3.6264
X3.6417Y-3.6417
X3.6909Y-3.3661
X3.8878Y-4.1437
X3.9075Y-3.7008
X3.937Y-4.1437
X3.9567Y-4.2815
X3.9911Y-4.1486
X4.0551Y-3.8386
X4.0551Y-4.1535
X4.0551Y-4.3602
X4.0551Y-4.4685
X4.0748Y-3.1004
X4.0945Y-4.0354
X4.0945Y-4.5276
X4.1142Y-4.6358
X4.1437Y-4.0059
X4.1437Y-4.8228
X4.1535Y-3.9567
X4.1634Y-5.0787
X4.1732Y-3.1496
X4.1831Y-4.5276
X4.2028Y-5.128
X4.252Y-5.2559
X4.2717Y-4.9409
X4.2717Y-4.9902
X4.2913Y-5.2559
X4.3307Y-5.2559
X4.3406Y-4.9409
X4.3406Y-4.9902
X4.3701Y-5.2559
T3
X3.002Y-4.498
X3.002Y-4.5709
X3.002Y-4.6398
X3.002Y-4.7146
X3.002Y-4.7835
X3.002Y-4.843
X3.1004Y-4.498
X3.1004Y-4.5709
X3.1004Y-4.6398
X3.1004Y-4.7146
X3.1004Y-4.7835
X3.1004Y-4.843
X3.1988Y-4.498
X3.1988Y-4.5709
X3.1988Y-4.6398
X3.1988Y-4.7146
X3.1988Y-4.7835
X3.1988Y-4.843
X3.2972Y-4.498
X3.2972Y-4.5709
X3.2972Y-4.6398
X3.2972Y-4.7146
X3.2972Y-4.7835
X3.2972Y-4.843
T4
X4.2835Y-5.0467
X4.2835Y-5.0978
X4.2835Y-5.149
X4.2835Y-5.2002
X4.3346Y-5.0467
X4.3346Y-5.0978
X4.3346Y-5.149
X4.3346Y-5.2002
T5
X3.3858Y-5.0
X3.3858Y-5.2067
X3.4843Y-3.1004
T6
X3.002Y-3.6614
X3.002Y-3.7008
X3.002Y-3.7402
T7
X3.0217Y-4.3701
X3.0315Y-4.1043
X3.1693Y-4.3799
X3.2283Y-4.1831
X3.2874Y-4.124
X3.4459Y-4.4882
X3.5738Y-4.4882
X3.5837Y-4.8524
T8
X3.0906Y-3.248
X3.0906Y-3.348
X3.6087Y-5.1774
X3.7087Y-5.1774
X4.3602Y-3.089
X4.3602Y-3.189
X4.3602Y-3.3252
X4.3602Y-3.4252
X4.3602Y-4.2701
X4.3602Y-4.3701
X4.3602Y-4.7441
X4.3602Y-4.8441
X4.361Y-3.5614
X4.361Y-3.6614
X4.361Y-3.7976
X4.361Y-3.8976
X4.361Y-4.0339
X4.361Y-4.1339
X4.361Y-4.5063
X4.361Y-4.6063
M30
